<svg width="21" height="21" viewBox="0 0 21 21" fill="none" xmlns="http://www.w3.org/2000/svg">
<path fill-rule="evenodd" clip-rule="evenodd" d="M3.15965 1.01147C2.52977 0.381593 1.50854 0.381593 0.878658 1.01147C0.248781 1.64135 0.248781 2.66258 0.878658 3.29246L8.17891 10.5927L0.985956 17.7857C0.356078 18.4155 0.356078 19.4368 0.985956 20.0667C1.61583 20.6965 2.63707 20.6965 3.26694 20.0667L10.4599 12.8737L17.6529 20.0667C18.2827 20.6965 19.304 20.6965 19.9338 20.0667C20.5637 19.4368 20.5637 18.4155 19.9338 17.7857L12.7409 10.5927L20.0411 3.29246C20.671 2.66258 20.671 1.64135 20.0411 1.01147C19.4113 0.381593 18.39 0.381593 17.7601 1.01147L10.4599 8.31172L3.15965 1.01147Z" fill="#FF0000"/>
</svg>
