<svg width="36" height="34" viewBox="0 0 36 34" fill="none" xmlns="http://www.w3.org/2000/svg">
<path d="M12.2708 0.162079C11.5875 0.35532 10.994 0.824619 10.5247 1.54237C10.2625 1.94265 9.80697 3.01238 9.4964 3.92337C9.41359 4.17183 9.26175 4.5238 9.15823 4.71704C8.90978 5.16564 8.72344 5.22085 6.97047 5.30367C6.1423 5.33817 5.42455 5.41409 5.17609 5.4762C4.11327 5.75226 3.43002 6.26987 3.05735 7.07044C2.88481 7.43621 2.8365 7.64326 2.80889 8.14706C2.76748 8.88552 2.8503 9.41693 3.21608 10.6937C3.36101 11.2044 3.51284 11.8186 3.54045 12.0533L3.60256 12.4743L3.25059 12.8124C3.05735 12.9988 2.56044 13.406 2.15325 13.7234C1.19395 14.4619 0.517609 15.1865 0.227748 15.7801C0.00690146 16.2218 0 16.277 0 17.0361C0 17.7953 0.0138029 17.8505 0.227748 18.2922C0.524511 18.8995 1.20775 19.6173 2.25678 20.4386C2.72608 20.7974 3.20918 21.2046 3.34031 21.3426C3.56805 21.5773 3.57495 21.5911 3.53355 22.019C3.50594 22.2605 3.38171 22.8127 3.25059 23.2475C2.87791 24.5242 2.77439 25.1246 2.80889 25.8769C2.8365 26.4359 2.87791 26.6154 3.05735 26.9949C3.3196 27.5678 3.74749 27.9957 4.32031 28.2717C5.01736 28.6168 5.47286 28.6996 6.97047 28.7686C8.26795 28.8307 8.74415 28.8928 8.93049 29.0033C9.04781 29.0792 9.33767 29.6796 9.57232 30.3421C10.3108 32.4609 10.8629 33.2753 11.8705 33.7446C12.678 34.1241 13.5545 34.0827 14.569 33.6065C14.8036 33.4961 15.4179 33.1234 15.9286 32.7784C16.4462 32.4264 17.0397 32.0675 17.2467 31.9709L17.6332 31.7984L18.0059 31.964C18.2129 32.0606 18.8065 32.4195 19.3241 32.7646C20.8424 33.7791 21.3186 33.9723 22.2917 33.9792C22.8438 33.9792 22.9611 33.9585 23.3683 33.7653C24.3967 33.2753 24.8798 32.592 25.6113 30.5699C25.9426 29.652 26.2117 29.0861 26.336 29.0033C26.5223 28.8928 26.9985 28.8307 28.296 28.7686C29.1241 28.7341 29.8419 28.6651 30.0904 28.5961C31.1532 28.32 31.8364 27.8024 32.2091 27.0018C32.3816 26.6361 32.4299 26.429 32.4576 25.9252C32.499 25.1868 32.4161 24.6553 32.0504 23.3786C31.9054 22.8679 31.7536 22.2536 31.726 22.019L31.6639 21.598L32.0159 21.2598C32.2091 21.0735 32.706 20.6663 33.1132 20.3488C34.0725 19.6035 34.7488 18.8788 35.0387 18.2922C35.2526 17.8505 35.2664 17.7884 35.2664 17.0361C35.2664 16.2839 35.2526 16.2218 35.0387 15.7801C34.7419 15.1727 34.0587 14.455 33.0097 13.6337C32.5404 13.2748 32.0573 12.8677 31.9261 12.7296C31.6984 12.495 31.6915 12.4812 31.7329 12.0533C31.7605 11.8117 31.8847 11.2596 32.0159 10.8248C32.3885 9.54806 32.4921 8.94763 32.4576 8.19537C32.4299 7.63635 32.3885 7.45692 32.2091 7.07734C31.8364 6.26987 31.1532 5.75226 30.0904 5.4762C29.8419 5.41409 29.1311 5.33817 28.3305 5.30367C26.9709 5.24155 26.5982 5.20014 26.3774 5.08282C26.2186 5 25.984 4.5169 25.6113 3.50238C25.1972 2.35674 24.9971 1.91505 24.6796 1.44575C23.8238 0.203487 22.5816 -0.217503 21.1668 0.265602C20.7113 0.424335 19.7382 0.983353 19.048 1.48716C18.8203 1.65279 18.4062 1.90125 18.1301 2.03928L17.6332 2.28773L17.1294 2.03928C16.8603 1.90125 16.4186 1.63209 16.1494 1.43885C15.4524 0.935043 14.6449 0.472645 14.1204 0.279404C13.5476 0.072361 12.7677 0.0171471 12.2708 0.162079ZM13.444 3.30914C13.6028 3.39196 14.1066 3.70943 14.5621 4.01309C15.9079 4.91718 16.8258 5.30367 17.6332 5.30367C18.4407 5.30367 19.3586 4.91718 20.7044 4.01309C21.4428 3.52309 22.0502 3.16421 22.1468 3.16421C22.2227 3.16421 22.5264 3.84056 22.8369 4.71704C23.5271 6.62184 24.0033 7.30509 25.004 7.81579C25.5078 8.07805 26.2738 8.20227 27.6748 8.27129C28.434 8.3127 29.1518 8.36791 29.2691 8.39552L29.483 8.44382L29.3657 8.99594C29.3036 9.29961 29.1311 9.94834 28.993 10.4452C28.7929 11.1285 28.7239 11.5219 28.6963 12.0878C28.6134 13.6682 29.0689 14.4136 31.0911 15.9871C31.5259 16.3253 31.9745 16.7049 32.0849 16.8222L32.2919 17.0361L32.0849 17.2501C31.9745 17.3674 31.4982 17.7677 31.022 18.1404C29.5382 19.3067 29.0137 19.9279 28.7791 20.7905C28.5858 21.4876 28.6618 22.4883 28.993 23.627C29.1311 24.117 29.3036 24.7727 29.3657 25.0763L29.483 25.6285L29.2691 25.6768C29.1518 25.7044 28.434 25.7596 27.6748 25.801C25.3283 25.9114 24.5002 26.2427 23.7479 27.3745C23.389 27.9197 23.2648 28.1958 22.83 29.3897C22.5195 30.2386 22.2227 30.9081 22.1468 30.9081C22.0502 30.9081 21.4428 30.5492 20.7044 30.0592C19.3586 29.1551 18.4407 28.7686 17.6332 28.7686C16.8258 28.7686 15.9079 29.1551 14.5621 30.0592C13.8236 30.5492 13.2163 30.9081 13.1197 30.9081C13.0438 30.9081 12.7401 30.2317 12.4295 29.3552C11.7394 27.4504 11.2632 26.7672 10.2625 26.2565C9.75866 25.9942 8.9926 25.87 7.5916 25.801C6.83244 25.7596 6.11469 25.7044 5.99737 25.6768L5.78342 25.6285L5.90075 25.0763C5.96286 24.7727 6.1354 24.117 6.27342 23.627C6.60469 22.4883 6.68061 21.4876 6.48737 20.7905C6.25272 19.9279 5.72821 19.3067 4.2444 18.1404C3.7682 17.7677 3.292 17.3674 3.18157 17.2501L2.97453 17.0361L3.18157 16.8222C3.292 16.7049 3.7682 16.3046 4.2444 15.9319C5.72821 14.7656 6.25272 14.1444 6.48737 13.2817C6.68061 12.5847 6.60469 11.584 6.27342 10.4452C6.1354 9.94834 5.96286 9.29961 5.90075 8.99594L5.78342 8.44382L5.99737 8.39552C6.11469 8.36791 6.83244 8.3127 7.5916 8.27129C10.6835 8.11946 11.415 7.57424 12.4571 4.64803C12.747 3.84056 13.0438 3.16421 13.1197 3.16421C13.1335 3.16421 13.2853 3.23323 13.444 3.30914Z" fill="url(#paint0_linear_3_97)"/>
<path d="M22.4986 11.9981C22.3261 12.0809 21.0355 13.3232 19.0134 15.3453L15.8042 18.5545L14.4239 17.1742C13.4577 16.2149 12.947 15.7594 12.7331 15.6628C11.7048 15.1935 10.5936 15.9319 10.5936 17.0845C10.5936 17.6366 10.8283 17.9333 12.8849 19.9831C14.3066 21.3979 14.9208 21.9638 15.1486 22.0673C15.542 22.2467 16.0596 22.2467 16.4254 22.0811C16.6117 21.9914 17.9644 20.6801 20.6145 18.03C24.7485 13.8753 24.6726 13.965 24.6726 13.3439C24.6726 12.771 24.3206 12.2189 23.8099 11.9912C23.4372 11.8186 22.8506 11.8255 22.4986 11.9981Z" fill="url(#paint1_linear_3_97)"/>
<defs>
<linearGradient id="paint0_linear_3_97" x1="17.6332" y1="34" x2="17.6332" y2="0.0703812" gradientUnits="userSpaceOnUse">
<stop stop-color="#3B6979"/>
<stop offset="1" stop-color="#75B0C3"/>
</linearGradient>
<linearGradient id="paint1_linear_3_97" x1="17.6332" y1="22.2037" x2="17.6332" y2="11.8652" gradientUnits="userSpaceOnUse">
<stop stop-color="#3B6979"/>
<stop offset="1" stop-color="#75B0C3"/>
</linearGradient>
</defs>
</svg>
