<svg width="29" height="34" viewBox="0 0 29 34" fill="none" xmlns="http://www.w3.org/2000/svg">
<path d="M12.399 0.159151C8.96074 0.897079 6.32528 3.4109 5.42517 6.80862C5.15757 7.83036 5.10891 9.80898 5.32786 10.8632C6.06579 14.3987 8.53095 16.9855 12.0503 17.9262C13.0153 18.1857 15.0101 18.2343 16.0481 18.0154C19.7215 17.245 22.43 14.5528 23.1922 10.9037C23.5166 9.34677 23.3625 7.40869 22.7786 5.8112C21.7407 2.9649 19.1782 0.79977 16.0886 0.151041C15.1074 -0.0516853 13.364 -0.0516853 12.399 0.159151ZM16.0886 2.91625C17.8889 3.47577 19.2998 4.70836 20.0864 6.40316C20.5081 7.30327 20.6703 8.05742 20.6703 9.10349C20.6703 11.5443 19.3161 13.7257 17.1428 14.8042C16.1535 15.2907 15.3426 15.4854 14.2884 15.4854C13.2423 15.4854 12.4882 15.3232 11.5881 14.9015C10.2176 14.269 9.20401 13.2878 8.53906 11.9579C8.05252 10.9686 7.8579 10.1577 7.8579 9.10349C7.8579 8.00065 8.02819 7.27894 8.50663 6.28152C9.18779 4.88676 10.0717 4.00286 11.4664 3.3217C12.9666 2.59188 14.5722 2.45403 16.0886 2.91625Z" fill="url(#paint0_linear_25_134)"/>
<path d="M4.66287 16.7828C4.20876 16.9288 3.06538 18.1857 2.23014 19.4751C1.33814 20.8536 0.600209 22.6538 0.235299 24.3649C-0.016083 25.5488 -0.0809558 27.7058 0.113663 28.3059C0.324499 28.9384 0.608318 29.3925 1.18406 30.0088C2.6437 31.5495 5.53055 32.7578 9.2283 33.3579C11.1502 33.6741 12.48 33.7552 15.0101 33.7065C17.8564 33.6498 19.3485 33.4633 21.6109 32.8794C25.333 31.9144 27.7008 30.3494 28.382 28.3951C28.5361 27.9815 28.5442 27.795 28.5117 26.5543C28.4793 25.5974 28.4144 24.9325 28.2928 24.3649C27.7495 21.8186 26.4926 19.3615 24.814 17.5775C24.1166 16.8315 23.8977 16.7018 23.3706 16.7018C22.6164 16.7018 22.0569 17.2451 22.0488 17.9749C22.0488 18.4776 22.1461 18.6642 22.7786 19.3453C24.6113 21.3158 25.7141 23.8702 25.8357 26.4084C25.8925 27.6166 25.852 27.7382 25.1546 28.3789C23.9463 29.4898 21.1892 30.4467 18.0753 30.8521C15.9102 31.136 12.5611 31.136 10.469 30.8602C7.33077 30.4386 4.60611 29.4898 3.40596 28.4113C2.74101 27.8031 2.66803 27.649 2.66803 26.7733C2.66803 24.3324 3.84385 21.4131 5.60353 19.4913C6.34956 18.6885 6.39822 18.5993 6.39822 18.0722C6.39822 17.5775 6.21982 17.2207 5.83058 16.9288C5.58731 16.7585 4.98723 16.6774 4.66287 16.7828Z" fill="url(#paint1_linear_25_134)"/>
<defs>
<linearGradient id="paint0_linear_25_134" x1="14.2745" y1="18.1539" x2="14.2745" y2="-5.72205e-06" gradientUnits="userSpaceOnUse">
<stop stop-color="#3B6A7A"/>
<stop offset="1" stop-color="#75B0C3"/>
</linearGradient>
<linearGradient id="paint1_linear_25_134" x1="14.2636" y1="33.7196" x2="14.2636" y2="16.7018" gradientUnits="userSpaceOnUse">
<stop stop-color="#3B6A7A"/>
<stop offset="1" stop-color="#75B0C3"/>
</linearGradient>
</defs>
</svg>
