<?xml version="1.0" encoding="utf-8"?>
<!-- Generator: Adobe Illustrator 23.0.3, SVG Export Plug-In . SVG Version: 6.00 Build 0)  -->
<svg version="1.1" id="圖層_1" xmlns="http://www.w3.org/2000/svg" xmlns:xlink="http://www.w3.org/1999/xlink" x="0px" y="0px"
	 viewBox="0 0 300 300" style="enable-background:new 0 0 300 300;" xml:space="preserve">
<title>Arow1-50</title>
<path d="M135.2,49.8c-4.4,4.4-4.4,11.6,0,16l76.2,76.2c4.4,4.4,4.4,11.6,0,16l-76.2,76.2c-4.4,4.4-4.4,11.6,0,16l20.5,20.5
	c4.4,4.4,11.6,4.4,16,0L284.5,158c4.4-4.4,4.4-11.6,0-16L171.8,29.3c-4.4-4.4-11.6-4.4-16,0L135.2,49.8z"/>
<path d="M36,270.7c4.4,4.4,11.6,4.4,16,0L164.8,158c4.4-4.4,4.4-11.6,0-16L52.1,29.3c-4.4-4.4-11.6-4.4-16,0L15.5,49.8
	c-4.4,4.4-4.4,11.6,0,16L91.7,142c4.4,4.4,4.4,11.6,0,16l-76.2,76.2c-4.4,4.4-4.4,11.6,0,16L36,270.7z"/>
</svg>
