<svg width="45" height="45" viewBox="0 0 45 45" fill="none" xmlns="http://www.w3.org/2000/svg"><g clip-path="url(#clip0_11442_69436)"><path d="M22.5 45C34.9264 45 45 34.9264 45 22.5C45 10.0736 34.9264 0 22.5 0C10.0736 0 0 10.0736 0 22.5C0 34.9264 10.0736 45 22.5 45Z" fill="#1E2D3B"></path><path d="M38.569 19.0409C37.0926 17.7393 35.042 15.7562 33.3811 14.3529L33.2786 14.2918C33.1145 14.1698 32.93 14.0681 32.7352 13.9969C28.7161 13.2851 10.015 9.95969 9.65618 10.0004C9.55365 10.0105 9.45112 10.0512 9.3691 10.1021L9.27682 10.1732C9.16404 10.2851 9.07177 10.4173 9.0205 10.5699L9 10.6309V10.9665V11.0173C11.1018 16.5901 19.4168 34.834 21.0573 39.1254C21.1598 39.4203 21.3443 39.9695 21.6929 40H21.775C21.9595 40 22.7592 38.9932 22.7592 38.9932C22.7592 38.9932 37.0413 22.5392 38.487 20.7901C38.6715 20.5765 38.8356 20.3426 38.9791 20.0986C39.0201 19.9053 38.9996 19.7121 38.9278 19.5291C38.8561 19.346 38.7228 19.1731 38.569 19.0409ZM26.4092 20.9629L32.4993 16.163L36.0776 19.2952L26.4092 20.9629ZM24.0408 20.6477L13.5522 12.4715L30.5308 15.4511L24.0408 20.6477ZM24.9841 22.7833L35.7187 21.1358L23.4462 35.2001L24.9841 22.7833ZM12.1271 13.2952L23.1693 22.1934L21.5699 35.2102L12.1271 13.2952Z" fill="#3E5F6B"></path></g><defs><clipPath id="clip0_11442_69436"><rect width="45" height="45" fill="white"></rect></clipPath></defs></svg>