<svg fill="none" xmlns="http://www.w3.org/2000/svg" viewBox="0 0 33 32"><path d="M20.96 8.03h-8.92v14.94h8.92V8.03Z" fill="#486F7D"></path><path d="M12.6 15.5a9.3 9.3 0 0 1 3.89-7.47A10.61 10.61 0 0 0 10.19 6C4.57 6 0 10.25 0 15.5S4.56 25 10.2 25c2.38 0 4.56-.77 6.29-2.03a9.27 9.27 0 0 1-3.88-7.47Z" fill="#3E5F6B"></path><path d="M33 15.5c0 5.25-4.56 9.5-10.2 9.5-2.38 0-4.56-.77-6.29-2.03a9.23 9.23 0 0 0 3.88-7.47 9.3 9.3 0 0 0-3.88-7.47A10.61 10.61 0 0 1 22.8 6C28.44 6 33 10.28 33 15.5Z" fill="#263A42"></path></svg>