<svg fill="none" xmlns="http://www.w3.org/2000/svg" viewBox="0 0 32 32"><path fill-rule="evenodd" clip-rule="evenodd" d="M22.99 13.19c.72 0 1.3-.56 1.3-1.24 0-.68-.58-1.24-1.3-1.24-.73 0-1.32.56-1.32 1.24 0 .68.6 1.24 1.32 1.24Zm-10.06.66c-.06.14-.49 1.28-1.52 2.45v-5.02l-2.75.5v9.12h2.75v-2.82c.8 1.13 1.19 2.82 1.19 2.82h3.3c-.34-1.28-1.76-3.63-1.76-3.63a11.1 11.1 0 0 0 1.93-3.42h-3.14Zm7.22-.1c-2.46.08-3.7 1.12-3.7 3.19v3.96h2.68v-3.23c0-1.24.17-1.77 1.73-1.82V13.8c-.26-.05-.7-.03-.7-.03Zm-16.1 1.1c-.34-.02-1.12-.06-1.12-.72 0-.8 1.13-.8 1.55-.8a9.8 9.8 0 0 1 3.09.65l.03.01v-2.18l-.04-.01c-.81-.27-1.75-.52-3.5-.52-3 0-4.06 1.64-4.06 3.05 0 .82.37 2.73 3.81 2.95.3.02 1.07.06 1.07.74 0 .56-.64.9-1.7.9-1.17 0-2.3-.28-3-.55v2.25c1.04.25 2.2.38 3.56.38C6.68 21 8 19.44 8 17.9c0-1.75-1.47-2.89-3.94-3.04Zm17.6 6.05h2.67v-7.04h-2.66v7.04Zm7.69-9.17v9.17H32v-9.62l-2.66.45Zm-3.9 0 2.67-.45v9.62h-2.66v-9.17Z" fill="#3E5F6B"></path></svg>