<svg fill="none" xmlns="http://www.w3.org/2000/svg" viewBox="0 0 32 32"><path d="M10.84 12.37c.24-.1.47-.19.7-.24A4.6 4.6 0 0 1 16 8.37a4.6 4.6 0 0 1 4.45 3.76c.68.13 1.23.42 1.67.84.02-.41 0-.81-.05-1.18A6.2 6.2 0 0 0 16 6a6.22 6.22 0 0 0-6.1 6.09c-.01.29-.02.6-.01.91.28-.24.59-.46.96-.63ZM19.87 13h-7.95c-.38 0-.77.09-1.18.27-.4.17-.72.38-.98.62-.49.6-.74 1.45-.76 2.59v6.17c.02 1.13.27 2 .76 2.58.26.25.58.46.98.63.4.18.8.27 1.18.27h7.95c2.05-.02 3.1-1.14 3.13-3.35v-6.43c-.03-2.22-1.08-3.33-3.13-3.35Z" fill="#3E5F6B"></path></svg>