<svg fill="none" xmlns="http://www.w3.org/2000/svg" viewBox="0 0 32 32"><circle cx="16" cy="16" r="16" fill="#1E2D3B"></circle><g clip-path="url(#a)"><path d="M21.51 16.3c.79.94 1.2 2.2 1.04 3.54l-.03.25a4.54 4.54 0 0 1-5 4.05l-.1-.02-.17 1.36-2.86-.35.16-1.36-1.18-.14-.16 1.35-2.86-.35.16-1.35-.67-.08-1.42-.18.34-2.94 1.42.17.42-3.54.35-2.95.37-3.19-1.42-.17.35-2.95 1.42.17.67.09.2-1.66 2.86.35-.2 1.66 1.18.14.2-1.66 2.86.35-.2 1.67a4.43 4.43 0 0 1 3.52 4.9l-.03.25a4.48 4.48 0 0 1-1.22 2.59Zm-1.85 3.44.03-.25c.1-.91-.52-1.73-1.4-1.84l-.38-.05-4.44-.54-.42 3.54.61.07 4.2.52c.89.1 1.7-.54 1.8-1.45Zm-5.47-8.82-.38 3.19 4.45.54c.79.1 1.51-.48 1.6-1.3l.03-.23c.1-.82-.47-1.56-1.26-1.65L14.8 11l-.61-.08" fill="#3E5F6B"></path></g><defs><clipPath id="a"><path fill="#fff" transform="rotate(6.97 -31.75 89.28)" d="M0 0h14.67v20H0z"></path></clipPath></defs></svg>