<svg width="48" height="48" viewBox="0 0 48 48" fill="none" xmlns="http://www.w3.org/2000/svg"><g clip-path="url(#clip0_11442_69404)"><path d="M9.83957 31.1878C10.0937 30.9337 10.4431 30.7855 10.8136 30.7855H44.4186C45.0327 30.7855 45.3397 31.5267 44.9056 31.9607L38.2672 38.5992C38.0131 38.8533 37.6637 39.0015 37.2932 39.0015H3.68819C3.07411 39.0015 2.76707 38.2604 3.20116 37.8263L9.83957 31.1878Z" fill="#3E5F6B"></path><path d="M9.83933 6.40233C10.104 6.14823 10.4534 6 10.8134 6H44.4184C45.0324 6 45.3395 6.74113 44.9054 7.17522L38.267 13.8136C38.0129 14.0677 37.6635 14.216 37.2929 14.216H3.68795C3.07387 14.216 2.76683 13.4748 3.20092 13.0407L9.83933 6.40233Z" fill="#3E5F6B"></path><path d="M38.2672 18.7157C38.0131 18.4616 37.6637 18.3134 37.2932 18.3134H3.68819C3.07411 18.3134 2.76707 19.0545 3.20116 19.4886L9.83957 26.127C10.0937 26.3811 10.4431 26.5293 10.8136 26.5293H44.4186C45.0327 26.5293 45.3397 25.7882 44.9056 25.3541L38.2672 18.7157Z" fill="#3E5F6B"></path></g><defs><clipPath id="clip0_11442_69404"><rect width="42.1068" height="33.0015" fill="white" transform="translate(3 6)"></rect></clipPath></defs></svg>