<svg width="45" height="45" viewBox="0 0 45 45" fill="none" xmlns="http://www.w3.org/2000/svg"><g clip-path="url(#clip0_11442_69424)"><path d="M22.5 45C34.9264 45 45 34.9264 45 22.5C45 10.0736 34.9264 0 22.5 0C10.0736 0 0 10.0736 0 22.5C0 34.9264 10.0736 45 22.5 45Z" fill="#1E2D3B"></path><path d="M32.7672 9.89639H36.9648L28.2258 18.9576C25.0614 22.239 19.9314 22.239 16.7742 18.9576L8.03337 9.89639H12.231L18.8676 16.7796C20.8746 18.855 24.12 18.855 26.1216 16.7796L32.7672 9.89639ZM12.1788 35.1036H7.97937L16.7742 25.9812C19.9386 22.6998 25.0686 22.6998 28.233 25.9812L37.0278 35.1036H32.8284L26.136 28.1592C24.129 26.0838 20.8836 26.0838 18.882 28.1592L12.1788 35.1036Z" fill="#3E5F6B"></path></g><defs><clipPath id="clip0_11442_69424"><rect width="45" height="45" fill="white"></rect></clipPath></defs></svg>