<svg xmlns="http://www.w3.org/2000/svg" width="21" height="22" viewBox="0 0 21 22" fill="none">
    <script xmlns="" id="eppiocemhmnlbhjplcgkofciiegomcon" />
    <script xmlns="" />
    <script xmlns="" />
    <path
        d="M9.59608 0.975444C10.1278 0.91184 11.2507 0.914436 11.7898 0.964195C13.199 1.09357 13.1921 2.31158 13.1731 3.4318L14.363 3.93111L14.43 3.90991C15.1042 3.15488 15.9449 2.2761 16.9816 3.08478C17.3537 3.37511 18.3571 4.37851 18.6474 4.75062C19.4812 5.81935 18.5297 6.63886 17.795 7.345L18.2801 8.53618C18.3532 8.62402 19.2419 8.56301 19.4436 8.58421C20.2038 8.66339 20.6983 9.18651 20.768 9.94241C20.8225 10.5339 20.8398 12.2516 20.5711 12.7298C20.0913 13.5852 19.1238 13.3931 18.3004 13.4446L17.8011 14.6344L17.8223 14.7015C18.5773 15.3756 19.4561 16.2163 18.6474 17.253C18.3571 17.6252 17.3537 18.6286 16.9816 18.9189C15.9128 19.7527 15.0933 18.8012 14.3872 18.0665L13.196 18.5515C13.1082 18.6247 13.1692 19.5134 13.148 19.715C13.0688 20.4744 12.5466 20.9698 11.7898 21.0395C11.1983 21.094 9.48055 21.1113 9.00243 20.8426C8.14701 20.3628 8.33913 19.3953 8.28764 18.5719L7.09775 18.0726L7.03069 18.0938C6.35656 18.8488 5.51586 19.7276 4.47914 18.9189C4.10703 18.6286 3.10364 17.6252 2.81331 17.253C1.97952 16.1843 2.931 15.3648 3.66569 14.6587L3.18066 13.4675C3.10753 13.3797 2.2188 13.4407 2.01717 13.4195C1.2578 13.3403 0.762379 12.818 0.692717 12.0613C0.638198 11.4698 0.620891 9.75202 0.889588 9.27391C1.36944 8.41849 2.33692 8.6106 3.16032 8.55911L3.65964 7.36923L3.63844 7.30216C2.8834 6.62804 2.00462 5.78733 2.81331 4.75062C3.10364 4.37851 4.10703 3.37511 4.47914 3.08478C5.54787 2.251 6.36738 3.20247 7.07352 3.93717L8.2647 3.45213C8.35513 3.37685 8.2898 2.52316 8.30797 2.32715C8.3759 1.58813 8.85056 1.06458 9.59564 0.975444H9.59608ZM10.2027 6.86082C8.59657 7.02438 7.1739 8.30599 6.72867 9.8338C5.68374 13.4216 9.56016 16.4759 12.8083 14.6154C16.6804 12.3979 14.7987 6.39309 10.2023 6.86039L10.2027 6.86082Z"
        fill="#4C9BB6" />
    <script xmlns="" />
</svg>