<svg xmlns="http://www.w3.org/2000/svg" width="46.012" height="51" viewBox="0 0 46.012 51">
  <g id="组_16" data-name="组 16" transform="translate(-2611.594 723.034)">
    <path id="联合_5" data-name="联合 5" d="M25.5,50.9a1.161,1.161,0,0,1-1.05-1.158c.039-1.323.094-2.649.235-3.963a4.438,4.438,0,0,1,1.356-2.65c2.552-2.57,6.627-6.61,9.2-9.163a1.335,1.335,0,0,1,2.108.019q2.116,2.083,4.2,4.2a1.339,1.339,0,0,1-.023,2.112c-2.708,2.621-6.938,6.714-9.671,9.308a5.3,5.3,0,0,1-3.7,1.363c-.337.006-.674,0-1.011,0V51C26.585,50.972,26.033,50.984,25.5,50.9ZM7.551,49.1A7.38,7.38,0,0,1,.009,41.18,15.316,15.316,0,0,1,12.693,26.572a17.833,17.833,0,0,1,2.89-.227c1.769-.035,3.538-.01,5.307-.01v.045c2.106,0,4.213-.04,6.317.011a14.368,14.368,0,0,1,6.878,2.036,1.292,1.292,0,0,1,.307,2.2c-.114.124-.237.24-.356.359-3.142,3.142-6.274,6.3-9.431,9.424a9.644,9.644,0,0,0-2.951,6.949c-.021,1.26-.51,1.743-1.783,1.744q-3.629,0-7.259.006Q10.082,49.108,7.551,49.1Zm35.19-12.383c-1.32-1.413-2.726-2.745-4.09-4.116-.8-.8-.768-1.452.108-2.166a4.135,4.135,0,0,1,2.763-.908,4.859,4.859,0,0,1,3.952,2.766,3.8,3.8,0,0,1-.151,4.124,1.687,1.687,0,0,1-1.336.985A1.777,1.777,0,0,1,42.741,36.716ZM20.829,23.475a11.759,11.759,0,1,1,.012,0Z" transform="translate(2611.594 -723.034)"/>
  </g>
</svg>
