
<svg xmlns="http://www.w3.org/2000/svg" width="22" height="22" viewBox="0 0 22 22">
  <g id="deposit.db33b9f6115b46b4" transform="translate(0 0)">
    <path id="联合_24" data-name="联合 24" d="M8.251,15.125A6.875,6.875,0,1,1,15.125,22,6.873,6.873,0,0,1,8.251,15.125Zm1.374,0a5.5,5.5,0,1,0,5.5-5.5A5.5,5.5,0,0,0,9.625,15.125Zm5.227,3.437v-.6c-1.161-.077-1.809-.715-1.874-1.534h.917a1.04,1.04,0,0,0,.957.774V15.448l-.34-.085c-.866-.2-1.386-.692-1.386-1.465a1.686,1.686,0,0,1,1.726-1.593v-.618h.516v.6a1.739,1.739,0,0,1,1.827,1.475h-.9a.966.966,0,0,0-.923-.732v1.65l.408.1c.961.225,1.5.662,1.5,1.511,0,.933-.7,1.576-1.906,1.66v.609Zm.516-1.348c.621-.059.975-.378.975-.845,0-.408-.283-.639-.9-.781l-.074-.017Zm-1.3-3.37c0,.361.275.6.782.718h0V13.049A.833.833,0,0,0,14.065,13.843ZM1.375,13.749A1.376,1.376,0,0,1,0,12.375v-11A1.377,1.377,0,0,1,1.375,0h19.25A1.375,1.375,0,0,1,22,1.375v9.188a8.265,8.265,0,0,0-1.375-1.587V4.125a2.748,2.748,0,0,1-2.749-2.749H4.125a2.749,2.749,0,0,1-2.75,2.749v5.5a2.75,2.75,0,0,1,2.75,2.751H7.344a8.358,8.358,0,0,0-.355,1.374ZM8.469,5.8a2.75,2.75,0,0,1,5.282,1.072l0,.113a8.23,8.23,0,0,0-4.3,2.155A2.749,2.749,0,0,1,8.469,5.8Z" fill="#fff" transform="translate(0 0)"/>
  </g>
</svg>