<svg xmlns="http://www.w3.org/2000/svg" width="24" height="24" viewBox="0 0 24 24">
  <path id="history.e191870b1b9630e6" d="M6.143,2.714V6.143H2.714V2.714ZM7.857,23.286V19.857a1.714,1.714,0,0,0-1.714-1.714H2.714A1.714,1.714,0,0,0,1,19.857v3.429A1.714,1.714,0,0,0,2.714,25H6.143A1.714,1.714,0,0,0,7.857,23.286Zm0-8.571V11.286A1.714,1.714,0,0,0,6.143,9.571H2.714A1.714,1.714,0,0,0,1,11.286v3.429a1.714,1.714,0,0,0,1.714,1.714H6.143A1.714,1.714,0,0,0,7.857,14.714Zm0-8.571V2.714A1.714,1.714,0,0,0,6.143,1H2.714A1.714,1.714,0,0,0,1,2.714V6.143A1.714,1.714,0,0,0,2.714,7.857H6.143A1.714,1.714,0,0,0,7.857,6.143Zm8.571,17.143V19.857a1.714,1.714,0,0,0-1.714-1.714H11.286a1.714,1.714,0,0,0-1.714,1.714v3.429A1.714,1.714,0,0,0,11.286,25h3.429A1.714,1.714,0,0,0,16.429,23.286Zm0-8.571V11.286a1.714,1.714,0,0,0-1.714-1.714H11.286a1.714,1.714,0,0,0-1.714,1.714v3.429a1.714,1.714,0,0,0,1.714,1.714h3.429A1.714,1.714,0,0,0,16.429,14.714Zm0-8.571V2.714A1.714,1.714,0,0,0,14.714,1H11.286A1.714,1.714,0,0,0,9.571,2.714V6.143a1.714,1.714,0,0,0,1.714,1.714h3.429A1.714,1.714,0,0,0,16.429,6.143ZM14.714,2.714V6.143H11.286V2.714Zm8.571,0V6.143H19.857V2.714ZM6.143,11.286v3.429H2.714V11.286Zm8.571,0v3.429H11.286V11.286Zm8.571,0H19.857v3.429h3.429ZM6.143,19.857v3.429H2.714V19.857Zm8.571,0v3.429H11.286V19.857Zm8.571,0v3.429H19.857V19.857ZM19.857,1a1.714,1.714,0,0,0-1.714,1.714V6.143a1.714,1.714,0,0,0,1.714,1.714h3.429A1.714,1.714,0,0,0,25,6.143V2.714A1.714,1.714,0,0,0,23.286,1ZM18.143,11.286a1.714,1.714,0,0,1,1.714-1.714h3.429A1.714,1.714,0,0,1,25,11.286v3.429a1.714,1.714,0,0,1-1.714,1.714H19.857a1.714,1.714,0,0,1-1.714-1.714Zm1.714,6.857a1.714,1.714,0,0,0-1.714,1.714v3.429A1.714,1.714,0,0,0,19.857,25h3.429A1.714,1.714,0,0,0,25,23.286V19.857a1.714,1.714,0,0,0-1.714-1.714Z" transform="translate(-1 -1)"/>
</svg>
