<svg xmlns="http://www.w3.org/2000/svg" width="24" height="24" viewBox="0 0 24 24">
  <path id="activityArea.341692e0338e1ca2" d="M4.5,3.75a3.75,3.75,0,0,1,7.5,0,3.75,3.75,0,0,1,7.5,0v.009a4.451,4.451,0,0,1-.057.741H22.5A1.5,1.5,0,0,1,24,6V9a1.5,1.5,0,0,1-1.5,1.5V21.75A2.25,2.25,0,0,1,20.25,24H3.75A2.25,2.25,0,0,1,1.5,21.75V10.5A1.5,1.5,0,0,1,0,9V6A1.5,1.5,0,0,1,1.5,4.5H4.557A4.452,4.452,0,0,1,4.5,3.759Zm1.6.75h4.4V3.75a2.25,2.25,0,1,0-4.5,0,2.607,2.607,0,0,0,.067.645A.783.783,0,0,0,6.1,4.5Zm7.4,0h4.4a.84.84,0,0,0,.034-.1A2.607,2.607,0,0,0,18,3.75a2.25,2.25,0,0,0-4.5,0ZM1.5,6V9h9V6Zm12,0V9h9V6ZM21,10.5H13.5v12h6.75a.75.75,0,0,0,.75-.75Zm-10.5,12v-12H3V21.75a.75.75,0,0,0,.75.75Z"/>
</svg>
