<svg xmlns="http://www.w3.org/2000/svg" width="15" height="12" viewBox="0 0 15 12">
  <g id="logout.3247cfaf4575d706" transform="translate(-1 -2)">
    <path id="路径_428" data-name="路径 428" d="M6,3.5A.5.5,0,0,1,6.5,3h8a.5.5,0,0,1,.5.5v9a.5.5,0,0,1-.5.5h-8a.5.5,0,0,1-.5-.5v-2a.5.5,0,0,0-1,0v2A1.5,1.5,0,0,0,6.5,14h8A1.5,1.5,0,0,0,16,12.5v-9A1.5,1.5,0,0,0,14.5,2h-8A1.5,1.5,0,0,0,5,3.5v2a.5.5,0,0,0,1,0Z" fill-rule="evenodd"/>
    <path id="路径_429" data-name="路径 429" d="M11.854,8.354a.5.5,0,0,0,0-.708l-3-3a.5.5,0,1,0-.708.708L10.293,7.5H1.5a.5.5,0,0,0,0,1h8.793L8.146,10.646a.5.5,0,1,0,.708.708Z" fill-rule="evenodd"/>
  </g>
</svg>