<svg xmlns="http://www.w3.org/2000/svg" width="24" height="21.15" viewBox="0 0 24 21.15">
  <path id="announcement.2810b15e76621b3b" d="M19.5,3.25a2.25,2.25,0,0,1,4.5,0v16.5a2.25,2.25,0,0,1-4.5,0v-.321A25.5,25.5,0,0,0,9.132,16.3l.608,4.068A1.5,1.5,0,0,1,8.265,22.15H7.443a1.5,1.5,0,0,1-1.374-.9L3.294,16.017l-.3,0A3.021,3.021,0,0,1,0,13V10A3.03,3.03,0,0,1,2.988,6.98q1.863-.025,3.725-.113A29.609,29.609,0,0,0,19.5,3.57Zm1.5,0v16.5a.75.75,0,0,0,1.5,0V3.25a.75.75,0,0,0-1.5,0ZM19.5,5.275a31.471,31.471,0,0,1-12,3.05v6.349q.4.023.806.054A28.048,28.048,0,0,1,19.5,17.717ZM6,14.6V8.4q-1.494.055-2.988.078A1.53,1.53,0,0,0,1.5,10v3a1.523,1.523,0,0,0,1.509,1.514q1.5.017,2.991.084ZM5.014,16.06l2.413,4.556.015.036h.822l0-.021L7.6,16.181q-1.291-.078-2.583-.123Z" transform="translate(0 -1)"/>
</svg>
