<svg xmlns="http://www.w3.org/2000/svg" width="24" height="24" viewBox="0 0 24 24">
  <path id="usd-circle" d="M20.5,8.5a12,12,0,1,0,12,12A12.007,12.007,0,0,0,20.5,8.5Zm3.181,16.8a3.93,3.93,0,0,1-2.255,1.214v1.5a.3.3,0,0,1-.289.289H19.98a.3.3,0,0,1-.289-.289v-1.5a4.733,4.733,0,0,1-1.1-.289c-.347-.145-.636-.26-.9-.376a3.425,3.425,0,0,1-.636-.4c-.173-.145-.318-.26-.4-.318s-.145-.116-.145-.145a.307.307,0,0,1-.029-.347l.9-1.186a.175.175,0,0,1,.173-.087.328.328,0,0,1,.231.087l.029.029a4.8,4.8,0,0,0,2.111,1.1,5.162,5.162,0,0,0,.665.058,2.1,2.1,0,0,0,1.243-.376,1.21,1.21,0,0,0,.549-1.07.874.874,0,0,0-.145-.463,1.157,1.157,0,0,0-.289-.347,2.385,2.385,0,0,0-.52-.318c-.26-.116-.434-.231-.578-.289s-.376-.145-.694-.289a5.14,5.14,0,0,1-.52-.231,3.651,3.651,0,0,1-.52-.231c-.231-.116-.4-.2-.549-.26a3.467,3.467,0,0,1-.492-.318c-.173-.145-.347-.26-.463-.376s-.231-.26-.376-.434a2,2,0,0,1-.318-.492c-.058-.173-.116-.347-.173-.578a2.684,2.684,0,0,1-.087-.694,2.952,2.952,0,0,1,.867-2.111A3.95,3.95,0,0,1,19.748,14.6V12.982a.3.3,0,0,1,.289-.289h1.157a.3.3,0,0,1,.289.289v1.533a3.29,3.29,0,0,1,.954.2c.318.116.549.2.752.289a5.371,5.371,0,0,1,.549.318,1.125,1.125,0,0,1,.318.26.289.289,0,0,0,.145.116.315.315,0,0,1,.058.347l-.723,1.272a.214.214,0,0,1-.173.145.225.225,0,0,1-.231-.058.791.791,0,0,0-.145-.116c-.087-.058-.173-.116-.318-.231-.145-.087-.318-.173-.52-.289a3.569,3.569,0,0,0-.665-.231,3.532,3.532,0,0,0-.752-.087,2.222,2.222,0,0,0-1.359.376,1.159,1.159,0,0,0-.52.954,2.232,2.232,0,0,0,.058.434.516.516,0,0,0,.26.347c.145.116.26.2.347.289a2.176,2.176,0,0,0,.492.289c.231.116.4.173.52.231s.318.116.607.231q.477.173.694.26c.145.058.376.173.665.318a4.161,4.161,0,0,1,.665.376q.217.173.52.434a1.949,1.949,0,0,1,.463.549,2.866,2.866,0,0,1,.289.665,2.612,2.612,0,0,1,.116.81A3.139,3.139,0,0,1,23.681,25.3Z" transform="translate(-8.5 -8.5)"/>
</svg>
