<svg xmlns="http://www.w3.org/2000/svg" width="24" height="27.429" viewBox="0 0 24 27.429">
  <path id="联合_28" data-name="联合 28" d="M-4653.422-439.983a12.216,12.216,0,0,1-1.8-1.072,20.25,20.25,0,0,1-4.314-4.2,22.552,22.552,0,0,1-4.226-17.126,2.64,2.64,0,0,1,1.789-2.163q2.458-.807,4.949-1.491A23.349,23.349,0,0,1-4652-467a23.36,23.36,0,0,1,5.019.961c1.9.514,3.821,1.122,4.949,1.491a2.637,2.637,0,0,1,1.789,2.163,22.544,22.544,0,0,1-4.227,17.126,20.133,20.133,0,0,1-4.313,4.2,12.115,12.115,0,0,1-1.8,1.072,3.631,3.631,0,0,1-1.42.411A3.648,3.648,0,0,1-4653.422-439.983Zm-8-22.823a.824.824,0,0,0-.562.668,20.693,20.693,0,0,0,3.861,15.751,18.355,18.355,0,0,0,3.921,3.827,10.46,10.46,0,0,0,1.531.915,4.214,4.214,0,0,0,.5.2,1,1,0,0,0,.175.042,1.293,1.293,0,0,0,.171-.042,4.029,4.029,0,0,0,.5-.2,10.751,10.751,0,0,0,1.531-.915,18.355,18.355,0,0,0,3.921-3.827,20.69,20.69,0,0,0,3.861-15.751.825.825,0,0,0-.562-.668c-1.116-.365-3-.959-4.862-1.465a22.237,22.237,0,0,0-4.563-.9,22.2,22.2,0,0,0-4.563.9v0Q-4659.013-463.6-4661.427-462.806Zm8.751,13.807a.853.853,0,0,1-.66-.313.85.85,0,0,1-.179-.706l.658-3.411a2.572,2.572,0,0,1-1.649-3,2.569,2.569,0,0,1,2.795-1.977,2.569,2.569,0,0,1,2.282,2.553,2.574,2.574,0,0,1-1.714,2.426l.658,3.411a.852.852,0,0,1-.178.708.865.865,0,0,1-.663.311Z" transform="translate(4664 467)"/>
</svg>
