<svg xmlns="http://www.w3.org/2000/svg" width="24" height="24" viewBox="0 0 24 24">
  <path id="联合_27" data-name="联合 27" d="M3,24a3,3,0,0,1-3-3V3A3,3,0,0,1,3,0H21a3,3,0,0,1,3,3V21a3,3,0,0,1-3,3ZM1.5,5.786V21.215A1.405,1.405,0,0,0,3,22.5H21a1.405,1.405,0,0,0,1.5-1.285V5.786A1.406,1.406,0,0,0,21,4.5H3A1.406,1.406,0,0,0,1.5,5.786ZM12.75,18a1.5,1.5,0,1,1,1.5,1.5A1.5,1.5,0,0,1,12.75,18Zm-4.5,0a1.5,1.5,0,1,1,1.5,1.5A1.5,1.5,0,0,1,8.25,18Zm-4.5,0a1.5,1.5,0,1,1,1.5,1.5A1.5,1.5,0,0,1,3.749,18Zm13.5-4.5a1.5,1.5,0,1,1,1.5,1.5A1.5,1.5,0,0,1,17.251,13.5Zm-4.5,0a1.5,1.5,0,1,1,1.5,1.5A1.5,1.5,0,0,1,12.75,13.5Zm-4.5,0A1.5,1.5,0,1,1,9.75,15,1.5,1.5,0,0,1,8.25,13.5Zm-4.5,0a1.5,1.5,0,1,1,1.5,1.5A1.5,1.5,0,0,1,3.749,13.5ZM17.251,9a1.5,1.5,0,1,1,1.5,1.5A1.5,1.5,0,0,1,17.251,9Zm-4.5,0a1.5,1.5,0,1,1,1.5,1.5A1.5,1.5,0,0,1,12.75,9ZM8.25,9a1.5,1.5,0,1,1,1.5,1.5A1.5,1.5,0,0,1,8.25,9Z"/>
</svg>
