<svg xmlns="http://www.w3.org/2000/svg" width="24" height="21.399" viewBox="0 0 24 21.399">
  <path id="联合_3" data-name="联合 3" d="M15.112,21.393V15.2h2.844a2.9,2.9,0,0,1,1.841.5,1.8,1.8,0,0,1,.622,1.478,1.849,1.849,0,0,1-.622,1.485,2.556,2.556,0,0,1-1.721.533H16.843v2.2Zm1.721-3.417H17.6a1.317,1.317,0,0,0,.815-.2.732.732,0,0,0,.267-.622.7.7,0,0,0-.258-.606,1.374,1.374,0,0,0-.82-.195h-.763Zm-5.417,3.417V15.2h1.716v6.2Zm-5.821,0L3.454,15.2H5.246l1.468,4.513L8.208,15.2H9.919L7.691,21.393Zm-1.869-7.8L2.134,7.466A1.83,1.83,0,1,1,3.1,6.978L7.669,9.333,11.225,3.5a1.835,1.835,0,1,1,2.553-1.236A1.815,1.815,0,0,1,12.765,3.5L16.32,9.335l4.566-2.352A1.837,1.837,0,1,1,24,5.654h0a1.815,1.815,0,0,1-.65,1.4,1.835,1.835,0,0,1-1.5.4l-1.59,6.132a.212.212,0,0,1-.21.176H3.934a.209.209,0,0,1-.208-.179Z" transform="translate(-0.001 0.002)"/>
</svg>
