
<svg xmlns="http://www.w3.org/2000/svg" width="22" height="20.238" viewBox="0 0 22 20.238">
  <path id="withdraw.21e4e6f246268929" d="M16.687.343a2.063,2.063,0,0,1,2.563,2V4.02h.688A2.062,2.062,0,0,1,22,6.082V18.457a2.062,2.062,0,0,1-2.062,2.063H2.063A2.062,2.062,0,0,1,0,18.457V6.082A2.063,2.063,0,0,1,1.969,4.021ZM7.648,4.02H17.875V2.342a.687.687,0,0,0-.854-.666ZM2.063,5.395a.688.688,0,0,0-.687.688V18.457a.687.687,0,0,0,.688.688H19.938a.687.687,0,0,0,.688-.687V6.082a.687.687,0,0,0-.687-.687Z" transform="translate(0 -0.281)"/>
  <path id="withdraw.21e4e6f246268929" d="M16.687.343a2.063,2.063,0,0,1,2.563,2V4.02h.688A2.062,2.062,0,0,1,22,6.082V18.457a2.062,2.062,0,0,1-2.062,2.063H2.063A2.062,2.062,0,0,1,0,18.457V6.082A2.063,2.063,0,0,1,1.969,4.021ZM7.648,4.02H17.875V2.342a.687.687,0,0,0-.854-.666ZM2.063,5.395a.688.688,0,0,0-.687.688V18.457a.687.687,0,0,0,.688.688H19.938a.687.687,0,0,0,.688-.687V6.082a.687.687,0,0,0-.687-.687Z" fill="#fff" transform="translate(0 -0.281)"/>
</svg>
