<svg width="22" height="18" viewBox="0 0 22 18" fill="none" xmlns="http://www.w3.org/2000/svg">
<path d="M21.3577 7.58268H6.12513C5.7122 7.58268 5.52868 7.06299 5.80396 6.77953L10.2086 2.24409C10.4838 1.96063 10.4838 1.53543 10.2086 1.25197L9.19917 0.212598C8.92388 -0.0708661 8.51095 -0.0708661 8.23566 0.212598L0.206465 8.52756C-0.0688217 8.81102 -0.0688217 9.23622 0.206465 9.51968L8.23566 17.7874C8.51095 18.0709 8.92388 18.0709 9.19917 17.7874L10.1627 16.7953C10.438 16.5118 10.438 16.0866 10.1627 15.8032L5.75808 11.2677C5.48279 10.937 5.66632 10.4173 6.07925 10.4173H21.3118C21.6788 10.4173 22 10.1339 22 9.75591V8.33858C22 7.96063 21.7247 7.58268 21.3577 7.58268Z" fill="#357E9F"/>
</svg>
