<svg width="29" height="25" viewBox="0 0 29 25" fill="none" xmlns="http://www.w3.org/2000/svg">
<g clip-path="url(#clip0_810_10498)">
<path fill-rule="evenodd" clip-rule="evenodd" d="M7.04617 1.00009C5.36927 1.00009 4.00002 2.31982 4.00002 3.92964V20.905C4.00002 20.9106 3.99998 20.9137 4.00002 20.9195C4.00002 20.9191 4.00002 20.92 4.00002 20.9195V20.9246C4.00002 22.5237 5.36003 23.8293 7.02568 23.8293H21.4505C21.4533 23.8288 21.456 23.8284 21.4587 23.828C21.4764 23.8281 21.4941 23.8293 21.512 23.8293C24.8833 23.8293 27.6302 21.1922 27.6302 17.9557C27.6302 14.9473 25.2562 12.4575 22.2141 12.1215V2.74016C22.2141 1.78802 21.3932 1 20.4014 1H17.6189L7.04617 1.00009ZM17.6285 2.34291H20.4014C20.6425 2.34291 20.8153 2.5088 20.8153 2.74025V12.1203C17.7705 12.4539 15.3937 14.9456 15.3937 17.9558C15.3937 17.9756 15.3949 17.9951 15.3951 18.0148H7.02568C6.42776 18.0148 5.86912 18.1847 5.39879 18.4751V3.92963C5.39879 3.0408 6.12031 2.34421 7.04617 2.34421H17.6189C17.6221 2.34379 17.6253 2.34336 17.6285 2.34291ZM9.8806 4.66793C8.90592 4.66793 8.09935 5.44223 8.09935 6.37792V8.58361C8.09935 9.51931 8.90592 10.2936 9.8806 10.2936H16.3226C17.2973 10.2936 18.1038 9.51931 18.1038 8.58361V6.37792C18.1038 5.44223 17.2973 4.66793 16.3226 4.66793H9.8806ZM9.8806 6.01075H16.3226C16.5466 6.01075 16.7105 6.16294 16.7105 6.37792V8.58361C16.7105 8.79861 16.5466 8.95079 16.3226 8.95079H9.8806C9.65664 8.95079 9.49812 8.7986 9.49812 8.58361V6.37792C9.49812 6.16295 9.65665 6.01075 9.8806 6.01075ZM21.512 13.4264C24.1273 13.4264 26.2356 15.4451 26.2356 17.9558C26.2356 20.4666 24.1273 22.4852 21.512 22.4852C18.8966 22.4852 16.7925 20.4666 16.7925 17.9558C16.7925 15.4451 18.8966 13.4264 21.512 13.4264ZM21.5106 15.0053C21.3056 15.0056 21.109 15.0839 20.9638 15.223C20.8187 15.3621 20.7368 15.5506 20.7361 15.7475C20.7357 15.8454 20.7555 15.9425 20.7942 16.0331C20.833 16.1236 20.89 16.206 20.9619 16.2754C21.0338 16.3449 21.1193 16.4 21.2135 16.4377C21.3076 16.4753 21.4086 16.4948 21.5106 16.495C21.613 16.4953 21.7144 16.4762 21.809 16.4388C21.9036 16.4014 21.9896 16.3463 22.062 16.2768C22.1344 16.2074 22.1917 16.1248 22.2307 16.034C22.2697 15.9431 22.2896 15.8458 22.2892 15.7475C22.2889 15.6497 22.2685 15.5529 22.2291 15.4627C22.1898 15.3724 22.1324 15.2905 22.0601 15.2216C21.9878 15.1527 21.902 15.0981 21.8078 15.061C21.7135 15.0239 21.6125 15.0049 21.5106 15.0053ZM21.512 16.8504C21.4201 16.8507 21.3293 16.8684 21.2446 16.9025C21.1598 16.9365 21.0829 16.9863 21.0182 17.0489C20.9536 17.1115 20.9023 17.1857 20.8675 17.2673C20.8327 17.3488 20.815 17.4362 20.8153 17.5244V20.2363C20.8161 20.4134 20.8897 20.5831 21.0202 20.7084C21.1507 20.8337 21.3274 20.9044 21.512 20.905C21.6038 20.9054 21.6948 20.8884 21.7798 20.8549C21.8648 20.8215 21.9421 20.7724 22.0073 20.7103C22.0725 20.6481 22.1243 20.5743 22.1598 20.493C22.1953 20.4117 22.2137 20.3244 22.2141 20.2363V17.5244C22.2145 17.4358 22.1966 17.348 22.1614 17.266C22.1262 17.1841 22.0745 17.1097 22.0093 17.047C21.944 16.9843 21.8665 16.9347 21.7811 16.901C21.6958 16.8672 21.6043 16.85 21.512 16.8504ZM7.02568 19.359H15.5713C15.8907 20.6032 16.6239 21.6932 17.623 22.4852H7.02568C6.11075 22.4852 5.39879 21.803 5.39879 20.9247C5.39882 20.9212 5.39882 20.9178 5.39879 20.9143C5.39877 20.9115 5.39879 20.9082 5.39879 20.9052C5.40936 20.0364 6.11766 19.359 7.02568 19.359Z" fill="white"/>
<path d="M4.00002 20.9195C3.99998 20.9137 4.00002 20.9106 4.00002 20.905V3.92964C4.00002 2.31982 5.36927 1.00009 7.04617 1.00009L17.6189 1H20.4014C21.3932 1 22.2141 1.78802 22.2141 2.74016V12.1215C25.2562 12.4575 27.6302 14.9473 27.6302 17.9557C27.6302 21.1922 24.8833 23.8293 21.512 23.8293C21.4941 23.8293 21.4764 23.8281 21.4587 23.828C21.456 23.8284 21.4533 23.8288 21.4505 23.8293H7.02568C5.36003 23.8293 4.00002 22.5237 4.00002 20.9246V20.9195ZM4.00002 20.9195C4.00002 20.92 4.00002 20.9191 4.00002 20.9195ZM17.6285 2.34291H20.4014C20.6425 2.34291 20.8153 2.5088 20.8153 2.74025V12.1203C17.7705 12.4539 15.3937 14.9456 15.3937 17.9558C15.3937 17.9756 15.3949 17.9951 15.3951 18.0148H7.02568C6.42776 18.0148 5.86912 18.1847 5.39879 18.4751V3.92963C5.39879 3.0408 6.12031 2.34421 7.04617 2.34421H17.6189C17.6221 2.34379 17.6253 2.34336 17.6285 2.34291ZM9.8806 4.66793C8.90592 4.66793 8.09935 5.44223 8.09935 6.37792V8.58361C8.09935 9.51931 8.90592 10.2936 9.8806 10.2936H16.3226C17.2973 10.2936 18.1038 9.51931 18.1038 8.58361V6.37792C18.1038 5.44223 17.2973 4.66793 16.3226 4.66793H9.8806ZM9.8806 6.01075H16.3226C16.5466 6.01075 16.7105 6.16294 16.7105 6.37792V8.58361C16.7105 8.79861 16.5466 8.95079 16.3226 8.95079H9.8806C9.65664 8.95079 9.49812 8.7986 9.49812 8.58361V6.37792C9.49812 6.16295 9.65665 6.01075 9.8806 6.01075ZM21.512 13.4264C24.1273 13.4264 26.2356 15.4451 26.2356 17.9558C26.2356 20.4666 24.1273 22.4852 21.512 22.4852C18.8966 22.4852 16.7925 20.4666 16.7925 17.9558C16.7925 15.4451 18.8966 13.4264 21.512 13.4264ZM21.5106 15.0053C21.3056 15.0056 21.109 15.0839 20.9638 15.223C20.8187 15.3621 20.7368 15.5506 20.7361 15.7475C20.7357 15.8454 20.7555 15.9425 20.7942 16.0331C20.833 16.1236 20.89 16.206 20.9619 16.2754C21.0338 16.3449 21.1193 16.4 21.2135 16.4377C21.3076 16.4753 21.4086 16.4948 21.5106 16.495C21.613 16.4953 21.7144 16.4762 21.809 16.4388C21.9036 16.4014 21.9896 16.3463 22.062 16.2768C22.1344 16.2074 22.1917 16.1248 22.2307 16.034C22.2697 15.9431 22.2896 15.8458 22.2892 15.7475C22.2889 15.6497 22.2685 15.5529 22.2291 15.4627C22.1898 15.3724 22.1324 15.2905 22.0601 15.2216C21.9878 15.1527 21.902 15.0981 21.8078 15.061C21.7135 15.0239 21.6125 15.0049 21.5106 15.0053ZM21.512 16.8504C21.4201 16.8507 21.3293 16.8684 21.2446 16.9025C21.1598 16.9365 21.0829 16.9863 21.0182 17.0489C20.9536 17.1115 20.9023 17.1857 20.8675 17.2673C20.8327 17.3488 20.815 17.4362 20.8153 17.5244V20.2363C20.8161 20.4134 20.8897 20.5831 21.0202 20.7084C21.1507 20.8337 21.3274 20.9044 21.512 20.905C21.6038 20.9054 21.6948 20.8884 21.7798 20.8549C21.8648 20.8215 21.9421 20.7724 22.0073 20.7103C22.0725 20.6481 22.1243 20.5743 22.1598 20.493C22.1953 20.4117 22.2137 20.3244 22.2141 20.2363V17.5244C22.2145 17.4358 22.1966 17.348 22.1614 17.266C22.1262 17.1841 22.0745 17.1097 22.0093 17.047C21.944 16.9843 21.8665 16.9347 21.7811 16.901C21.6958 16.8672 21.6043 16.85 21.512 16.8504ZM7.02568 19.359H15.5713C15.8907 20.6032 16.6239 21.6932 17.623 22.4852H7.02568C6.11075 22.4852 5.39879 21.803 5.39879 20.9247C5.39882 20.9212 5.39882 20.9178 5.39879 20.9143C5.39877 20.9115 5.39879 20.9082 5.39879 20.9052C5.40936 20.0364 6.11766 19.359 7.02568 19.359Z" stroke="white" stroke-width="0.6"/>
</g>
<defs>
<clipPath id="clip0_810_10498">
<rect width="29" height="24" fill="white" transform="translate(0 0.5)"/>
</clipPath>
</defs>
</svg>
