<svg width="30" height="28" viewBox="0 0 30 28" fill="none" xmlns="http://www.w3.org/2000/svg">
<path d="M6.78209 7.2823L1.30213 12.7623C1.06567 12.9926 0.896783 13.2843 0.819975 13.6068C0.675639 14.1872 0.846078 14.7998 1.26679 15.2221L6.76995 20.7253C6.8283 20.7836 6.90661 20.8174 6.98799 20.8174C7.0709 20.8174 7.14921 20.7836 7.20756 20.7253L13.7166 14.2162C13.775 14.1594 13.8072 14.0811 13.8072 13.9997C13.8072 13.9183 13.775 13.84 13.7166 13.7832L7.21857 7.282C7.16175 7.22365 7.08344 7.19141 7.00053 7.19141C6.91915 7.19141 6.84084 7.22365 6.78249 7.282L6.78209 7.2823ZM8.74751 15.9301C8.31142 16.0499 7.84617 15.9716 7.47459 15.7136L7.69416 16.8622C7.70491 16.8959 7.6788 16.9297 7.64349 16.9282H6.51491C6.47959 16.9297 6.45195 16.8959 6.45963 16.8622L6.68381 15.7259C6.30301 16.0038 5.81321 16.0914 5.35869 15.9593C4.90574 15.8288 4.53723 15.4956 4.36215 15.0564C4.1871 14.6173 4.22549 14.1229 4.46503 13.7159C4.70456 13.3075 5.11915 13.0342 5.58747 12.9743C5.45696 12.4553 5.632 11.9087 6.03889 11.5632C6.27382 11.3022 6.59475 11.1364 6.94329 11.0949C7.37014 11.0596 7.79396 11.2024 8.1087 11.4926C8.42501 11.7828 8.60466 12.1912 8.60619 12.6196C8.60466 12.7394 8.5893 12.8592 8.55859 12.9743C9.27105 13.0834 9.80848 13.6745 9.85301 14.3931C9.896 15.1117 9.4323 15.7628 8.7398 15.9578L8.74751 15.9301Z" fill="white"/>
<path d="M22.3211 7.2835L15.823 13.7847C15.7647 13.8415 15.7324 13.9198 15.7324 14.0012C15.7324 14.0826 15.7647 14.1609 15.823 14.2177L22.3211 20.7189C22.3779 20.7772 22.4562 20.8095 22.5391 20.8095C22.6205 20.8095 22.6988 20.7772 22.7571 20.7189L28.2371 15.2389C28.4705 15.0147 28.6379 14.7291 28.7193 14.4144C28.8636 13.8339 28.6932 13.2213 28.2724 12.799L22.7693 7.29587C22.7125 7.23138 22.6326 7.19453 22.5466 7.19146C22.4622 7.18992 22.3809 7.22362 22.3211 7.2835ZM25.1356 15.3971C24.8423 15.8255 24.3571 16.0804 23.8381 16.0804C23.5464 16.0789 23.2608 15.9975 23.012 15.8455L23.1855 16.7729C23.1932 16.8113 23.1625 16.8482 23.1226 16.8466H22.1951C22.1552 16.8482 22.1245 16.8113 22.1322 16.7729L22.3057 15.8455C21.627 16.2493 20.7564 16.0881 20.2666 15.4693C19.7783 14.852 19.8228 13.9661 20.371 13.3995L20.4416 13.3319L22.5913 11.1822C22.6097 11.1638 22.6343 11.153 22.6604 11.153C22.6865 11.153 22.7111 11.1638 22.7295 11.1822L24.9145 13.3672V13.3687C25.4319 13.92 25.521 14.7476 25.1356 15.3971Z" fill="white"/>
<path d="M21.4868 6.01256L16.0069 0.532599C15.7827 0.299206 15.4971 0.131851 15.1823 0.0504436C14.6019 -0.0938924 13.9892 0.0765469 13.567 0.497261L8.06381 6.00042C8.00546 6.05877 7.97168 6.13708 7.97168 6.21846C7.97168 6.30137 8.00546 6.37968 8.06381 6.43803L14.5528 12.9471C14.6096 13.0054 14.6879 13.0377 14.7693 13.0377C14.8507 13.0377 14.929 13.0054 14.9858 12.9471L21.487 6.44903C21.5454 6.39222 21.5776 6.31391 21.5776 6.23099C21.5776 6.14961 21.5454 6.0713 21.487 6.01296L21.4868 6.01256ZM12.4459 6.57455C12.383 6.45785 12.383 6.31813 12.4459 6.20143L14.6079 2.45948C14.6401 2.40421 14.6985 2.37042 14.7614 2.37042C14.8244 2.37042 14.8827 2.40421 14.915 2.45948L17.0769 6.20143C17.1399 6.31813 17.1399 6.45785 17.0769 6.57455L14.915 10.3165C14.8827 10.3718 14.8244 10.4056 14.7614 10.4056C14.6985 10.4056 14.6401 10.3718 14.6079 10.3165L12.4459 6.57455Z" fill="white"/>
<path d="M8.05134 21.986L13.5313 27.466C13.7616 27.7025 14.0534 27.8714 14.3758 27.9482C14.9562 28.0925 15.5689 27.9221 15.9911 27.5014L21.4943 21.9982C21.5526 21.9398 21.5864 21.8615 21.5864 21.7802C21.5864 21.6972 21.5526 21.6189 21.4943 21.5606L14.9852 15.0515C14.9284 14.9932 14.8501 14.9609 14.7687 14.9609C14.6874 14.9609 14.609 14.9932 14.5522 15.0515L8.05104 21.5496C7.99269 21.6064 7.96045 21.6847 7.96045 21.7676C7.96045 21.849 7.9927 21.9273 8.05104 21.9857L8.05134 21.986ZM17.0246 19.7765C17.4499 20.0636 17.7233 20.5258 17.7724 21.0356C17.8215 21.5469 17.6388 22.052 17.2764 22.4144L17.1981 22.4897L14.8396 24.8482C14.8197 24.8681 14.792 24.8804 14.7629 24.8804C14.7337 24.8804 14.706 24.8681 14.6861 24.8482L12.3276 22.4897L12.2923 22.4497C11.7226 21.8479 11.6228 20.9404 12.0481 20.2295C12.3383 19.8057 12.799 19.5339 13.3103 19.4863C13.8201 19.4387 14.3237 19.6199 14.6861 19.9807L14.7613 20.059V20.0606C15.3463 19.4279 16.3014 19.3082 17.0246 19.7765Z" fill="white"/>
</svg>
