<svg width="32" height="28" viewBox="0 0 32 28" fill="none" xmlns="http://www.w3.org/2000/svg">
<g clip-path="url(#clip0_813_12316)">
<path d="M14.71 3.57707L11.8401 0.572363C11.4988 0.214907 11.0387 0.0118182 10.5445 0.000532067C10.0494 -0.0111858 9.58151 0.170996 9.22417 0.512356L0.572265 8.77634C0.214871 9.1177 0.0117819 9.57778 0.000495734 10.0719C-0.0107904 10.566 0.17096 11.0349 0.512319 11.3922L6.10556 17.2481V7.27744C6.10556 5.23706 7.76555 3.57707 9.80593 3.57707H14.71Z" fill="white"/>
<path d="M30.1808 3.79147L18.5834 0.850596C18.1043 0.728916 17.6066 0.801382 17.182 1.05424C16.7573 1.3071 16.4566 1.71019 16.3351 2.18915L15.9829 3.5782H21.7704C23.8108 3.5782 25.4708 5.23819 25.4708 7.27858V25.6883C25.6667 25.6466 25.8566 25.573 26.0337 25.4675C26.4583 25.2147 26.7591 24.8116 26.8806 24.3326L31.5194 6.03969C31.7702 5.05077 31.1697 4.04223 30.1808 3.79147Z" fill="white"/>
<path d="M21.7698 5.42969H9.80527C8.78507 5.42969 7.95508 6.25968 7.95508 7.27988V26.1518C7.95508 27.172 8.78507 28.002 9.80527 28.002H21.7698C22.79 28.002 23.62 27.172 23.62 26.1518V7.27988C23.62 6.25968 22.79 5.42969 21.7698 5.42969ZM12.3339 8.88343C12.8448 8.88343 13.2589 9.29763 13.2589 9.80853C13.2589 10.3194 12.8448 10.7336 12.3339 10.7336C11.823 10.7336 11.4088 10.3194 11.4088 9.80853C11.4088 9.29763 11.823 8.88343 12.3339 8.88343ZM15.7875 21.0946C15.5669 21.0946 15.3464 21.0161 15.1707 20.859L12.4122 18.3914C12.406 18.3858 12.3999 18.3802 12.3938 18.3745C11.7016 17.7209 11.3687 16.7325 11.5031 15.7305C11.6309 14.7775 12.1737 13.9595 12.9551 13.5425C13.3347 13.3404 13.7357 13.2381 14.1476 13.2381C14.7725 13.2381 15.3436 13.4762 15.7875 13.875C16.2315 13.4762 16.8026 13.2381 17.4275 13.2381C17.8394 13.2381 18.2403 13.3403 18.6192 13.5421C19.4014 13.9595 19.9441 14.7774 20.072 15.7304C20.2063 16.7324 19.8734 17.7209 19.1813 18.3745C19.1752 18.3802 19.1691 18.3858 19.1629 18.3913L16.4043 20.859C16.2287 21.0161 16.0081 21.0946 15.7875 21.0946ZM19.2412 24.5482C18.7303 24.5482 18.3161 24.134 18.3161 23.6231C18.3161 23.1122 18.7303 22.698 19.2412 22.698C19.7521 22.698 20.1663 23.1122 20.1663 23.6231C20.1663 24.134 19.7521 24.5482 19.2412 24.5482Z" fill="white"/>
</g>
<defs>
<clipPath id="clip0_813_12316">
<rect width="31.5765" height="28" fill="white"/>
</clipPath>
</defs>
</svg>
