<svg width="32" height="28" viewBox="0 0 32 28" fill="none" xmlns="http://www.w3.org/2000/svg">
<path d="M24.802 0.417969C24.7781 0.41797 24.7538 0.422442 24.7295 0.43202C24.4356 0.585183 24.8014 1.29687 24.7369 1.39439C24.672 1.49187 24.0599 0.516595 23.7206 0.616209C23.6227 0.64856 23.9155 1.27756 23.8397 1.34261C23.7638 1.40774 23.2969 1.18014 23.1665 1.25606C23.0364 1.33193 22.8839 2.16647 23.3944 2.63267C23.9048 3.0988 24.9366 2.58902 24.9692 2.65486C25.0018 2.71985 23.6006 3.58754 22.7752 4.78006C21.9499 5.97258 19.9953 8.61808 18.931 9.13847C17.8666 9.65884 15.6948 10.3958 15.0866 10.8295C14.4785 11.2631 14.3914 11.1982 14.3262 11.0898C14.2612 10.9815 14.153 9.8969 13.7403 9.18137C13.3276 8.46584 12.9582 8.46573 12.9148 8.35733C12.8713 8.24897 11.742 4.45464 7.39803 4.17276C3.05402 3.89088 0.00792187 10.5804 0.622237 15.3639C1.23657 20.1474 2.4349 18.9513 2.46561 18.7059C2.49624 18.4605 1.63614 15.1489 2.00476 14.7196C2.52091 17.1879 4.72146 18.1664 3.66468 15.9076C3.20393 14.957 2.68047 13.6466 3.35622 10.9175C4.03202 8.18841 5.32233 7.29926 5.44518 7.39126C5.56828 7.48316 4.70799 9.99786 5.44518 10.8258C6.18241 11.6537 6.33544 11.8681 6.30473 12.2667C6.19222 13.3703 6.4438 13.2158 7.22641 12.2667C7.24073 14.4812 6.90117 14.9213 8.36335 14.1989C8.37481 17.494 9.77942 14.4685 10.9435 16.253C11.2814 16.805 11.4124 18.0128 11.5966 18.0128C11.781 18.0128 12.1412 17.1731 12.5405 17.3264C12.9398 17.4798 14.3529 18.8592 15.5201 18.9819C16.6874 19.1045 17.4552 19.1663 17.4552 19.3502C17.4552 19.5343 17.2097 19.9938 17.3324 20.3311C17.405 20.5304 17.4809 21.8282 17.5277 22.9526C14.4664 22.9842 11.5961 23.1978 9.4988 23.55C7.40152 23.9022 6.23426 24.3667 6.23371 24.8493C6.2337 25.0989 6.54629 25.3461 7.15363 25.5768C7.76097 25.8074 8.65118 26.017 9.77342 26.1935C10.8957 26.3701 12.228 26.5101 13.6942 26.6056C15.1605 26.7012 16.7321 26.7503 18.3192 26.7503C19.9063 26.7503 21.4778 26.7012 22.9441 26.6056C24.4104 26.5101 25.7427 26.3701 26.8649 26.1935C27.9872 26.017 28.8774 25.8074 29.4847 25.5768C30.0921 25.3461 30.4047 25.0989 30.4046 24.8493C30.4024 24.3842 29.3166 23.9355 27.3527 23.5879C25.3889 23.2403 22.6832 23.018 19.7476 22.963C19.2786 21.5306 19.2468 21.57 19.2823 21.4044C19.3284 21.1897 20.6491 18.461 22.7072 16.9891C24.7652 15.5172 25.4719 14.9958 25.902 13.9533C26.332 12.9107 26.0252 12.4198 26.1172 12.0825C26.2094 11.7452 26.8544 9.87512 26.8237 8.8019C26.7931 7.72862 26.0557 6.28707 26.24 6.13375C26.4243 5.98035 26.735 6.11417 26.9346 5.71655C27.1343 5.31794 26.9921 5.24117 27.0153 5.14919C27.0377 5.05729 27.2803 4.82348 27.2534 4.62029C27.2265 4.41714 27.0036 4.08312 27.0574 3.96046C27.1111 3.83779 28.184 3.81474 28.184 3.81474C28.184 3.81474 28.1174 3.42404 27.4983 3.26143C27.4983 3.26143 27.6615 2.68652 27.2705 2.11192C26.8796 1.53735 26.4344 1.08251 26.3584 1.09333C26.2824 1.10336 26.3037 1.58103 26.2386 1.5919C26.1736 1.60192 26.1117 0.820102 25.8044 0.898044C25.5508 1.05619 25.666 1.32169 25.5677 1.3759C25.4759 1.42689 25.1607 0.417956 24.802 0.417969ZM18.5455 21.8645C18.5883 21.9011 18.7634 22.3996 18.9516 22.9534C18.7507 22.9508 18.5495 22.9491 18.348 22.9482C18.4017 22.3232 18.487 21.8144 18.5455 21.8645Z" fill="white"/>
</svg>
