<svg width="35" height="28" viewBox="0 0 35 28" fill="none" xmlns="http://www.w3.org/2000/svg">
<path d="M16.7935 24.6145C15.7083 24.2147 14.7084 23.9224 13.7745 23.487C11.4336 22.3944 9.50204 20.7418 7.7389 18.88C7.60316 18.7361 7.47038 18.5878 7.32351 18.4565C6.93706 18.1108 6.56619 18.119 6.22869 18.5158C6.00617 18.7777 5.83037 19.0803 5.64271 19.3703C4.45961 21.1958 2.72392 22.1215 0.624759 22.4538C0.555776 22.4649 0.482343 22.4464 0.367371 22.4389C0.276136 20.0186 0.390366 17.6858 2.33227 15.9286C1.8798 15.1334 1.40953 14.3791 1.00973 13.5891C0.395558 12.3749 0.00836369 11.0901 0.000204426 9.71272C-0.00276258 9.23429 0.0202318 9.20091 0.501628 9.21129C1.7003 9.23651 2.91529 9.32626 3.86547 10.1363C4.43736 10.6236 4.86238 11.2867 5.33191 11.8875C5.58188 12.208 5.77177 12.5751 6.01432 12.9022C6.4171 13.4445 6.68858 13.4727 7.14772 12.9868C7.64766 12.4572 8.10755 11.8898 8.59191 11.3446C9.07627 10.8001 9.55693 10.2512 10.0635 9.72755C10.2742 9.51022 10.5494 9.35593 10.8275 9.14824C10.4085 8.36718 9.86995 7.65139 9.24984 6.99642C9.01248 6.74571 8.75065 6.51725 8.49252 6.28731C8.10606 5.94239 8.12832 5.70281 8.6149 5.50476C9.04809 5.32822 9.49611 5.1732 9.95154 5.06639C11.7065 4.6562 13.4608 4.2423 15.2269 3.88478C16.2898 3.66967 17.3698 3.77945 18.4357 3.94931C19.0462 4.04648 19.5505 4.33428 19.9348 4.8268C20.4592 5.49957 20.9799 6.17456 21.5184 6.83546C21.6697 7.02164 21.8581 7.19521 22.0643 7.31686C24.4009 8.69726 26.4778 10.361 27.9798 12.6634C28.4968 13.4556 28.9374 14.2834 29.0783 15.2343C29.2816 16.6073 28.7883 17.7667 27.8307 18.6924C26.5438 19.9363 25.2376 21.1743 23.8312 22.2772C22.9804 22.9441 22.1979 23.5901 21.5384 24.4817C20.247 26.2278 18.4275 27.3108 16.3388 27.9086C16.0257 27.9984 15.6779 28.011 15.35 27.9924C14.9554 27.9702 14.876 27.784 15.0919 27.451C15.347 27.0571 15.6445 26.6892 15.8833 26.2864C16.2141 25.7286 16.5064 25.1486 16.7942 24.6175L16.7935 24.6145ZM24.481 13.6262C23.8616 13.6321 23.3817 14.1143 23.3802 14.7292C23.3787 15.3352 23.8757 15.8381 24.4795 15.8418C25.1063 15.8463 25.601 15.3441 25.5929 14.7114C25.5854 14.0905 25.1033 13.6203 24.481 13.6262Z" fill="white"/>
<path d="M31.0452 18.8387C30.6432 19.5448 30.2463 20.2547 29.828 20.9512C29.7916 21.012 29.581 21.0372 29.5038 20.9912C29.2776 20.857 29.1055 20.9007 28.9438 21.0758C28.6768 21.3643 28.3756 21.6314 28.159 21.9548C27.8475 22.4199 27.9187 22.8968 28.2836 23.3211C28.5529 23.6348 29.0476 23.7498 29.506 23.4828C29.8762 23.2662 30.2671 22.9725 30.4755 22.6127C30.9621 21.7701 31.3486 20.8689 31.7632 19.9854C31.8018 19.9031 31.7751 19.7711 31.7395 19.6769C31.4813 19.0033 31.7484 18.4678 32.4285 18.2623C32.5591 18.223 32.7171 18.1073 32.766 17.9871C33.6109 15.9184 34.1286 13.774 34.0893 11.5302C34.0352 8.47122 33.0791 5.76753 30.7351 3.69211C28.7584 1.94232 26.4174 1.10859 23.7797 1.06335C21.6286 1.02626 19.5198 1.34892 17.4148 1.73018C14.9477 2.17746 12.4858 2.66256 10.0091 3.05124C8.08501 3.35313 6.14384 3.40951 4.22419 2.94814C2.85937 2.62028 1.66144 1.98683 0.67862 0.971369C0.601478 0.89126 0.528044 0.807442 0.454611 0.724366C0.283266 0.529285 0.183872 0.314177 0.413815 0.10797C0.643757 -0.0982364 0.844772 0.0204439 1.01834 0.217008C1.81647 1.12194 2.80003 1.73315 3.95123 2.08325C5.40654 2.52534 6.89672 2.56243 8.3958 2.45339C11.2642 2.2457 14.0576 1.57886 16.874 1.05296C19.1594 0.626455 21.4514 0.221459 23.7879 0.29415C27.6494 0.414314 30.8123 1.926 33.0093 5.17042C34.4832 7.34746 34.9609 9.81527 34.8333 12.4144C34.7324 14.4735 34.2206 16.4384 33.4611 18.3469C33.4099 18.4752 33.4262 18.6592 33.4766 18.7927C33.7036 19.3942 33.49 19.8972 32.8988 20.156C32.7683 20.2131 32.6325 20.3318 32.5702 20.4572C32.1949 21.2086 31.8492 21.9755 31.4754 22.7277C31.0704 23.5436 30.4881 24.18 29.5787 24.4352C28.8177 24.6488 28.1264 24.5324 27.5894 23.9063C27.0212 23.2447 26.855 22.4822 27.2697 21.7055C27.5137 21.2486 27.8861 20.8466 28.2562 20.4742C28.5395 20.1894 28.8956 19.9676 29.2427 19.7562C29.8109 19.4106 30.3984 19.0961 30.9777 18.7682L31.0444 18.8372L31.0452 18.8387Z" fill="white"/>
</svg>
