<svg width="28" height="28" viewBox="0 0 28 28" fill="none" xmlns="http://www.w3.org/2000/svg">
<path d="M17.0884 20.2314C16.4973 20.6615 15.9336 20.6905 15.5967 20.653C14.7392 20.5571 13.9699 19.9107 13.5388 18.9238C13.2495 18.2616 13.0956 17.3722 13.2692 16.4336C11.9066 17.163 10.1582 18.8192 10.1582 22.5161C10.1582 24.6346 11.8817 26.358 14.0001 26.358C16.1185 26.358 17.842 24.6346 17.842 22.5161C17.8421 21.6885 17.5734 20.8878 17.0884 20.2314Z" fill="white"/>
<path d="M25.4344 15.9003L25.3107 13.6939L23.9637 15.4458C23.8565 15.5853 23.6281 15.8319 23.3367 16.0568C23.4519 15.6752 23.5547 15.24 23.6227 14.7599C23.858 13.0974 23.7115 10.5458 21.6781 7.83096L20.8249 6.69182L20.2659 8.0006C19.6211 9.5103 18.5777 10.2677 17.608 9.93014C16.8614 9.67037 16.2547 8.81599 15.9433 7.58591C15.6529 6.43862 15.4842 4.41967 16.3297 1.31676L16.6883 0L15.357 0.299906C10.866 1.31162 7.8398 4.50083 6.60534 9.52277C6.08642 11.6338 5.98869 13.6338 6.00324 14.9865C4.94208 14.1286 4.41222 13.3759 4.39838 13.356L3.38759 11.871L2.92718 13.6097C2.67414 14.5654 2.5459 15.554 2.5459 16.5482C2.5459 22.8165 7.60755 27.9238 13.8581 27.9999C10.8992 27.9248 8.51541 25.4944 8.51541 22.5177C8.51541 18.6804 10.1639 16.636 11.5468 15.5966C13.0558 14.4625 14.5776 14.261 14.6417 14.253L16.541 14.015L15.4043 15.5552C14.6881 16.5257 14.748 17.5929 15.0429 18.2681C15.2562 18.7564 15.5661 18.9989 15.7784 19.0226C16.0463 19.0531 16.3156 18.7457 16.4522 18.5602L16.9887 17.8315L17.662 18.436C18.8195 19.4753 19.4834 20.963 19.4834 22.5177C19.4834 25.4943 17.0996 27.9247 14.1407 27.9999C20.3913 27.9239 25.4529 22.8165 25.4529 16.5482C25.453 16.3385 25.4467 16.1205 25.4344 15.9003Z" fill="white"/>
</svg>
