<svg width="28" height="28" viewBox="0 0 28 28" fill="none" xmlns="http://www.w3.org/2000/svg">
<path d="M27.5625 14C27.5625 21.4904 21.4904 27.5625 14 27.5625C6.50962 27.5625 0.4375 21.4904 0.4375 14C0.4375 6.50962 6.50962 0.4375 14 0.4375C21.4904 0.4375 27.5625 6.50962 27.5625 14ZM24.9375 14L24.9373 13.9846L23.512 15.2282L20.0842 12.029L20.984 7.41584L22.86 7.58384C21.4989 5.71266 19.5785 4.29773 17.3525 3.58395L18.099 5.33061L14 7.60156L9.90101 5.33066L10.6475 3.584C8.42554 4.29647 6.50333 5.7097 5.14002 7.5839L7.0303 7.41584L7.9158 12.029L4.48809 15.2282L3.06272 13.9846L3.06255 14C3.06255 16.3524 3.80067 18.5911 5.16649 20.4526L5.5878 18.5989L10.2438 19.1702L12.229 23.4263L10.5937 24.399C12.7923 25.1166 15.2033 25.118 17.4063 24.399L15.771 23.4263L17.7562 19.1702L22.4122 18.5989L22.8335 20.4526C24.1994 18.5911 24.9375 16.3524 24.9375 14ZM11.3694 17.8047L9.73459 12.811L14 9.71972L18.2654 12.811L16.6455 17.8047H11.3694Z" fill="white"/>
</svg>
