<svg width="29" height="28" viewBox="0 0 29 28" fill="none" xmlns="http://www.w3.org/2000/svg">
<path d="M18.9028 23.5691C18.9028 23.3937 18.9028 23.2561 18.9028 23.1186C18.9028 19.6924 18.9064 16.2669 18.9014 12.8407C18.8986 10.9687 17.6307 9.4552 15.7875 9.10157C14.0453 8.76758 12.2581 9.74288 11.6147 11.4374C11.4365 11.9068 11.3481 12.4373 11.3446 12.941C11.3214 16.3434 11.3319 19.7464 11.3319 23.1488C11.3319 23.2751 11.3319 23.4014 11.3319 23.6098C10.544 23.5691 9.78128 23.5908 9.04173 23.4722C8.37937 23.3656 7.91838 22.8969 7.58088 22.3096C6.04916 19.6454 4.50831 16.9861 2.97098 14.3254C2.71347 13.8806 2.45386 13.4364 2.19915 12.9902C1.74448 12.1924 1.73536 11.3862 2.19354 10.5905C4.00172 7.45197 5.8113 4.31415 7.62929 1.18124C8.08116 0.402401 8.77791 0.00245586 9.68445 0.00175421C13.3092 -0.000350771 16.934 -0.00105255 20.5588 0.00245575C21.4632 0.00315741 22.1585 0.399595 22.6118 1.18265C24.434 4.32678 26.2534 7.47232 28.0651 10.6221C28.5086 11.3939 28.5001 12.1903 28.0574 12.96C26.245 16.1097 24.4249 19.2553 22.6041 22.4008C22.1929 23.1116 21.5586 23.5031 20.7503 23.5607C20.1574 23.6028 19.5596 23.5691 18.9014 23.5691H18.9028Z" fill="white"/>
<path d="M17.5677 25.7678C18.7205 25.7678 19.8186 25.7678 20.9167 25.7678C21.3026 25.7678 21.6886 25.7614 22.0745 25.7685C22.7347 25.7811 23.2266 26.2687 23.2189 26.8946C23.2112 27.5268 22.7242 27.9983 22.0576 27.9983C15.0895 28.0004 8.12058 27.9997 1.15241 27.9983C0.458468 27.9983 0.00940622 27.5507 0.00309129 26.8609C-0.00322364 26.1361 0.00519605 25.4113 -0.000417218 24.6865C-0.00252219 24.4465 0.0409806 24.2003 0.285158 24.1462C0.473904 24.1041 0.732817 24.1378 0.89069 24.2431C1.48359 24.6381 2.0365 25.0914 2.628 25.4892C2.8399 25.6316 3.11635 25.7537 3.36404 25.7551C6.3924 25.7734 9.42076 25.7678 12.4484 25.7678C12.5052 25.7678 12.5614 25.76 12.6673 25.7523C12.6673 25.5937 12.6673 25.4464 12.6673 25.2998C12.6673 21.1838 12.6659 17.0686 12.6687 12.9527C12.6694 11.7072 13.3872 10.7452 14.5183 10.4534C16.0472 10.059 17.5558 11.202 17.5649 12.7836C17.5775 14.958 17.5684 17.1331 17.5684 19.3076C17.5684 21.3185 17.5684 23.3295 17.5684 25.3405V25.7692L17.5677 25.7678ZM13.9086 12.8039C13.9128 13.4754 14.4769 14.0262 15.1491 14.0136C15.8002 14.0016 16.3447 13.4403 16.3384 12.7871C16.3321 12.1247 15.7925 11.5865 15.1323 11.583C14.4552 11.5795 13.9051 12.1289 13.9093 12.8032L13.9086 12.8039Z" fill="white"/>
<path d="M6.27002 22.8507C6.26371 24.061 5.28419 25.0405 4.08225 25.037C2.87821 25.0335 1.9015 24.0477 1.9043 22.8387C1.90711 21.6466 2.88171 20.6573 4.0591 20.6524C5.2877 20.6468 6.27704 21.6305 6.27073 22.8514L6.27002 22.8507ZM3.04029 23.5579C3.71528 23.024 4.36783 22.5069 5.02388 21.9876C4.51447 21.46 3.81071 21.4123 3.28166 21.8319C2.76173 22.2444 2.64736 22.9636 3.04029 23.5579Z" fill="white"/>
</svg>
