<svg xmlns="http://www.w3.org/2000/svg" width="27" height="24.069" viewBox="0 0 27 24.069">
    <g id="下載" transform="translate(-152.91 -159.299)">
        <path id="联合_3" d="M17,24.069V17.1h3.2a3.26,3.26,0,0,1,2.071.563,2.019,2.019,0,0,1,.7,1.663,2.08,2.08,0,0,1-.7,1.671,2.876,2.876,0,0,1-1.936.6H18.948v2.476Zm1.936-3.844H19.8A1.481,1.481,0,0,0,20.717,20a.824.824,0,0,0,.3-.7.79.79,0,0,0-.29-.682,1.546,1.546,0,0,0-.92-.219h-.86Zm-6.095,3.844V17.1h1.931v6.973Zm-6.549,0L3.888,17.1H5.9l1.652,5.078L9.233,17.1h1.926L8.652,24.069ZM4.19,15.291,2.4,8.4A2.059,2.059,0,1,1,3.488,7.85L8.627,10.5l4-6.563A2.065,2.065,0,1,1,15.5,2.546,2.039,2.039,0,0,1,14.36,3.939l4,6.563L23.5,7.856A2.067,2.067,0,1,1,27,6.361h0a2.04,2.04,0,0,1-.732,1.58,2.064,2.064,0,0,1-1.683.453l-1.787,6.9a.239.239,0,0,1-.236.2H4.424A.235.235,0,0,1,4.19,15.291Z" transform="translate(152.91 159.299)" fill="#fff"/>
    </g>
</svg>
