<?xml version="1.0" encoding="iso-8859-1"?>
<!-- Generator: Adobe Illustrator 23.0.3, SVG Export Plug-In . SVG Version: 6.00 Build 0)  -->
<svg version="1.1" id="ec50b18f-ca28-4fcc-b225-ecbb62648313"
	 xmlns="http://www.w3.org/2000/svg" xmlns:xlink="http://www.w3.org/1999/xlink" x="0px" y="0px" viewBox="0 0 30.33 30.07"
	 style="enable-background:new 0 0 30.33 30.07;" xml:space="preserve">
<title>service</title>
<g>
	<path style="fill:#FFFFFF;" d="M15.038,1.298c3.223,0,6.275,1.103,8.729,3.129l1.101-1.1l1.377,5.139l-5.14-1.377l1.239-1.238
		c-2.071-1.652-4.617-2.555-7.305-2.555c-6.475,0-11.742,5.266-11.742,11.74c0,6.473,5.267,11.74,11.742,11.74v1.997
		c-7.576,0-13.74-6.162-13.74-13.737C1.298,7.461,7.462,1.298,15.038,1.298 M15.038-0.002c-8.293,0-15.04,6.746-15.04,15.037
		s6.747,15.037,15.04,15.037h1.3v-1.3v-1.997v-1.3h-1.3c-5.758,0-10.442-4.683-10.442-10.44c0-5.756,4.684-10.44,10.442-10.44
		c1.891,0,3.693,0.493,5.286,1.436l-0.138,0.138l-1.593,1.592l2.175,0.583l5.14,1.377l2.175,0.583L27.5,8.129L26.124,2.99
		l-0.583-2.174l-1.592,1.592l-0.297,0.297C21.129,0.93,18.175-0.002,15.038-0.002L15.038-0.002z"/>
	<polygon style="fill:#FFFFFF;" points="12.524,10.281 8.798,10.281 8.798,11.892 12.524,11.892 12.524,14.008 10.407,14.008 
		8.798,14.008 8.796,14.008 8.796,19.345 8.798,19.345 10.407,19.345 14.135,19.345 14.135,17.734 10.407,17.734 10.407,15.618 
		12.524,15.618 14.135,15.618 14.135,14.008 14.135,11.892 14.135,10.281 	"/>
	<polygon style="fill:#FFFFFF;" points="19.898,10.281 19.898,14.008 17.782,14.008 17.782,10.281 16.172,10.281 16.172,14.008 
		16.172,15.618 17.782,15.618 19.898,15.618 19.898,19.345 21.509,19.345 21.509,15.618 21.509,14.008 21.509,10.281 	"/>
	
		<rect x="18.624" y="24.303" transform="matrix(0.9653 -0.261 0.261 0.9653 -6.3347 6.0242)" style="fill:#FFFFFF;" width="1.777" height="5.116"/>
	
		<rect x="22.459" y="22.018" transform="matrix(0.7838 -0.6211 0.6211 0.7838 -10.2147 19.8146)" style="fill:#FFFFFF;" width="1.777" height="5.116"/>
	
		<rect x="25.33" y="18.715" transform="matrix(0.5052 -0.863 0.863 0.5052 -5.3859 33.1522)" style="fill:#FFFFFF;" width="1.777" height="5.116"/>
	
		<rect x="26.667" y="14.466" transform="matrix(0.1567 -0.9876 0.9876 0.1567 6.4244 41.5709)" style="fill:#FFFFFF;" width="1.777" height="5.116"/>
	
		<rect x="25.126" y="11.798" transform="matrix(0.9924 -0.1234 0.1234 0.9924 -1.3539 3.5131)" style="fill:#FFFFFF;" width="5.116" height="1.777"/>
</g>
</svg>
