<svg xmlns="http://www.w3.org/2000/svg" width="36.938" height="25.596" viewBox="0 0 36.938 25.596">
  <g id="home-svgrepo-com-11" transform="translate(0.005 0.005)">
    <path id="路径_447" data-name="路径 447" d="M35.65,19.67H30.08c-.41,0-.76-.09-.75-.6s.34-.55.73-.55h5c.59,0,.76-.21.75-.76V13.41c0-.58-.21-.73-.76-.73H18.9c-.11,0-.64-.33-.67-.55-.08-.41.28-.59.69-.58h16c.84,0,.85,0,.85-.87V3.55c0-1.67-.72-2.39-2.38-2.39H3.57c-1.67,0-2.39.71-2.39,2.38v15.4c0,1.65.69,2.33,2.34,2.33H12a1.16,1.16,0,0,1,.6.07c.19.14.42.41.4.6s-.31.36-.52.47-.32,0-.49,0c-2.86,0-5.72-.06-8.57,0A3.23,3.23,0,0,1,0,19Q.06,11.22,0,3.44A3.26,3.26,0,0,1,3.44,0C13.55.05,23.65,0,33.76,0a3,3,0,0,1,3.17,3.11V19.32a3,3,0,0,1-3.06,3.09H23.56c-.4,0-.8-.06-.79-.56s.41-.61.84-.61H33.86A1.72,1.72,0,0,0,35.65,19.67Z" fill="#aaa"/>
    <path id="路径_448" data-name="路径 448" d="M9.88,12.71H6.22a1.37,1.37,0,0,1-1.48-1.46V6.72A1.31,1.31,0,0,1,6.09,5.33h7.69a1.24,1.24,0,0,1,1.3,1.35v4.65a1.3,1.3,0,0,1-1.41,1.38ZM10,6.5H6.47c-.41,0-.56.15-.56.55v3.9c0,.45.17.64.62.63h6.83c.44,0,.63-.14.62-.61V7.06c0-.43-.13-.58-.57-.57C12.24,6.51,11.1,6.5,10,6.5Z" fill="#aaa"/>
    <path id="路径_449" data-name="路径 449" d="M18.43,17v7.61a1.25,1.25,0,0,1,0,.55c-.1.19-.32.44-.48.43s-.38-.25-.48-.43a1.25,1.25,0,0,1,0-.55V16.82c-.29.21-.46.31-.6.43l-2.66,2.42c-.28.26-.61.57-1,.17s0-.7.28-1l3.72-3.28c.65-.58.82-.57,1.48,0l3.77,3.32c.26.24.52.56.17.83a.89.89,0,0,1-.85,0c-.92-.76-1.79-1.59-2.69-2.39-.14-.14-.3-.26-.45-.39Z" fill="#aaa"/>
    <path id="路径_450" data-name="路径 450" d="M24.93,5.47c1.44,0,1.44,0,1.44,1.43,0,1.59,0,1.59-1.6,1.59-1.41,0-1.41,0-1.4-1.4V7C23.37,5.47,23.37,5.47,24.93,5.47Z" fill="#aaa"/>
    <path id="路径_451" data-name="路径 451" d="M32.47,7c0,1.51,0,1.51-1.49,1.51s-1.52,0-1.52-1.55,0-1.47,1.46-1.47H31C32.47,5.47,32.47,5.47,32.47,7Z" fill="#aaa"/>
  </g>
</svg>
