<svg width="41" height="40" viewBox="0 0 41 40" fill="none" xmlns="http://www.w3.org/2000/svg">
    <path d="M40.168 20.15c0 9.984-7.401 18.238-17.015 19.577a20.034 20.034 0 0 1-5.92-.062C7.823 38.15.634 29.988.634 20.15.633 9.232 9.483.38 20.402.38 31.319.38 40.17 9.233 40.17 20.15h-.002z" fill="#464646"/>
    <path d="M23.154 16.252v4.306h5.327l-.843 5.801h-4.484v13.366a20.032 20.032 0 0 1-5.919-.063V26.36h-4.913v-5.8h4.913v-5.27a5.92 5.92 0 0 1 5.92-5.92v.003c.01 0 .018-.003.028-.003h5.3v5.017H25.02c-1.03 0-1.864.835-1.864 1.865l-.002.001z" fill="#0E0E0E"/>
</svg>
