<svg width="27" height="35" viewBox="0 0 27 35" fill="none" xmlns="http://www.w3.org/2000/svg">
<g clip-path="url(#clip0_7581_14222)">
<path d="M11.4891 29.7264C11.4891 31.2204 11.5264 32.4985 11.4661 33.7688C11.4489 34.1365 11.2251 34.692 10.9353 34.7948C10.6311 34.9028 10.0801 34.6328 9.73294 34.4091C9.28243 34.1134 8.92661 33.6994 8.39001 33.2082C7.98541 33.6351 7.6669 34.0774 7.23647 34.3885C6.90648 34.6277 6.35553 34.8951 6.04563 34.7974C5.75581 34.7048 5.50903 34.1494 5.48894 33.7894C5.42294 32.4779 5.46312 31.1639 5.46312 29.819C5.16756 29.7778 4.98965 29.7393 4.81174 29.7316C1.94798 29.6133 0.70548 28.4664 0.70261 25.864C0.694002 18.6639 0.699741 11.4637 0.699741 4.26357C0.699741 3.92156 0.685393 3.58213 0.708349 3.24012C0.851824 1.22407 2.20049 0.0309046 4.47888 0.0231901C11.4259 0.00261822 18.3701 0.0309045 25.3172 4.67285e-05C26.4564 -0.00509624 26.8122 0.414056 26.8094 1.37322C26.7921 10.3631 26.7893 19.353 26.8122 28.3404C26.8151 29.3998 26.3273 29.7521 25.1766 29.7418C21.1794 29.7033 17.185 29.7264 13.1878 29.7264C12.6771 29.7264 12.1634 29.7264 11.4891 29.7264ZM24.9413 23.3157C24.9413 16.0667 24.9413 8.86138 24.9413 1.66637C18.2955 1.66637 11.7645 1.66637 5.25651 1.66637C5.25651 8.9411 5.25651 16.1104 5.25651 23.3157C11.865 23.3157 18.3673 23.3157 24.9413 23.3157ZM24.9729 25.0772C24.8552 25.0052 24.8208 24.9615 24.7835 24.9615C17.9455 24.9409 11.1046 24.892 4.26653 24.9615C3.68116 24.9666 2.80883 25.666 2.61657 26.1983C2.45301 26.6561 2.91787 27.5072 3.39994 27.8724C3.84185 28.2067 4.67687 28.1218 5.34834 28.2221C5.62094 25.7406 5.62094 25.7406 8.20062 25.7406C8.43879 25.7406 8.67696 25.7406 8.91226 25.7406C11.3341 25.7406 11.3341 25.7406 11.5522 27.8981C11.5579 27.9675 11.6555 28.0292 11.7846 28.1835C13.8909 28.1835 16.0688 28.1835 18.2496 28.1835C20.4649 28.1835 22.683 28.1835 24.9757 28.1835C24.9729 27.0264 24.9729 26.026 24.9729 25.0772ZM3.42577 2.03409C3.2249 2.01609 3.02117 1.99809 2.81743 1.97752C2.01684 5.52617 2.56205 9.14939 2.46449 12.7315C2.36692 16.3521 2.4444 19.9779 2.4444 23.6011C2.66535 23.6217 2.8863 23.6449 3.10725 23.6654C3.21343 23.2103 3.41142 22.7551 3.41429 22.3C3.43438 16.6376 3.42577 10.9777 3.42577 5.31531C3.42577 4.22243 3.42577 3.12954 3.42577 2.03409ZM9.66694 32.0999C9.66694 30.341 9.66694 28.8727 9.66694 27.4044C8.79174 27.4044 8.01985 27.4044 7.28812 27.4044C7.28812 28.9704 7.28812 30.4233 7.28812 32.0948C8.11167 31.1742 8.83765 31.151 9.66694 32.0999Z" fill="white"/>
<path d="M15.0399 10.7979C13.6654 10.7979 12.2881 10.7722 10.9136 10.8056C9.91211 10.8288 9.40995 10.5099 9.44725 9.55075C9.49316 8.36272 9.48742 7.17212 9.44725 5.9841C9.42142 5.18694 9.7715 4.78579 10.6754 4.78579C13.6166 4.78836 16.5579 4.7935 19.4991 4.78322C20.4116 4.78064 20.7703 5.1818 20.7588 5.9661C20.7387 7.19784 20.7445 8.42958 20.756 9.66132C20.7617 10.4559 20.3542 10.8185 19.4532 10.8031C17.9812 10.7799 16.5091 10.7979 15.0399 10.7979ZM18.9281 6.45211C16.314 6.45211 13.7945 6.45211 11.2751 6.45211C11.2751 7.42156 11.2751 8.28815 11.2751 9.17531C13.8634 9.17531 16.3541 9.17531 18.9281 9.17531C18.9281 8.26758 18.9281 7.43442 18.9281 6.45211Z" fill="white"/>
</g>
<defs>
<clipPath id="clip0_7581_14222">
<rect width="26.1154" height="34.8205" fill="white" transform="translate(0.695312)"/>
</clipPath>
</defs>
</svg>
