<svg width="32" height="30" viewBox="0 0 32 30" fill="none" xmlns="http://www.w3.org/2000/svg">
<path d="M23.5407 0C23.9035 0 24.265 0 24.6278 0C24.7107 0.0334806 24.7909 0.0803536 24.8765 0.100442C27.4897 0.705772 29.0144 2.9771 28.4396 5.57118C28.2439 6.45373 27.7805 7.27869 27.4136 8.19472C27.9123 8.19472 28.4871 8.105 29.0225 8.21213C30.3081 8.47328 30.9821 9.3719 31.2865 10.5799C31.2865 11.8294 31.2865 13.0802 31.2865 14.3297C31.0405 15.2163 30.6397 16.0212 29.7455 16.4095C29.2889 16.6077 29.1788 16.8595 29.1815 17.3122C29.1978 20.4125 29.1911 23.5128 29.1897 26.6144C29.1897 28.5992 28.6787 29.3237 26.8021 30C19.5998 30 12.3976 30 5.19535 30C3.30103 29.3157 2.80774 28.6059 2.80774 26.5649C2.80774 23.4512 2.81318 20.3388 2.79551 17.2251C2.79415 17.0028 2.68408 16.6506 2.52509 16.581C1.50862 16.135 0.978644 15.3435 0.710938 14.3297C0.710938 13.0802 0.710938 11.8294 0.710938 10.5799C1.21374 8.50141 2.72757 7.95232 4.78904 8.1733C4.55395 7.84519 4.41941 7.66707 4.29575 7.48359C2.99799 5.55511 3.16242 3.02933 4.67353 1.43431C5.41142 0.654881 6.35315 0.262488 7.36962 0C7.73245 0 8.09392 0 8.45675 0C10.0222 0.287934 11.3499 0.957546 12.2767 2.28472C13.2999 3.74849 14.3327 5.20691 15.3627 6.66801C15.5611 6.94924 15.7636 7.22914 16.0014 7.55859C17.0763 6.04259 18.1594 4.6431 19.0984 3.15522C20.157 1.47984 21.5118 0.302665 23.5407 0ZM4.38136 16.7885C4.36777 17.0216 4.34739 17.2184 4.34739 17.414C4.34603 20.5585 4.34331 23.703 4.34739 26.8475C4.34875 28.0702 4.7836 28.4974 6.02021 28.4987C8.84947 28.5014 11.6774 28.5001 14.5066 28.4974C14.7268 28.4974 14.9483 28.4773 15.2038 28.4652C15.2038 24.5574 15.2038 20.691 15.2038 16.7872C11.6013 16.7885 8.03548 16.7885 4.38136 16.7885ZM16.7882 28.4679C17.056 28.48 17.2775 28.4987 17.499 28.4987C20.3269 28.5001 23.1561 28.5014 25.984 28.4987C27.2084 28.4974 27.6487 28.0595 27.65 26.8367C27.6528 23.715 27.6514 20.5933 27.65 17.4702C27.65 17.2532 27.631 17.0363 27.6188 16.7912C23.9905 16.7912 20.407 16.7912 16.7896 16.7912C16.7882 20.6817 16.7882 24.5319 16.7882 28.4679ZM15.2228 9.68796C15.0787 9.66921 14.9931 9.64778 14.9062 9.64778C11.1528 9.64511 7.39815 9.64109 3.64483 9.64912C2.79008 9.65046 2.27777 10.1687 2.25602 11.0433C2.23292 11.9124 2.24515 12.7816 2.25195 13.6507C2.2601 14.8011 2.73436 15.2605 3.91118 15.2618C7.46202 15.2632 11.0115 15.2632 14.5623 15.2632C14.7771 15.2632 14.9918 15.2632 15.2241 15.2632C15.2228 13.3548 15.2228 11.5535 15.2228 9.68796ZM16.776 15.2029C16.9051 15.231 16.9703 15.2565 17.0342 15.2565C20.8106 15.2591 24.5857 15.2658 28.3621 15.2565C29.2114 15.2538 29.7197 14.7261 29.7414 13.8476C29.7645 12.957 29.7577 12.0651 29.7441 11.1732C29.7278 10.1112 29.2345 9.6451 28.1433 9.6451C24.5707 9.64377 20.9982 9.64377 17.4256 9.64377C17.2122 9.64377 16.9989 9.64377 16.776 9.64377C16.776 11.5562 16.776 13.3574 16.776 15.2029ZM14.5501 8.14919C13.198 6.25285 11.9913 4.45427 10.6568 2.75211C10.2614 2.24856 9.54795 1.88831 8.90791 1.68742C6.9633 1.07406 5.02141 2.42802 4.99016 4.37793C4.9657 5.79349 5.53508 6.97737 6.65075 7.88268C6.81382 8.01527 7.04755 8.13714 7.24867 8.13848C9.62134 8.15589 11.9926 8.14919 14.5501 8.14919ZM17.5071 8.15053C17.8333 8.15053 18.0507 8.15053 18.2681 8.15053C20.1692 8.15053 22.0731 8.08892 23.9687 8.17597C24.9988 8.22285 25.6592 7.81037 26.1512 7.0296C26.4447 6.56355 26.7165 6.05598 26.8632 5.531C27.4109 3.57707 26.2966 1.75171 24.3846 1.55082C22.9496 1.40083 21.785 2.01687 20.9533 3.17932C19.9246 4.61631 18.919 6.06937 17.9053 7.51841C17.7843 7.69117 17.6797 7.87599 17.5071 8.15053Z" fill="white"/>
</svg>
