<svg width="30" height="30" viewBox="0 0 30 30" fill="none" xmlns="http://www.w3.org/2000/svg">
<path d="M16.3008 21.1678V22.8323C16.3008 23.1011 16.1938 23.3588 16.0038 23.5488C15.8136 23.739 15.5558 23.8458 15.2869 23.8458C15.0181 23.8458 14.7602 23.739 14.5702 23.5488C14.38 23.3588 14.2734 23.1011 14.2734 22.8323V21.1223C13.6023 21.0117 12.9605 20.767 12.386 20.4032C11.8117 20.0393 11.3163 19.5636 10.9295 19.0043C10.7745 18.8348 10.6882 18.6134 10.6875 18.3838C10.6873 18.2527 10.7138 18.1231 10.7653 18.0025C10.8167 17.8821 10.8922 17.7731 10.987 17.6826C11.0818 17.5922 11.1939 17.5217 11.3166 17.4758C11.4394 17.4298 11.5702 17.4094 11.7012 17.4156C11.8311 17.4148 11.9595 17.443 12.0772 17.4979C12.1951 17.5528 12.2992 17.6332 12.3821 17.7333C12.866 18.3655 13.5229 18.8436 14.2734 19.11V15.2673C12.2611 14.4654 11.2473 13.3003 11.2473 11.7721C11.2776 10.9541 11.5991 10.1737 12.154 9.57173C12.7088 8.96977 13.4604 8.58588 14.2734 8.48907V6.80948C14.2734 6.54064 14.38 6.28261 14.5702 6.09251C14.7602 5.9024 15.0181 5.7959 15.2869 5.7959C15.5558 5.7959 15.8136 5.9024 16.0038 6.09251C16.1938 6.28261 16.3008 6.54064 16.3008 6.80948V8.47393C16.8662 8.56106 17.4081 8.76116 17.8943 9.06273C18.3804 9.3643 18.8008 9.76102 19.1301 10.2289C19.2635 10.4039 19.3423 10.6143 19.3569 10.8339C19.361 10.9636 19.339 11.093 19.2921 11.214C19.2452 11.335 19.1746 11.4452 19.0842 11.5384C18.9939 11.6314 18.8857 11.7057 18.7663 11.7562C18.6468 11.8068 18.5184 11.8328 18.3886 11.8327C18.2533 11.831 18.1198 11.8004 17.9973 11.7429C17.8746 11.6856 17.7657 11.6027 17.6776 11.4999C17.3167 11.0492 16.8412 10.704 16.3008 10.5011V13.9053L16.679 14.0568C18.6005 14.7981 19.7958 15.8873 19.7958 17.6273C19.7698 18.5502 19.3944 19.4291 18.7458 20.0862C18.0971 20.7433 17.2232 21.1299 16.3008 21.1678ZM14.2734 13.0281V10.5768C14.0292 10.6654 13.8189 10.8285 13.6722 11.043C13.5258 11.2574 13.4503 11.5125 13.4563 11.7721C13.4687 12.0293 13.5514 12.2782 13.6955 12.4917C13.8396 12.7052 14.0394 12.875 14.2734 12.9827V13.0281ZM17.6019 17.6727C17.6019 16.9313 17.0875 16.4925 16.3008 16.1597V19.1857C16.6722 19.1335 17.011 18.9451 17.2514 18.657C17.4918 18.3691 17.6168 18.002 17.6019 17.6273V17.6727Z" fill="white"/>
<path d="M9.8445 5.32799H7.73716C9.8626 3.6484 12.5007 2.7013 15.2456 2.7013C21.1761 2.7013 26.2008 6.93665 27.1933 12.7722L29.8566 12.3197C28.6424 5.18097 22.4977 0 15.2456 0C11.7775 0 8.4486 1.2367 5.80787 3.42049V1.34345H3.10657V8.02966H9.84487V5.32799H9.8445ZM20.6586 24.2179H22.8719C20.7269 25.9562 18.0396 26.9402 15.2453 26.9402C9.31074 26.9402 4.28601 22.7016 3.29607 16.8609L0.632812 17.3119C1.84291 24.4565 7.98834 29.6415 15.2453 29.6415C18.7163 29.6415 22.0526 28.4015 24.6956 26.2122V28.2032H27.3969V21.5166H20.6586V24.2179Z" fill="white"/>
</svg>
