<svg width="19" height="20" viewBox="0 0 19 20" fill="none" xmlns="http://www.w3.org/2000/svg">
<path fill-rule="evenodd" clip-rule="evenodd" d="M11.3385 0.652344H7.55422V8.93322H6.78311C5.94899 8.93322 5.48148 9.89428 5.99637 10.5505L8.51111 13.7556C8.90213 14.2539 9.65207 14.2678 10.0612 13.7842L12.7732 10.5792C13.3231 9.92924 12.8612 8.93322 12.0098 8.93322H11.3385V0.652344Z" fill="white"/>
<path fill-rule="evenodd" clip-rule="evenodd" d="M0.539062 14.6523C0.539062 14.1001 0.986778 13.6523 1.53906 13.6523H2.21034C2.76262 13.6523 3.21034 14.1001 3.21034 14.6523V15.5908C3.21034 16.1431 3.65805 16.5908 4.21034 16.5908L15.0768 16.5908C15.6291 16.5908 16.0768 16.1431 16.0768 15.5908V14.6524C16.0768 14.1001 16.5245 13.6524 17.0768 13.6524H17.7481C18.3004 13.6524 18.7481 14.1001 18.7481 14.6524V18.8169C18.7481 19.0627 18.5488 19.262 18.303 19.262H17.8579C17.8578 19.262 17.8578 19.262 17.8578 19.2621C17.8578 19.2621 17.8578 19.2621 17.8578 19.2621L0.539194 19.2621C0.539169 19.2621 0.539148 19.2621 0.539148 19.2621V19.262C0.539148 19.262 0.539129 19.262 0.539105 19.262C0.539082 19.262 0.539062 19.262 0.539062 19.262V14.6523Z" fill="white"/>
</svg>
