<svg xmlns="http://www.w3.org/2000/svg" width="35.748" height="37.084" viewBox="0 0 35.748 37.084">
  <g id="home-svgrepo-com-10" transform="translate(0.018 0.001)">
    <path id="路径_445" data-name="路径 445" d="M30.94,13.4V8.82c0-.46-.3-.44-.59-.44H26.83c-1,0-1.42-.17-1.42-.65S25.82,7,26.81,7h3.64c1.41,0,1.82.42,1.83,1.84v3.71a3.953,3.953,0,0,0,.07.87h1.73c1.14,0,1.65.52,1.65,1.65V36.38c0,.56-.17.7-.71.7H4.16A4,4,0,0,1,0,32.92V11.17a3.64,3.64,0,0,1,3.51-4C5.78,7,8.07,7.07,10.35,7a.66.66,0,0,1,.76.67c0,.5-.33.65-.75.65H5.08a8.29,8.29,0,0,0-2.21.35,2.06,2.06,0,0,0-1.52,2.08,2,2,0,0,0,1.32,2.08,6.12,6.12,0,0,0,2.17.53H30.36A1.071,1.071,0,0,0,30.94,13.4Zm-29.43.37-.19.1v3.05c0,.62.16.82.82.82h19.8a5.421,5.421,0,0,1,.57,0c.42.05.8.19.78.71s-.38.61-.79.61H2.19c-.51,0-.88,0-.88.71V32.84a2.84,2.84,0,0,0,.87,2.21,3.35,3.35,0,0,0,2.46.73h28c2,0,1.68.29,1.71-1.75,0-.81,0-.82-.85-.82H7a1.62,1.62,0,0,1-.74-.06c-.23-.14-.53-.43-.52-.65s.34-.47.59-.58a2.12,2.12,0,0,1,.8,0H33.88c.38,0,.53-.17.53-.54V28.87c0-.46-.2-.63-.65-.62H30.18a1.58,1.58,0,0,1-1.75-1.69V23.92a1.66,1.66,0,0,1,1.81-1.74H33.7c.57,0,.74-.2.71-.72s0-1.09,0-1.64-.14-.73-.67-.71H26.82a.6.6,0,0,1-.68-.59c-.03-.43.25-.64.63-.72a3.62,3.62,0,0,1,.57,0h6.47c.44,0,.61-.15.6-.57V15.4c0-.36-.15-.55-.52-.54s-.46,0-.69,0H7c-1.86-.07-3.78.03-5.49-1.09ZM32.09,26.9h1.82c.17,0,.46-.26.46-.41a24.469,24.469,0,0,0,0-2.57.68.68,0,0,0-.44-.45H30.29c-.33,0-.49.15-.49.5v2.51a.63.63,0,0,0,.43.42C30.88,26.93,31.48,26.89,32.09,26.9Z" fill="#aaa"/>
    <path id="路径_446" data-name="路径 446" d="M17.25,9.86c0-.42.06-.68.07-.94V1.38c0-1,.19-1.46.6-1.37.75.18.58.82.58,1.34V9.86c.33-.24.55-.37.74-.54,1-.87,1.91-1.76,2.89-2.62a1.23,1.23,0,0,1,.7-.35.61.61,0,0,1,.49.37.92.92,0,0,1-.23.7c-.79.75-1.62,1.46-2.44,2.18l-2.28,2a.67.67,0,0,1-1,0L12.75,7.5c-.27-.24-.44-.53-.16-.87a.59.59,0,0,1,.94,0c1,.91,2.06,1.84,3.09,2.76Z" fill="#aaa"/>
  </g>
</svg>
