<svg xmlns:xlink="http://www.w3.org/1999/xlink" width="400" height="400" viewBox="0 0 400 400" fill="none" xmlns="http://www.w3.org/2000/svg" class="styles_plusEighteen__3wPf7"><circle cx="200" cy="200" r="144" stroke="#3F5962" stroke-width="12px" fill="none"></circle><path d="M141.332 247.954V151.758H123.448L93.1614 182.189L104.843 194.447L120.708 178.15V247.954H141.332Z" fill="#3F5962"></path><path d="M155.917 223.004C155.917 241.031 174.378 249.685 194.569 249.685C214.76 249.685 233.221 240.887 233.221 223.004C233.221 211.321 223.991 202.38 212.453 198.341C223.125 194.736 231.634 187.669 231.634 175.698C231.634 157.671 212.308 150.315 194.569 150.315C176.685 150.315 157.504 157.671 157.504 175.698C157.504 187.669 165.869 194.736 176.541 198.341C165.003 202.38 155.917 211.321 155.917 223.004ZM210.722 178.871C210.722 186.371 200.482 189.688 194.569 190.553C188.656 189.688 178.272 186.371 178.272 178.871C178.272 172.093 185.05 167.91 194.569 167.91C203.944 167.91 210.722 172.093 210.722 178.871ZM212.453 220.552C212.453 227.619 204.376 232.09 194.569 232.09C184.473 232.09 176.685 227.619 176.685 220.552C176.685 212.187 188.512 208.149 194.569 207.427C200.482 208.149 212.453 212.187 212.453 220.552Z" fill="#3F5962"></path><path d="M306.839 204.976V193.582H281.023V165.459H268.475V193.582H242.515V204.976H268.475V234.253H281.023V204.976H306.839Z" fill="#3F5962"></path></svg>