<svg xmlns:xlink="http://www.w3.org/1999/xlink" width="15" height="16" viewBox="0 0 15 16" xmlns="http://www.w3.org/2000/svg" class="styles_svg__2s265"><path d="M9.42787 9.26726C7.78061 7.47495 8.11114 4.76519 8.81493 2.44788C9.118 2.84478 9.4535 3.12272 9.45571 3.11722C9.12423 3.93582 9.42914 4.89782 10.2161 5.37179C11.0211 5.85688 13.1983 5.64954 14.1179 5.56644C13.7852 4.75372 12.9698 2.71747 12.1575 2.22835C11.4702 1.8141 10.6163 1.89278 10.0211 2.36319C9.75938 2.1441 9.54869 1.86953 9.39715 1.6355C9.90158 1.3575 10.4458 1.10194 11.0296 0.868938L10.6741 0C5.60743 2.02288 3.55893 5.75879 3.82221 9.30351C2.19234 9.55532 0.941406 10.9516 0.941406 12.631C0.941406 15.3472 4.0335 16.924 6.27349 15.413C4.88893 13.8069 4.90509 11.4364 6.27349 9.84904C5.82879 9.54879 5.31512 9.35507 4.77266 9.28851C4.58709 7.07857 5.49484 4.57469 7.73508 2.7476C7.12012 4.99101 6.97545 7.61957 8.38159 9.48442C6.20484 10.3071 5.48345 13.0099 6.97536 14.7809C8.99772 17.1879 13.0099 15.7967 13.0099 12.631C13.0099 10.7136 11.3879 9.17092 9.42787 9.26726Z" fill="#FBFBFB"></path></svg>