<svg xmlns:xlink="http://www.w3.org/1999/xlink" width="16" height="16" viewBox="0 0 16 16" fill="#FBFBFB" xmlns="http://www.w3.org/2000/svg" class="styles_svg__2s265"><path d="M12.842 9.264V3.622c0-.892-.73-1.622-1.622-1.622H1.622C.73 2 0 2.73 0 3.622v5.644c0 .888.722 1.614 1.608 1.622l-.256 1.538a.194.194 0 0 0 .288.2l3.012-1.738h6.568c.892 0 1.622-.732 1.622-1.624Z" fill="#FBFBFB"></path><path d="M14.618 5.956h-.768v3.31c0 1.45-1.18 2.63-2.63 2.63H5.07v.244c0 .76.622 1.382 1.382 1.382h5.588L14.602 15a.165.165 0 0 0 .246-.17l-.218-1.31A1.385 1.385 0 0 0 16 12.14V7.338c0-.76-.622-1.382-1.382-1.382Z" fill="#FBFBFB"></path></svg>