<svg width="16" height="16" viewBox="0 0 16 16" fill="none" xmlns="http://www.w3.org/2000/svg" class="styles_coinsIcon__2D2xB"><path fill-rule="evenodd" clip-rule="evenodd" d="M14.6667 4.66634C14.6667 6.50729 11.6819 7.99967 8.00004 7.99967C4.31814 7.99967 1.33337 6.50729 1.33337 4.66634C1.33337 2.82539 4.31814 1.33301 8.00004 1.33301C11.6819 1.33301 14.6667 2.82539 14.6667 4.66634ZM8 12.6661C10.0031 12.6661 11.8824 12.263 13.3103 11.549C13.7433 11.3326 14.1756 11.0641 14.563 10.7432C14.6311 10.9343 14.6667 11.1312 14.6667 11.3321C14.6667 13.1731 11.6819 14.6655 8.00004 14.6655C4.31814 14.6655 1.33337 13.1731 1.33337 11.3321C1.33337 11.1312 1.36894 10.9344 1.4371 10.7432C1.82446 11.0641 2.25672 11.3326 2.68967 11.549C4.11759 12.263 5.99694 12.6661 8 12.6661ZM13.3103 8.21611C11.8824 8.93007 10.0031 9.33318 8 9.33318C5.99694 9.33318 4.11759 8.93007 2.68967 8.21611C2.25672 7.99963 1.82446 7.7312 1.4371 7.41028C1.36894 7.60144 1.33337 7.79824 1.33337 7.9992C1.33337 9.84015 4.31814 11.3325 8.00004 11.3325C11.6819 11.3325 14.6667 9.84015 14.6667 7.9992C14.6667 7.79822 14.6311 7.6014 14.563 7.41022C14.1756 7.73117 13.7433 7.99962 13.3103 8.21611Z" fill="#314B61"></path></svg>