<svg width="33" height="37" viewBox="0 0 33 37" fill="none" xmlns="http://www.w3.org/2000/svg"><g clip-path="url(#clip0_5394_57424)"><path d="M4.754 4.492H2.978C1.336 4.492 0 5.84 0 7.496v26.271c0 1.656 1.336 3.004 2.978 3.004h.04l22.826-2.312C29.923 34.047 33 30.614 33 26.477V7.497c0-1.657-1.336-3.005-2.978-3.005h-1.714v2.045c0 1.164-.943 2.115-2.096 2.115h-.174c-1.153 0-2.097-.951-2.097-2.115V4.492H9.12v2.045c0 1.164-.943 2.115-2.096 2.115h-.174c-1.153 0-2.097-.951-2.097-2.115V4.492h.002Zm25.572 8.389v12.741a5.927 5.927 0 0 1-3.533 5.45c-1.123.204-2.36-.175-3.122-1.042-.57-.65-.991-1.59-1.839-1.73-.373-.06-.75.056-1.11.172l-15.78 5.103-1.014.103a1.295 1.295 0 0 1-1.254-1.298v-19.5h27.652ZM9.119 2.115C9.119.952 8.175 0 7.022 0h-.174C5.695 0 4.752.952 4.752 2.115v2.298h4.365V2.115h.002ZM28.308 2.115C28.308.952 27.365 0 26.212 0h-.174c-1.153 0-2.097.952-2.097 2.115v2.298h4.366V2.115h.001Z" fill="#527491"></path><path d="M12.808 26h-1.536l3.024-6.768h-4.152v-1.236h5.772v.972L12.808 26Zm9.555 0h-1.26v-.792a2.347 2.347 0 0 1-1.86.936c-1.488 0-2.58-1.128-2.58-3.036 0-1.872 1.08-3.048 2.58-3.048.72 0 1.392.336 1.86.948v-3.012h1.26V26Zm-1.26-1.74v-2.304c-.288-.432-.9-.78-1.5-.78-.996 0-1.632.804-1.632 1.932 0 1.116.636 1.92 1.632 1.92.6 0 1.212-.336 1.5-.768Z" fill="#fff"></path></g><defs><clipPath id="clip0_5394_57424"><path fill="#fff" d="M0 0h33v36.771H0z"></path></clipPath></defs></svg>