<svg width="33" height="37" viewBox="0 0 33 37" fill="none" xmlns="http://www.w3.org/2000/svg"><g clip-path="url(#clip0_5394_57443)"><path d="M4.754 4.492H2.978C1.336 4.492 0 5.84 0 7.496v26.271c0 1.656 1.336 3.004 2.978 3.004h.04l22.826-2.312C29.923 34.047 33 30.614 33 26.477V7.497c0-1.657-1.336-3.005-2.978-3.005h-1.714v2.045c0 1.164-.943 2.115-2.096 2.115h-.174c-1.153 0-2.097-.951-2.097-2.115V4.492H9.12v2.045c0 1.164-.943 2.115-2.096 2.115h-.174c-1.153 0-2.097-.951-2.097-2.115V4.492h.002Zm25.572 8.389v12.741a5.927 5.927 0 0 1-3.533 5.45c-1.123.204-2.36-.175-3.122-1.042-.57-.65-.991-1.59-1.839-1.73-.373-.06-.75.056-1.11.172l-15.78 5.103-1.014.103a1.295 1.295 0 0 1-1.254-1.298v-19.5h27.652ZM9.119 2.115C9.119.952 8.175 0 7.022 0h-.174C5.695 0 4.752.952 4.752 2.115v2.298h4.365V2.115h.002ZM28.308 2.115C28.308.952 27.365 0 26.212 0h-.174c-1.153 0-2.097.952-2.097 2.115v2.298h4.366V2.115h.001Z" fill="#527491"></path><path d="m6.16 24.848.755-.924c.516.6 1.368.972 2.22.972 1.056 0 1.668-.48 1.668-1.224 0-.792-.636-1.128-1.776-1.128-.336 0-.804 0-.924.012v-1.26c.144.012.612.012.924.012.936 0 1.644-.324 1.644-1.056 0-.744-.72-1.128-1.62-1.128-.816 0-1.488.312-2.064.888l-.72-.876c.612-.72 1.584-1.26 2.916-1.26 1.728 0 2.892.816 2.892 2.16 0 1.068-.912 1.692-1.74 1.836.78.072 1.86.708 1.86 1.944 0 1.356-1.164 2.328-3.012 2.328-1.428 0-2.484-.576-3.024-1.296Zm7.094-2.844c0-2.016.96-4.128 3.204-4.128s3.204 2.112 3.204 4.128-.96 4.14-3.204 4.14-3.204-2.124-3.204-4.14Zm4.98 0c0-1.524-.468-2.88-1.776-2.88s-1.776 1.356-1.776 2.88c0 1.524.468 2.892 1.776 2.892s1.776-1.368 1.776-2.892ZM26.312 26h-1.26v-.792a2.347 2.347 0 0 1-1.86.936c-1.488 0-2.58-1.128-2.58-3.036 0-1.872 1.08-3.048 2.58-3.048.72 0 1.392.336 1.86.948v-3.012h1.26V26Zm-1.26-1.74v-2.304c-.288-.432-.9-.78-1.5-.78-.996 0-1.632.804-1.632 1.932 0 1.116.636 1.92 1.632 1.92.6 0 1.212-.336 1.5-.768Z" fill="#fff"></path></g><defs><clipPath id="clip0_5394_57443"><path fill="#fff" d="M0 0h33v36.771H0z"></path></clipPath></defs></svg>