<svg width="16" height="16" viewBox="0 0 16 16" fill="#527491" xmlns="http://www.w3.org/2000/svg"><path d="M2.656 14.996c0 .558.452 1.01 1.01 1.01h3.81l.014-7.925H2.656v6.915ZM8.188 16.006h3.87a1.01 1.01 0 0 0 1.01-1.01V8.081H8.202l-.014 7.925ZM13.603 3.792H9.87c.653-.27 1.278-.572 1.535-.828A1.738 1.738 0 0 0 10.178 0c-.464 0-.9.18-1.228.509-.368.367-.792 1.51-1.087 2.415C7.568 2.018 7.143.876 6.776.51A1.725 1.725 0 0 0 5.548 0 1.738 1.738 0 0 0 4.32 2.964c.257.256.882.559 1.535.828h-3.73C1.504 3.792 1 4.297 1 4.916v1.33c0 .62.505 1.124 1.124 1.124h5.371l.006-2.968.252.084a.352.352 0 0 0 .22 0l.24-.08-.006 2.964h5.396c.619 0 1.124-.505 1.124-1.124v-1.33c0-.619-.505-1.124-1.124-1.124Zm-4.15-2.78c.194-.194.451-.3.725-.3a1.026 1.026 0 0 1 .725 1.75c-.283.282-1.502.772-2.503 1.127.331-1.069.785-2.309 1.054-2.578Zm-4.629 0c.193-.194.45-.3.725-.3.273 0 .53.106.724.3.269.268.722 1.508 1.054 2.577-1.001-.354-2.22-.845-2.503-1.128-.4-.4-.4-1.05 0-1.45Z" fill="#33C16C"></path></svg>