<svg width="33" height="37" viewBox="0 0 33 37" fill="none" xmlns="http://www.w3.org/2000/svg"><g clip-path="url(#clip0_5394_57386)"><path d="M4.754 4.492H2.978C1.336 4.492 0 5.84 0 7.496v26.271c0 1.656 1.336 3.004 2.978 3.004h.04l22.826-2.312C29.923 34.047 33 30.614 33 26.477V7.497c0-1.657-1.336-3.005-2.978-3.005h-1.714v2.045c0 1.164-.943 2.115-2.096 2.115h-.174c-1.153 0-2.097-.951-2.097-2.115V4.492H9.12v2.045c0 1.164-.943 2.115-2.096 2.115h-.174c-1.153 0-2.097-.951-2.097-2.115V4.492h.002Zm25.572 8.389v12.741a5.927 5.927 0 0 1-3.533 5.45c-1.123.204-2.36-.175-3.122-1.042-.57-.65-.991-1.59-1.839-1.73-.373-.06-.75.056-1.11.172l-15.78 5.103-1.014.103a1.295 1.295 0 0 1-1.254-1.298v-19.5h27.652ZM9.119 2.115C9.119.952 8.175 0 7.022 0h-.174C5.695 0 4.752.952 4.752 2.115v2.298h4.365V2.115h.002ZM28.308 2.115C28.308.952 27.365 0 26.212 0h-.174c-1.153 0-2.097.952-2.097 2.115v2.298h4.366V2.115h.001Z" fill="#527491"></path><g clip-path="url(#clip1_5394_57386)"><path fill-rule="evenodd" clip-rule="evenodd" d="m20.184 22.467-3.53-1.22 2.958-5.825c.062-.2-.148-.354-.275-.22l-7.243 6.767c-.115.094-.074.239.043.276l3.53 1.22-2.958 5.826c-.1.186.148.353.275.22l7.282-6.755c.076-.107.035-.252-.082-.29Z" fill="#fff"></path></g></g><defs><clipPath id="clip0_5394_57386"><path fill="#fff" d="M0 0h33v36.771H0z"></path></clipPath><clipPath id="clip1_5394_57386"><path fill="#fff" transform="rotate(-1.068 826.018 -630.425)" d="M0 0h8.268v14.282H0z"></path></clipPath></defs></svg>