<svg width="24" height="24" viewBox="0 0 24 24" fill="none" xmlns="http://www.w3.org/2000/svg"
    class="styles_HeaderLogoSm__3BrYc">
    <path
        d="M21.7038 16.9555L19.9661 15.1738L14.8629 20.3812L16.6005 22.1629L18.0936 20.6394L21.3749 23.9877L23.4921 21.8186L20.2108 18.4704L21.7038 16.9555Z"
        fill="#33C16C"></path>
    <path d="M8.32556 4.15747L4.25978 0.00878906H0V4.36404L4.06577 8.51272L8.32556 4.15747Z" fill="#33C16C"></path>
    <path
        d="M11.8093 20.8717L20.447 12.0579L11.8093 3.24414L3.18011 12.0579L11.8093 20.8717ZM13.5132 15.5352C13.353 16.3615 12.636 16.9554 11.8093 16.9554C10.8562 16.9554 10.0717 16.1636 10.0717 15.1823C10.0717 14.7003 10.2488 14.2528 10.5778 13.9171C10.9068 13.5814 11.3454 13.4006 11.8009 13.4006C12.7541 13.4006 13.5386 14.1925 13.5386 15.1737C13.547 15.3028 13.5386 15.4234 13.5132 15.5352ZM10.0801 9.32945C10.0801 8.85605 10.2573 8.40848 10.5863 8.0814C10.9152 7.74572 11.3454 7.56497 11.8093 7.56497C12.7625 7.56497 13.547 8.35684 13.547 9.33807C13.547 9.45857 13.5386 9.57907 13.5132 9.69093C13.353 10.5172 12.636 11.1111 11.8093 11.1111C10.8562 11.1111 10.0717 10.3193 10.0717 9.33807V9.32945H10.0801Z"
        fill="#33C16C"></path>
    <path d="M15.3015 4.14869L19.5697 8.50395L23.6355 4.35527V0H19.3672L15.3015 4.14869Z" fill="#33C16C"></path>
    <path
        d="M5.5251 20.6392L7.01815 22.1627L8.75582 20.381L3.65247 15.1738L1.9148 16.9555L3.39941 18.4703L0.134949 21.8098L2.25221 23.9787L5.5251 20.6392Z"
        fill="#33C16C"></path>
</svg>