<svg xmlns:xlink="http://www.w3.org/1999/xlink" width="12" height="13" viewBox="0 0 12 13" fill="none" xmlns="http://www.w3.org/2000/svg" class="styles_svgWStroke__31a7k"><path d="M10.9 12.617 6.883 8.6a3.673 3.673 0 0 1-1.166.675 4.125 4.125 0 0 1-1.417.242c-1.2 0-2.217-.417-3.05-1.25C.417 7.433 0 6.427 0 5.25c0-1.178.417-2.183 1.25-3.017C2.083 1.4 3.094.983 4.283.983c1.178 0 2.18.417 3.009 1.25.827.834 1.241 1.84 1.241 3.017A4.158 4.158 0 0 1 7.6 7.883l4.05 4.017c.1.089.15.203.15.342a.518.518 0 0 1-.167.375c-.1.1-.222.15-.366.15a.499.499 0 0 1-.367-.15Zm-6.617-4.1c.9 0 1.667-.32 2.3-.959a3.16 3.16 0 0 0 .95-2.308c0-.9-.316-1.67-.95-2.308a3.119 3.119 0 0 0-2.3-.959c-.91 0-1.686.32-2.325.959A3.146 3.146 0 0 0 1 5.25c0 .9.32 1.67.958 2.308a3.166 3.166 0 0 0 2.325.959Z" fill="#FBFBFB" stroke="#FBFBFB"></path></svg>