<svg xmlns:xlink="http://www.w3.org/1999/xlink" xmlns="http://www.w3.org/2000/svg" viewBox="0 0 24 24" class="styles_svg__2s265" width="24"  height="24" ><path d="M12 0a12 12 0 1012 12A12 12 0 0012 0zm1 4.2a.5.5 0 01.3-.5l2.8-1.2a.5.5 0 01.4 0 10.5 10.5 0 013 2.3.5.5 0 01.2.4l-.3 3.1a.5.5 0 01-.2.4l-2 1a.5.5 0 01-.5 0l-3.5-2.5a.5.5 0 01-.2-.4zm-8.6.5a10.5 10.5 0 013.1-2.2.5.5 0 01.4 0l2.8 1.2a.5.5 0 01.3.5v2.6a.5.5 0 01-.2.4L7.4 9.6a.5.5 0 01-.5 0l-2-1a.5.5 0 01-.3-.3L4.3 5a.5.5 0 01.1-.4zm3.4 11.8l-1.2 1.3a.5.5 0 01-.4.1L3 17.2a.5.5 0 01-.3-.2 10.4 10.4 0 01-1.2-3.6.5.5 0 01.1-.4l2-2.2a.5.5 0 01.6-.1l2 1.1a.5.5 0 01.3.3l1.3 4a.5.5 0 01-.1.4zm8 3l-1.6 2.6a.5.5 0 01-.3.2 10.5 10.5 0 01-3.8 0 .5.5 0 01-.3-.2l-1.5-2.6a.5.5 0 010-.6l1.1-1.2a.5.5 0 01.4-.2h4.4a.5.5 0 01.4.2l1.1 1.2a.5.5 0 010 .6zm5.4-2.5a.5.5 0 01-.3.2l-3 .7a.5.5 0 01-.5-.1l-1.2-1.3a.5.5 0 010-.5l1.2-4a.5.5 0 01.3-.2l2-1.1a.5.5 0 01.7 0l1.9 2.3a.5.5 0 01.1.4 10.4 10.4 0 01-1.2 3.6z" fill="#FBFBFB"></path></svg>