<svg width="16" height="16" viewBox="0 0 16 16" fill="#ffffff" xmlns="http://www.w3.org/2000/svg">
    <path id="Vector"
        d="M8 7.78c-.963 0-1.75-.293-2.362-.879-.613-.586-.92-1.34-.92-2.26 0-.922.307-1.676.92-2.262C6.25 1.793 7.037 1.5 8 1.5c.963 0 1.75.293 2.363.88.612.585.918 1.339.918 2.26 0 .921-.306 1.675-.918 2.261-.613.586-1.4.88-2.363.88ZM2.312 14.5c-.364 0-.674-.122-.93-.366a1.186 1.186 0 0 1-.382-.89v-.712c0-.53.139-.984.416-1.36a2.644 2.644 0 0 1 1.071-.859 16.944 16.944 0 0 1 2.811-.942c.897-.21 1.798-.314 2.702-.314.904 0 1.801.108 2.69.325.89.216 1.824.526 2.8.931.453.196.817.482 1.094.858.277.377.416.83.416 1.361v.712c0 .349-.128.645-.383.89a1.295 1.295 0 0 1-.93.366H2.313Z"
        fill="inherit"></path>
</svg>