<svg width="20" height="18" viewBox="0 0 20 18" fill="none" xmlns="http://www.w3.org/2000/svg">
    <path
        d="M13.75 13V9.25003C13.75 8.56003 14.31 8.00003 15 8.00003H18.75V5.50003C18.75 4.81003 18.19 4.25003 17.5 4.25003H16.065L15.455 0.626283C15.4275 0.461283 15.3337 0.313783 15.1975 0.218783C15.06 0.122533 14.8888 0.0887826 14.725 0.115033L2.38625 2.38503C2.2225 2.41503 2.07625 2.51003 1.9825 2.64878C1.88875 2.78753 1.85375 2.95753 1.8875 3.12253L2.11125 4.25003H1.25C0.56 4.25003 0 4.81003 0 5.50003V16.75C0 17.44 0.56 18 1.25 18H17.5C18.19 18 18.75 17.44 18.75 16.75V14.25H15C14.31 14.25 13.75 13.69 13.75 13ZM3.23625 3.50003L14.3275 1.45878L14.7975 4.25003H3.385L3.23625 3.50003ZM19.375 9.25003H15V13H19.375C19.72 13 20 12.72 20 12.375V9.87503C20 9.53003 19.72 9.25003 19.375 9.25003ZM16.875 11.75C16.53 11.75 16.25 11.47 16.25 11.125C16.25 10.78 16.53 10.5 16.875 10.5C17.22 10.5 17.5 10.78 17.5 11.125C17.5 11.47 17.22 11.75 16.875 11.75Z"
        fill="white"></path>
</svg>