<svg
                      xmlns="http://www.w3.org/2000/svg"
                      version="1.1"
                      width="12"
                      height="12"
                      viewBox="0 0 1080 1080"
                    >
                      <g
                        transform="matrix(1 0 0 1 540 540)"
                        id="291ebfa0-a126-4100-b21e-6192ff7baa05"
                      >
                        <rect
                          style={{
                            stroke: "none",
                            strokeWidth: 1,
                            strokeDasharray: "none",
                            strokeLinecap: "butt",
                            strokeDashoffset: 0,
                            strokeLinejoin: "miter",
                            strokeMiterlimit: 4,
                            fill: "rgb(255,255,255)",
                            fillRule: "nonzero",
                            opacity: 1,
                            visibility: "hidden",
                          }}
                          vectorEffect="non-scaling-stroke"
                          x="-540"
                          y="-540"
                          rx="0"
                          ry="0"
                          width="1080"
                          height="1080"
                        />
                      </g>
                      <g
                        transform="matrix(1 0 0 1 540 540)"
                        id="98dad8fe-100b-440c-8c7b-12ee752b0943"
                      ></g>
                      <g transform="matrix(70.4 0 0 70.26 539.38 538.96)">
                        <path
                          style={{
                            stroke: "none",
                            strokeWidth: 1,
                            strokeDasharray: "none",
                            strokeLinecap: "butt",
                            strokeDashoffset: 0,
                            strokeLinejoin: "miter",
                            strokeMiterlimit: 4,
                            fill: "rgb(255,255,255)",
                            fillRule: "nonzero",
                            opacity: 1,
                          }}
                          transform=" translate(-12, -10.99)"
                          d="M 11.293 4.293 C 11.683499851485813 3.9026180616671375 12.316500148514184 3.9026180616671375 12.706999999999999 4.293 L 18.707 10.293 C 19.085972209508114 10.685378886964308 19.080552373897117 11.309084777021123 18.69481857545912 11.694818575459118 C 18.309084777021123 12.080552373897115 17.68537888696431 12.085972209508112 17.293 11.706999999999999 L 12 6.414 L 6.707 11.707 C 6.314621113035688 12.085972209508089 5.690915222978893 12.080552373897081 5.305181424540907 11.694818575459095 C 4.9194476261029205 11.309084777021107 4.914027790491912 10.685378886964314 5.293 10.293000000000001 L 11.293 4.293000000000001 z M 12 12.414 L 6.707 17.707 C 6.314621113035692 18.085972209508114 5.690915222978876 18.080552373897117 5.305181424540879 17.69481857545912 C 4.919447626102882 17.309084777021123 4.914027790491886 16.68537888696431 5.293 16.293 L 11.293 10.293 C 11.683499851485813 9.902618061667138 12.316500148514184 9.902618061667136 12.706999999999999 10.293 L 18.707 16.293 C 19.08597220950814 16.685378886964305 19.080552373897152 17.309084777021138 18.694818575459145 17.694818575459145 C 18.30908477702114 18.080552373897152 17.6853788869643 18.08597220950814 17.293 17.707 L 12 12.414 z"
                          strokeLinecap="round"
                        />
                      </g>
                    </svg>