<svg xmlns="http://www.w3.org/2000/svg" width="150" height="150.001" viewBox="0 0 150 150.001">
  <g id="组_667" data-name="组 667" transform="translate(300.879 -221.909)">
    <path id="联合_17" data-name="联合 17" d="M74.851,150a74.958,74.958,0,1,1,.185,0ZM39.031,55.088H64.943v9.12c-3.614.378-7.158.666-10.677,1.131-6.438.848-12.838,1.953-18.808,4.647a20.165,20.165,0,0,0-5,3.2c-1.916,1.694-1.849,3.834-.018,5.639a13.163,13.163,0,0,0,3.176,2.3c6.614,3.4,13.832,4.6,21.091,5.577,3.373.452,6.771.714,10.371,1.083v32.884H84.212v-2.014q0-14.717-.014-29.434c0-1.015.1-1.65,1.377-1.634a43.427,43.427,0,0,0,4.671-.307,96.591,96.591,0,0,0,20.524-3.8c3.023-.973,6.013-2.077,8.42-4.257,2.293-2.077,2.39-4.422.026-6.38a21.26,21.26,0,0,0-5.234-3.125c-6.53-2.759-13.471-3.854-20.456-4.672-3.041-.357-6.1-.575-9.195-.861v-9.21H110.3V35.928H39.031ZM69,81.6a129.17,129.17,0,0,1-24.275-2.527c-2.37-.517-4.677-1.335-7-2.052a6.671,6.671,0,0,1-1.438-.71c-2.626-1.588-2.748-3.493.033-4.686a43.969,43.969,0,0,1,9.991-3.1c5.809-.965,11.707-1.4,17.568-2.05.327-.036.661,0,1.112,0V77.6H84.214V66.313c3.443.266,6.716.342,9.933.809q7.586,1.1,15.1,2.672a17.06,17.06,0,0,1,5.061,2.193c1.9,1.134,1.952,2.866-.008,3.865a33.576,33.576,0,0,1-7.741,2.919A137.879,137.879,0,0,1,76.119,81.7Q72.561,81.7,69,81.6Z" transform="translate(-300.879 221.909)"/>
  </g>
</svg>
