<svg width="14" height="12" viewBox="0 0 14 12" fill="none" xmlns="http://www.w3.org/2000/svg">
<path fill-rule="evenodd" clip-rule="evenodd" d="M8.36805 0.275391H5.82585V5.45285H3.70874L7.10074 9.10357L10.4927 5.45285H8.36805V0.275391Z" fill="#3d3d3d"/>
<path fill-rule="evenodd" clip-rule="evenodd" d="M0.966553 8.14224C0.966553 7.98062 1.09757 7.84961 1.25918 7.84961H1.76613C1.92775 7.84961 2.05876 7.98062 2.05876 8.14224V10.6284L12.1443 10.6284V8.14224C12.1443 7.98062 12.2753 7.84961 12.4369 7.84961H12.9439C13.1055 7.84961 13.2365 7.98062 13.2365 8.14224V11.4283C13.2365 11.4378 13.236 11.4472 13.2352 11.4564V11.7206H12.9578C12.9532 11.7208 12.9485 11.7209 12.9439 11.7209H12.4369C12.4322 11.7209 12.4276 11.7208 12.423 11.7206L1.78005 11.7206C1.77544 11.7208 1.7708 11.7209 1.76613 11.7209H1.25918C1.25452 11.7209 1.24988 11.7208 1.24527 11.7206H0.966553V11.4283V10.6284V8.14224Z" fill="#3d3d3d"/>
</svg>