<svg width="40" height="40" viewBox="0 0 40 40" fill="none" xmlns="http://www.w3.org/2000/svg">
<path d="M33.8716 15.8684L31.3392 14.6988L30.4424 12.532L31.4072 9.9144C31.4784 9.7216 31.4308 9.5048 31.2852 9.3596L28.818 6.894C28.6728 6.7488 28.4564 6.7012 28.2636 6.7724L25.646 7.7372L23.4792 6.8404L22.3112 4.3064C22.2252 4.1196 22.0384 4 21.8328 4H18.3444C18.1388 4 17.9524 4.1196 17.866 4.306L16.6964 6.84L14.5316 7.7368L11.914 6.7724C11.7212 6.7012 11.5048 6.7488 11.3596 6.894L8.8924 9.3596C8.7468 9.5048 8.6992 9.7216 8.7704 9.9144L9.7352 12.532L8.8384 14.6988L6.306 15.8684C6.1196 15.9544 6 16.1412 6 16.3468V19.8332C6 20.0388 6.1196 20.2252 6.306 20.3116L8.8384 21.4812L9.7352 23.648L8.7704 26.2656C8.6992 26.4584 8.7468 26.6748 8.892 26.8204L9.746 27.6744L7.1536 28.122C6.9612 28.1552 6.8028 28.2924 6.7424 28.4784C6.682 28.6644 6.7296 28.8684 6.8656 29.0084L8.9172 31.118L8.4968 34.0324C8.4688 34.226 8.5504 34.4188 8.7084 34.5336C8.8 34.6004 8.9088 34.634 9.018 34.634C9.0972 34.634 9.1768 34.616 9.2504 34.58L11.892 33.2796L14.5336 34.58C14.7092 34.6664 14.9176 34.6484 15.076 34.5336C15.234 34.4188 15.3156 34.2256 15.2876 34.0324L14.8672 31.118L15.4288 30.5404L16.3672 31.5044L15.8052 35.3984C15.7772 35.592 15.8588 35.7848 16.0168 35.8996C16.1084 35.9664 16.2172 36 16.3264 36C16.4056 36 16.4852 35.982 16.5588 35.946L20.0868 34.2092L23.6168 35.946C23.7924 36.0324 24.0008 36.0144 24.1592 35.8996C24.3172 35.7848 24.3988 35.5916 24.3708 35.3984L23.8088 31.5044L24.7472 30.5404L25.3088 31.118L24.8884 34.0324C24.8604 34.226 24.942 34.4188 25.1 34.5336C25.2584 34.6484 25.4668 34.6664 25.6424 34.58L28.284 33.2796L30.9256 34.58C30.9992 34.6164 31.0788 34.634 31.158 34.634C31.2672 34.634 31.376 34.6 31.4676 34.5336C31.6256 34.4188 31.7072 34.2256 31.6792 34.0324L31.2588 31.118L33.3104 29.0084C33.4468 28.8684 33.494 28.6644 33.4336 28.4784C33.3732 28.2924 33.2148 28.1552 33.0224 28.122L30.43 27.6744L31.284 26.8204C31.4292 26.6752 31.4768 26.4584 31.4056 26.266L30.4408 23.6484L31.3376 21.4816L33.8696 20.3136C34.056 20.2276 34.1756 20.0408 34.1756 19.8352V16.3468C34.1756 16.1412 34.056 15.9548 33.8696 15.8684H33.8716ZM13.9316 30.5688C13.8176 30.686 13.7644 30.8496 13.788 31.0112L14.1028 33.1932L12.1252 32.2196C11.9784 32.1472 11.8068 32.1472 11.66 32.2196L9.6824 33.1932L9.9972 31.0112C10.0204 30.8496 9.9676 30.686 9.8536 30.5688L8.318 28.9896L10.4896 28.6148C10.6508 28.5868 10.7896 28.486 10.866 28.3412L11.8932 26.3924L12.9204 28.3412C12.9964 28.486 13.1356 28.5868 13.2968 28.6148L13.6112 28.6692C13.616 28.6744 13.62 28.6804 13.6248 28.6852L14.6952 29.7848L13.9324 30.5692L13.9316 30.5688ZM22.8736 30.9548C22.7596 31.072 22.7064 31.2356 22.7296 31.3976L23.186 34.5592L20.32 33.1488C20.2468 33.1128 20.1672 33.0948 20.0876 33.0948C20.008 33.0948 19.9284 33.1128 19.8548 33.1488L16.9908 34.5588L17.4472 31.3972C17.4704 31.2352 17.4176 31.0716 17.3032 30.9544L15.076 28.666L18.2228 28.1232C18.384 28.0956 18.5232 27.9944 18.5992 27.8496L20.0876 25.0252L21.5776 27.85C21.654 27.9944 21.7928 28.0956 21.954 28.1232L25.1008 28.666L22.8736 30.9548ZM17.4932 21.9468C17.2024 21.9468 16.9664 22.1828 16.9664 22.4736V24.6184C16.5324 24.41 16.1228 24.1596 15.7428 23.8732V22.1524C15.7428 20.888 16.8688 19.8592 18.2528 19.8592H21.924C23.308 19.8592 24.434 20.888 24.434 22.1524V23.8728C24.054 24.1596 23.6448 24.4096 23.2104 24.618V22.4732C23.2104 22.1824 22.9744 21.9464 22.6836 21.9464C22.3928 21.9464 22.1568 22.1824 22.1568 22.4732V25.0248C21.9024 25.1004 21.642 25.1624 21.3764 25.21L20.5532 23.6496C20.462 23.4768 20.2828 23.3684 20.0872 23.3684C19.8916 23.3684 19.7124 23.4768 19.6212 23.6496L18.7992 25.21C18.534 25.1624 18.2736 25.1004 18.02 25.0248V22.4732C18.02 22.1824 17.784 21.9468 17.4932 21.9468ZM21.924 18.8056H21.8912C22.6648 18.0712 23.0704 16.882 23.0704 15.7376C23.0704 14.094 21.7324 12.7564 20.0876 12.7564C18.4428 12.7564 17.1064 14.0936 17.1064 15.7376C17.1064 16.882 17.5116 18.0712 18.2852 18.8056H18.2528C16.288 18.8056 14.6896 20.3072 14.6896 22.1524V22.9012C13.5444 21.614 12.854 19.9212 12.854 18.0892C12.854 14.0996 16.0988 10.8536 20.0876 10.8536C24.0764 10.8536 27.3232 14.0996 27.3232 18.0892C27.3232 19.9212 26.6328 21.614 25.4876 22.9012V22.1524C25.4876 20.3068 23.8888 18.8056 21.924 18.8056ZM18.16 15.7376C18.16 14.6748 19.0248 13.81 20.0876 13.81C21.1504 13.81 22.0168 14.6748 22.0168 15.7376C22.0168 16.8744 21.4184 18.4752 20.0876 18.4752C18.7568 18.4752 18.16 16.8744 18.16 15.7376ZM30.324 30.5684C30.21 30.6856 30.1568 30.8492 30.1804 31.0108L30.4952 33.1928L28.5176 32.2192C28.3708 32.1468 28.1992 32.1468 28.0524 32.2192L26.0748 33.1928L26.3896 31.0108C26.4128 30.8492 26.36 30.6856 26.246 30.5684L25.4836 29.7844L26.554 28.6848C26.5592 28.6796 26.5632 28.6736 26.568 28.6684L26.8804 28.6144C27.0416 28.5864 27.1804 28.4856 27.2564 28.3412L28.2852 26.3916L29.3128 28.3412C29.3888 28.486 29.528 28.5868 29.6892 28.6148L31.8608 28.9896L30.3252 30.5688L30.324 30.5684ZM33.1236 19.4972L30.7104 20.6104C30.59 20.666 30.4948 20.7648 30.4444 20.8872L29.39 23.4348C29.3392 23.5572 29.3368 23.694 29.3824 23.8184L30.3016 26.3128L29.7332 26.8812L28.7504 25.0164C28.6592 24.8436 28.48 24.7352 28.2844 24.7352C28.0892 24.7352 27.9096 24.8432 27.8184 25.016L26.4444 27.62L25.8396 27.7244L22.3884 27.1288L21.8888 26.1816C25.6352 25.352 28.3764 21.9964 28.3764 18.0888C28.3764 13.5184 24.658 9.7996 20.0872 9.7996C15.5164 9.7996 11.8 13.518 11.8 18.0888C11.8 21.9964 14.5408 25.352 18.2872 26.1816L17.788 27.1288L14.3364 27.7244L13.73 27.6196L12.3576 25.016C12.2664 24.8432 12.0872 24.7348 11.8916 24.7348C11.696 24.7348 11.5168 24.8432 11.4256 25.016L10.4428 26.8808L9.8744 26.3124L10.7936 23.818C10.8392 23.6936 10.8368 23.5568 10.786 23.4344L9.7316 20.8868C9.6808 20.7644 9.586 20.6656 9.4656 20.61L7.052 19.4952V16.6828L9.4656 15.568C9.586 15.5124 9.6808 15.4136 9.7316 15.2912L10.786 12.7436C10.8368 12.6212 10.8392 12.4844 10.7936 12.36L9.8744 9.8656L11.8648 7.8764L14.3596 8.7956C14.484 8.8416 14.6208 8.8388 14.7432 8.788L17.2888 7.7336C17.4112 7.6828 17.51 7.588 17.5656 7.4676L18.6804 5.0524H21.4944L22.6076 7.4672C22.6632 7.5876 22.762 7.6828 22.8844 7.7336L25.432 8.788C25.5544 8.8388 25.6912 8.8416 25.8156 8.7956L28.31 7.8764L30.3004 9.8656L29.3812 12.36C29.3356 12.4844 29.338 12.6212 29.3888 12.7436L30.4432 15.2912C30.494 15.4136 30.5888 15.5124 30.7092 15.568L33.1228 16.6828V19.4972H33.1236Z" fill="white"/>
</svg>
