<svg width="40" height="40" viewBox="0 0 40 40" fill="none" xmlns="http://www.w3.org/2000/svg">
<path d="M5.91675 20.5888C5.91675 20.9515 6.02431 21.3061 6.22582 21.6077C6.42734 21.9093 6.71376 22.1444 7.04887 22.2832C7.38398 22.422 7.75272 22.4583 8.10847 22.3875C8.46422 22.3168 8.791 22.1421 9.04748 21.8856C9.30396 21.6291 9.47863 21.3024 9.54939 20.9466C9.62016 20.5909 9.58384 20.2221 9.44503 19.887C9.30622 19.5519 9.07116 19.2655 8.76957 19.064C8.46798 18.8624 8.11341 18.7549 7.75069 18.7549C7.2643 18.7549 6.79783 18.9481 6.4539 19.292C6.10997 19.636 5.91675 20.1024 5.91675 20.5888ZM8.66766 20.5888C8.66766 20.7702 8.61388 20.9475 8.51312 21.0983C8.41237 21.2491 8.26915 21.3666 8.1016 21.436C7.93404 21.5054 7.74967 21.5236 7.5718 21.4882C7.39392 21.4528 7.23053 21.3655 7.10229 21.2372C6.97405 21.109 6.88672 20.9456 6.85134 20.7677C6.81596 20.5898 6.83412 20.4055 6.90352 20.2379C6.97292 20.0704 7.09045 19.9271 7.24125 19.8264C7.39204 19.7256 7.56933 19.6719 7.75069 19.6719C7.99389 19.6719 8.22712 19.7685 8.39909 19.9404C8.57105 20.1124 8.66766 20.3456 8.66766 20.5888Z" fill="white"/>
<path d="M8.36358 33.8844C9.12467 33.8844 10.0416 33.2746 10.0416 32.5089V26.3515L13.0814 27.8599C13.1784 27.9075 13.289 27.9194 13.3939 27.8934C13.4987 27.8674 13.591 27.8052 13.6545 27.7178L14.654 26.3423C14.6915 26.2907 14.7178 26.2318 14.7312 26.1694C14.7446 26.1071 14.7449 26.0426 14.7319 25.9801C14.7191 25.9174 14.6933 25.8581 14.6562 25.806C14.6191 25.7539 14.5715 25.7101 14.5165 25.6775L9.81698 22.9266C9.74444 22.891 9.66378 22.8751 9.58316 22.8807H6.48838C6.23209 22.8739 5.98281 22.9648 5.79119 23.1352C5.59957 23.3055 5.48 23.5424 5.45679 23.7977V32.5089C5.46877 32.8819 5.62694 33.2352 5.89715 33.4925C6.16736 33.7498 6.52792 33.8906 6.90102 33.8844H8.36358ZM6.37376 32.5089V23.8206C6.40912 23.8026 6.44879 23.7946 6.48838 23.7977H9.45936L13.6132 26.2369L13.1548 26.8833L9.79864 25.219C9.72895 25.1788 9.64988 25.1576 9.5694 25.1576C9.48892 25.1576 9.40986 25.1788 9.34016 25.219C9.27067 25.2623 9.21404 25.3234 9.17615 25.3959C9.13826 25.4685 9.12048 25.5499 9.12467 25.6316V32.5089C9.12467 32.6786 8.73954 32.9674 8.36358 32.9674H6.90102C6.77122 32.9727 6.6443 32.9282 6.54627 32.843C6.44824 32.7577 6.38652 32.6382 6.37376 32.5089Z" fill="white"/>
<path d="M29.7568 20.5888C29.7568 20.9515 29.8644 21.3061 30.0659 21.6077C30.2674 21.9093 30.5538 22.1444 30.889 22.2832C31.2241 22.422 31.5928 22.4583 31.9486 22.3875C32.3043 22.3168 32.6311 22.1421 32.8876 21.8856C33.1441 21.6291 33.3187 21.3024 33.3895 20.9466C33.4602 20.5909 33.4239 20.2221 33.2851 19.887C33.1463 19.5519 32.9113 19.2655 32.6097 19.064C32.3081 18.8624 31.9535 18.7549 31.5908 18.7549C31.1044 18.7549 30.6379 18.9481 30.294 19.292C29.9501 19.636 29.7568 20.1024 29.7568 20.5888ZM31.5908 19.6719C31.7721 19.6719 31.9494 19.7256 32.1002 19.8264C32.251 19.9271 32.3685 20.0704 32.4379 20.2379C32.5074 20.4055 32.5255 20.5898 32.4901 20.7677C32.4547 20.9456 32.3674 21.109 32.2392 21.2372C32.1109 21.3655 31.9475 21.4528 31.7697 21.4882C31.5918 21.5236 31.4074 21.5054 31.2399 21.436C31.0723 21.3666 30.9291 21.2491 30.8283 21.0983C30.7276 20.9475 30.6738 20.7702 30.6738 20.5888C30.6738 20.3456 30.7704 20.1124 30.9424 19.9404C31.1143 19.7685 31.3476 19.6719 31.5908 19.6719Z" fill="white"/>
<path d="M32.8527 22.8817H29.7579C29.676 22.8803 29.5953 22.9009 29.5241 22.9413L24.8246 25.6922C24.7696 25.7248 24.722 25.7686 24.6848 25.8207C24.6477 25.8728 24.6219 25.9321 24.6091 25.9948C24.5962 26.0573 24.5964 26.1218 24.6099 26.1842C24.6233 26.2465 24.6496 26.3054 24.6871 26.357L25.6866 27.7325C25.75 27.8199 25.8423 27.8821 25.9472 27.9081C26.052 27.9341 26.1627 27.9222 26.2597 27.8746L29.2994 26.3524V32.5099C29.2994 33.2939 30.2164 33.8854 30.9775 33.8854H32.44C32.8131 33.8916 33.1737 33.7508 33.4439 33.4935C33.7141 33.2361 33.8723 32.8829 33.8843 32.5099V23.7987C33.8611 23.5434 33.7415 23.3065 33.5499 23.1361C33.3583 22.9658 33.109 22.8748 32.8527 22.8817ZM32.9673 32.5099C32.9545 32.6392 32.8928 32.7587 32.7948 32.8439C32.6968 32.9292 32.5698 32.9737 32.44 32.9684H30.9775C30.6015 32.9684 30.2164 32.6612 30.2164 32.5099V25.6326C30.2165 25.5547 30.1968 25.478 30.1591 25.4098C30.1214 25.3417 30.067 25.2842 30.0009 25.2429C29.9279 25.1977 29.8437 25.1739 29.7579 25.1741C29.688 25.1739 29.619 25.1895 29.5562 25.22L26.2001 26.8843L25.7416 26.2378L29.8817 23.7987H32.8527C32.8941 23.8011 32.9339 23.8155 32.9673 23.8399V32.5099Z" fill="white"/>
<path d="M13.2532 11.8773V19.2131C13.2535 19.2914 13.2739 19.3684 13.3124 19.4366C13.351 19.5048 13.4063 19.5621 13.4732 19.6028L19.4336 23.2707C19.5033 23.3109 19.5823 23.3321 19.6628 23.3321C19.7433 23.3321 19.8223 23.3109 19.892 23.2707L25.8524 19.6028C25.9227 19.5644 25.9817 19.5081 26.0236 19.4398C26.0654 19.3714 26.0886 19.2932 26.0908 19.2131V11.8773C26.0904 11.799 26.07 11.722 26.0315 11.6538C25.993 11.5856 25.9376 11.5284 25.8707 11.4876L19.9104 7.81973C19.8407 7.77949 19.7616 7.7583 19.6811 7.7583C19.6007 7.7583 19.5216 7.77949 19.4519 7.81973L13.4916 11.4876C13.4212 11.5261 13.3622 11.5823 13.3204 11.6507C13.2785 11.719 13.2554 11.7972 13.2532 11.8773ZM14.1701 12.1341L19.672 8.74587L25.1738 12.1341V18.9563L19.672 22.3445L14.1701 18.9563V12.1341Z" fill="white"/>
<path d="M21.8392 19.1581C21.9147 19.1976 21.9998 19.2153 22.0849 19.2091C22.1699 19.203 22.2516 19.1732 22.3206 19.1232C22.3897 19.0732 22.4434 19.0049 22.4758 18.926C22.5082 18.8472 22.518 18.7608 22.504 18.6767L22.0914 16.2605L23.8474 14.5503C23.9063 14.4915 23.9481 14.4178 23.9683 14.337C23.9885 14.2562 23.9863 14.1715 23.962 14.0918C23.9358 14.011 23.8876 13.939 23.8228 13.8839C23.758 13.8289 23.6792 13.7929 23.5952 13.7801L21.1652 13.427L20.0832 11.2171C20.0457 11.1396 19.987 11.0742 19.9141 11.0285C19.8411 10.9828 19.7567 10.9585 19.6706 10.9585C19.5844 10.9585 19.5 10.9828 19.4271 11.0285C19.3541 11.0742 19.2955 11.1396 19.2579 11.2171L18.1759 13.4133L15.7459 13.7663C15.6619 13.7792 15.5831 13.8151 15.5183 13.8702C15.4535 13.9252 15.4054 13.9972 15.3791 14.0781C15.3548 14.1577 15.3526 14.2425 15.3728 14.3232C15.393 14.404 15.4348 14.4778 15.4938 14.5366L17.2498 16.2467L16.8371 18.6629C16.8231 18.747 16.8329 18.8334 16.8653 18.9123C16.8977 18.9911 16.9514 19.0594 17.0205 19.1094C17.0896 19.1594 17.1712 19.1892 17.2562 19.1954C17.3413 19.2015 17.4264 19.1839 17.5019 19.1443L19.6706 18.0211L21.8392 19.1581ZM17.8962 17.9156L18.1942 16.1779C18.2063 16.105 18.2005 16.0301 18.1773 15.9599C18.1541 15.8896 18.1143 15.826 18.0613 15.7745L16.8004 14.5412L18.5427 14.289C18.617 14.2787 18.6876 14.2503 18.7483 14.2063C18.8091 14.1623 18.8581 14.1041 18.8911 14.0368L19.6706 12.455L20.45 14.0368C20.483 14.1041 20.5321 14.1623 20.5928 14.2063C20.6536 14.2503 20.7242 14.2787 20.7984 14.289L22.5407 14.5412L21.2798 15.7745C21.2268 15.826 21.187 15.8896 21.1638 15.9599C21.1407 16.0301 21.1349 16.105 21.1469 16.1779L21.4449 17.9156L19.886 17.0949C19.819 17.0618 19.7453 17.0445 19.6706 17.0445C19.5958 17.0445 19.5221 17.0618 19.4551 17.0949L17.8962 17.9156Z" fill="white"/>
<path d="M17.7612 5.83571L17.1836 7.01861C16.4399 7.22895 15.7276 7.53732 15.0654 7.93558L13.8045 7.57337C13.7335 7.5524 13.6584 7.54896 13.5858 7.56333C13.5131 7.5777 13.445 7.60947 13.3873 7.6559C13.0301 7.9377 12.6931 8.2441 12.3786 8.57287C12.0691 8.9024 11.7812 9.25157 11.5167 9.61822C11.4726 9.67806 11.4437 9.74772 11.4325 9.8212C11.4213 9.89468 11.4282 9.96978 11.4525 10.04L11.8789 11.2779C11.5056 11.9546 11.2235 12.6776 11.0398 13.4282L9.88447 14.0564C9.81913 14.0915 9.76329 14.142 9.72177 14.2035C9.68024 14.265 9.65426 14.3356 9.64605 14.4094C9.54432 15.3112 9.56437 16.2226 9.70566 17.119C9.71738 17.1917 9.74641 17.2604 9.7903 17.3195C9.83419 17.3785 9.89165 17.4261 9.95782 17.4583L11.1407 18.036C11.3511 18.7796 11.6594 19.4919 12.0577 20.1542L11.6817 21.415C11.6608 21.4861 11.6573 21.5611 11.6717 21.6338C11.6861 21.7065 11.7178 21.7746 11.7643 21.8323C12.0461 22.1894 12.3525 22.5265 12.6812 22.8409C13.0108 23.1505 13.3599 23.4384 13.7266 23.7029C13.7864 23.747 13.8561 23.7759 13.9296 23.787C14.003 23.7982 14.0781 23.7914 14.1484 23.7671L15.4046 23.3407C16.0807 23.7151 16.8039 23.9973 17.5549 24.1797L18.1831 25.3351C18.2182 25.4004 18.2687 25.4563 18.3302 25.4978C18.3917 25.5393 18.4623 25.5653 18.5361 25.5735C18.9137 25.6141 19.2933 25.634 19.6731 25.6331C20.2013 25.6331 20.7286 25.5917 21.2503 25.5093C21.323 25.4976 21.3917 25.4686 21.4508 25.4247C21.5098 25.3808 21.5574 25.3233 21.5896 25.2572L22.1673 24.0743C22.9109 23.8639 23.6232 23.5556 24.2855 23.1573L25.5463 23.5333C25.6174 23.5542 25.6924 23.5577 25.7651 23.5433C25.8377 23.5289 25.9058 23.4972 25.9636 23.4507C26.3207 23.1689 26.6578 22.8625 26.9722 22.5338C27.2808 22.2111 27.5673 21.868 27.8296 21.5067C27.8737 21.4469 27.9026 21.3772 27.9137 21.3038C27.9249 21.2303 27.9181 21.1552 27.8938 21.0849L27.4674 19.8149C27.8406 19.1383 28.1227 18.4153 28.3064 17.6646L29.4618 17.0365C29.5271 17.0014 29.583 16.9509 29.6245 16.8894C29.666 16.8279 29.692 16.7572 29.7002 16.6835C29.8019 15.7817 29.7819 14.8703 29.6406 13.9738C29.6289 13.9012 29.5998 13.8324 29.556 13.7734C29.5121 13.7143 29.4546 13.6667 29.3884 13.6345L28.201 13.0569C27.9906 12.3132 27.6822 11.6009 27.284 10.9387L27.6599 9.67782C27.6809 9.60678 27.6844 9.53172 27.67 9.45906C27.6556 9.3864 27.6239 9.3183 27.5774 9.2606C27.2956 8.90344 26.9892 8.56639 26.6604 8.25193C26.338 7.94173 25.9949 7.65375 25.6334 7.38998C25.5696 7.33956 25.4935 7.30705 25.4129 7.29577C25.3323 7.28449 25.2502 7.29485 25.175 7.32579L23.9416 7.75218C23.2655 7.37777 22.5423 7.09558 21.7913 6.91315L21.1586 5.76236C21.1239 5.6976 21.0741 5.64214 21.0135 5.60065C20.9528 5.55916 20.8831 5.53285 20.8102 5.52394C19.9084 5.42227 18.997 5.44231 18.1005 5.58355C18.0279 5.59527 17.9591 5.6243 17.9001 5.66819C17.841 5.71208 17.7934 5.76954 17.7612 5.83571ZM20.4709 6.4134L21.0853 7.53669C21.1164 7.5943 21.1595 7.64456 21.2117 7.68411C21.2639 7.72365 21.324 7.75155 21.3879 7.76594C22.1937 7.93864 22.9674 8.23726 23.6803 8.65081C23.7373 8.68395 23.8009 8.70438 23.8666 8.71071C23.9322 8.71704 23.9985 8.70912 24.0608 8.68749L25.2712 8.27027C25.8072 8.6662 26.2909 9.12836 26.7109 9.64573L26.3487 10.8745C26.3298 10.9371 26.3245 11.0031 26.3332 11.0679C26.3419 11.1328 26.3644 11.195 26.3991 11.2504C26.843 11.9415 27.1757 12.6981 27.3849 13.4924C27.402 13.5559 27.4325 13.6149 27.4744 13.6656C27.5164 13.7162 27.5687 13.7572 27.6279 13.7858L28.7787 14.3452C28.8657 15.0065 28.8796 15.6753 28.8199 16.3396L27.6966 16.954C27.639 16.9851 27.5888 17.0282 27.5492 17.0804C27.5097 17.1326 27.4818 17.1927 27.4674 17.2566C27.2913 18.0615 26.9929 18.8346 26.5825 19.549C26.5494 19.6061 26.5289 19.6696 26.5226 19.7353C26.5163 19.801 26.5242 19.8672 26.5458 19.9296L26.963 21.14C26.5671 21.6759 26.105 22.1597 25.5876 22.5796L24.3589 22.2174C24.2962 22.1985 24.2303 22.1932 24.1654 22.2019C24.1006 22.2106 24.0383 22.2331 23.9829 22.2678C23.293 22.7109 22.5381 23.0435 21.7455 23.2536C21.6812 23.2701 21.6212 23.3004 21.5698 23.3423C21.5183 23.3843 21.4766 23.4369 21.4475 23.4966L20.8881 24.6474C20.2269 24.7344 19.558 24.7483 18.8937 24.6886L18.2793 23.5653C18.2482 23.5077 18.2051 23.4575 18.1529 23.4179C18.1007 23.3784 18.0406 23.3505 17.9767 23.3361C17.1709 23.1634 16.3972 22.8648 15.6843 22.4512C15.6273 22.4181 15.5637 22.3977 15.498 22.3913C15.4324 22.385 15.3661 22.3929 15.3038 22.4145L14.0934 22.8318C13.5574 22.4358 13.0737 21.9737 12.6537 21.4563L13.0159 20.2276C13.0348 20.1649 13.0401 20.099 13.0314 20.0341C13.0227 19.9693 13.0002 19.9071 12.9655 19.8516C12.5216 19.1605 12.1889 18.4039 11.9797 17.6096C11.9626 17.5461 11.9321 17.4871 11.8902 17.4365C11.8482 17.3858 11.7959 17.3448 11.7367 17.3162L10.5859 16.7568C10.4989 16.0956 10.485 15.4267 10.5447 14.7624L11.668 14.1481C11.7256 14.1169 11.7758 14.0738 11.8154 14.0216C11.8549 13.9694 11.8828 13.9093 11.8972 13.8455C12.0733 13.0406 12.3717 12.2675 12.7821 11.553C12.8152 11.496 12.8357 11.4324 12.842 11.3668C12.8483 11.3011 12.8404 11.2348 12.8188 11.1725L12.4016 9.96208C12.603 9.69532 12.8188 9.43971 13.048 9.19641C13.279 8.95747 13.524 8.73242 13.7816 8.52244L15.0103 8.88464C15.073 8.90355 15.1389 8.90883 15.2038 8.90013C15.2686 8.89143 15.3309 8.86895 15.3863 8.83421C16.0762 8.39111 16.8311 8.05852 17.6237 7.84846C17.688 7.83195 17.748 7.80167 17.7994 7.75972C17.8509 7.71776 17.8926 7.66513 17.9217 7.60547L18.4811 6.45467C19.1408 6.36795 19.8081 6.35412 20.4709 6.4134Z" fill="white"/>
</svg>
