<svg width="40" height="40" viewBox="0 0 40 40" fill="none" xmlns="http://www.w3.org/2000/svg">
<path d="M11.7259 9.80743C11.7259 9.59916 11.8949 9.43012 12.1032 9.43012H18.969C19.1773 9.43012 19.3463 9.59916 19.3463 9.80743C19.3463 10.0157 19.1773 10.1847 18.969 10.1847H12.1032C11.8949 10.1847 11.7259 10.0157 11.7259 9.80743ZM12.1032 13.1843H22.8375C23.0458 13.1843 23.2148 13.0153 23.2148 12.807C23.2148 12.5987 23.0458 12.4297 22.8375 12.4297H12.1032C11.8949 12.4297 11.7259 12.5987 11.7259 12.807C11.7259 13.0153 11.8949 13.1843 12.1032 13.1843ZM12.1032 16.1839H22.8375C23.0458 16.1839 23.2148 16.0149 23.2148 15.8066C23.2148 15.5983 23.0458 15.4293 22.8375 15.4293H12.1032C11.8949 15.4293 11.7259 15.5983 11.7259 15.8066C11.7259 16.0149 11.8949 16.1839 12.1032 16.1839ZM32.0671 20.325V24.9986C32.0671 27.0192 31.2447 28.7686 29.6889 30.0575L25.5633 33.4759C25.276 33.7138 24.9278 33.8314 24.5807 33.8314C24.1893 33.8314 23.7995 33.6819 23.5001 33.3867L20.8939 30.8183H8.33262C7.41403 30.8183 6.66675 30.071 6.66675 29.1524V10.8987C6.66675 9.98014 7.41403 9.23286 8.33262 9.23286H9.23286V8.33262C9.23286 7.41403 9.98014 6.66675 10.8987 6.66675H20.684C21.2549 6.66675 21.7493 6.87163 22.1531 7.27519L25.0994 10.2214C25.5032 10.6253 25.7078 11.1194 25.7078 11.6906V17.6062L31.8258 19.9731C31.9711 20.0293 32.0671 20.1692 32.0671 20.325ZM21.7657 7.95502V10.6092H24.4198L21.7657 7.95502ZM9.98748 26.5866C9.98748 27.0889 10.3961 27.4979 10.8987 27.4979H18.5028C18.2835 26.8383 18.1732 26.134 18.1732 25.3875V25.1824H12.1032C11.8949 25.1824 11.7259 25.0133 11.7259 24.805C11.7259 24.5968 11.8949 24.4277 12.1032 24.4277H18.1732V22.1828H12.1032C11.8949 22.1828 11.7259 22.0137 11.7259 21.8055C11.7259 21.5972 11.8949 21.4282 12.1032 21.4282H18.1732V20.3247C18.1732 20.1689 18.2688 20.029 18.4145 19.9728L20.4557 19.1832H12.1032C11.8949 19.1832 11.7259 19.0142 11.7259 18.8059C11.7259 18.5976 11.8949 18.4286 12.1032 18.4286H22.406L24.9532 17.4431V11.6906C24.9532 11.5757 24.9408 11.4668 24.916 11.3635H21.3884C21.1801 11.3635 21.0111 11.1945 21.0111 10.9862V7.45862C20.9078 7.43379 20.7988 7.42137 20.684 7.42137H10.8987C10.3964 7.42137 9.98748 7.83029 9.98748 8.33262V26.5866ZM8.33262 30.064H20.1286C19.5704 29.5134 19.131 28.9083 18.811 28.2525H10.8987C9.98014 28.2525 9.23286 27.5052 9.23286 26.5866V9.98748H8.33262C7.83029 9.98748 7.42137 10.3964 7.42137 10.8987V29.1527C7.42137 29.6551 7.83029 30.064 8.33262 30.064ZM31.3125 20.5835L25.1203 18.1879L18.9281 20.5835V25.3875C18.9281 26.2327 19.0796 27.0023 19.3858 27.7073C19.3915 27.7188 19.3968 27.7307 19.4013 27.7428C19.6883 28.3902 20.1071 28.9831 20.6614 29.5295L24.0304 32.8494C24.3188 33.1333 24.7709 33.153 25.0825 32.8948L29.2075 29.4767C30.6044 28.3194 31.3125 26.8127 31.3125 24.9986V20.5835ZM25.2563 19.0912L30.3041 21.0441C30.4495 21.1002 30.5454 21.2402 30.5454 21.396V25.0209C30.5454 26.5996 29.9291 27.9107 28.7133 28.9182L24.8508 32.1184C24.7808 32.1766 24.6953 32.2051 24.61 32.2051C24.5141 32.2051 24.4184 32.1687 24.345 32.0964L21.2038 29.0006C20.1887 28.0002 19.6951 26.8211 19.6951 25.396V21.396C19.6951 21.2402 19.7908 21.1002 19.9364 21.0441L24.9842 19.0912C25.0714 19.0573 25.1685 19.0573 25.2563 19.0912ZM25.12 19.8475L20.4495 21.6545V25.396C20.4495 26.6256 20.8572 27.6003 21.7332 28.4633L24.6315 31.3198L28.2316 28.3372C29.2806 27.468 29.7905 26.3834 29.7905 25.0209V21.6545L25.12 19.8475ZM24.2615 25.1093L26.704 22.5948C27.1917 22.0933 27.9965 22.082 28.4977 22.5697C28.9989 23.0573 29.0102 23.8619 28.5226 24.3634L25.21 27.7739C24.9789 28.0183 24.6651 28.1577 24.3261 28.1661C24.3151 28.1664 24.3041 28.1664 24.2928 28.1664C23.9621 28.1664 23.6505 28.0414 23.4126 27.8125L21.7476 26.2121C21.5035 25.9773 21.3652 25.6613 21.3587 25.3226C21.3522 24.984 21.4778 24.6628 21.7129 24.4187C22.1977 23.9147 23.0026 23.8992 23.5066 24.384L24.2615 25.1093ZM24.0092 25.9136L22.9834 24.9275C22.7791 24.7308 22.4531 24.7373 22.2564 24.9416C22.1613 25.0407 22.1102 25.1705 22.1131 25.3079C22.1156 25.4451 22.1718 25.5732 22.2705 25.6683L23.9356 27.2687C24.0352 27.3647 24.1673 27.4149 24.3069 27.4118C24.4441 27.4084 24.5702 27.3525 24.6625 27.2543C24.6639 27.2529 24.6653 27.2512 24.6668 27.2498L27.9816 23.8376C28.1794 23.6345 28.1749 23.3082 27.9717 23.1107C27.7685 22.9131 27.4426 22.9176 27.245 23.1208L24.5412 25.9042C24.3967 26.0532 24.1588 26.0575 24.0092 25.9136Z" fill="white" stroke="white" stroke-width="0.183446"/>
</svg>
