<svg width="40" height="40" viewBox="0 0 40 40" fill="none" xmlns="http://www.w3.org/2000/svg">
<path d="M34.7167 19.3742L30.5746 13.0353C30.3171 12.6455 29.9179 12.3714 29.4617 12.2711C29.0054 12.1708 28.5281 12.2522 28.1308 12.498L26.7641 13.3533C26.5681 13.475 26.3986 13.6349 26.2656 13.8234C26.1327 14.0119 26.039 14.2252 25.9901 14.4507C25.9657 14.5616 25.9521 14.6746 25.9494 14.7881C25.0567 15.1141 24.356 15.0171 23.251 14.8621C22.7376 14.7901 22.156 14.7084 21.4509 14.6577C19.7482 14.5357 18.6268 15.4644 17.7288 16.6245C17.1128 16.3034 16.5161 16.0524 15.9374 15.8098C15.2876 15.5542 14.6559 15.2547 14.0467 14.9134C14.0661 14.6017 14.001 14.2905 13.8582 14.0127C13.7154 13.7349 13.5002 13.5009 13.2353 13.3353L11.8686 12.48C11.4714 12.2342 10.994 12.1528 10.5377 12.2531C10.0815 12.3534 9.6823 12.6275 9.42483 13.0173L5.28234 19.3572C5.15616 19.5503 5.06978 19.7667 5.02828 19.9936C4.98678 20.2205 4.99099 20.4534 5.04066 20.6787C5.09034 20.904 5.18448 21.117 5.31756 21.3055C5.45064 21.4939 5.62 21.6538 5.8157 21.776L7.18241 22.6313C7.46451 22.8079 7.79068 22.9012 8.12345 22.9007C8.40767 22.9003 8.68785 22.8333 8.94148 22.705C9.64417 23.1667 10.0492 23.449 10.4395 23.7314L10.1249 24.2247C9.96325 24.4766 9.87244 24.7674 9.86197 25.0664C9.8515 25.3655 9.92175 25.6619 10.0653 25.9245C10.2089 26.1871 10.4206 26.4061 10.678 26.5587C10.9355 26.7112 11.2293 26.7917 11.5286 26.7915C11.5646 26.7915 11.6006 26.7915 11.6362 26.7878C11.5926 27.1027 11.6405 27.4235 11.7744 27.7119C11.9082 28.0002 12.1223 28.244 12.3909 28.4139C12.658 28.5822 12.9673 28.6713 13.283 28.6709C13.3193 28.6709 13.3553 28.6709 13.3916 28.6672C13.3319 29.0362 13.3979 29.4145 13.5791 29.7414C13.7603 30.0683 14.0461 30.3249 14.3906 30.4698C14.7351 30.6148 15.1183 30.6397 15.4787 30.5406C15.8391 30.4416 16.1557 30.2243 16.3777 29.9236C16.5173 30.1959 16.7293 30.4244 16.9904 30.584C17.2515 30.7436 17.5515 30.8282 17.8575 30.8283C18.0968 30.8285 18.3333 30.7773 18.5511 30.6782C18.7689 30.579 18.9629 30.4342 19.1198 30.2536L21.0422 31.4807C21.3764 31.6962 21.765 31.8118 22.1626 31.814C22.2499 31.814 22.3371 31.808 22.4236 31.796C22.6567 31.7694 22.8811 31.6916 23.0807 31.5683C23.2803 31.445 23.4502 31.2792 23.5783 31.0826C23.7756 30.7715 23.8558 30.4004 23.8047 30.0356C24.1418 30.1192 24.4964 30.098 24.8213 29.9751C25.1461 29.8521 25.4258 29.6331 25.6231 29.3472C25.8252 29.0279 25.9042 28.6459 25.8454 28.2725C26.1754 28.344 26.5192 28.3156 26.8329 28.1909C27.1467 28.0662 27.4162 27.8509 27.6072 27.5725C27.787 27.2956 27.8798 26.9713 27.8738 26.6412C28.1941 26.7406 28.5344 26.7565 28.8625 26.6872C29.0706 26.6468 29.2683 26.5644 29.4434 26.4449C29.6184 26.3255 29.7673 26.1715 29.8807 25.9924C29.9941 25.8134 30.0698 25.6131 30.103 25.4037C30.1362 25.1944 30.1263 24.9805 30.0739 24.7751C29.9863 24.4051 29.7934 24.0684 29.5186 23.8057C29.7519 23.6354 29.9519 23.4617 30.1486 23.2917C30.4011 23.0602 30.674 22.852 30.9639 22.6697C31.2414 22.8315 31.5568 22.9169 31.878 22.917C32.2107 22.9177 32.5369 22.8244 32.819 22.648L34.1857 21.7926C34.3813 21.6704 34.5504 21.5103 34.6833 21.3218C34.8162 21.1333 34.9101 20.9202 34.9596 20.6949C35.0091 20.4697 35.0132 20.2368 34.9715 20.01C34.9299 19.7831 34.8434 19.5669 34.7171 19.3739L34.7167 19.3742ZM7.6231 21.925L6.25638 21.0696C6.15479 21.0062 6.06689 20.9231 5.99784 20.8252C5.92878 20.7273 5.87995 20.6167 5.85421 20.4997C5.82848 20.3827 5.82635 20.2618 5.84795 20.1439C5.86956 20.0261 5.91446 19.9138 5.98004 19.8136L10.1222 13.4743C10.2096 13.3416 10.3287 13.2327 10.4687 13.1575C10.6087 13.0823 10.7653 13.0432 10.9242 13.0437C11.1017 13.0435 11.2757 13.0933 11.4262 13.1873L12.7929 14.0427C12.8946 14.1062 12.9825 14.1893 13.0516 14.2872C13.1207 14.3851 13.1695 14.4958 13.1953 14.6128C13.221 14.7298 13.2231 14.8508 13.2015 14.9686C13.1799 15.0865 13.1349 15.1988 13.0693 15.2991L8.92714 21.6383C8.78975 21.8463 8.57672 21.9926 8.33326 22.0461C8.08979 22.0996 7.83506 22.0562 7.6231 21.925ZM11.0806 25.8251C10.8941 25.7059 10.7625 25.5176 10.7147 25.3015C10.667 25.0853 10.707 24.8591 10.8259 24.6724L12.0849 22.699C12.1437 22.6066 12.2203 22.5267 12.3102 22.4641C12.4001 22.4015 12.5015 22.3574 12.6086 22.3343C12.669 22.3208 12.7307 22.314 12.7926 22.314C12.9504 22.3139 13.1048 22.3592 13.2376 22.4443C13.4241 22.5636 13.5556 22.7519 13.6033 22.968C13.6511 23.1841 13.6111 23.4103 13.4923 23.597L12.2326 25.5711C12.1133 25.7574 11.9251 25.8887 11.7092 25.9365C11.4933 25.9842 11.2672 25.9444 11.0806 25.8258V25.8251ZM12.8346 27.7085C12.743 27.6508 12.6637 27.5755 12.6014 27.4869C12.539 27.3983 12.4949 27.2982 12.4716 27.1924C12.4483 27.0866 12.4462 26.9773 12.4655 26.8707C12.4848 26.7641 12.525 26.6624 12.5839 26.5715L14.666 23.3627C14.7438 23.2434 14.8502 23.1455 14.9755 23.0779C15.1008 23.0102 15.241 22.975 15.3834 22.9754C15.5429 22.9752 15.6992 23.0203 15.8341 23.1054C15.9875 23.2018 16.1044 23.3464 16.1666 23.5166C16.2287 23.6868 16.2325 23.8728 16.1774 24.0454L14.0047 27.4472L14.0027 27.4505C13.8805 27.6378 13.6898 27.7698 13.4714 27.8182C13.2531 27.8665 13.0245 27.8274 12.8346 27.7092V27.7085ZM14.5897 29.6329C14.4032 29.5136 14.2717 29.3252 14.224 29.1091C14.1762 28.8929 14.2162 28.6666 14.335 28.4799L14.7074 27.8959L16.7828 24.6957C16.8404 24.6072 16.8893 24.5131 16.9288 24.4151L16.9501 24.3817C17.0695 24.1951 17.2581 24.0634 17.4745 24.0158C17.6909 23.9682 17.9173 24.0085 18.104 24.1279C18.2907 24.2472 18.4223 24.4359 18.4699 24.6523C18.5175 24.8687 18.4772 25.0951 18.3578 25.2818L17.7128 26.2905L16.4537 28.2639L15.7427 29.3806C15.6231 29.5668 15.4346 29.6979 15.2185 29.7454C15.0024 29.7928 14.7762 29.7526 14.5897 29.6336V29.6329ZM18.0401 29.9743C17.8793 30.0099 17.7116 29.997 17.5581 29.9374C17.4045 29.8777 17.2722 29.7739 17.1776 29.639C17.083 29.5042 17.0306 29.3443 17.0268 29.1797C17.023 29.015 17.0682 28.8529 17.1564 28.7139L18.4155 26.7405C18.4743 26.648 18.551 26.5682 18.6409 26.5056C18.7309 26.443 18.8324 26.3989 18.9395 26.3758C18.9998 26.3623 19.0614 26.3555 19.1232 26.3555C19.2723 26.3566 19.4183 26.3976 19.5462 26.4742C19.6741 26.5508 19.7792 26.6602 19.8506 26.7911C19.922 26.9219 19.9572 27.0695 19.9523 27.2185C19.9475 27.3675 19.9029 27.5125 19.8232 27.6385L18.5642 29.6119C18.5051 29.704 18.4284 29.7836 18.3385 29.8459C18.2485 29.9082 18.1471 29.952 18.0401 29.9749V29.9743ZM29.1739 25.5491C29.1177 25.6329 29.0454 25.7046 28.9612 25.7602C28.877 25.8157 28.7826 25.854 28.6835 25.8728C28.3735 25.9326 28.0524 25.8678 27.7898 25.6925L24.3564 23.4837C24.3104 23.4515 24.2585 23.429 24.2036 23.4173C24.1488 23.4057 24.0921 23.4053 24.0371 23.4161C23.9821 23.4269 23.9298 23.4487 23.8834 23.4801C23.837 23.5116 23.7974 23.5521 23.767 23.5993C23.7366 23.6464 23.7161 23.6992 23.7066 23.7545C23.6971 23.8098 23.6989 23.8664 23.7118 23.921C23.7247 23.9755 23.7485 24.0269 23.7818 24.0721C23.815 24.1172 23.8571 24.1552 23.9054 24.1837L26.5504 25.8838L26.5544 25.8865C26.7806 26.018 26.9465 26.2325 27.0168 26.4845C27.0426 26.5928 27.046 26.7052 27.0266 26.8148C27.0073 26.9244 26.9657 27.0289 26.9045 27.1218C26.6521 27.5172 26.0178 27.5822 25.5191 27.2638L24.9191 26.8802L24.9151 26.8778H24.9134L23.1997 25.7861C23.1065 25.7267 22.9935 25.7068 22.8856 25.7306C22.7777 25.7545 22.6837 25.8203 22.6243 25.9135C22.5649 26.0066 22.5449 26.1196 22.5688 26.2275C22.5927 26.3354 22.6585 26.4294 22.7516 26.4888L24.4704 27.5855C24.7153 27.7375 24.8987 27.971 24.9884 28.2449C25.026 28.3522 25.0395 28.4665 25.028 28.5796C25.0165 28.6928 24.9802 28.802 24.9217 28.8996C24.6694 29.2949 24.035 29.3599 23.5363 29.0419L21.9809 28.0505C21.9348 28.0194 21.883 27.9978 21.8284 27.9871C21.7738 27.9763 21.7176 27.9766 21.6632 27.9879C21.6087 27.9992 21.557 28.0213 21.5112 28.0529C21.4654 28.0845 21.4264 28.1249 21.3965 28.1718C21.3666 28.2187 21.3464 28.2711 21.337 28.326C21.3277 28.3808 21.3295 28.437 21.3422 28.4911C21.3549 28.5453 21.3783 28.5963 21.4111 28.6413C21.4438 28.6863 21.4853 28.7242 21.5329 28.7529L22.4233 29.3196C22.6688 29.4714 22.8527 29.7052 22.9423 29.9796C22.9832 30.0864 22.9984 30.2014 22.9868 30.3152C22.9752 30.4289 22.9371 30.5384 22.8755 30.6348C22.8139 30.7312 22.7306 30.8118 22.6322 30.8701C22.5338 30.9284 22.4231 30.9629 22.309 30.9706C22.0215 31.0049 21.7312 30.9361 21.4896 30.7766L19.5825 29.5599L20.5246 28.0835C20.6834 27.8353 20.7735 27.5494 20.7858 27.255C20.7981 26.9606 20.7321 26.6681 20.5946 26.4075C20.4571 26.1469 20.2529 25.9274 20.0029 25.7714C19.7529 25.6154 19.4661 25.5285 19.1715 25.5194C19.3122 25.2112 19.3556 24.8675 19.2959 24.534C19.2363 24.2005 19.0764 23.8931 18.8376 23.6527C18.5988 23.4124 18.2925 23.2505 17.9594 23.1887C17.6263 23.1269 17.2822 23.168 16.9731 23.3067C16.8574 22.9299 16.6099 22.6074 16.2757 22.3983C15.9793 22.2135 15.633 22.1249 15.2842 22.1446C14.9354 22.1644 14.6013 22.2916 14.3277 22.5087C14.2112 22.2267 14.0196 21.9821 13.7737 21.8015C13.5278 21.6209 13.237 21.5113 12.9331 21.4845C12.6292 21.4578 12.3237 21.515 12.0501 21.65C11.7765 21.7849 11.5451 21.9923 11.3812 22.2497L10.8859 23.0264C10.4989 22.747 10.1342 22.493 9.59283 22.1363C9.60317 22.1217 9.61383 22.1073 9.6235 22.0923L13.766 15.7551C13.7723 15.7454 13.778 15.7351 13.7843 15.7254C14.3778 16.0455 14.9894 16.3309 15.6161 16.5801C16.1441 16.8015 16.6874 17.0301 17.2378 17.3101C17.0464 17.5925 16.8634 17.8788 16.6844 18.1592C16.2937 18.8126 15.8513 19.4338 15.3614 20.0166C15.0434 20.3693 15.128 20.9046 15.5734 21.35C15.7686 21.5734 16.0065 21.7555 16.2732 21.8857C16.5399 22.0158 16.8298 22.0913 17.1261 22.1077C17.1454 22.1077 17.1644 22.1077 17.1838 22.1077C18.1481 22.0743 18.8768 21.2363 19.5819 20.4259C20.1312 19.7946 20.6982 19.1409 21.1786 19.1649C21.4965 19.2976 21.7861 19.4899 22.0316 19.7316C22.4464 20.1084 22.9217 20.4127 23.4377 20.6316L28.7085 24.2264L28.7235 24.2361C28.9913 24.3968 29.1845 24.6572 29.2605 24.9601C29.286 25.0592 29.2915 25.1624 29.2766 25.2637C29.2617 25.3649 29.2268 25.4622 29.1739 25.5498V25.5491ZM29.6032 22.6607C29.3524 22.8865 29.0863 23.0948 28.8069 23.284L25.7374 21.1886C26.2214 21.2317 26.7091 21.1759 27.1708 21.0246C27.2741 20.9852 27.3575 20.9064 27.4026 20.8056C27.4478 20.7047 27.451 20.59 27.4116 20.4868C27.3723 20.3835 27.2935 20.3001 27.1926 20.2549C27.0917 20.2098 26.9771 20.2065 26.8738 20.2459C26.1991 20.5036 24.9197 20.3576 23.8344 19.8926C23.8131 19.8811 23.7907 19.8716 23.7677 19.8642C23.3401 19.6827 22.9458 19.4312 22.601 19.1199C22.5926 19.1122 21.7836 18.3555 21.2216 18.3285C20.3342 18.2885 19.6305 19.0935 18.9508 19.8749C18.3628 20.5506 17.7548 21.2493 17.1508 21.2706C16.9589 21.2581 16.7716 21.2061 16.6008 21.1176C16.43 21.0292 16.2794 20.9064 16.1584 20.7569C16.0935 20.6952 16.0419 20.6208 16.0071 20.5383C16.5149 19.9302 16.9749 19.2838 17.3831 18.6049C18.4522 16.9308 19.4619 15.3504 21.3886 15.4877C22.0643 15.5364 22.631 15.6158 23.131 15.6858C24.2507 15.8428 25.0914 15.9604 26.1311 15.6048C26.1601 15.662 26.1922 15.7176 26.2271 15.7714L30.3443 22.0717C30.0851 22.2525 29.8376 22.4494 29.6032 22.6613V22.6607ZM34.1457 20.5159C34.1202 20.6331 34.0714 20.7439 34.0023 20.8418C33.9331 20.9397 33.8449 21.0228 33.743 21.086L32.3763 21.9413C32.1643 22.0724 31.9095 22.1158 31.666 22.0622C31.4225 22.0086 31.2094 21.8623 31.0719 21.6543L26.9298 15.3161C26.8642 15.2158 26.8192 15.1035 26.7975 14.9857C26.7759 14.8678 26.778 14.7469 26.8037 14.6299C26.8294 14.5128 26.8782 14.4021 26.9472 14.3042C27.0163 14.2063 27.1042 14.1232 27.2058 14.0597L28.5725 13.2043C28.723 13.1102 28.897 13.0604 29.0745 13.0607C29.2335 13.0602 29.39 13.0993 29.5301 13.1745C29.6701 13.2497 29.7892 13.3586 29.8766 13.4913L34.0191 19.8299C34.0851 19.93 34.1304 20.0424 34.1522 20.1604C34.1739 20.2783 34.1717 20.3995 34.1457 20.5166V20.5159Z" fill="white"/>
</svg>
