<svg width="40" height="40" viewBox="0 0 40 40" fill="none" xmlns="http://www.w3.org/2000/svg">
<path d="M19.2801 15.1626C19.9329 15.1626 20.4621 14.6335 20.4621 13.9807C20.4621 13.3279 19.9329 12.7987 19.2801 12.7987C18.6273 12.7987 18.0981 13.3279 18.0981 13.9807C18.0981 14.6335 18.6273 15.1626 19.2801 15.1626Z" fill="white"/>
<path d="M21.5825 21.3636C21.5825 20.9857 21.4436 20.6464 21.0296 20.6464C20.9548 20.6464 20.8787 20.6585 20.8039 20.6838C20.7411 20.7092 20.6783 20.7346 20.6156 20.7346C20.5141 20.7346 20.4019 20.6331 20.4019 19.8545V16.3072C20.4019 15.8545 20.3137 15.6661 20.0239 15.6661C19.6593 15.6661 19.2947 15.7917 18.9167 15.7917C18.5775 15.7917 18.2369 15.6661 17.8857 15.6661C17.3448 15.6661 17.1311 16.0561 17.1311 16.5343C17.1311 16.9122 17.27 17.2514 17.684 17.2514C17.847 17.2514 17.9738 17.1633 18.0994 17.1633C18.2877 17.1633 18.3251 17.389 18.3251 18.0434V19.8545C18.3251 20.4835 18.2743 20.7346 18.0994 20.7346C18.0366 20.7346 17.9738 20.6972 17.9111 20.6838C17.8349 20.6718 17.7722 20.6464 17.6854 20.6464C17.27 20.6464 17.1324 20.9857 17.1324 21.3636C17.1324 21.8418 17.3461 22.2317 17.875 22.2317C18.3278 22.2317 18.8059 22.1062 19.284 22.1062C19.7996 22.1062 20.3031 22.2317 20.844 22.2317C21.3688 22.2317 21.5825 21.8418 21.5825 21.3636Z" fill="white"/>
<path d="M33.3596 32.6612H32.9576L33.4919 30.6805C33.9633 28.8294 33.767 27.3309 32.9082 26.2264C31.6141 24.5623 29.1914 24.3206 28.0695 24.3032L28.0949 19.1787C27.9506 17.9086 27.1239 17.4572 26.4174 17.4572H26.4147C25.7536 17.4745 25.3703 17.7777 25.1646 18.0274C24.5917 18.7286 24.7573 19.781 24.7693 19.8158L24.8708 25.6989C24.6157 25.381 24.3593 25.0792 24.1697 24.8935C22.9343 23.6982 21.7216 23.6475 21.2394 24.545C20.8882 25.194 21.0257 26.1663 21.5894 27.0224C22.2077 27.9613 23.4618 29.7764 24.3874 30.9223C24.8869 31.542 24.796 32.2632 24.6879 32.6625H23.9333C23.6381 32.6625 23.399 32.9029 23.399 33.1967V35.4658C23.399 35.761 23.6394 36.0001 23.9333 36.0001C24.2271 36.0001 24.4675 35.7597 24.4675 35.4658V33.7309H25.0672H32.2605H32.8254V35.4658C32.8254 35.761 33.0658 36.0001 33.3596 36.0001C33.6535 36.0001 33.8939 35.7597 33.8939 35.4658V33.1954C33.8939 32.9016 33.6548 32.6612 33.3596 32.6612ZM25.7817 32.6612C25.8979 32.0241 25.8952 31.0905 25.2181 30.2505C24.3166 29.1326 23.0865 27.3563 22.4802 26.4348C22.0621 25.7964 22.0715 25.2475 22.1783 25.0511C22.2091 24.991 22.2398 24.9737 22.3079 24.9737C22.404 24.9737 22.7673 25.0231 23.4257 25.6602C23.8291 26.0515 24.6985 27.2161 25.0004 27.6328C25.1393 27.8238 25.3797 27.8999 25.6027 27.8278C25.8231 27.753 25.9713 27.5446 25.9673 27.3109L25.8298 19.7156C25.8004 19.5393 25.767 18.9757 25.9927 18.7019C26.0515 18.6298 26.1636 18.5323 26.4561 18.5243C26.6017 18.5243 26.9516 18.6004 27.0278 19.2361L26.997 24.8455C26.997 24.9951 27.0585 25.1366 27.168 25.2381C27.2762 25.3396 27.4231 25.381 27.5713 25.381C27.6247 25.3784 30.746 25.186 32.0641 26.8835C32.7092 27.7142 32.8414 28.9029 32.4581 30.4107L31.8505 32.6638H25.7817V32.6612Z" fill="white"/>
<path d="M19.6688 4C11.029 4 4 11.029 4 19.6688C4 28.3085 11.029 35.3389 19.6688 35.3389C19.9639 35.3389 20.203 35.0985 20.203 34.8047C20.203 34.5109 19.9626 34.2705 19.6688 34.2705C11.618 34.2705 5.06845 27.7209 5.06845 19.6701C5.06845 11.6194 11.618 5.06845 19.6688 5.06845C27.7195 5.06845 34.2691 11.618 34.2691 19.6688C34.2691 19.9639 34.5095 20.203 34.8033 20.203C35.0972 20.203 35.3376 19.9639 35.3376 19.6688C35.3376 11.029 28.3085 4 19.6688 4Z" fill="white"/>
<path d="M31.3431 19.6687C31.3431 19.9639 31.5835 20.2029 31.8773 20.2029C32.1711 20.2029 32.4115 19.9639 32.4115 19.6687C32.4115 12.6423 26.6953 6.92615 19.6676 6.92615C12.6412 6.92615 6.92505 12.6423 6.92505 19.6687C6.92505 26.6951 12.6412 32.4126 19.6676 32.4126C19.9628 32.4126 20.2018 32.1722 20.2018 31.8784C20.2018 31.5846 19.9614 31.3442 19.6676 31.3442C13.2316 31.3442 7.99483 26.1074 7.99483 19.6701C7.99483 13.2327 13.2329 7.99459 19.669 7.99459C26.1064 7.99459 31.3431 13.2313 31.3431 19.6687Z" fill="white"/>
</svg>
