<svg width="40" height="40" viewBox="0 0 40 40" fill="none" xmlns="http://www.w3.org/2000/svg">
<path d="M32.5271 29.099C32.5351 29.082 32.5411 29.064 32.5471 29.045V29.044C32.5521 29.026 32.5561 29.007 32.5591 28.988C32.5591 28.987 32.5591 28.986 32.5591 28.985C32.5601 28.977 32.5611 28.969 32.5611 28.962C32.5611 28.96 32.5611 28.958 32.5611 28.956C32.5621 28.947 32.5621 28.938 32.5621 28.929V17.093C32.5621 16.668 32.3051 16.302 31.9391 16.141V14.393C31.9391 13.706 31.3801 13.147 30.6931 13.147H28.6161C27.9291 13.147 27.3701 13.706 27.3701 14.393V16.141C27.0041 16.302 26.7471 16.668 26.7471 17.093V28.929C26.7471 28.938 26.7471 28.947 26.7481 28.956C26.7481 28.958 26.7481 28.96 26.7481 28.962C26.7491 28.97 26.7491 28.978 26.7501 28.985C26.7501 28.986 26.7501 28.987 26.7501 28.988C26.7531 29.007 26.7571 29.026 26.7621 29.044V29.045C26.7671 29.063 26.7741 29.081 26.7821 29.099C26.7821 29.099 26.7821 29.1 26.7831 29.1C26.7911 29.117 26.8001 29.134 26.8101 29.15L26.8111 29.151L29.3031 33.096C29.3791 33.216 29.5121 33.29 29.6541 33.29C29.7961 33.29 29.9291 33.217 30.0051 33.096L32.4971 29.151L32.4981 29.15C32.5081 29.134 32.5171 29.118 32.5251 29.1C32.5271 29.1 32.5271 29.099 32.5271 29.099ZM30.0711 28.514V19.169H30.4861C30.7151 19.169 30.9011 18.983 30.9011 18.754C30.9011 18.525 30.7151 18.339 30.4861 18.339H27.5791V17.093C27.5791 16.979 27.6721 16.885 27.7871 16.885H31.5251C31.6391 16.885 31.7331 16.978 31.7331 17.093V28.514H30.0711ZM27.5791 28.514V19.169H29.2401V28.514H27.5791ZM28.6181 13.978H30.6951C30.9241 13.978 31.1101 14.164 31.1101 14.393V16.054H28.2031V14.393C28.2021 14.164 28.3891 13.978 28.6181 13.978ZM29.6561 32.097L27.9181 29.345H31.3951L29.6561 32.097Z" fill="white"/>
<path d="M25.71 12.7139C25.71 12.7069 25.709 12.7009 25.709 12.6939C25.709 12.6929 25.709 12.6919 25.709 12.6909C25.708 12.6829 25.707 12.6739 25.706 12.6659C25.705 12.6579 25.703 12.6499 25.701 12.6419C25.701 12.6409 25.701 12.6399 25.7 12.6399C25.698 12.6319 25.696 12.6249 25.694 12.6169V12.6159C25.689 12.5989 25.683 12.5819 25.676 12.5659C25.286 11.6619 25.088 10.7749 25.088 9.92894C25.088 9.74294 25.148 9.15694 25.144 9.13594C25.228 8.53394 25.406 7.91594 25.677 7.29094C25.732 7.16294 25.72 7.01494 25.643 6.89794C25.566 6.78094 25.436 6.71094 25.296 6.71094H10.656C10.222 6.71094 9.80001 6.79594 9.40301 6.96394C9.02001 7.12594 8.67501 7.35794 8.38001 7.65394C8.08501 7.94994 7.85301 8.29394 7.69001 8.67694C7.52201 9.07394 7.43701 9.49594 7.43701 9.92994V30.0729C7.43701 30.5069 7.52201 30.9289 7.69001 31.3259C7.85201 31.7089 8.08401 32.0539 8.38001 32.3489C8.67601 32.6439 9.02001 32.8759 9.40301 33.0389C9.80001 33.2069 10.222 33.2919 10.656 33.2919H24.88C25.338 33.2919 25.711 32.9189 25.711 32.4609V12.7319C25.711 12.7289 25.711 12.7259 25.711 12.7229C25.71 12.7199 25.71 12.7169 25.71 12.7139ZM24.687 7.54094C24.54 7.95994 24.43 8.37594 24.358 8.78694H16.989C16.76 8.78694 16.574 8.97294 16.574 9.20194C16.574 9.43094 16.76 9.61694 16.989 9.61694H24.265C24.26 9.72094 24.257 9.82494 24.257 9.92794C24.257 10.7039 24.401 11.5049 24.687 12.3159H10.655C10.488 12.3159 10.325 12.2989 10.168 12.2659C10.802 11.6659 11.174 10.8239 11.174 9.92794C11.174 9.03194 10.802 8.18994 10.168 7.58994C10.325 7.55694 10.488 7.53994 10.655 7.53994L24.687 7.54094ZM9.30701 7.95894C9.95201 8.40194 10.344 9.13694 10.344 9.92894C10.344 10.7209 9.95201 11.4559 9.30701 11.8989C8.68001 11.4679 8.26801 10.7459 8.26801 9.92894C8.26701 9.11194 8.68001 8.38994 9.30701 7.95894ZM10.655 32.4589C9.33801 32.4589 8.26701 31.3879 8.26701 30.0709V12.0869C8.30301 12.1269 8.34101 12.1659 8.37901 12.2049C8.67401 12.4999 9.01901 12.7319 9.40201 12.8949C9.79901 13.0629 10.221 13.1479 10.655 13.1479H24.88V32.4599H10.655V32.4589Z" fill="white"/>
<path d="M19.012 17.4469C18.671 17.1209 18.276 16.8709 17.837 16.7029C17.381 16.5279 16.9 16.4509 16.408 16.4739C14.607 16.5569 13.131 18.0319 13.048 19.8339C13.02 20.4329 13.145 21.0309 13.409 21.5639C13.511 21.7699 13.76 21.8539 13.965 21.7519C14.171 21.6499 14.255 21.4009 14.153 21.1959C13.952 20.7889 13.857 20.3309 13.878 19.8719C13.941 18.4949 15.07 17.3669 16.447 17.3039C17.194 17.2699 17.901 17.5339 18.439 18.0479C18.978 18.5619 19.274 19.2559 19.274 19.9999C19.274 20.1989 19.166 20.5669 18.65 21.1919C18.183 21.7569 17.522 22.3589 17.065 22.7629C16.49 23.2719 16.16 24.0069 16.16 24.7799V25.6069C16.16 25.8359 16.346 26.0219 16.575 26.0219C16.804 26.0219 16.99 25.8359 16.99 25.6069V24.7799C16.99 24.2449 17.218 23.7369 17.615 23.3849C18.385 22.7039 18.901 22.1909 19.29 21.7199C19.838 21.0569 20.105 20.4939 20.105 19.9989C20.105 19.5079 20.006 19.0329 19.811 18.5869C19.622 18.1569 19.353 17.7729 19.012 17.4469Z" fill="white"/>
<path d="M16.5739 28.5138C16.918 28.5138 17.1969 28.2349 17.1969 27.8908C17.1969 27.5467 16.918 27.2678 16.5739 27.2678C16.2299 27.2678 15.9509 27.5467 15.9509 27.8908C15.9509 28.2349 16.2299 28.5138 16.5739 28.5138Z" fill="white"/>
</svg>
