<svg width="40" height="40" viewBox="0 0 40 40" fill="none" xmlns="http://www.w3.org/2000/svg">
<path d="M8.91954 32.4355H7.9397V33.4154H8.91954V32.4355Z" fill="white"/>
<path d="M10.8793 32.4355H9.89941V33.4154H10.8793V32.4355Z" fill="white"/>
<path d="M12.8385 32.4355H11.8586V33.4154H12.8385V32.4355Z" fill="white"/>
<path d="M32.4357 32.4355H28.5164V33.4154H32.4357V32.4355Z" fill="white"/>
<path d="M34.3952 30.4758V14.3085C34.3952 12.9578 33.2963 11.8589 31.9456 11.8589H29.496V6.46976C29.496 5.65943 28.8365 5 28.0262 5H18.2278C17.4175 5 16.7581 5.65943 16.7581 6.46976V11.8589H8.42944C7.07873 11.8589 5.97984 12.9578 5.97984 14.3085V30.4758H5V32.9254C5 34.2761 6.09889 35.375 7.4496 35.375H32.9254C34.2761 35.375 35.375 34.2761 35.375 32.9254V30.4758H34.3952ZM17.7379 6.46976C17.7379 6.19981 17.9574 5.97984 18.2278 5.97984H28.0262C28.2966 5.97984 28.5161 6.19981 28.5161 6.46976V12.3488C28.5161 12.6187 28.2966 12.8387 28.0262 12.8387H25.4282L21.6573 15.3525V12.8387H18.2278C17.9574 12.8387 17.7379 12.6187 17.7379 12.3488V6.46976ZM34.3952 32.9254C34.3952 33.7357 33.7357 34.3952 32.9254 34.3952H7.4496C6.63927 34.3952 5.97984 33.7357 5.97984 32.9254V31.4556H16.0736C16.7728 32.0803 17.6943 32.4355 18.634 32.4355H21.742C22.6817 32.4355 23.6032 32.0803 24.3023 31.4556H30.4758V30.4758H23.904L23.7605 30.6194C23.2289 31.1509 22.4931 31.4556 21.7415 31.4556H18.6335C17.8819 31.4556 17.1461 31.1509 16.6145 30.6194L16.471 30.4758H8.91935V14.7925L11.4297 14.7631L11.2489 14.914C10.3911 15.6288 9.89919 16.6787 9.89919 17.8364C9.89919 18.4997 10.0756 19.1533 10.4097 19.7255C12.4032 23.1432 15.2378 26.045 18.6075 28.1188L19.145 28.4495C19.7358 28.8135 20.4158 29.006 21.1105 29.006C22.227 29.006 23.2769 28.5142 23.9912 27.6568L25.0245 26.4168C25.3806 25.9886 25.5766 25.4468 25.5766 24.8912C25.5766 24.2641 25.3219 23.6498 24.8785 23.2064L22.8742 21.2021C22.5362 20.8636 22.0869 20.6774 21.6083 20.6774C21.1149 20.6774 20.6387 20.8837 20.3017 21.2433L19.3639 22.2437C18.9024 22.7356 18.0539 22.7488 17.5762 22.2726L16.6326 21.329C16.398 21.0939 16.2681 20.7813 16.2681 20.4491C16.2681 20.1067 16.4117 19.7755 16.6616 19.5413L17.6625 18.6031C18.0216 18.266 18.2278 17.7898 18.2278 17.297C18.2278 16.8183 18.0417 16.3686 17.7036 16.031L15.6993 14.0273C15.256 13.5834 14.6416 13.3286 14.014 13.3286C13.5236 13.3286 13.0494 13.4888 12.6491 13.7691L8.9076 13.8127C8.37358 13.819 7.93903 14.2585 7.93903 14.7925V30.4758H6.95968V14.3085C6.95968 13.4981 7.61911 12.8387 8.42944 12.8387H16.8482C17.051 13.4075 17.5899 13.8185 18.2278 13.8185H20.6774V17.1838L25.7251 13.8185H28.0262C28.6641 13.8185 29.203 13.4075 29.4058 12.8387H31.9456C32.7559 12.8387 33.4153 13.4981 33.4153 14.3085V30.4758H32.4355V14.7984C32.4355 14.258 31.996 13.8185 31.4556 13.8185H29.496V14.7984H31.4556V31.4556H34.3952V32.9254ZM24.2715 25.7897L24.1627 25.9196L20.6005 22.3574L21.0164 21.9135C21.3173 21.5921 21.8704 21.5833 22.1815 21.8944L24.1857 23.8986C24.4469 24.1598 24.5968 24.5218 24.5968 24.8912C24.5968 25.2185 24.4812 25.5379 24.2715 25.7897ZM19.9141 23.0565L23.5332 26.6755L23.2382 27.0297C22.7106 27.6632 21.935 28.0262 21.1105 28.0262C20.5971 28.0262 20.0954 27.8841 19.6589 27.6152L19.1214 27.2845C15.8885 25.2949 13.1689 22.5107 11.2558 19.2317C11.0098 18.8094 10.879 18.3268 10.879 17.7952C10.879 16.9707 11.2421 16.1947 11.876 15.667L12.2297 15.3721L15.8488 18.9911C15.4965 19.3938 15.2883 19.9097 15.2883 20.4491C15.2883 21.0429 15.52 21.6019 15.9399 22.0218L16.8835 22.9653C17.3033 23.3852 17.8623 23.6169 18.4566 23.6169C18.9955 23.6169 19.5109 23.4087 19.9141 23.0565ZM16.5479 18.3047L12.9852 14.742L13.115 14.6338C13.3673 14.4241 13.6863 14.3085 14.014 14.3085C14.3834 14.3085 14.745 14.4584 15.0061 14.7195L17.0104 16.7233C17.1637 16.8766 17.248 17.0799 17.248 17.297C17.248 17.5204 17.1549 17.7359 16.9922 17.8888L16.5479 18.3047Z" fill="white"/>
<path d="M27.5366 6.95972H18.718V7.93956H27.5366V6.95972Z" fill="white"/>
<path d="M27.5366 8.91943H18.718V9.89927H27.5366V8.91943Z" fill="white"/>
<path d="M27.5362 10.8789H26.5564V11.8587H27.5362V10.8789Z" fill="white"/>
<path d="M25.5769 10.8789H18.718V11.8587H25.5769V10.8789Z" fill="white"/>
</svg>
