<svg width="40" height="40" viewBox="0 0 40 40" fill="none" xmlns="http://www.w3.org/2000/svg">
<path d="M13.2329 14.5168H10.5366C10.2776 14.5168 10.0679 14.7265 10.0679 14.9856V19.8762C10.0679 20.1353 10.2776 20.345 10.5366 20.345H13.2329C13.4919 20.345 13.7016 20.1353 13.7016 19.8762V14.9856C13.7016 14.7265 13.4916 14.5168 13.2329 14.5168ZM12.7641 15.4543V16.179H11.0054V15.4543H12.7641ZM11.0054 19.4075V17.1165H12.7641V19.4075H11.0054Z" fill="white"/>
<path d="M15.2544 17.8994H23.2731C23.5322 17.8994 23.7419 17.6897 23.7419 17.4307C23.7419 17.1716 23.5322 16.9619 23.2731 16.9619H15.2544C14.9953 16.9619 14.7856 17.1716 14.7856 17.4307C14.7856 17.6897 14.9956 17.8994 15.2544 17.8994Z" fill="white"/>
<path d="M15.2544 20.345H23.2731C23.5322 20.345 23.7419 20.1353 23.7419 19.8762C23.7419 19.6172 23.5322 19.4075 23.2731 19.4075H15.2544C14.9953 19.4075 14.7856 19.6172 14.7856 19.8762C14.7856 20.1353 14.9956 20.345 15.2544 20.345Z" fill="white"/>
<path d="M15.2544 15.4543H20.8097C21.0688 15.4543 21.2785 15.2447 21.2785 14.9856C21.2785 14.7265 21.0688 14.5168 20.8097 14.5168H15.2544C14.9953 14.5168 14.7856 14.7265 14.7856 14.9856C14.7856 15.2447 14.9956 15.4543 15.2544 15.4543Z" fill="white"/>
<path d="M13.2329 22.5352H10.5366C10.2776 22.5352 10.0679 22.7448 10.0679 23.0039V27.6523C10.0679 27.9114 10.2776 28.1211 10.5366 28.1211H13.2329C13.4919 28.1211 13.7016 27.9114 13.7016 27.6523V23.0039C13.7016 22.7452 13.4916 22.5352 13.2329 22.5352ZM12.7641 23.4727V24.8595H11.0054V23.4727H12.7641ZM11.0054 27.1839V25.797H12.7641V27.1839H11.0054Z" fill="white"/>
<path d="M18.8663 22.5352H15.2544C14.9953 22.5352 14.7856 22.7448 14.7856 23.0039C14.7856 23.263 14.9953 23.4727 15.2544 23.4727H18.8663C19.1253 23.4727 19.335 23.263 19.335 23.0039C19.335 22.7448 19.1253 22.5352 18.8663 22.5352Z" fill="white"/>
<path d="M18.0368 24.8599H15.2546C14.9956 24.8599 14.7859 25.0696 14.7859 25.3286C14.7859 25.5877 14.9956 25.7974 15.2546 25.7974H18.0368C18.2959 25.7974 18.5056 25.5877 18.5056 25.3286C18.5056 25.0696 18.2956 24.8599 18.0368 24.8599Z" fill="white"/>
<path d="M17.5356 27.1841H15.2544C14.9953 27.1841 14.7856 27.3938 14.7856 27.6528C14.7856 27.9119 14.9953 28.1216 15.2544 28.1216H17.5356C17.7947 28.1216 18.0044 27.9119 18.0044 27.6528C18.0044 27.3938 17.7947 27.1841 17.5356 27.1841Z" fill="white"/>
<path d="M33.9797 29.72C33.9794 29.7075 33.9772 29.6953 33.9759 29.6831C33.9734 29.6606 33.9703 29.6384 33.965 29.6171C33.9637 29.6125 33.964 29.6075 33.9625 29.6025L32.1553 23.3006H32.5784C32.8375 23.3006 33.0472 23.0909 33.0472 22.8318C33.0472 22.5728 32.8375 22.3631 32.5784 22.3631H28.2619C28.0584 21.6859 27.4365 21.1881 26.694 21.1881C26.6469 21.1881 26.6022 21.1981 26.5559 21.2021V5.70964C26.5559 5.70902 26.5559 5.70839 26.5559 5.70777V5.7062C26.5559 5.70464 26.5553 5.70308 26.5553 5.70152C26.555 5.67277 26.5528 5.64339 26.5469 5.61402C26.5459 5.6087 26.5434 5.60433 26.5422 5.59933C26.5397 5.58777 26.5356 5.57714 26.5319 5.56589C26.5244 5.54152 26.515 5.51808 26.5037 5.49558C26.4987 5.48558 26.4934 5.47589 26.4878 5.46589C26.4731 5.44152 26.4565 5.41902 26.4381 5.39808C26.4331 5.39214 26.4287 5.38589 26.4234 5.38058C26.3978 5.35433 26.37 5.3312 26.339 5.31152C26.3378 5.31089 26.3369 5.30964 26.3356 5.3087C26.3315 5.3062 26.3269 5.30527 26.3225 5.30277C26.2965 5.28745 26.2694 5.27495 26.2406 5.26495C26.2309 5.26152 26.2215 5.2587 26.2119 5.25589C26.185 5.24839 26.1575 5.2437 26.129 5.2412C26.1209 5.24058 26.1128 5.23902 26.1044 5.2387C26.0684 5.23745 26.0319 5.2387 25.9947 5.2462L7.92061 8.86714C6.86686 8.90027 6.01904 9.76558 6.01904 10.8271V32.0228C6.01904 32.2818 6.22873 32.4915 6.48779 32.4915H23.864C23.8194 32.6253 23.7894 32.7656 23.7894 32.9143V34.2937C23.7894 34.5528 23.999 34.7625 24.2581 34.7625H29.1312C29.3903 34.7625 29.6 34.5528 29.6 34.2937V32.9143C29.6 32.1768 29.0019 31.5771 28.2653 31.5728V30.4834C28.2653 29.8512 27.78 29.3359 27.1634 29.2753V24.3996C27.6909 24.2412 28.104 23.8284 28.2625 23.3009H30.9119L29.1044 29.6028C29.1031 29.6078 29.1031 29.6128 29.1019 29.6175C29.0965 29.639 29.0934 29.6609 29.0909 29.6834C29.0897 29.6956 29.0875 29.7078 29.0872 29.7203C29.0872 29.7243 29.0859 29.7281 29.0859 29.7321V29.84C29.0859 31.1893 30.184 32.2875 31.5337 32.2875C32.8831 32.2875 33.9812 31.1893 33.9812 29.84V29.7321C33.9809 29.7278 33.98 29.724 33.9797 29.72ZM26.2256 29.275C25.609 29.3356 25.124 29.8509 25.124 30.4831V31.5725C25.0019 31.5731 24.8856 31.595 24.7731 31.6265C24.7009 31.5812 24.6162 31.554 24.5247 31.554H23.6006C24.0453 31.1106 24.3212 30.4978 24.3212 29.8218V29.714C24.3212 29.6181 24.2922 29.529 24.2428 29.4546L22.4781 23.3009H25.1275C25.2859 23.8284 25.6987 24.2412 26.2262 24.3996V29.275H26.2256ZM20.5037 29.245L21.8553 24.5321L23.2069 29.245H20.5037ZM23.3337 30.2006C23.165 30.8503 22.5753 31.3318 21.8734 31.3318C21.1715 31.3318 20.5815 30.8503 20.4128 30.2006H23.3337ZM22.5965 6.88339L19.5897 8.34652C16.6259 9.78902 13.6609 11.2318 10.6953 12.6734L10.5709 12.319C10.2715 11.469 10.0353 10.7978 9.87061 10.289C9.86842 10.2821 9.85811 10.2521 9.85561 10.2453C9.84592 10.2156 9.83467 10.1825 9.82092 10.1475C9.77842 10.0193 9.71998 9.90027 9.65811 9.8112C9.58904 9.69808 9.51686 9.60527 9.43998 9.51902L22.5965 6.88339ZM6.95654 10.8271C6.95654 10.2618 7.41623 9.80214 7.98154 9.80152C7.98186 9.80152 7.98248 9.80152 7.98279 9.80152C8.25842 9.80152 8.51467 9.90777 8.70654 10.1028C8.76061 10.1568 8.80717 10.2178 8.87029 10.32C8.89623 10.3578 8.91717 10.4012 8.93217 10.449C8.93623 10.4618 8.94061 10.4743 8.94561 10.4865C8.95342 10.505 8.95873 10.5228 8.96404 10.5381L8.97748 10.5775C9.14592 11.0978 9.38404 11.774 9.68561 12.6303L9.98436 13.4796C10.0287 13.6059 10.1247 13.7071 10.2481 13.7581C10.3722 13.809 10.5115 13.805 10.6315 13.7462C13.7559 12.2284 16.8781 10.709 20 9.18964L25.6187 6.45558V21.5993C25.3884 21.8006 25.2172 22.0631 25.1272 22.3634H20.81C20.5509 22.3634 20.3412 22.5731 20.3412 22.8321C20.3412 23.0912 20.5509 23.3009 20.81 23.3009H21.2334L19.4262 29.6028C19.4022 29.6865 19.405 29.7731 19.4275 29.855C19.4362 30.5181 19.7087 31.1184 20.1462 31.5543H6.95654V10.8271ZM28.6625 32.9143V33.825H24.7265V32.9143C24.7265 32.6912 24.9084 32.5093 25.1315 32.5093H25.5928H27.7965H28.2575C28.4806 32.5093 28.6625 32.6912 28.6625 32.9143ZM27.3275 30.4831V31.5718H26.0612V30.4831C26.0612 30.3271 26.1881 30.2003 26.344 30.2003H27.044C27.2006 30.2006 27.3275 30.3271 27.3275 30.4831ZM26.6944 23.5384C26.305 23.5384 25.9881 23.2215 25.9881 22.8321C25.9881 22.4428 26.305 22.1259 26.6944 22.1259C27.084 22.1259 27.4009 22.4428 27.4009 22.8321C27.4009 23.2215 27.0837 23.5384 26.6944 23.5384ZM31.5334 24.5321L32.89 29.2628H30.1762L31.5334 24.5321ZM31.5334 31.3493C30.825 31.3493 30.229 30.8593 30.0669 30.2003H33C32.8378 30.8593 32.2415 31.3493 31.5334 31.3493Z" fill="white"/>
</svg>
