<svg width="38" height="38" viewBox="0 0 38 38" fill="none" xmlns="http://www.w3.org/2000/svg">
<path d="M32.4399 14.52H5.56C5.41148 14.52 5.26904 14.461 5.16402 14.356C5.059 14.2509 5 14.1085 5 13.96V10.6C4.99963 10.4856 5.03432 10.3738 5.0994 10.2797C5.16447 10.1856 5.25682 10.1137 5.364 10.0736L18.8039 5.03363C18.9308 4.98879 19.0691 4.98879 19.1959 5.03363L32.6359 10.0736C32.7431 10.1137 32.8354 10.1856 32.9005 10.2797C32.9656 10.3738 33.0002 10.4856 32.9999 10.6V13.96C32.9999 14.1085 32.9409 14.2509 32.8359 14.356C32.7308 14.461 32.5884 14.52 32.4399 14.52ZM6.12 13.4H31.8799V10.9864L18.9999 6.15922L6.12 10.9864V13.4Z" fill="white"/>
<path d="M31.3195 16.7601H6.67963C6.53111 16.7601 6.38867 16.7011 6.28365 16.5961C6.17863 16.4911 6.11963 16.3487 6.11963 16.2001V13.9601C6.11963 13.8116 6.17863 13.6692 6.28365 13.5642C6.38867 13.4591 6.53111 13.4001 6.67963 13.4001H31.3195C31.468 13.4001 31.6105 13.4591 31.7155 13.5642C31.8205 13.6692 31.8795 13.8116 31.8795 13.9601V16.2001C31.8795 16.3487 31.8205 16.4911 31.7155 16.5961C31.6105 16.7011 31.468 16.7601 31.3195 16.7601ZM7.23962 15.6401H30.7595V14.5201H7.23962V15.6401Z" fill="white"/>
<path d="M20.1202 31.879H5.56024C5.41172 31.879 5.26928 31.82 5.16426 31.7149C5.05924 31.6099 5.00024 31.4675 5.00024 31.319V28.519C5.00024 28.3705 5.05924 28.228 5.16426 28.123C5.26928 28.018 5.41172 27.959 5.56024 27.959H20.1202C20.2687 27.959 20.4111 28.018 20.5162 28.123C20.6212 28.228 20.6802 28.3705 20.6802 28.519V31.319C20.6802 31.4675 20.6212 31.6099 20.5162 31.7149C20.4111 31.82 20.2687 31.879 20.1202 31.879ZM6.12024 30.759H19.5602V29.079H6.12024V30.759Z" fill="white"/>
<path d="M20.1196 29.0792H6.67963C6.53111 29.0792 6.38867 29.0202 6.28365 28.9152C6.17863 28.8102 6.11963 28.6677 6.11963 28.5192V26.2792C6.11963 26.1307 6.17863 25.9883 6.28365 25.8833C6.38867 25.7782 6.53111 25.7192 6.67963 25.7192H20.1196C20.2681 25.7192 20.4105 25.7782 20.5155 25.8833C20.6206 25.9883 20.6796 26.1307 20.6796 26.2792V28.5192C20.6796 28.6677 20.6206 28.8102 20.5155 28.9152C20.4105 29.0202 20.2681 29.0792 20.1196 29.0792ZM7.23962 27.9592H19.5596V26.8392H7.23962V27.9592Z" fill="white"/>
<path d="M12.2817 19.0001H8.92169C8.47613 19.0001 8.04882 18.8231 7.73376 18.5081C7.4187 18.193 7.2417 17.7657 7.2417 17.3201V16.2001C7.2417 16.0516 7.3007 15.9092 7.40572 15.8042C7.51074 15.6991 7.65318 15.6401 7.8017 15.6401H13.4017C13.5502 15.6401 13.6926 15.6991 13.7976 15.8042C13.9027 15.9092 13.9617 16.0516 13.9617 16.2001V17.3201C13.9617 17.7657 13.7847 18.193 13.4696 18.5081C13.1546 18.8231 12.7272 19.0001 12.2817 19.0001ZM8.36169 16.7601V17.3201C8.36169 17.4686 8.42069 17.6111 8.52571 17.7161C8.63073 17.8211 8.77317 17.8801 8.92169 17.8801H12.2817C12.4302 17.8801 12.5726 17.8211 12.6777 17.7161C12.7827 17.6111 12.8417 17.4686 12.8417 17.3201V16.7601H8.36169Z" fill="white"/>
<path d="M13.4017 26.8397H7.8017C7.65318 26.8397 7.51074 26.7807 7.40572 26.6757C7.3007 26.5707 7.2417 26.4282 7.2417 26.2797V25.1597C7.2417 24.7142 7.4187 24.2869 7.73376 23.9718C8.04882 23.6567 8.47613 23.4797 8.92169 23.4797H12.2817C12.7272 23.4797 13.1546 23.6567 13.4696 23.9718C13.7847 24.2869 13.9617 24.7142 13.9617 25.1597V26.2797C13.9617 26.4282 13.9027 26.5707 13.7976 26.6757C13.6926 26.7807 13.5502 26.8397 13.4017 26.8397ZM8.36169 25.7197H12.8417V25.1597C12.8417 25.0112 12.7827 24.8688 12.6777 24.7638C12.5726 24.6587 12.4302 24.5997 12.2817 24.5997H8.92169C8.77317 24.5997 8.63073 24.6587 8.52571 24.7638C8.42069 24.8688 8.36169 25.0112 8.36169 25.1597V25.7197Z" fill="white"/>
<path d="M12.2798 24.5996H8.91986C8.77134 24.5996 8.6289 24.5406 8.52388 24.4356C8.41886 24.3306 8.35986 24.1881 8.35986 24.0396V18.4396C8.35986 18.2911 8.41886 18.1487 8.52388 18.0437C8.6289 17.9386 8.77134 17.8796 8.91986 17.8796H12.2798C12.4284 17.8796 12.5708 17.9386 12.6758 18.0437C12.7808 18.1487 12.8398 18.2911 12.8398 18.4396V24.0396C12.8398 24.1881 12.7808 24.3306 12.6758 24.4356C12.5708 24.5406 12.4284 24.5996 12.2798 24.5996ZM9.47986 23.4796H11.7198V18.9996H9.47986V23.4796Z" fill="white"/>
<path d="M29.0781 19.0001H25.7181C25.2725 19.0001 24.8452 18.8231 24.5301 18.5081C24.2151 18.193 24.0381 17.7657 24.0381 17.3201V16.2001C24.0381 16.0516 24.0971 15.9092 24.2021 15.8042C24.3071 15.6991 24.4496 15.6401 24.5981 15.6401H30.1981C30.3466 15.6401 30.489 15.6991 30.594 15.8042C30.6991 15.9092 30.7581 16.0516 30.7581 16.2001V17.3201C30.7581 17.7657 30.5811 18.193 30.266 18.5081C29.9509 18.8231 29.5236 19.0001 29.0781 19.0001ZM25.1581 16.7601V17.3201C25.1581 17.4686 25.2171 17.6111 25.3221 17.7161C25.4271 17.8211 25.5696 17.8801 25.7181 17.8801H29.0781C29.2266 17.8801 29.369 17.8211 29.474 17.7161C29.5791 17.6111 29.6381 17.4686 29.6381 17.3201V16.7601H25.1581Z" fill="white"/>
<path d="M29.0801 25.1596H25.7202C25.5716 25.1596 25.4292 25.1006 25.3242 24.9956C25.2192 24.8906 25.1602 24.7481 25.1602 24.5996V18.4396C25.1602 18.2911 25.2192 18.1487 25.3242 18.0437C25.4292 17.9386 25.5716 17.8796 25.7202 17.8796H29.0801C29.2287 17.8796 29.3711 17.9386 29.4761 18.0437C29.5811 18.1487 29.6401 18.2911 29.6401 18.4396V24.5996C29.6401 24.7481 29.5811 24.8906 29.4761 24.9956C29.3711 25.1006 29.2287 25.1596 29.0801 25.1596ZM26.2802 24.0396H28.5201V18.9996H26.2802V24.0396Z" fill="white"/>
<path d="M19.0004 12.84C18.4466 12.84 17.9053 12.6757 17.4448 12.3681C16.9844 12.0604 16.6255 11.6231 16.4136 11.1115C16.2017 10.5999 16.1462 10.0369 16.2542 9.49373C16.3623 8.95058 16.629 8.45167 17.0205 8.06009C17.4121 7.6685 17.911 7.40183 18.4542 7.29379C18.9973 7.18575 19.5603 7.2412 20.0719 7.45313C20.5836 7.66505 21.0209 8.02393 21.3285 8.48439C21.6362 8.94484 21.8004 9.48619 21.8004 10.04C21.8004 10.7826 21.5054 11.4948 20.9803 12.0199C20.4552 12.545 19.743 12.84 19.0004 12.84ZM19.0004 8.35999C18.6682 8.35999 18.3433 8.45852 18.0671 8.64312C17.7908 8.82772 17.5755 9.0901 17.4483 9.39707C17.3212 9.70405 17.2879 10.0418 17.3527 10.3677C17.4175 10.6936 17.5775 10.993 17.8125 11.2279C18.0474 11.4629 18.3468 11.6229 18.6727 11.6877C18.9986 11.7525 19.3364 11.7192 19.6433 11.5921C19.9503 11.4649 20.2127 11.2496 20.3973 10.9733C20.5819 10.6971 20.6804 10.3722 20.6804 10.04C20.6804 9.59442 20.5034 9.1671 20.1884 8.85204C19.8733 8.53698 19.446 8.35999 19.0004 8.35999Z" fill="white"/>
<path d="M31.32 33.0002H21.2401C20.7945 33.0002 20.3672 32.8232 20.0521 32.5082C19.7371 32.1931 19.5601 31.7658 19.5601 31.3202V25.7203C19.5601 25.2747 19.7371 24.8474 20.0521 24.5323C20.3672 24.2173 20.7945 24.0403 21.2401 24.0403H31.32C31.7656 24.0403 32.1929 24.2173 32.5079 24.5323C32.823 24.8474 33 25.2747 33 25.7203V31.3202C33 31.7658 32.823 32.1931 32.5079 32.5082C32.1929 32.8232 31.7656 33.0002 31.32 33.0002ZM21.2401 25.1603C21.0915 25.1603 20.9491 25.2193 20.8441 25.3243C20.7391 25.4293 20.6801 25.5718 20.6801 25.7203V31.3202C20.6801 31.4688 20.7391 31.6112 20.8441 31.7162C20.9491 31.8212 21.0915 31.8802 21.2401 31.8802H31.32C31.4685 31.8802 31.611 31.8212 31.716 31.7162C31.821 31.6112 31.88 31.4688 31.88 31.3202V25.7203C31.88 25.5718 31.821 25.4293 31.716 25.3243C31.611 25.2193 31.4685 25.1603 31.32 25.1603H21.2401Z" fill="white"/>
<path d="M26.2781 30.7598C25.835 30.7598 25.402 30.6284 25.0336 30.3823C24.6652 30.1361 24.3781 29.7863 24.2086 29.377C24.0391 28.9677 23.9947 28.5173 24.0811 28.0828C24.1676 27.6483 24.3809 27.2491 24.6942 26.9359C25.0074 26.6226 25.4066 26.4093 25.8411 26.3228C26.2756 26.2364 26.726 26.2808 27.1353 26.4503C27.5446 26.6198 27.8944 26.9069 28.1406 27.2753C28.3867 27.6437 28.5181 28.0767 28.5181 28.5198C28.5181 29.1139 28.2821 29.6836 27.862 30.1037C27.4419 30.5238 26.8722 30.7598 26.2781 30.7598ZM26.2781 27.3998C26.0566 27.3998 25.84 27.4655 25.6558 27.5885C25.4717 27.7116 25.3281 27.8865 25.2433 28.0912C25.1586 28.2958 25.1364 28.521 25.1796 28.7383C25.2228 28.9555 25.3295 29.1551 25.4861 29.3117C25.6428 29.4684 25.8423 29.575 26.0596 29.6183C26.2768 29.6615 26.502 29.6393 26.7067 29.5545C26.9113 29.4697 27.0863 29.3262 27.2093 29.142C27.3324 28.9578 27.3981 28.7413 27.3981 28.5198C27.3981 28.2227 27.2801 27.9379 27.07 27.7278C26.86 27.5178 26.5751 27.3998 26.2781 27.3998Z" fill="white"/>
<path d="M30.1982 29.079C30.5075 29.079 30.7582 28.8283 30.7582 28.519C30.7582 28.2097 30.5075 27.959 30.1982 27.959C29.8889 27.959 29.6382 28.2097 29.6382 28.519C29.6382 28.8283 29.8889 29.079 30.1982 29.079Z" fill="white"/>
<path d="M22.3605 29.079C22.6698 29.079 22.9205 28.8283 22.9205 28.519C22.9205 28.2097 22.6698 27.959 22.3605 27.959C22.0513 27.959 21.8005 28.2097 21.8005 28.519C21.8005 28.8283 22.0513 29.079 22.3605 29.079Z" fill="white"/>
<path d="M18.9996 24.0396C19.1481 24.0396 19.2905 23.9806 19.3956 23.8756C19.5006 23.7706 19.5596 23.6281 19.5596 23.4796V18.4396C19.5596 18.2911 19.5006 18.1487 19.3956 18.0437C19.2905 17.9386 19.1481 17.8796 18.9996 17.8796C18.8511 17.8796 18.7086 17.9386 18.6036 18.0437C18.4986 18.1487 18.4396 18.2911 18.4396 18.4396V23.4796C18.4396 23.6281 18.4986 23.7706 18.6036 23.8756C18.7086 23.9806 18.8511 24.0396 18.9996 24.0396Z" fill="white"/>
<path d="M18.9992 24.0393C19.0729 24.0398 19.1459 24.0256 19.2142 23.9978C19.2824 23.9699 19.3444 23.9288 19.3968 23.8769L21.0768 22.1969C21.129 22.1447 21.1704 22.0827 21.1987 22.0145C21.2269 21.9463 21.2415 21.8732 21.2415 21.7994C21.2415 21.7255 21.2269 21.6524 21.1987 21.5842C21.1704 21.516 21.129 21.454 21.0768 21.4018C21.0246 21.3495 20.9626 21.3081 20.8943 21.2799C20.8261 21.2516 20.753 21.2371 20.6792 21.2371C20.6053 21.2371 20.5322 21.2516 20.464 21.2799C20.3958 21.3081 20.3338 21.3495 20.2816 21.4018L18.9992 22.6897L17.7168 21.4018C17.6113 21.2963 17.4683 21.2371 17.3192 21.2371C17.1701 21.2371 17.027 21.2963 16.9216 21.4018C16.8161 21.5072 16.7569 21.6502 16.7569 21.7994C16.7569 21.9485 16.8161 22.0915 16.9216 22.1969L18.6016 23.8769C18.6539 23.9288 18.716 23.9699 18.7842 23.9978C18.8524 24.0256 18.9255 24.0398 18.9992 24.0393Z" fill="white"/>
</svg>
