<svg width="40" height="40" viewBox="0 0 40 40" fill="none" xmlns="http://www.w3.org/2000/svg">
<path d="M17.6435 5.36047L9.90706 8.25968C8.12412 8.92635 6.66675 11.0349 6.66675 12.9418V24.4612C6.66675 26.2906 7.87608 28.6937 9.34895 29.7945L16.0156 34.7714C18.2016 36.4148 21.7985 36.4148 23.9846 34.7714L30.6512 29.7945C32.1241 28.6937 33.3334 26.2906 33.3334 24.4612V12.9418C33.3334 11.0349 31.876 8.92635 30.0931 8.25968L22.3567 5.36047C21.0388 4.87984 18.9303 4.87984 17.6435 5.36047Z" stroke="white" stroke-width="1.39535" stroke-linecap="round" stroke-linejoin="round"/>
<path fill-rule="evenodd" clip-rule="evenodd" d="M16.0002 16.1043C16.0002 13.9582 17.7456 12.2128 19.8917 12.2128C22.0378 12.2128 23.7832 13.9582 23.7832 16.1043C23.7832 16.1083 23.7832 16.1123 23.7831 16.1164C23.7613 18.2163 22.1133 19.9284 20.0218 19.9951C20.0095 19.9955 19.9971 19.9957 19.9847 19.9957H19.7832C19.7708 19.9957 19.7585 19.9955 19.7461 19.9951C17.6524 19.9283 16.0002 18.1959 16.0002 16.1043Z" stroke="white" stroke-width="1.39535" stroke-linecap="round" stroke-linejoin="round"/>
<path fill-rule="evenodd" clip-rule="evenodd" d="M23.7026 22.2089C24.6879 22.867 25.3335 23.8502 25.3335 24.9806C25.3335 26.1117 24.687 27.0955 23.7004 27.7536C22.624 28.4741 21.2696 28.7984 19.9769 28.7984C18.6843 28.7984 17.3298 28.4741 16.2534 27.7536C15.2668 27.0955 14.6204 26.1117 14.6204 24.9806C14.6204 23.849 15.2672 22.865 16.2544 22.2069L16.2564 22.2055C17.3385 21.4874 18.695 21.1627 19.9885 21.1627C21.2799 21.1627 22.632 21.4864 23.7026 22.2089Z" stroke="white" stroke-width="1.39535" stroke-linecap="round" stroke-linejoin="round"/>
</svg>
