<svg width="86" height="86" viewBox="0 0 86 86" fill="none" xmlns="http://www.w3.org/2000/svg">
<circle cx="43" cy="42.9688" r="42.5" fill="#B21BEF" fillOpacity="0.3"/>
<g filter="url(#filter0_f_5928_24377)">
<ellipse cx="41.5518" cy="67.5995" rx="6.27841" ry="4.34659" fill="white" fillOpacity="0.8"/>
</g>
<path d="M26.34 62.9925V63.4925H26.84H57.7862C58.1364 63.4925 58.4722 63.6316 58.7198 63.8792C58.9675 64.1269 59.1066 64.4627 59.1066 64.8129C59.1066 65.1631 58.9675 65.4989 58.7198 65.7465C58.4722 65.9941 58.1364 66.1333 57.7862 66.1333H25.0196C24.6694 66.1333 24.3336 65.9941 24.0859 65.7465C23.8383 65.4989 23.6992 65.1631 23.6992 64.8129V26.586C23.705 24.789 24.4214 23.0673 25.6921 21.7966C26.9628 20.5259 28.6845 19.8095 30.4815 19.8037H61.4269C61.7771 19.8037 62.113 19.9428 62.3606 20.1904C62.6082 20.4381 62.7473 20.7739 62.7473 21.1241V57.5314C62.7473 57.8816 62.6082 58.2174 62.3606 58.4651C62.113 58.7127 61.7771 58.8518 61.4269 58.8518H30.4807C29.3825 58.8518 28.3293 59.288 27.5527 60.0646C26.7762 60.8411 26.34 61.8943 26.34 62.9925Z" fill="#B21BEF" stroke="url(#paint0_linear_5928_24377)"/>
<mask id="mask0_5928_24377" style="mask-type:alpha" maskUnits="userSpaceOnUse" x="23" y="19" width="41" height="48">
<path d="M63.2473 21.1241V57.5314C63.2473 58.0142 63.0555 58.4772 62.7141 58.8186C62.3727 59.16 61.9097 59.3518 61.4269 59.3518H30.4807C29.5151 59.3518 28.5891 59.7354 27.9063 60.4181C27.2235 61.1009 26.84 62.0269 26.84 62.9925H57.7862C58.269 62.9925 58.732 63.1843 59.0734 63.5257C59.4148 63.8671 59.6066 64.3301 59.6066 64.8129C59.6066 65.2957 59.4148 65.7587 59.0734 66.1001C58.732 66.4415 58.269 66.6333 57.7862 66.6333H25.0196C24.5368 66.6333 24.0738 66.4415 23.7324 66.1001C23.391 65.7587 23.1992 65.2957 23.1992 64.8129V26.5852C23.2052 24.6559 23.9743 22.8073 25.3385 21.443C26.7028 20.0788 28.5514 19.3097 30.4807 19.3037H61.4269C61.9097 19.3037 62.3727 19.4955 62.7141 19.8369C63.0555 20.1783 63.2473 20.6413 63.2473 21.1241Z" fill="#DAB946"/>
</mask>
<g mask="url(#mask0_5928_24377)">
<g filter="url(#filter1_f_5928_24377)">
<circle cx="33.8242" cy="31.3779" r="15.9375" fill="white" fillOpacity="0.7"/>
</g>
<g filter="url(#filter2_f_5928_24377)">
<ellipse cx="58.8072" cy="52.6929" rx="6.93961" ry="11.3854" transform="rotate(53.9377 58.8072 52.6929)" fill="white" fillOpacity="0.6"/>
</g>
<g filter="url(#filter3_f_5928_24377)">
<ellipse cx="40.8267" cy="66.6329" rx="0.96591" ry="18.1108" transform="rotate(90 40.8267 66.6329)" fill="white"/>
</g>
<g filter="url(#filter4_d_5928_24377)">
<path d="M31.4102 27.0314C31.4102 25.9645 32.2751 25.0996 33.342 25.0996V25.0996C34.4089 25.0996 35.2738 25.9645 35.2738 27.0314V37.1735C35.2738 38.2404 34.4089 39.1053 33.342 39.1053V39.1053C32.2751 39.1053 31.4102 38.2404 31.4102 37.1735V27.0314Z" fill="white"/>
</g>
<g filter="url(#filter5_f_5928_24377)">
<path d="M63.2473 21.1241V57.5314C63.2473 58.0142 63.0555 58.4772 62.7141 58.8186C62.3727 59.16 61.9097 59.3518 61.4269 59.3518H30.4807C29.5151 59.3518 28.5891 59.7354 27.9063 60.4181C27.2235 61.1009 26.84 62.0269 26.84 62.9925H57.7862C58.269 62.9925 58.732 63.1843 59.0734 63.5257C59.4148 63.8671 59.6066 64.3301 59.6066 64.8129C59.6066 65.2957 59.4148 65.7587 59.0734 66.1001C58.732 66.4415 58.269 66.6333 57.7862 66.6333H25.0196C24.5368 66.6333 24.0738 66.4415 23.7324 66.1001C23.391 65.7587 23.1992 65.2957 23.1992 64.8129V26.5852C23.2052 24.6559 23.9743 22.8073 25.3385 21.443C26.7028 20.0788 28.5514 19.3097 30.4807 19.3037H61.4269C61.9097 19.3037 62.3727 19.4955 62.7141 19.8369C63.0555 20.1783 63.2473 20.6413 63.2473 21.1241Z" stroke="url(#paint1_linear_5928_24377)" stroke-width="6"/>
</g>
<g filter="url(#filter6_f_5928_24377)">
<path d="M63.2473 21.1241V57.5314C63.2473 58.0142 63.0555 58.4772 62.7141 58.8186C62.3727 59.16 61.9097 59.3518 61.4269 59.3518H30.4807C29.5151 59.3518 28.5891 59.7354 27.9063 60.4181C27.2235 61.1009 26.84 62.0269 26.84 62.9925H57.7862C58.269 62.9925 58.732 63.1843 59.0734 63.5257C59.4148 63.8671 59.6066 64.3301 59.6066 64.8129C59.6066 65.2957 59.4148 65.7587 59.0734 66.1001C58.732 66.4415 58.269 66.6333 57.7862 66.6333H25.0196C24.5368 66.6333 24.0738 66.4415 23.7324 66.1001C23.391 65.7587 23.1992 65.2957 23.1992 64.8129V26.5852C23.2052 24.6559 23.9743 22.8073 25.3385 21.443C26.7028 20.0788 28.5514 19.3097 30.4807 19.3037H61.4269C61.9097 19.3037 62.3727 19.4955 62.7141 19.8369C63.0555 20.1783 63.2473 20.6413 63.2473 21.1241Z" stroke="url(#paint2_linear_5928_24377)" stroke-width="6"/>
</g>
<g filter="url(#filter7_f_5928_24377)">
<path d="M63.7667 57.6987C63.7667 57.5055 63.2837 49.7299 63.2837 47.5566C62.5593 57.6987 60.6275 58.6646 52.1758 59.389C55.315 60.1135 60.1928 59.872 61.3519 59.872C63.5252 59.872 63.7667 57.9402 63.7667 57.6987Z" fill="white" fillOpacity="0.8"/>
</g>
</g>
<defs>
<filter id="filter0_f_5928_24377" x="23.2734" y="51.2529" width="36.5586" height="32.6934" filterUnits="userSpaceOnUse" color-interpolation-filters="sRGB">
<feFlood flood-opacity="0" result="BackgroundImageFix"/>
<feBlend mode="normal" in="SourceGraphic" in2="BackgroundImageFix" result="shape"/>
<feGaussianBlur stdDeviation="6" result="effect1_foregroundBlur_5928_24377"/>
</filter>
<filter id="filter1_f_5928_24377" x="-22.1133" y="-24.5596" width="111.875" height="111.875" filterUnits="userSpaceOnUse" color-interpolation-filters="sRGB">
<feFlood flood-opacity="0" result="BackgroundImageFix"/>
<feBlend mode="normal" in="SourceGraphic" in2="BackgroundImageFix" result="shape"/>
<feGaussianBlur stdDeviation="20" result="effect1_foregroundBlur_5928_24377"/>
</filter>
<filter id="filter2_f_5928_24377" x="18.7344" y="13.9521" width="80.1445" height="77.4814" filterUnits="userSpaceOnUse" color-interpolation-filters="sRGB">
<feFlood flood-opacity="0" result="BackgroundImageFix"/>
<feBlend mode="normal" in="SourceGraphic" in2="BackgroundImageFix" result="shape"/>
<feGaussianBlur stdDeviation="15" result="effect1_foregroundBlur_5928_24377"/>
</filter>
<filter id="filter3_f_5928_24377" x="18.7148" y="61.667" width="44.2227" height="9.93164" filterUnits="userSpaceOnUse" color-interpolation-filters="sRGB">
<feFlood flood-opacity="0" result="BackgroundImageFix"/>
<feBlend mode="normal" in="SourceGraphic" in2="BackgroundImageFix" result="shape"/>
<feGaussianBlur stdDeviation="2" result="effect1_foregroundBlur_5928_24377"/>
</filter>
<filter id="filter4_d_5928_24377" x="25.4102" y="21.0996" width="15.8633" height="26.0059" filterUnits="userSpaceOnUse" color-interpolation-filters="sRGB">
<feFlood flood-opacity="0" result="BackgroundImageFix"/>
<feColorMatrix in="SourceAlpha" type="matrix" values="0 0 0 0 0 0 0 0 0 0 0 0 0 0 0 0 0 0 127 0" result="hardAlpha"/>
<feOffset dy="2"/>
<feGaussianBlur stdDeviation="3"/>
<feComposite in2="hardAlpha" operator="out"/>
<feColorMatrix type="matrix" values="0 0 0 0 0.00201389 0 0 0 0 0.483333 0 0 0 0 0.144118 0 0 0 0.49 0"/>
<feBlend mode="normal" in2="BackgroundImageFix" result="effect1_dropShadow_5928_24377"/>
<feBlend mode="normal" in="SourceGraphic" in2="effect1_dropShadow_5928_24377" result="shape"/>
</filter>
<filter id="filter5_f_5928_24377" x="10.1992" y="6.30371" width="66.0469" height="73.3291" filterUnits="userSpaceOnUse" color-interpolation-filters="sRGB">
<feFlood flood-opacity="0" result="BackgroundImageFix"/>
<feBlend mode="normal" in="SourceGraphic" in2="BackgroundImageFix" result="shape"/>
<feGaussianBlur stdDeviation="5" result="effect1_foregroundBlur_5928_24377"/>
</filter>
<filter id="filter6_f_5928_24377" x="10.1992" y="6.30371" width="66.0469" height="73.3291" filterUnits="userSpaceOnUse" color-interpolation-filters="sRGB">
<feFlood flood-opacity="0" result="BackgroundImageFix"/>
<feBlend mode="normal" in="SourceGraphic" in2="BackgroundImageFix" result="shape"/>
<feGaussianBlur stdDeviation="5" result="effect1_foregroundBlur_5928_24377"/>
</filter>
<filter id="filter7_f_5928_24377" x="48.1758" y="43.5566" width="19.5898" height="20.3535" filterUnits="userSpaceOnUse" color-interpolation-filters="sRGB">
<feFlood flood-opacity="0" result="BackgroundImageFix"/>
<feBlend mode="normal" in="SourceGraphic" in2="BackgroundImageFix" result="shape"/>
<feGaussianBlur stdDeviation="2" result="effect1_foregroundBlur_5928_24377"/>
</filter>
<linearGradient id="paint0_linear_5928_24377" x1="43.2233" y1="19.3037" x2="43.2233" y2="66.6333" gradientUnits="userSpaceOnUse">
<stop stop-color="#D263FF"/>
<stop offset="1" stop-color="#B21BEF"/>
</linearGradient>
<linearGradient id="paint1_linear_5928_24377" x1="27.7873" y1="21.96" x2="55.3157" y2="60.8378" gradientUnits="userSpaceOnUse">
<stop offset="0.191262" stop-color="white"/>
<stop offset="1" stop-color="white" stop-opacity="0"/>
</linearGradient>
<linearGradient id="paint2_linear_5928_24377" x1="27.7873" y1="21.96" x2="43.0004" y2="40.0708" gradientUnits="userSpaceOnUse">
<stop offset="0.191262" stop-color="white"/>
<stop offset="1" stop-color="white" stop-opacity="0"/>
</linearGradient>
</defs>
</svg>
