<svg width="28" height="27" viewBox="0 0 28 27" fill="none" xmlns="http://www.w3.org/2000/svg">
<circle cx="14.2052" cy="13.5699" r="12.7325" stroke="white" stroke-opacity="0.7"/>
<path d="M17.5838 6.31671L17.5836 6.3167C16.697 6.27635 16.4252 6.26807 14.2079 6.26807C11.9906 6.26807 11.7188 6.27635 10.8322 6.3167L10.832 6.31671C9.97198 6.35613 9.4798 6.50158 9.1373 6.63458C8.70952 6.79287 8.32242 7.04455 8.00416 7.37131C7.66668 7.70997 7.44881 8.04468 7.27438 8.49496C7.14002 8.83851 6.99442 9.33141 6.9549 10.1939L6.95489 10.194C6.91454 11.0806 6.90625 11.3524 6.90625 13.5697C6.90625 15.787 6.91454 16.0589 6.95489 16.9455L6.9549 16.9456C6.99431 17.8057 7.13978 18.2979 7.27279 18.6404C7.43072 19.0669 7.68142 19.453 8.00677 19.7708C8.32446 20.0961 8.71046 20.3468 9.13688 20.5047C9.48027 20.6387 9.97272 20.7834 10.832 20.8228L10.8322 20.8228C11.7188 20.8631 11.9901 20.8714 14.2079 20.8714C16.4258 20.8714 16.697 20.8631 17.5836 20.8228L17.5838 20.8228C18.4439 20.7833 18.9361 20.6379 19.2786 20.5049C19.7052 20.347 20.0913 20.0963 20.4091 19.7708C20.7344 19.4531 20.985 19.0672 21.1429 18.6408C21.2769 18.2974 21.4216 17.8049 21.4609 16.9456L21.461 16.9455C21.5013 16.0589 21.5096 15.787 21.5096 13.5697C21.5096 11.3524 21.5013 11.0806 21.461 10.194L21.4609 10.1939C21.4214 9.33063 21.275 8.838 21.1416 8.49534C20.9669 8.04419 20.749 7.70864 20.409 7.36864L20.4087 7.3683C20.0692 7.02948 19.734 6.81101 19.2826 6.63618C18.9391 6.50183 18.4462 6.35623 17.5838 6.31671Z" stroke="white" stroke-opacity="0.7"/>
<path d="M11.544 10.9078C12.25 10.2018 13.2075 9.80522 14.2059 9.80522C15.2043 9.80522 16.1619 10.2018 16.8679 10.9078C17.5738 11.6138 17.9705 12.5713 17.9705 13.5697C17.9705 14.5682 17.5738 15.5257 16.8679 16.2317C16.1619 16.9377 15.2043 17.3343 14.2059 17.3343C13.2075 17.3343 12.25 16.9377 11.544 16.2317C10.838 15.5257 10.4414 14.5682 10.4414 13.5697C10.4414 12.5713 10.838 11.6138 11.544 10.9078ZM19.2111 9.22778C19.2111 9.36253 19.1576 9.49175 19.0623 9.58703C18.967 9.68231 18.8378 9.73584 18.703 9.73584C18.5683 9.73584 18.4391 9.68231 18.3438 9.58703C18.2485 9.49175 18.195 9.36252 18.195 9.22778C18.195 9.09304 18.2485 8.96381 18.3438 8.86853C18.4391 8.77325 18.5683 8.71973 18.703 8.71973C18.8378 8.71973 18.967 8.77325 19.0623 8.86853C19.1576 8.96381 19.2111 9.09303 19.2111 9.22778Z" stroke="white" stroke-opacity="0.7"/>
</svg>
