<svg width="75" height="75" viewBox="0 0 75 75" fill="none" xmlns="http://www.w3.org/2000/svg">
<circle cx="37.9023" cy="37.9785" r="36" stroke="white" stroke-width="2"/>
<path d="M47.5498 17.6553L47.5494 17.6553C45.0226 17.5403 44.2527 17.5166 37.9103 17.5166C31.5679 17.5166 30.798 17.5403 28.2712 17.6553L28.2709 17.6553C25.8546 17.7661 24.4919 18.1732 23.5548 18.5373C22.3888 18.9682 21.3338 19.6541 20.4667 20.5448C19.5422 21.4722 18.9512 22.3798 18.4732 23.6138C18.1059 24.5529 17.6989 25.917 17.588 28.3383L17.5879 28.3386C17.4729 30.8654 17.4492 31.6353 17.4492 37.9777C17.4492 44.3201 17.4729 45.09 17.5879 47.6168L17.588 47.6171C17.6987 50.0336 18.1058 51.3963 18.47 52.3334C18.9003 53.4968 19.5841 54.5498 20.4719 55.4159C21.3379 56.3037 22.3907 56.9875 23.5539 57.4177C24.4928 57.7843 25.856 58.1894 28.2709 58.3001L28.2712 58.3001C30.798 58.4151 31.5663 58.4388 37.9103 58.4388C44.2543 58.4388 45.0226 58.4151 47.5494 58.3001L47.5498 58.3001C49.966 58.1893 51.3287 57.7823 52.2658 57.4181C53.4295 56.9881 54.4826 56.3041 55.3487 55.4159C56.2364 54.55 56.9202 53.4973 57.3504 52.3341C57.7169 51.3952 58.122 50.032 58.2327 47.6171L58.2327 47.6168C58.3477 45.09 58.3714 44.3201 58.3714 37.9777C58.3714 31.6353 58.3477 30.8654 58.2327 28.3386L58.2327 28.3383C58.1217 25.9162 57.7129 24.5528 57.3481 23.6155C56.8695 22.3793 56.2789 21.4698 55.3486 20.5395L55.3479 20.5388C54.4188 19.6115 53.5101 19.0192 52.2739 18.5405C51.3348 18.1732 49.9708 17.7663 47.5498 17.6553Z" stroke="white" stroke-width="2"/>
<path d="M29.984 30.0586C32.0848 27.9579 34.934 26.7777 37.9049 26.7777C40.8758 26.7777 43.725 27.9579 45.8257 30.0586C47.9265 32.1594 49.1066 35.0086 49.1066 37.9795C49.1066 40.9504 47.9265 43.7996 45.8257 45.9003C43.725 48.0011 40.8758 49.1812 37.9049 49.1812C34.934 49.1812 32.0848 48.0011 29.984 45.9003C27.8833 43.7996 26.7031 40.9504 26.7031 37.9795C26.7031 35.0086 27.8833 32.1594 29.984 30.0586ZM52.6564 25.5561C52.6564 26.0559 52.4579 26.5352 52.1045 26.8885C51.7511 27.2419 51.2719 27.4404 50.7721 27.4404C50.2724 27.4404 49.7931 27.2419 49.4397 26.8885C49.0864 26.5352 48.8879 26.0559 48.8879 25.5561C48.8879 25.0564 49.0864 24.5771 49.4397 24.2238C49.7931 23.8704 50.2724 23.6719 50.7721 23.6719C51.2719 23.6719 51.7511 23.8704 52.1045 24.2238C52.4579 24.5771 52.6564 25.0564 52.6564 25.5561Z" stroke="white" stroke-width="2"/>
</svg>
