<svg width="86" height="86" viewBox="0 0 86 86" fill="none" xmlns="http://www.w3.org/2000/svg">
<circle cx="43" cy="42.9688" r="42.5" fill="#B21BEF" fillOpacity="0.3"/>
<g filter="url(#filter0_f_5928_24293)">
<ellipse cx="41.5518" cy="65.6679" rx="6.27841" ry="4.34659" fill="white" fillOpacity="0.8"/>
</g>
<path fillRule="evenodd" clipRule="evenodd" d="M53.9774 30.4444C53.9774 36.506 49.0634 41.42 43.0018 41.42C36.9401 41.42 32.0262 36.506 32.0262 30.4444C32.0262 24.3827 36.9401 19.4688 43.0018 19.4688C49.0634 19.4688 53.9774 24.3827 53.9774 30.4444ZM23.0469 63.3712C23.0469 54.2834 32.003 46.9078 43.0005 46.9078C53.9981 46.9078 62.9542 54.2834 62.9542 63.3712C62.9542 63.9858 62.4713 64.4688 61.8566 64.4688H24.1444C23.5298 64.4688 23.0469 63.9858 23.0469 63.3712Z" fill="#B21BEF"/>
<mask id="mask0_5928_24293" style="mask-type:alpha" maskUnits="userSpaceOnUse" x="23" y="19" width="40" height="46">
<path fillRule="evenodd" clipRule="evenodd" d="M53.9774 30.4444C53.9774 36.506 49.0634 41.42 43.0018 41.42C36.9401 41.42 32.0262 36.506 32.0262 30.4444C32.0262 24.3827 36.9401 19.4688 43.0018 19.4688C49.0634 19.4688 53.9774 24.3827 53.9774 30.4444ZM23.0469 63.3712C23.0469 54.2834 32.003 46.9078 43.0005 46.9078C53.9981 46.9078 62.9542 54.2834 62.9542 63.3712C62.9542 63.9858 62.4713 64.4688 61.8566 64.4688H24.1444C23.5298 64.4688 23.0469 63.9858 23.0469 63.3712Z" fill="#B21BEF"/>
</mask>
<g mask="url(#mask0_5928_24293)">
<g filter="url(#filter1_f_5928_24293)">
<ellipse cx="42.7564" cy="63.503" rx="0.96591" ry="18.1108" transform="rotate(90 42.7564 63.503)" fill="white"/>
</g>
<g filter="url(#filter2_f_5928_24293)">
<circle cx="36.7207" cy="24.9971" r="14.1582" fill="white" fillOpacity="0.7"/>
</g>
<g filter="url(#filter3_f_5928_24293)">
<ellipse cx="56.1665" cy="61.6648" rx="6.1252" ry="10.0493" transform="rotate(-90 56.1665 61.6648)" fill="white" fillOpacity="0.6"/>
</g>
<mask id="mask1_5928_24293" style="mask-type:alpha" maskUnits="userSpaceOnUse" x="32" y="19" width="22" height="23">
<path d="M53.9846 30.4532C53.9846 36.5198 49.0667 41.4377 43.0001 41.4377C36.9336 41.4377 32.0156 36.5198 32.0156 30.4532C32.0156 24.3867 36.9336 19.4688 43.0001 19.4688C49.0667 19.4688 53.9846 24.3867 53.9846 30.4532Z" fill="#2CE254"/>
</mask>
<g mask="url(#mask1_5928_24293)">
<g filter="url(#filter4_f_5928_24293)">
<path fillRule="evenodd" clipRule="evenodd" d="M42.999 22.7871C38.8914 22.7871 35.5616 26.117 35.5616 30.2246C35.5616 34.3321 38.8914 37.662 42.999 37.662C47.1066 37.662 50.4364 34.3321 50.4364 30.2246C50.4364 26.117 47.1066 22.7871 42.999 22.7871ZM32.1289 30.2246C32.1289 24.2212 36.9956 19.3545 42.999 19.3545C49.0024 19.3545 53.8691 24.2212 53.8691 30.2246C53.8691 36.2279 49.0024 41.0946 42.999 41.0946C36.9956 41.0946 32.1289 36.2279 32.1289 30.2246Z" fill="url(#paint0_linear_5928_24293)"/>
</g>
<g filter="url(#filter5_f_5928_24293)">
<path fillRule="evenodd" clipRule="evenodd" d="M50.0716 36.3814C53.1995 33.2535 53.1995 28.1821 50.0716 25.0542C46.9436 21.9263 41.8723 21.9263 38.7444 25.0542C35.6165 28.1821 35.6165 33.2534 38.7444 36.3814C41.8723 39.5093 46.9436 39.5093 50.0716 36.3814ZM51.3661 23.7596C55.209 27.6025 55.209 33.833 51.3661 37.6759C47.5232 41.5188 41.2927 41.5188 37.4498 37.6759C33.607 33.833 33.607 27.6025 37.4498 23.7596C41.2927 19.9168 47.5232 19.9168 51.3661 23.7596Z" fill="url(#paint1_linear_5928_24293)"/>
</g>
<g filter="url(#filter6_f_5928_24293)">
<path fillRule="evenodd" clipRule="evenodd" d="M30.4519 26.8622C32.3086 19.9328 39.4312 15.8206 46.3606 17.6773C53.29 19.534 57.4022 26.6566 55.5455 33.586C53.6888 40.5154 46.5662 44.6276 39.6368 42.7709C32.7074 40.9142 28.5952 33.7916 30.4519 26.8622ZM45.176 22.0982C40.6882 20.8957 36.0753 23.559 34.8728 28.0468C33.6703 32.5346 36.3336 37.1475 40.8214 38.35C45.3092 39.5525 49.9221 36.8892 51.1246 32.4014C52.3271 27.9136 49.6638 23.3007 45.176 22.0982Z" fill="url(#paint2_linear_5928_24293)"/>
</g>
<g filter="url(#filter7_f_5928_24293)">
<path d="M36.1367 25.9027C36.1368 23.9828 37.9818 23.2733 38.7547 23.1492C39.9905 22.9509 40.4004 24.3399 38.4556 24.4888C36.1368 24.712 36.1367 27.9121 36.1367 25.9027Z" fill="url(#paint3_linear_5928_24293)"/>
</g>
</g>
<path fillRule="evenodd" clipRule="evenodd" d="M53.9774 30.4444C53.9774 36.506 49.0634 41.42 43.0018 41.42C36.9401 41.42 32.0262 36.506 32.0262 30.4444C32.0262 24.3827 36.9401 19.4688 43.0018 19.4688C49.0634 19.4688 53.9774 24.3827 53.9774 30.4444ZM23.0469 63.3712C23.0469 54.2834 32.003 46.9078 43.0005 46.9078C53.9981 46.9078 62.9542 54.2834 62.9542 63.3712C62.9542 63.9858 62.4713 64.4688 61.8566 64.4688H24.1444C23.5298 64.4688 23.0469 63.9858 23.0469 63.3712Z" fill="url(#paint4_radial_5928_24293)"/>
<path fillRule="evenodd" clipRule="evenodd" d="M53.9774 30.4444C53.9774 36.506 49.0634 41.42 43.0018 41.42C36.9401 41.42 32.0262 36.506 32.0262 30.4444C32.0262 24.3827 36.9401 19.4688 43.0018 19.4688C49.0634 19.4688 53.9774 24.3827 53.9774 30.4444ZM23.0469 63.3712C23.0469 54.2834 32.003 46.9078 43.0005 46.9078C53.9981 46.9078 62.9542 54.2834 62.9542 63.3712C62.9542 63.9858 62.4713 64.4688 61.8566 64.4688H24.1444C23.5298 64.4688 23.0469 63.9858 23.0469 63.3712Z" fill="url(#paint5_linear_5928_24293)"/>
</g>
<defs>
<filter id="filter0_f_5928_24293" x="23.2734" y="49.3213" width="36.5586" height="32.6934" filterUnits="userSpaceOnUse" color-interpolation-filters="sRGB">
<feFlood flood-opacity="0" result="BackgroundImageFix"/>
<feBlend mode="normal" in="SourceGraphic" in2="BackgroundImageFix" result="shape"/>
<feGaussianBlur stdDeviation="6" result="effect1_foregroundBlur_5928_24293"/>
</filter>
<filter id="filter1_f_5928_24293" x="20.6445" y="58.5371" width="44.2227" height="9.93164" filterUnits="userSpaceOnUse" color-interpolation-filters="sRGB">
<feFlood flood-opacity="0" result="BackgroundImageFix"/>
<feBlend mode="normal" in="SourceGraphic" in2="BackgroundImageFix" result="shape"/>
<feGaussianBlur stdDeviation="2" result="effect1_foregroundBlur_5928_24293"/>
</filter>
<filter id="filter2_f_5928_24293" x="-2.4375" y="-14.1611" width="78.3164" height="78.3164" filterUnits="userSpaceOnUse" color-interpolation-filters="sRGB">
<feFlood flood-opacity="0" result="BackgroundImageFix"/>
<feBlend mode="normal" in="SourceGraphic" in2="BackgroundImageFix" result="shape"/>
<feGaussianBlur stdDeviation="12.5" result="effect1_foregroundBlur_5928_24293"/>
</filter>
<filter id="filter3_f_5928_24293" x="31.1172" y="40.54" width="50.0977" height="42.25" filterUnits="userSpaceOnUse" color-interpolation-filters="sRGB">
<feFlood flood-opacity="0" result="BackgroundImageFix"/>
<feBlend mode="normal" in="SourceGraphic" in2="BackgroundImageFix" result="shape"/>
<feGaussianBlur stdDeviation="7.5" result="effect1_foregroundBlur_5928_24293"/>
</filter>
<filter id="filter4_f_5928_24293" x="20.1289" y="7.35449" width="45.7383" height="45.7402" filterUnits="userSpaceOnUse" color-interpolation-filters="sRGB">
<feFlood flood-opacity="0" result="BackgroundImageFix"/>
<feBlend mode="normal" in="SourceGraphic" in2="BackgroundImageFix" result="shape"/>
<feGaussianBlur stdDeviation="6" result="effect1_foregroundBlur_5928_24293"/>
</filter>
<filter id="filter5_f_5928_24293" x="30.5664" y="16.8779" width="27.6836" height="27.6797" filterUnits="userSpaceOnUse" color-interpolation-filters="sRGB">
<feFlood flood-opacity="0" result="BackgroundImageFix"/>
<feBlend mode="normal" in="SourceGraphic" in2="BackgroundImageFix" result="shape"/>
<feGaussianBlur stdDeviation="2" result="effect1_foregroundBlur_5928_24293"/>
</filter>
<filter id="filter6_f_5928_24293" x="20.0078" y="7.23145" width="45.9844" height="45.9854" filterUnits="userSpaceOnUse" color-interpolation-filters="sRGB">
<feFlood flood-opacity="0" result="BackgroundImageFix"/>
<feBlend mode="normal" in="SourceGraphic" in2="BackgroundImageFix" result="shape"/>
<feGaussianBlur stdDeviation="5" result="effect1_foregroundBlur_5928_24293"/>
</filter>
<filter id="filter7_f_5928_24293" x="35.1367" y="22.1299" width="5.66016" height="5.43262" filterUnits="userSpaceOnUse" color-interpolation-filters="sRGB">
<feFlood flood-opacity="0" result="BackgroundImageFix"/>
<feBlend mode="normal" in="SourceGraphic" in2="BackgroundImageFix" result="shape"/>
<feGaussianBlur stdDeviation="0.5" result="effect1_foregroundBlur_5928_24293"/>
</filter>
<linearGradient id="paint0_linear_5928_24293" x1="33.8452" y1="25.0609" x2="42.2948" y2="35.6229" gradientUnits="userSpaceOnUse">
<stop stop-color="white" stop-opacity="0.7"/>
<stop offset="1" stop-color="white" stop-opacity="0"/>
</linearGradient>
<linearGradient id="paint1_linear_5928_24293" x1="54.31" y1="33.6321" x2="36.6408" y2="27.9669" gradientUnits="userSpaceOnUse">
<stop stop-color="white" stop-opacity="0.5"/>
<stop offset="0.332036" stop-color="white" stop-opacity="0"/>
</linearGradient>
<linearGradient id="paint2_linear_5928_24293" x1="41.5966" y1="40.578" x2="42.1359" y2="30.6555" gradientUnits="userSpaceOnUse">
<stop stop-color="white" stop-opacity="0.8"/>
<stop offset="0.332036" stop-color="white" stop-opacity="0"/>
</linearGradient>
<linearGradient id="paint3_linear_5928_24293" x1="39.1521" y1="23.2372" x2="36.3642" y2="26.3588" gradientUnits="userSpaceOnUse">
<stop stop-color="white"/>
<stop offset="1" stop-color="white" stop-opacity="0"/>
</linearGradient>
<radialGradient id="paint4_radial_5928_24293" cx="0" cy="0" r="1" gradientUnits="userSpaceOnUse" gradientTransform="translate(55.1657 59.0521) rotate(-114.425) scale(41.0146 42.002)">
<stop offset="0.813561" stop-color="white" stop-opacity="0"/>
<stop offset="1" stop-color="white" stop-opacity="0.3"/>
</radialGradient>
<linearGradient id="paint5_linear_5928_24293" x1="35.4168" y1="41.9688" x2="62.9551" y2="64.4687" gradientUnits="userSpaceOnUse">
<stop stop-color="white" stop-opacity="0"/>
<stop offset="0.766703" stop-color="white" stop-opacity="0.38"/>
<stop offset="1" stop-color="white" stop-opacity="0.85"/>
</linearGradient>
</defs>
</svg>
