<svg width="31" height="31" viewBox="0 0 31 31" fill="none" xmlns="http://www.w3.org/2000/svg">
<path d="M23.9226 5.41784L16.7074 2.71541C15.9596 2.43992 14.7396 2.43992 13.9918 2.71541L6.77659 5.41784C5.38601 5.94259 4.25781 7.5693 4.25781 9.0517V19.6778C4.25781 20.7404 4.9531 22.1441 5.80581 22.7738L13.0211 28.1655C14.2936 29.1232 16.3794 29.1232 17.6519 28.1655L24.8672 22.7738C25.7199 22.131 26.4152 20.7404 26.4152 19.6778V9.0517C26.4283 7.5693 25.3001 5.94259 23.9226 5.41784ZM19.9083 12.7643L14.2673 18.4053C14.0705 18.6021 13.8213 18.6939 13.572 18.6939C13.3228 18.6939 13.0735 18.6021 12.8767 18.4053L10.7778 16.2801C10.3973 15.8996 10.3973 15.2699 10.7778 14.8895C11.1582 14.5091 11.7879 14.5091 12.1683 14.8895L13.5852 16.3063L18.5309 11.3606C18.9113 10.9801 19.541 10.9801 19.9215 11.3606C20.3019 11.741 20.3019 12.3838 19.9083 12.7643Z" fill="white" fillOpacity="0.7"/>
</svg>
