<svg width="31" height="30" viewBox="0 0 31 30" fill="none" xmlns="http://www.w3.org/2000/svg">
<path d="M20.5734 2.5H10.0984C5.54844 2.5 2.83594 5.2125 2.83594 9.7625V20.225C2.83594 24.7875 5.54844 27.5 10.0984 27.5H20.5609C25.1109 27.5 27.8234 24.7875 27.8234 20.2375V9.7625C27.8359 5.2125 25.1234 2.5 20.5734 2.5ZM9.87344 22.6875C9.87344 23.2 9.44844 23.625 8.93594 23.625C8.42344 23.625 7.99844 23.2 7.99844 22.6875V20.1C7.99844 19.5875 8.42344 19.1625 8.93594 19.1625C9.44844 19.1625 9.87344 19.5875 9.87344 20.1V22.6875ZM16.2734 22.6875C16.2734 23.2 15.8484 23.625 15.3359 23.625C14.8234 23.625 14.3984 23.2 14.3984 22.6875V17.5C14.3984 16.9875 14.8234 16.5625 15.3359 16.5625C15.8484 16.5625 16.2734 16.9875 16.2734 17.5V22.6875ZM22.6734 22.6875C22.6734 23.2 22.2484 23.625 21.7359 23.625C21.2234 23.625 20.7984 23.2 20.7984 22.6875V14.9125C20.7984 14.4 21.2234 13.975 21.7359 13.975C22.2484 13.975 22.6734 14.4 22.6734 14.9125V22.6875ZM22.6734 10.9625C22.6734 11.475 22.2484 11.9 21.7359 11.9C21.2234 11.9 20.7984 11.475 20.7984 10.9625V9.75C17.6109 13.025 13.6234 15.3375 9.16094 16.45C9.08594 16.475 9.01094 16.475 8.93594 16.475C8.51094 16.475 8.13594 16.1875 8.02344 15.7625C7.89844 15.2625 8.19844 14.75 8.71094 14.625C12.9234 13.575 16.6734 11.3625 19.6484 8.2375H18.0859C17.5734 8.2375 17.1484 7.8125 17.1484 7.3C17.1484 6.7875 17.5734 6.3625 18.0859 6.3625H21.7484C21.7984 6.3625 21.8359 6.3875 21.8859 6.3875C21.9484 6.4 22.0109 6.4 22.0734 6.425C22.1359 6.45 22.1859 6.4875 22.2484 6.525C22.2859 6.55 22.3234 6.5625 22.3609 6.5875C22.3734 6.6 22.3734 6.6125 22.3859 6.6125C22.4359 6.6625 22.4734 6.7125 22.5109 6.7625C22.5484 6.8125 22.5859 6.85 22.5984 6.9C22.6234 6.95 22.6234 7 22.6359 7.0625C22.6484 7.125 22.6734 7.1875 22.6734 7.2625C22.6734 7.275 22.6859 7.2875 22.6859 7.3V10.9625H22.6734Z" fill="white" fillOpacity="0.7"/>
</svg>
