<svg width="75" height="75" viewBox="0 0 75 75" fill="none" xmlns="http://www.w3.org/2000/svg">
<path fillRule="evenodd" clipRule="evenodd" d="M39.1648 28.5488C35.7606 29.9648 28.9568 32.8954 18.7536 37.3408C17.0968 37.9997 16.2288 38.6443 16.1498 39.2745C16.0163 40.3397 17.3502 40.7591 19.1666 41.3302C19.4136 41.4079 19.6696 41.4884 19.9321 41.5737C21.7191 42.1546 24.123 42.8342 25.3727 42.8612C26.5063 42.8857 27.7715 42.4184 29.1683 41.4592C38.7015 35.024 43.6225 31.7714 43.9315 31.7013C44.1495 31.6518 44.4515 31.5896 44.6562 31.7715C44.8608 31.9534 44.8407 32.2979 44.819 32.3903C44.6869 32.9536 39.451 37.8214 36.7414 40.3405C35.8967 41.1258 35.2975 41.6829 35.175 41.8101C34.9006 42.0951 34.621 42.3646 34.3522 42.6237C32.692 44.2242 31.447 45.4244 34.4211 47.3843C35.8503 48.3261 36.994 49.1049 38.135 49.8819C39.3811 50.7305 40.6239 51.5769 42.232 52.631C42.6416 52.8996 43.0329 53.1785 43.414 53.4502C44.8641 54.484 46.1669 55.4128 47.7765 55.2647C48.7117 55.1786 49.6778 54.2992 50.1684 51.6763C51.3279 45.4778 53.607 32.0474 54.1337 26.5131C54.1799 26.0282 54.1218 25.4077 54.0752 25.1353C54.0286 24.8629 53.9312 24.4748 53.5771 24.1874C53.1577 23.8472 52.5104 23.7754 52.2208 23.7805C50.9044 23.8037 48.8847 24.506 39.1648 28.5488Z" fill="white"/>
<circle cx="37.9023" cy="37.7129" r="36" stroke="white" stroke-width="2"/>
</svg>
