<svg width="28" height="27" viewBox="0 0 28 27" fill="none" xmlns="http://www.w3.org/2000/svg">
<path fillRule="evenodd" clipRule="evenodd" d="M14.5743 10.3678C13.3845 10.8627 11.0066 11.8869 7.44059 13.4406C6.86152 13.6709 6.55818 13.8961 6.53056 14.1164C6.48389 14.4887 6.95008 14.6353 7.58491 14.8349C7.67126 14.8621 7.76073 14.8902 7.85246 14.92C8.47703 15.123 9.31719 15.3605 9.75396 15.37C10.1501 15.3785 10.5923 15.2152 11.0805 14.88C14.4124 12.6309 16.1323 11.4941 16.2403 11.4696C16.3165 11.4523 16.422 11.4305 16.4935 11.4941C16.5651 11.5577 16.558 11.6781 16.5505 11.7104C16.5043 11.9073 14.6743 13.6086 13.7273 14.489C13.4321 14.7634 13.2227 14.9581 13.1799 15.0026C13.084 15.1022 12.9862 15.1964 12.8923 15.287C12.3121 15.8463 11.8769 16.2658 12.9164 16.9508C13.4159 17.28 13.8156 17.5522 14.2144 17.8237C14.6499 18.1203 15.0843 18.4161 15.6463 18.7845C15.7895 18.8784 15.9262 18.9759 16.0594 19.0708C16.5662 19.4321 17.0216 19.7568 17.5841 19.705C17.911 19.6749 18.2486 19.3676 18.4201 18.4509C18.8253 16.2845 19.6219 11.5906 19.806 9.6563C19.8221 9.48684 19.8018 9.26996 19.7855 9.17475C19.7692 9.07954 19.7352 8.9439 19.6114 8.84348C19.4649 8.72455 19.2386 8.69948 19.1374 8.70126C18.6773 8.70936 17.9714 8.95481 14.5743 10.3678Z" fill="white" fillOpacity="0.7"/>
<circle cx="14.1349" cy="13.5699" r="12.7325" stroke="white" stroke-opacity="0.7"/>
</svg>
