<svg width="75" height="75" viewBox="0 0 75 75" fill="none" xmlns="http://www.w3.org/2000/svg">
<circle cx="37.9023" cy="37.7129" r="36" stroke="white" stroke-width="2"/>
<path d="M50.1747 25.6904C48.0127 24.2808 46.4524 22.0255 45.9656 19.3963C45.8604 18.8283 45.8027 18.2437 45.8027 17.6455H38.9027L38.8916 45.2984C38.7756 48.395 36.2269 50.8804 33.1025 50.8804C32.1314 50.8804 31.2171 50.6376 30.412 50.214C28.5658 49.2424 27.3024 47.3073 27.3024 45.0803C27.3024 41.882 29.9044 39.2799 33.1025 39.2799C33.6995 39.2799 34.2722 39.3784 34.8139 39.5481V32.5039C34.2533 32.4276 33.6837 32.3799 33.1025 32.3799C26.0995 32.3799 20.4023 38.0773 20.4023 45.0803C20.4023 49.377 22.5491 53.1794 25.8241 55.4786C27.887 56.9269 30.3963 57.7804 33.1025 57.7804C40.1055 57.7804 45.8027 52.0833 45.8027 45.0803V31.0579C48.509 33.0003 51.8246 34.145 55.4023 34.145V27.245C53.4751 27.245 51.6801 26.672 50.1747 25.6904Z" fill="white"/>
</svg>
