<svg width="27" height="27" viewBox="0 0 27 27" fill="none" xmlns="http://www.w3.org/2000/svg">
<circle cx="13.67" cy="13.5699" r="12.7325" stroke="white" stroke-opacity="0.7"/>
<path d="M19.6323 10.5563C19.6415 10.6885 19.6415 10.8207 19.6415 10.9542C19.6415 15.0206 16.5458 19.7104 10.8852 19.7104V19.708C9.21306 19.7104 7.57565 19.2315 6.16797 18.3283C6.41111 18.3576 6.65548 18.3722 6.90045 18.3728C8.28619 18.3741 9.63232 17.9091 10.7225 17.0529C9.40563 17.0279 8.25085 16.1693 7.84743 14.9158C8.30874 15.0048 8.78406 14.9865 9.23683 14.8628C7.80112 14.5727 6.76821 13.3113 6.76821 11.8463C6.76821 11.8329 6.76821 11.8201 6.76821 11.8073C7.196 12.0456 7.67498 12.1778 8.16492 12.1925C6.8127 11.2887 6.39588 9.48984 7.21245 8.08338C8.77492 10.006 11.0802 11.1748 13.5549 11.2985C13.3069 10.2296 13.6457 9.10958 14.4452 8.35821C15.6847 7.19306 17.6341 7.25278 18.7993 8.49166C19.4885 8.35577 20.1491 8.10288 20.7536 7.74456C20.5239 8.45693 20.043 9.06205 19.4008 9.44657C20.0107 9.37466 20.6067 9.21135 21.168 8.96211C20.7548 9.58124 20.2344 10.1205 19.6323 10.5563Z" fill="white" fillOpacity="0.7"/>
</svg>
