<svg width="75" height="75" viewBox="0 0 75 75" fill="none" xmlns="http://www.w3.org/2000/svg">
<circle cx="37.9023" cy="37.7129" r="36" stroke="white" stroke-width="2"/>
<path d="M54.962 29.09C54.9882 29.4683 54.9882 29.8467 54.9882 30.2285C54.9882 41.8635 46.1308 55.2821 29.9346 55.2821V55.2751C25.1502 55.2821 20.4652 53.9116 16.4375 51.3277C17.1332 51.4113 17.8324 51.4532 18.5333 51.4549C22.4982 51.4584 26.3498 50.1281 29.4691 47.6783C25.7012 47.6068 22.3971 45.1501 21.2428 41.5636C22.5627 41.8181 23.9227 41.7658 25.2182 41.4119C21.1103 40.5819 18.1549 36.9727 18.1549 32.7811C18.1549 32.7428 18.1549 32.7062 18.1549 32.6696C19.3789 33.3513 20.7494 33.7297 22.1512 33.7715C18.2822 31.1858 17.0896 26.0387 19.426 22.0145C23.8966 27.5155 30.4925 30.8597 37.5732 31.2137C36.8636 28.1554 37.833 24.9507 40.1206 22.8009C43.6671 19.4671 49.2448 19.638 52.5785 23.1827C54.5505 22.7939 56.4406 22.0703 58.1702 21.0451C57.5129 23.0833 56.1372 24.8147 54.2995 25.9149C56.0448 25.7092 57.75 25.2419 59.3559 24.5288C58.1737 26.3002 56.6847 27.8433 54.962 29.09Z" fill="white"/>
</svg>
