<svg width="85" height="86" viewBox="0 0 85 86" fill="none" xmlns="http://www.w3.org/2000/svg">
<circle cx="42.5" cy="42.9688" r="42.5" fill="#B21BEF" fillOpacity="0.3"/>
<path d="M22.13 39.5755C20.1295 36.1106 21.3167 31.6801 24.7816 29.6796L43.1709 19.0625C46.6358 17.062 51.0664 18.2492 53.0669 21.7141L59.1934 32.3256C61.1939 35.7905 60.0067 40.221 56.5418 42.2215L38.1524 52.8386C34.6875 54.8391 30.257 53.6519 28.2565 50.187L22.13 39.5755Z" fill="url(#paint0_linear_5928_24397)"/>
<mask id="mask0_5928_24397" style="mask-type:alpha" maskUnits="userSpaceOnUse" x="21" y="18" width="40" height="36">
<path d="M22.13 39.5755C20.1295 36.1106 21.3167 31.6801 24.7816 29.6796L43.1709 19.0625C46.6358 17.062 51.0664 18.2492 53.0669 21.7141L59.1934 32.3256C61.1939 35.7905 60.0067 40.221 56.5418 42.2215L38.1524 52.8386C34.6875 54.8391 30.257 53.6519 28.2565 50.187L22.13 39.5755Z" fill="url(#paint1_linear_5928_24397)"/>
</mask>
<g mask="url(#mask0_5928_24397)">
<g filter="url(#filter0_f_5928_24397)">
<rect x="30.9062" y="24.6162" width="25.5966" height="5.3125" fill="#B21BEF"/>
</g>
<g filter="url(#filter1_f_5928_24397)">
<ellipse cx="47.5682" cy="19.304" rx="6.03693" ry="2.89773" fill="white" fillOpacity="0.7"/>
</g>
<g filter="url(#filter2_f_5928_24397)">
<path fillRule="evenodd" clipRule="evenodd" d="M20.8739 40.3C18.4734 36.1421 19.898 30.8254 24.0559 28.4249L42.4452 17.8078C46.6031 15.4072 51.9198 16.8318 54.3203 20.9897L60.4469 31.6012C62.8474 35.7591 61.4228 41.0757 57.2649 43.4763L38.8756 54.0934C34.7177 56.4939 29.401 55.0693 27.0005 50.9115L20.8739 40.3ZM25.5047 30.9344C22.7328 32.5348 21.7831 36.0792 23.3834 38.8511L29.51 49.4626C31.1103 52.2345 34.6548 53.1843 37.4267 51.5839L55.8161 40.9668C58.588 39.3664 59.5377 35.822 57.9374 33.05L51.8108 22.4386C50.2105 19.6667 46.666 18.7169 43.8941 20.3173L25.5047 30.9344Z" fill="white" fillOpacity="0.7"/>
</g>
</g>
<g filter="url(#filter3_f_5928_24397)">
<circle cx="41.5337" cy="64.2193" r="5.79545" fill="white"/>
</g>
<path d="M18.3516 33.3097C18.3516 29.3088 21.595 26.0654 25.5959 26.0654H58.4368C62.4377 26.0654 65.6811 29.3088 65.6811 33.3097V56.9745C65.6811 60.9754 62.4377 64.2188 58.4368 64.2188H25.5959C21.595 64.2188 18.3516 60.9754 18.3516 56.9745V33.3097Z" fill="url(#paint2_linear_5928_24397)"/>
<path fillRule="evenodd" clipRule="evenodd" d="M58.4368 26.5484H25.5959C21.8617 26.5484 18.8345 29.5755 18.8345 33.3097V56.9745C18.8345 60.7087 21.8617 63.7359 25.5959 63.7359H58.4368C62.171 63.7359 65.1982 60.7087 65.1982 56.9745V33.3097C65.1982 29.5755 62.171 26.5484 58.4368 26.5484ZM25.5959 26.0654C21.595 26.0654 18.3516 29.3088 18.3516 33.3097V56.9745C18.3516 60.9754 21.595 64.2188 25.5959 64.2188H58.4368C62.4377 64.2188 65.6811 60.9754 65.6811 56.9745V33.3097C65.6811 29.3088 62.4377 26.0654 58.4368 26.0654H25.5959Z" fill="#B21BEF"/>
<mask id="mask1_5928_24397" style="mask-type:alpha" maskUnits="userSpaceOnUse" x="18" y="26" width="48" height="39">
<path d="M18.3516 33.3097C18.3516 29.3088 21.595 26.0654 25.5959 26.0654H58.4368C62.4377 26.0654 65.6811 29.3088 65.6811 33.3097V56.9745C65.6811 60.9754 62.4377 64.2188 58.4368 64.2188H25.5959C21.595 64.2188 18.3516 60.9754 18.3516 56.9745V33.3097Z" fill="#1CD17A"/>
</mask>
<g mask="url(#mask1_5928_24397)">
<g filter="url(#filter4_f_5928_24397)">
<ellipse rx="12.8385" ry="18.1322" transform="matrix(0.779589 0.626291 -0.606694 0.794936 23.2503 34.4204)" fill="white" fillOpacity="0.5"/>
</g>
<g filter="url(#filter5_f_5928_24397)">
<ellipse cx="41.8153" cy="61.7409" rx="5.94599" ry="27.5284" transform="rotate(90 41.8153 61.7409)" fill="white" fillOpacity="0.5"/>
</g>
<g filter="url(#filter6_f_5928_24397)">
<ellipse cx="63.5089" cy="45.6377" rx="3.62216" ry="17.0947" fill="white" fillOpacity="0.4"/>
</g>
<g filter="url(#filter7_f_5928_24397)">
<ellipse cx="42.2571" cy="63.7235" rx="10.3835" ry="1.4865" transform="rotate(-180 42.2571 63.7235)" fill="white" fillOpacity="0.5"/>
</g>
<g filter="url(#filter8_f_5928_24397)">
<path d="M21.2476 26.561C17.6299 28.526 16.6593 37.7097 18.591 42.417C17.8667 27.0565 30.9066 26.8913 36.4607 26.561C33.4824 26.1481 25.3527 24.3312 21.2476 26.561Z" fill="white" fillOpacity="0.7"/>
</g>
<g filter="url(#filter9_f_5928_24397)">
<path d="M44.4297 45.2894C44.4297 43.1556 46.1595 41.4258 48.2933 41.4258H65.6797V49.3538H48.2933C46.1595 49.3538 44.4297 47.624 44.4297 45.4901V45.2894Z" fill="#B21BEF"/>
</g>
<path d="M44.4297 45.2894C44.4297 43.1556 46.1595 41.4258 48.2933 41.4258H65.6797V49.3538H48.2933C46.1595 49.3538 44.4297 47.624 44.4297 45.4901V45.2894Z" fill="url(#paint3_linear_5928_24397)"/>
<g filter="url(#filter10_d_5928_24397)">
<ellipse cx="48.2937" cy="45.3896" rx="2.41477" ry="2.47749" fill="#B21BEF"/>
</g>
<g filter="url(#filter11_f_5928_24397)">
<ellipse cx="48.2937" cy="43.6557" rx="2.41477" ry="1.23875" fill="white"/>
</g>
<g filter="url(#filter12_f_5928_24397)">
<ellipse cx="41.0515" cy="26.3132" rx="23.6648" ry="0.247749" fill="white"/>
</g>
<g filter="url(#filter13_f_5928_24397)">
<rect x="18.3516" y="26.0654" width="47.3295" height="38.1534" rx="15" stroke="url(#paint4_linear_5928_24397)" stroke-width="6"/>
</g>
</g>
<defs>
<filter id="filter0_f_5928_24397" x="26.9062" y="20.6162" width="33.5977" height="13.3125" filterUnits="userSpaceOnUse" color-interpolation-filters="sRGB">
<feFlood flood-opacity="0" result="BackgroundImageFix"/>
<feBlend mode="normal" in="SourceGraphic" in2="BackgroundImageFix" result="shape"/>
<feGaussianBlur stdDeviation="2" result="effect1_foregroundBlur_5928_24397"/>
</filter>
<filter id="filter1_f_5928_24397" x="31.5312" y="6.40625" width="32.0742" height="25.7959" filterUnits="userSpaceOnUse" color-interpolation-filters="sRGB">
<feFlood flood-opacity="0" result="BackgroundImageFix"/>
<feBlend mode="normal" in="SourceGraphic" in2="BackgroundImageFix" result="shape"/>
<feGaussianBlur stdDeviation="5" result="effect1_foregroundBlur_5928_24397"/>
</filter>
<filter id="filter2_f_5928_24397" x="15.707" y="12.6416" width="49.9062" height="46.6182" filterUnits="userSpaceOnUse" color-interpolation-filters="sRGB">
<feFlood flood-opacity="0" result="BackgroundImageFix"/>
<feBlend mode="normal" in="SourceGraphic" in2="BackgroundImageFix" result="shape"/>
<feGaussianBlur stdDeviation="2" result="effect1_foregroundBlur_5928_24397"/>
</filter>
<filter id="filter3_f_5928_24397" x="23.7383" y="46.4238" width="35.5898" height="35.5908" filterUnits="userSpaceOnUse" color-interpolation-filters="sRGB">
<feFlood flood-opacity="0" result="BackgroundImageFix"/>
<feBlend mode="normal" in="SourceGraphic" in2="BackgroundImageFix" result="shape"/>
<feGaussianBlur stdDeviation="6" result="effect1_foregroundBlur_5928_24397"/>
</filter>
<filter id="filter4_f_5928_24397" x="-21.6211" y="-12.0879" width="89.7422" height="93.0166" filterUnits="userSpaceOnUse" color-interpolation-filters="sRGB">
<feFlood flood-opacity="0" result="BackgroundImageFix"/>
<feBlend mode="normal" in="SourceGraphic" in2="BackgroundImageFix" result="shape"/>
<feGaussianBlur stdDeviation="15" result="effect1_foregroundBlur_5928_24397"/>
</filter>
<filter id="filter5_f_5928_24397" x="4.28516" y="45.7949" width="75.0586" height="31.8916" filterUnits="userSpaceOnUse" color-interpolation-filters="sRGB">
<feFlood flood-opacity="0" result="BackgroundImageFix"/>
<feBlend mode="normal" in="SourceGraphic" in2="BackgroundImageFix" result="shape"/>
<feGaussianBlur stdDeviation="5" result="effect1_foregroundBlur_5928_24397"/>
</filter>
<filter id="filter6_f_5928_24397" x="49.8867" y="18.543" width="27.2461" height="54.1895" filterUnits="userSpaceOnUse" color-interpolation-filters="sRGB">
<feFlood flood-opacity="0" result="BackgroundImageFix"/>
<feBlend mode="normal" in="SourceGraphic" in2="BackgroundImageFix" result="shape"/>
<feGaussianBlur stdDeviation="5" result="effect1_foregroundBlur_5928_24397"/>
</filter>
<filter id="filter7_f_5928_24397" x="27.875" y="58.2373" width="28.7656" height="10.9727" filterUnits="userSpaceOnUse" color-interpolation-filters="sRGB">
<feFlood flood-opacity="0" result="BackgroundImageFix"/>
<feBlend mode="normal" in="SourceGraphic" in2="BackgroundImageFix" result="shape"/>
<feGaussianBlur stdDeviation="2" result="effect1_foregroundBlur_5928_24397"/>
</filter>
<filter id="filter8_f_5928_24397" x="13.6172" y="21.4717" width="26.8438" height="24.9453" filterUnits="userSpaceOnUse" color-interpolation-filters="sRGB">
<feFlood flood-opacity="0" result="BackgroundImageFix"/>
<feBlend mode="normal" in="SourceGraphic" in2="BackgroundImageFix" result="shape"/>
<feGaussianBlur stdDeviation="2" result="effect1_foregroundBlur_5928_24397"/>
</filter>
<filter id="filter9_f_5928_24397" x="29.4297" y="26.4258" width="51.25" height="37.9277" filterUnits="userSpaceOnUse" color-interpolation-filters="sRGB">
<feFlood flood-opacity="0" result="BackgroundImageFix"/>
<feBlend mode="normal" in="SourceGraphic" in2="BackgroundImageFix" result="shape"/>
<feGaussianBlur stdDeviation="7.5" result="effect1_foregroundBlur_5928_24397"/>
</filter>
<filter id="filter10_d_5928_24397" x="43.8789" y="41.9121" width="8.82812" height="8.95508" filterUnits="userSpaceOnUse" color-interpolation-filters="sRGB">
<feFlood flood-opacity="0" result="BackgroundImageFix"/>
<feColorMatrix in="SourceAlpha" type="matrix" values="0 0 0 0 0 0 0 0 0 0 0 0 0 0 0 0 0 0 127 0" result="hardAlpha"/>
<feOffset dy="1"/>
<feGaussianBlur stdDeviation="1"/>
<feComposite in2="hardAlpha" operator="out"/>
<feColorMatrix type="matrix" values="0 0 0 0 0.698039 0 0 0 0 0.105882 0 0 0 0 0.937255 0 0 0 0.84 0"/>
<feBlend mode="normal" in2="BackgroundImageFix" result="effect1_dropShadow_5928_24397"/>
<feBlend mode="normal" in="SourceGraphic" in2="effect1_dropShadow_5928_24397" result="shape"/>
</filter>
<filter id="filter11_f_5928_24397" x="41.8789" y="38.417" width="12.8281" height="10.4775" filterUnits="userSpaceOnUse" color-interpolation-filters="sRGB">
<feFlood flood-opacity="0" result="BackgroundImageFix"/>
<feBlend mode="normal" in="SourceGraphic" in2="BackgroundImageFix" result="shape"/>
<feGaussianBlur stdDeviation="2" result="effect1_foregroundBlur_5928_24397"/>
</filter>
<filter id="filter12_f_5928_24397" x="16.3867" y="25.0654" width="49.3281" height="2.49512" filterUnits="userSpaceOnUse" color-interpolation-filters="sRGB">
<feFlood flood-opacity="0" result="BackgroundImageFix"/>
<feBlend mode="normal" in="SourceGraphic" in2="BackgroundImageFix" result="shape"/>
<feGaussianBlur stdDeviation="0.5" result="effect1_foregroundBlur_5928_24397"/>
</filter>
<filter id="filter13_f_5928_24397" x="7.35156" y="15.0654" width="69.3281" height="60.1533" filterUnits="userSpaceOnUse" color-interpolation-filters="sRGB">
<feFlood flood-opacity="0" result="BackgroundImageFix"/>
<feBlend mode="normal" in="SourceGraphic" in2="BackgroundImageFix" result="shape"/>
<feGaussianBlur stdDeviation="4" result="effect1_foregroundBlur_5928_24397"/>
</filter>
<linearGradient id="paint0_linear_5928_24397" x1="46.1211" y1="18.3381" x2="45.6382" y2="31.6193" gradientUnits="userSpaceOnUse">
<stop stop-color="#B21BEF"/>
<stop offset="1" stop-color="white"/>
</linearGradient>
<linearGradient id="paint1_linear_5928_24397" x1="46.1211" y1="18.3381" x2="45.6382" y2="31.6193" gradientUnits="userSpaceOnUse">
<stop stop-color="#22E889"/>
<stop offset="1" stop-color="white"/>
</linearGradient>
<linearGradient id="paint2_linear_5928_24397" x1="21.0078" y1="28.2952" x2="42.8181" y2="63.7253" gradientUnits="userSpaceOnUse">
<stop stop-color="#FE3FFF"/>
<stop offset="1" stop-color="#B21BEF"/>
</linearGradient>
<linearGradient id="paint3_linear_5928_24397" x1="44.4297" y1="45.3898" x2="65.6797" y2="45.3898" gradientUnits="userSpaceOnUse">
<stop stop-color="white"/>
<stop offset="1" stop-color="#FE3FFF"/>
</linearGradient>
<linearGradient id="paint4_linear_5928_24397" x1="18.3516" y1="29.5339" x2="63.0866" y2="61.6369" gradientUnits="userSpaceOnUse">
<stop stop-color="white"/>
<stop offset="1" stop-color="white" stop-opacity="0.78"/>
</linearGradient>
</defs>
</svg>
