<svg xmlns="http://www.w3.org/2000/svg" width="41" height="41" viewBox="0 0 41 41">
    <g id="组_440" data-name="组 440" transform="translate(99.188 -324.774)">
        <path id="联合_13" data-name="联合 13"
            d="M0,20A20,20,0,1,1,20,40,20.021,20.021,0,0,1,0,20Zm2.839,0A17.161,17.161,0,1,0,20,2.839,17.182,17.182,0,0,0,2.839,20Zm3.078,0A14.084,14.084,0,1,1,20,34.081,14.082,14.082,0,0,1,5.916,20Zm6.439,7.73h15.29V25.316H12.355Zm-.729-13.9a1.2,1.2,0,0,0-.428,1.246l1.49,6.784A1.213,1.213,0,0,0,14,22.9H25.971A1.239,1.239,0,0,0,27.3,21.822l1.493-6.66A1.229,1.229,0,0,0,27,13.737l-3.158,1.537-2.754-4.88a1.185,1.185,0,0,0-1.122-.7,1.222,1.222,0,0,0-1.092.7l-2.743,4.865-3.2-1.547a1.307,1.307,0,0,0-.568-.137A1.2,1.2,0,0,0,11.626,13.831ZM16.3,20.475l-1.447,0-.77-3.532,1.888.92a1.217,1.217,0,0,0,1.766-.546L20,13.341l2.25,3.989a1.229,1.229,0,0,0,1.763.557l1.9-.925-.8,3.518Z"
            transform="translate(-98.688 325.274)" fill="#fff" stroke="rgba(0,0,0,0)" stroke-miterlimit="10"
            stroke-width="1" />
    </g>
</svg>