<svg width="24" height="24" viewBox="0 0 24 24" fill="none" xmlns="http://www.w3.org/2000/svg"><path fill-rule="evenodd" clip-rule="evenodd" d="M10.766 22A92.4 92.4 0 0 1 12 21.99c.411 0 .823.003 1.234.01.16.002.29-.031.414-.123.193-.142.388-.281.583-.421.487-.35.974-.699 1.433-1.083.305-.255.56-.274.904-.172.53.155 1.063.302 1.595.45.642.178 1.284.356 1.923.548.337.1.484.087.588-.305.246-.921.516-1.835.787-2.75l.278-.94c.083-.284.055-.553-.036-.834-.147-.455-.289-.912-.43-1.369-.216-.694-.431-1.389-.666-2.076-.124-.365-.096-.601.146-.91.046-.06.12-.116.196-.175.24-.185.51-.394.084-.782a.544.544 0 0 1 .152-.212c.393-.257.358-.5-.073-.753.119-.1.225-.191.335-.286l.007-.005.225-.193c-.434-.257-.345-.626-.244-1.02.082-.318.141-.643.2-.968.091-.508.183-1.017.365-1.503v-.23c-.276-.542-.45-1.122-.624-1.702-.084-.282-.17-.565-.266-.843-.098-.283-.171-.43-.533-.29-1.017.395-2.039.774-3.061 1.153h-.002c-.815.303-1.63.606-2.443.916-.354.135-.7.21-1.076.202-.162-.003-.325-.01-.488-.016-.49-.018-.98-.036-1.46.025l-.026.003L12 5.34a7.174 7.174 0 0 1-.046-.006c-.48-.061-.972-.043-1.461-.025-.163.006-.326.013-.488.016a2.783 2.783 0 0 1-1.076-.202c-.813-.31-1.628-.613-2.443-.915h-.002c-1.022-.38-2.044-.76-3.06-1.153-.363-.14-.436.006-.534.289-.097.278-.182.56-.266.843-.174.58-.348 1.16-.624 1.702v.23c.182.486.274.995.365 1.503.059.325.118.65.2.969.1.393.19.762-.244 1.019l.225.193.007.005.335.286c-.43.254-.466.496-.073.753.07.046.16.206.152.212-.425.388-.156.597.084.782.076.059.15.116.196.175.242.309.27.545.146.91-.235.687-.45 1.382-.665 2.076-.142.457-.284.914-.431 1.369-.09.281-.119.55-.036.833l.278.942c.27.914.541 1.828.787 2.749.104.392.25.406.588.305.639-.192 1.28-.37 1.923-.548.532-.148 1.065-.295 1.595-.45.345-.102.6-.083.904.172.459.384.946.733 1.433 1.083.195.14.39.28.583.421a.638.638 0 0 0 .414.123Zm2.103-3.56c.325-.003.521.117.563.472.059.505.207 1.377.207 1.377H10.36s.148-.872.207-1.377c.042-.355.238-.475.563-.472h1.738ZM2.713 6.024c.056-.171.115-.347.176-.527.146-.434.3-.89.432-1.353.094-.328.226-.343.521-.25.738.233 1.33.695 1.923 1.158.11.086.221.173.333.258a621.208 621.208 0 0 0 4.021 3.034c.295.22.466.365.05.683-.418.32-.812.675-1.205 1.03-.205.185-.41.37-.618.55-.365.316-.73.616-1.221.74-.564.142-1.12.31-1.677.478-.256.078-.512.155-.769.23-.447.131-1.02-.304-1.073-.769-.098-.84-.207-1.68-.35-2.513a58.17 58.17 0 0 0-.368-1.896v-.003c-.058-.278-.116-.562-.174-.851h-.001Zm7.593 9.542-2.966-.562 2.333-1.672.633 2.234Zm10.81-10.057-.005-.012c-.146-.434-.3-.89-.432-1.353-.094-.328-.226-.343-.521-.25-.738.233-1.33.695-1.923 1.158-.11.086-.221.173-.333.258a619.563 619.563 0 0 1-4.021 3.034c-.295.22-.466.365-.05.683.418.32.812.675 1.205 1.03.205.185.41.37.618.55.365.316.73.616 1.221.74.564.142 1.12.31 1.677.478.256.078.512.155.769.23.447.131 1.02-.304 1.073-.769.098-.84.207-1.68.35-2.513.107-.626.235-1.248.368-1.896v-.003c.058-.278.116-.562.174-.851h.001l-.172-.514Zm-7.422 10.057 2.966-.562-2.333-1.672-.633 2.234Z" fill="#FBFBFB"></path></svg>