<svg width="104" height="31" viewBox="0 0 104 31" fill="none" xmlns="http://www.w3.org/2000/svg">
<g filter="url(#filter0_b_4669_7055)">
<path fillRule="evenodd" clipRule="evenodd" d="M14.9393 9.77618C15.0619 9.88421 15.2253 9.93364 15.3872 9.91164C16.4707 9.71184 17.44 9.11326 18.1039 8.23399C18.7494 7.41931 19.1274 6.42511 19.1863 5.38738C19.1911 5.21542 19.1155 5.05103 18.9818 4.94279C18.8481 4.83455 18.6716 4.79483 18.5044 4.83538C17.46 5.10809 16.526 5.69802 15.831 6.52386C15.1707 7.32163 14.7904 8.31407 14.7486 9.34881C14.7471 9.51219 14.8167 9.66815 14.9393 9.77618ZM22.9018 12.6561C22.2615 13.257 21.2539 14.2026 21.2539 16.2111C21.2388 18.0045 22.2237 19.6571 23.8083 20.4973C24.0042 20.5858 24.131 20.7801 24.133 20.9951C24.133 21.0709 21.86 26.4827 19.1325 26.4827C18.5353 26.4827 18.1374 26.2945 17.7014 26.0884C17.1733 25.8387 16.5895 25.5627 15.5282 25.5627C14.4822 25.5627 13.8968 25.8309 13.3582 26.0776C12.8991 26.2879 12.474 26.4827 11.8266 26.4827C9.31548 26.4827 5.90606 21.2224 5.90606 16.4709C5.86291 15.1288 6.19662 13.8014 6.86935 12.6393C7.81815 11.0313 9.50772 10.0038 11.372 9.90097C12.2505 9.90097 12.9696 10.1595 13.6499 10.4041C14.2603 10.6236 14.8394 10.8318 15.4741 10.8318C16.0801 10.8318 16.5691 10.642 17.1056 10.4339C17.7573 10.181 18.479 9.90097 19.5654 9.90097C21.5461 9.90097 23.4186 11.3297 23.4186 11.9683C23.4186 12.1712 23.2001 12.3763 22.9018 12.6561Z" fill="white" fillOpacity="0.7"/>
<path d="M15.3872 9.91164L15.3958 9.97501L15.3988 9.97446L15.3872 9.91164ZM18.1039 8.23399L18.0538 8.19431L18.053 8.19549L18.1039 8.23399ZM19.1863 5.38738L19.2501 5.391L19.2501 5.38918L19.1863 5.38738ZM18.9818 4.94279L18.9416 4.99244L18.9818 4.94279ZM18.5044 4.83538L18.4893 4.77329L18.4883 4.77358L18.5044 4.83538ZM15.831 6.52386L15.7821 6.48273L15.7818 6.48313L15.831 6.52386ZM14.7486 9.34881L14.6848 9.34623L14.6847 9.34823L14.7486 9.34881ZM21.2539 16.2111L21.3178 16.2117V16.2111H21.2539ZM22.9018 12.6561L22.9455 12.7027L22.9018 12.6561ZM23.8083 20.4973L23.7783 20.5538L23.782 20.5555L23.8083 20.4973ZM24.133 20.9951H24.1968L24.1968 20.9945L24.133 20.9951ZM17.7014 26.0884L17.6741 26.1462L17.7014 26.0884ZM13.3582 26.0776L13.3848 26.1357L13.3582 26.0776ZM5.90606 16.4709H5.96997L5.9699 16.4688L5.90606 16.4709ZM6.86935 12.6393L6.81434 12.6069L6.81407 12.6073L6.86935 12.6393ZM11.372 9.90097V9.83699L11.3684 9.83719L11.372 9.90097ZM13.6499 10.4041L13.6283 10.4642L13.6499 10.4041ZM17.1056 10.4339L17.0825 10.3743L17.1056 10.4339ZM15.3786 9.84835C15.2351 9.86785 15.0902 9.82402 14.9815 9.72826L14.897 9.8241C15.0335 9.94439 15.2155 9.99943 15.3958 9.97494L15.3786 9.84835ZM18.053 8.19549C17.3987 9.06202 16.4434 9.65192 15.3756 9.84882L15.3988 9.97446C16.498 9.77176 17.4814 9.1645 18.1549 8.27248L18.053 8.19549ZM19.1225 5.38377C19.0644 6.40835 18.6912 7.38996 18.0539 8.19432L18.154 8.27365C18.8076 7.44866 19.1905 6.44187 19.2501 5.391L19.1225 5.38377ZM18.9416 4.99244C19.0599 5.08815 19.1267 5.23352 19.1224 5.38558L19.2501 5.38918C19.2555 5.19732 19.1712 5.01391 19.022 4.89314L18.9416 4.99244ZM18.5195 4.89746C18.6673 4.8616 18.8234 4.89672 18.9416 4.99244L19.022 4.89314C18.8728 4.77238 18.6759 4.72807 18.4893 4.7733L18.5195 4.89746ZM15.8799 6.56499C16.5664 5.74927 17.489 5.16656 18.5205 4.89719L18.4883 4.77358C17.4311 5.04963 16.4856 5.64678 15.7821 6.48273L15.8799 6.56499ZM14.8124 9.35139C14.8537 8.33062 15.2288 7.35159 15.8802 6.56459L15.7818 6.48313C15.1125 7.29168 14.7272 8.29751 14.6848 9.34624L14.8124 9.35139ZM14.9815 9.72826C14.8729 9.63249 14.8112 9.49423 14.8125 9.3494L14.6847 9.34823C14.6831 9.53015 14.7606 9.70381 14.897 9.8241L14.9815 9.72826ZM21.3178 16.2111C21.3178 15.2184 21.5665 14.4911 21.8928 13.9382C22.2196 13.3843 22.6253 13.0032 22.9455 12.7027L22.8581 12.6096C22.538 12.91 22.1198 13.302 21.7827 13.8733C21.445 14.4456 21.19 15.1953 21.19 16.2111H21.3178ZM23.8382 20.4408C22.2747 19.6119 21.3029 17.9812 21.3178 16.2117L21.19 16.2106C21.1748 18.0278 22.1727 19.7024 23.7783 20.5537L23.8382 20.4408ZM24.1968 20.9945C24.1946 20.7546 24.0532 20.5378 23.8346 20.439L23.782 20.5555C23.9553 20.6338 24.0673 20.8056 24.0691 20.9957L24.1968 20.9945ZM19.1325 26.5466C19.8358 26.5466 20.5036 26.1979 21.1059 25.6845C21.7088 25.1707 22.2524 24.4865 22.7087 23.8028C23.1652 23.1186 23.5359 22.4325 23.7925 21.9128C23.9208 21.6529 24.0207 21.4343 24.0886 21.2782C24.1225 21.2001 24.1485 21.1374 24.1662 21.0927C24.175 21.0705 24.1819 21.0523 24.1866 21.0387C24.189 21.032 24.191 21.0259 24.1926 21.0206C24.1934 21.018 24.1942 21.015 24.1949 21.0118C24.1953 21.01 24.1968 21.0032 24.1968 20.9951H24.0691C24.0691 20.991 24.0695 20.9879 24.0697 20.9867C24.0699 20.9853 24.0701 20.9843 24.0702 20.984C24.0704 20.9833 24.0704 20.9834 24.07 20.9845C24.0694 20.9868 24.0681 20.9906 24.0661 20.9963C24.0621 21.0077 24.0559 21.0242 24.0474 21.0458C24.0304 21.0887 24.0049 21.1501 23.9714 21.2272C23.9043 21.3815 23.8053 21.5982 23.6779 21.8563C23.4231 22.3726 23.0551 23.0536 22.6024 23.7319C22.1495 24.4106 21.6135 25.0841 21.023 25.5873C20.4321 26.091 19.7929 26.4188 19.1325 26.4188V26.5466ZM17.6741 26.1462C18.1104 26.3524 18.5197 26.5466 19.1325 26.5466V26.4188C18.5509 26.4188 18.1644 26.2367 17.7287 26.0307L17.6741 26.1462ZM15.5282 25.6266C16.5754 25.6266 17.149 25.8979 17.6741 26.1462L17.7287 26.0307C17.1977 25.7796 16.6036 25.4988 15.5282 25.4988V25.6266ZM13.3848 26.1357C13.9207 25.8902 14.496 25.6266 15.5282 25.6266V25.4988C14.4684 25.4988 13.873 25.7715 13.3316 26.0196L13.3848 26.1357ZM11.8266 26.5466C12.489 26.5466 12.9251 26.3463 13.3848 26.1357L13.3316 26.0196C12.8731 26.2296 12.4589 26.4188 11.8266 26.4188V26.5466ZM5.84218 16.4709C5.84218 18.8606 6.69901 21.3749 7.87014 23.2919C8.45585 24.2507 9.12166 25.0625 9.80094 25.6354C10.4791 26.2073 11.1773 26.5466 11.8266 26.5466V26.4188C11.2203 26.4188 10.5507 26.1006 9.8833 25.5377C9.21707 24.9758 8.5597 24.1756 7.97916 23.2253C6.81782 21.3243 5.96993 18.8328 5.96993 16.4709H5.84218ZM6.81407 12.6073C6.13536 13.7798 5.79868 15.1189 5.84221 16.4729L5.9699 16.4688C5.92714 15.1387 6.25788 13.8231 6.92464 12.6713L6.81407 12.6073ZM11.3684 9.83719C9.48289 9.94115 7.77399 10.9805 6.81434 12.6069L6.92437 12.6718C7.86231 11.0822 9.53256 10.0664 11.3755 9.96475L11.3684 9.83719ZM13.6715 10.344C12.9919 10.0997 12.263 9.83709 11.372 9.83709V9.96485C12.238 9.96485 12.9474 10.2194 13.6283 10.4642L13.6715 10.344ZM15.4741 10.7679C14.8523 10.7679 14.2837 10.5641 13.6715 10.344L13.6283 10.4642C14.2369 10.6831 14.8264 10.8957 15.4741 10.8957V10.7679ZM17.0825 10.3743C16.5449 10.5829 16.0665 10.7679 15.4741 10.7679V10.8957C16.0937 10.8957 16.5933 10.7012 17.1287 10.4934L17.0825 10.3743ZM19.5654 9.83709C18.4664 9.83709 17.7354 10.121 17.0825 10.3743L17.1287 10.4934C17.7792 10.241 18.4916 9.96485 19.5654 9.96485V9.83709ZM23.4825 11.9683C23.4825 11.8737 23.4481 11.7706 23.3903 11.6653C23.332 11.5594 23.2477 11.447 23.142 11.3325C22.9307 11.1035 22.6298 10.8615 22.2681 10.6406C21.545 10.1991 20.5703 9.83709 19.5654 9.83709V9.96485C20.5413 9.96485 21.4932 10.3172 22.2015 10.7497C22.5555 10.9658 22.8465 11.2007 23.0481 11.4192C23.149 11.5284 23.2264 11.6325 23.2783 11.7269C23.3306 11.8219 23.3547 11.9032 23.3547 11.9683H23.4825ZM22.9455 12.7027C23.0936 12.5638 23.2263 12.4394 23.3214 12.324C23.4158 12.2093 23.4825 12.0926 23.4825 11.9683H23.3547C23.3547 12.0468 23.3122 12.1342 23.2227 12.2427C23.134 12.3505 23.0083 12.4686 22.8581 12.6096L22.9455 12.7027Z" fill="white" fillOpacity="0.1"/>
</g>
<path d="M32.5227 6.05028C33.0405 6.05028 33.488 6.14794 33.865 6.34327C34.2465 6.53404 34.5372 6.80886 34.7371 7.1677C34.9415 7.52655 35.0437 7.94899 35.0437 8.43502C35.0437 8.92105 34.9415 9.34349 34.7371 9.70234C34.5372 10.0566 34.2465 10.3292 33.865 10.52C33.488 10.7062 33.0405 10.7993 32.5227 10.7993H31.0442V6.05028H32.5227ZM32.5227 10.2883C33.1359 10.2883 33.6038 10.127 33.9263 9.80454C34.2488 9.47749 34.4101 9.02098 34.4101 8.43502C34.4101 7.84451 34.2465 7.38347 33.9195 7.05187C33.597 6.72028 33.1314 6.55449 32.5227 6.55449H31.6642V10.2883H32.5227ZM37.49 10.8606C37.1402 10.8606 36.8223 10.7811 36.5361 10.6222C36.2545 10.4632 36.0319 10.2383 35.8684 9.94762C35.7094 9.65237 35.6299 9.3117 35.6299 8.92559C35.6299 8.54404 35.7117 8.2079 35.8752 7.91719C36.0432 7.62194 36.2704 7.39709 36.5565 7.24265C36.8427 7.08367 37.1629 7.00418 37.5172 7.00418C37.8715 7.00418 38.1918 7.08367 38.478 7.24265C38.7641 7.39709 38.989 7.61967 39.1525 7.91038C39.3206 8.20109 39.4046 8.53949 39.4046 8.92559C39.4046 9.3117 39.3183 9.65237 39.1457 9.94762C38.9776 10.2383 38.7482 10.4632 38.4575 10.6222C38.1668 10.7811 37.8443 10.8606 37.49 10.8606ZM37.49 10.3156C37.7126 10.3156 37.9215 10.2633 38.1168 10.1588C38.3122 10.0544 38.4689 9.89766 38.587 9.68871C38.7096 9.47976 38.7709 9.22539 38.7709 8.92559C38.7709 8.6258 38.7119 8.37143 38.5938 8.16248C38.4757 7.95353 38.3212 7.79909 38.1305 7.69916C37.9397 7.59468 37.733 7.54245 37.5104 7.54245C37.2833 7.54245 37.0744 7.59468 36.8836 7.69916C36.6973 7.79909 36.5474 7.95353 36.4339 8.16248C36.3203 8.37143 36.2636 8.6258 36.2636 8.92559C36.2636 9.22993 36.3181 9.48658 36.4271 9.69552C36.5406 9.90447 36.6905 10.0612 36.8768 10.1657C37.063 10.2656 37.2674 10.3156 37.49 10.3156ZM45.1937 7.0655L44.0286 10.7993H43.3881L42.4887 7.83543L41.5893 10.7993H40.9489L39.7769 7.0655H40.4106L41.2691 10.1997L42.1957 7.0655H42.8294L43.7356 10.2065L44.5805 7.0655H45.1937ZM47.6283 6.99736C48.0825 6.99736 48.4504 7.13591 48.7321 7.41299C49.0137 7.68553 49.1545 8.08072 49.1545 8.59855V10.7993H48.5413V8.68712C48.5413 8.31465 48.4482 8.03075 48.2619 7.83543C48.0757 7.63557 47.8213 7.53563 47.4988 7.53563C47.1718 7.53563 46.9106 7.63784 46.7152 7.84224C46.5245 8.04665 46.4291 8.34417 46.4291 8.73482V10.7993H45.809V7.0655H46.4291V7.59696C46.5517 7.40618 46.7175 7.25855 46.9265 7.15408C47.14 7.0496 47.3739 6.99736 47.6283 6.99736ZM50.7873 5.7573V10.7993H50.1673V5.7573H50.7873ZM53.4725 10.8606C53.1228 10.8606 52.8048 10.7811 52.5186 10.6222C52.237 10.4632 52.0144 10.2383 51.8509 9.94762C51.6919 9.65237 51.6124 9.3117 51.6124 8.92559C51.6124 8.54404 51.6942 8.2079 51.8577 7.91719C52.0258 7.62194 52.2529 7.39709 52.5391 7.24265C52.8252 7.08367 53.1455 7.00418 53.4998 7.00418C53.8541 7.00418 54.1743 7.08367 54.4605 7.24265C54.7466 7.39709 54.9715 7.61967 55.135 7.91038C55.3031 8.20109 55.3871 8.53949 55.3871 8.92559C55.3871 9.3117 55.3008 9.65237 55.1282 9.94762C54.9601 10.2383 54.7307 10.4632 54.44 10.6222C54.1493 10.7811 53.8268 10.8606 53.4725 10.8606ZM53.4725 10.3156C53.6951 10.3156 53.904 10.2633 54.0994 10.1588C54.2947 10.0544 54.4514 9.89766 54.5695 9.68871C54.6921 9.47976 54.7535 9.22539 54.7535 8.92559C54.7535 8.6258 54.6944 8.37143 54.5763 8.16248C54.4582 7.95353 54.3038 7.79909 54.113 7.69916C53.9222 7.59468 53.7155 7.54245 53.493 7.54245C53.2658 7.54245 53.0569 7.59468 52.8661 7.69916C52.6799 7.79909 52.53 7.95353 52.4164 8.16248C52.3029 8.37143 52.2461 8.6258 52.2461 8.92559C52.2461 9.22993 52.3006 9.48658 52.4096 9.69552C52.5232 9.90447 52.6731 10.0612 52.8593 10.1657C53.0455 10.2656 53.2499 10.3156 53.4725 10.3156ZM55.9707 8.91878C55.9707 8.53722 56.0479 8.20336 56.2023 7.91719C56.3568 7.62648 56.568 7.40163 56.836 7.24265C57.1085 7.08367 57.4106 7.00418 57.7422 7.00418C58.0693 7.00418 58.3531 7.07458 58.5939 7.2154C58.8346 7.35621 59.0141 7.53336 59.1322 7.74685V7.0655H59.759V10.7993H59.1322V10.1043C59.0095 10.3224 58.8256 10.5041 58.5803 10.6494C58.3395 10.7902 58.0579 10.8606 57.7354 10.8606C57.4038 10.8606 57.104 10.7789 56.836 10.6154C56.568 10.4518 56.3568 10.2224 56.2023 9.92718C56.0479 9.63193 55.9707 9.2958 55.9707 8.91878ZM59.1322 8.92559C59.1322 8.64397 59.0754 8.39868 58.9618 8.18973C58.8483 7.98078 58.6938 7.8218 58.4985 7.71279C58.3077 7.59923 58.0965 7.54245 57.8648 7.54245C57.6332 7.54245 57.422 7.59696 57.2312 7.70597C57.0404 7.81499 56.8882 7.97397 56.7747 8.18292C56.6611 8.39187 56.6043 8.63716 56.6043 8.91878C56.6043 9.20495 56.6611 9.45478 56.7747 9.66827C56.8882 9.87722 57.0404 10.0385 57.2312 10.152C57.422 10.261 57.6332 10.3156 57.8648 10.3156C58.0965 10.3156 58.3077 10.261 58.4985 10.152C58.6938 10.0385 58.8483 9.87722 58.9618 9.66827C59.0754 9.45478 59.1322 9.20722 59.1322 8.92559ZM60.5751 8.91878C60.5751 8.53722 60.6524 8.20336 60.8068 7.91719C60.9612 7.62648 61.1725 7.40163 61.4405 7.24265C61.713 7.08367 62.0173 7.00418 62.3535 7.00418C62.6442 7.00418 62.9145 7.07231 63.1643 7.20858C63.4141 7.34031 63.6049 7.51519 63.7366 7.73323V5.7573H64.3635V10.7993H63.7366V10.0975C63.614 10.3201 63.4323 10.5041 63.1915 10.6494C62.9508 10.7902 62.6692 10.8606 62.3467 10.8606C62.0151 10.8606 61.713 10.7789 61.4405 10.6154C61.1725 10.4518 60.9612 10.2224 60.8068 9.92718C60.6524 9.63193 60.5751 9.2958 60.5751 8.91878ZM63.7366 8.92559C63.7366 8.64397 63.6798 8.39868 63.5663 8.18973C63.4527 7.98078 63.2983 7.8218 63.103 7.71279C62.9122 7.59923 62.701 7.54245 62.4693 7.54245C62.2376 7.54245 62.0264 7.59696 61.8356 7.70597C61.6449 7.81499 61.4927 7.97397 61.3791 8.18292C61.2656 8.39187 61.2088 8.63716 61.2088 8.91878C61.2088 9.20495 61.2656 9.45478 61.3791 9.66827C61.4927 9.87722 61.6449 10.0385 61.8356 10.152C62.0264 10.261 62.2376 10.3156 62.4693 10.3156C62.701 10.3156 62.9122 10.261 63.103 10.152C63.2983 10.0385 63.4527 9.87722 63.5663 9.66827C63.6798 9.45478 63.7366 9.20722 63.7366 8.92559ZM67.548 6.4591C67.4299 6.4591 67.33 6.41821 67.2482 6.33645C67.1664 6.25469 67.1256 6.15476 67.1256 6.03666C67.1256 5.91856 67.1664 5.81862 67.2482 5.73686C67.33 5.6551 67.4299 5.61422 67.548 5.61422C67.6616 5.61422 67.7569 5.6551 67.8342 5.73686C67.9159 5.81862 67.9568 5.91856 67.9568 6.03666C67.9568 6.15476 67.9159 6.25469 67.8342 6.33645C67.7569 6.41821 67.6616 6.4591 67.548 6.4591ZM67.8478 7.0655V10.7993H67.2278V7.0655H67.8478ZM70.7237 6.99736C71.178 6.99736 71.5459 7.13591 71.8275 7.41299C72.1092 7.68553 72.25 8.08072 72.25 8.59855V10.7993H71.6368V8.68712C71.6368 8.31465 71.5436 8.03075 71.3574 7.83543C71.1712 7.63557 70.9168 7.53563 70.5943 7.53563C70.2672 7.53563 70.006 7.63784 69.8107 7.84224C69.6199 8.04665 69.5246 8.34417 69.5246 8.73482V10.7993H68.9045V7.0655H69.5246V7.59696C69.6472 7.40618 69.813 7.25855 70.0219 7.15408C70.2354 7.0496 70.4694 6.99736 70.7237 6.99736ZM75.8356 7.57652V9.77729C75.8356 9.95898 75.8742 10.0884 75.9514 10.1657C76.0286 10.2383 76.1626 10.2747 76.3534 10.2747H76.8099V10.7993H76.2512C75.906 10.7993 75.6471 10.7198 75.4745 10.5608C75.3019 10.4019 75.2156 10.1407 75.2156 9.77729V7.57652H74.7318V7.0655H75.2156V6.12523H75.8356V7.0655H76.8099V7.57652H75.8356ZM79.4145 6.99736C79.6961 6.99736 79.9505 7.05869 80.1776 7.18133C80.4047 7.29943 80.5818 7.47885 80.709 7.7196C80.8408 7.96034 80.9066 8.25333 80.9066 8.59855V10.7993H80.2934V8.68712C80.2934 8.31465 80.2003 8.03075 80.014 7.83543C79.8278 7.63557 79.5734 7.53563 79.2509 7.53563C78.9239 7.53563 78.6627 7.63784 78.4674 7.84224C78.2766 8.04665 78.1812 8.34417 78.1812 8.73482V10.7993H77.5612V5.7573H78.1812V7.59696C78.3038 7.40618 78.4719 7.25855 78.6854 7.15408C78.9034 7.0496 79.1465 6.99736 79.4145 6.99736ZM85.3262 8.78932C85.3262 8.90743 85.3194 9.03234 85.3058 9.16407H82.3214C82.3441 9.532 82.4691 9.82044 82.6962 10.0294C82.9278 10.2338 83.2072 10.336 83.5342 10.336C83.8022 10.336 84.0248 10.2747 84.202 10.152C84.3837 10.0248 84.5109 9.85678 84.5835 9.64783H85.2513C85.1513 10.0067 84.9515 10.2997 84.6517 10.5268C84.3519 10.7494 83.9794 10.8606 83.5342 10.8606C83.1799 10.8606 82.862 10.7811 82.5803 10.6222C82.3033 10.4632 82.0852 10.2383 81.9263 9.94762C81.7673 9.65237 81.6878 9.3117 81.6878 8.92559C81.6878 8.53949 81.765 8.20109 81.9194 7.91038C82.0739 7.61967 82.2896 7.39709 82.5667 7.24265C82.8483 7.08367 83.1709 7.00418 83.5342 7.00418C83.8885 7.00418 84.202 7.0814 84.4745 7.23584C84.7471 7.39028 84.956 7.60377 85.1014 7.87631C85.2513 8.14431 85.3262 8.44865 85.3262 8.78932ZM84.6857 8.65987C84.6857 8.42366 84.6335 8.22153 84.529 8.05346C84.4245 7.88085 84.2815 7.7514 84.0998 7.66509C83.9226 7.57424 83.725 7.52882 83.507 7.52882C83.1936 7.52882 82.9256 7.62875 82.703 7.82862C82.485 8.02848 82.36 8.30556 82.3282 8.65987H84.6857Z" fill="white" fillOpacity="0.7"/>
<path d="M36.0445 24.13H33.1436L32.6786 25.5029H30.6967L33.509 17.7304H35.7012L38.5135 25.5029H36.5095L36.0445 24.13ZM35.5573 22.6685L34.594 19.823L33.6418 22.6685H35.5573ZM41.2627 20.1994C41.4473 19.9116 41.7019 19.6791 42.0267 19.5019C42.3515 19.3248 42.7316 19.2362 43.1671 19.2362C43.6764 19.2362 44.1378 19.3654 44.5511 19.6237C44.9645 19.882 45.2893 20.2511 45.5255 20.7309C45.769 21.2107 45.8908 21.768 45.8908 22.4028C45.8908 23.0376 45.769 23.5985 45.5255 24.0857C45.2893 24.5655 44.9645 24.9383 44.5511 25.204C44.1378 25.4623 43.6764 25.5915 43.1671 25.5915C42.739 25.5915 42.3589 25.5029 42.0267 25.3258C41.7019 25.1486 41.4473 24.9198 41.2627 24.6393V28.4481H39.3694V19.3248H41.2627V20.1994ZM43.9643 22.4028C43.9643 21.9304 43.8314 21.5613 43.5657 21.2956C43.3074 21.0225 42.9863 20.8859 42.6024 20.8859C42.226 20.8859 41.9049 21.0225 41.6392 21.2956C41.3808 21.5687 41.2517 21.9414 41.2517 22.4138C41.2517 22.8862 41.3808 23.259 41.6392 23.5321C41.9049 23.8052 42.226 23.9418 42.6024 23.9418C42.9789 23.9418 43.3 23.8052 43.5657 23.5321C43.8314 23.2516 43.9643 22.8752 43.9643 22.4028ZM48.7774 20.1994C48.962 19.9116 49.2166 19.6791 49.5414 19.5019C49.8662 19.3248 50.2463 19.2362 50.6818 19.2362C51.1911 19.2362 51.6524 19.3654 52.0658 19.6237C52.4792 19.882 52.8039 20.2511 53.0401 20.7309C53.2837 21.2107 53.4055 21.768 53.4055 22.4028C53.4055 23.0376 53.2837 23.5985 53.0401 24.0857C52.8039 24.5655 52.4792 24.9383 52.0658 25.204C51.6524 25.4623 51.1911 25.5915 50.6818 25.5915C50.2537 25.5915 49.8735 25.5029 49.5414 25.3258C49.2166 25.1486 48.962 24.9198 48.7774 24.6393V28.4481H46.8841V19.3248H48.7774V20.1994ZM51.479 22.4028C51.479 21.9304 51.3461 21.5613 51.0804 21.2956C50.822 21.0225 50.501 20.8859 50.1171 20.8859C49.7407 20.8859 49.4196 21.0225 49.1539 21.2956C48.8955 21.5687 48.7663 21.9414 48.7663 22.4138C48.7663 22.8862 48.8955 23.259 49.1539 23.5321C49.4196 23.8052 49.7407 23.9418 50.1171 23.9418C50.4936 23.9418 50.8147 23.8052 51.0804 23.5321C51.3461 23.2516 51.479 22.8752 51.479 22.4028ZM59.5574 25.5804C58.989 25.5804 58.4797 25.4882 58.0295 25.3036C57.5792 25.1191 57.2175 24.846 56.9444 24.4843C56.6787 24.1226 56.5384 23.6871 56.5237 23.1778H58.5388C58.5683 23.4657 58.6679 23.6871 58.8377 23.8421C59.0075 23.9898 59.2289 24.0636 59.502 24.0636C59.7825 24.0636 60.004 24.0008 60.1663 23.8753C60.3287 23.7425 60.4099 23.5616 60.4099 23.3328C60.4099 23.1409 60.3435 22.9822 60.2106 22.8567C60.0851 22.7312 59.9265 22.6279 59.7345 22.5467C59.55 22.4655 59.2843 22.3732 58.9374 22.2699C58.4354 22.1149 58.0258 21.9599 57.7084 21.8049C57.391 21.6499 57.1179 21.4211 56.889 21.1184C56.6602 20.8158 56.5458 20.4209 56.5458 19.9337C56.5458 19.2103 56.8078 18.6457 57.3319 18.2397C57.856 17.8263 58.5388 17.6197 59.3802 17.6197C60.2365 17.6197 60.9266 17.8263 61.4507 18.2397C61.9748 18.6457 62.2553 19.214 62.2922 19.9448H60.2438C60.2291 19.6938 60.1368 19.4982 59.967 19.358C59.7973 19.2103 59.5795 19.1365 59.3138 19.1365C59.085 19.1365 58.9004 19.1993 58.7602 19.3248C58.62 19.4429 58.5498 19.6163 58.5498 19.8451C58.5498 20.0961 58.6679 20.2917 58.9041 20.432C59.1403 20.5722 59.5094 20.7235 60.0113 20.8859C60.5133 21.0557 60.9192 21.2181 61.2293 21.3731C61.5467 21.5281 61.8198 21.7532 62.0486 22.0485C62.2774 22.3437 62.3918 22.7239 62.3918 23.1889C62.3918 23.6318 62.2774 24.034 62.0486 24.3957C61.8271 24.7574 61.5024 25.0453 61.0742 25.2593C60.6461 25.4734 60.1405 25.5804 59.5574 25.5804ZM67.0004 23.8975V25.5029H66.0371C65.3506 25.5029 64.8155 25.3368 64.4317 25.0047C64.0478 24.6651 63.8559 24.1152 63.8559 23.355V20.897H63.103V19.3248H63.8559V17.819H65.7492V19.3248H66.9893V20.897H65.7492V23.3771C65.7492 23.5616 65.7935 23.6945 65.8821 23.7757C65.9707 23.8569 66.1183 23.8975 66.325 23.8975H67.0004ZM70.8672 25.5915C70.262 25.5915 69.7158 25.4623 69.2286 25.204C68.7488 24.9456 68.3687 24.5766 68.0882 24.0968C67.8151 23.617 67.6785 23.056 67.6785 22.4138C67.6785 21.779 67.8188 21.2218 68.0993 20.742C68.3797 20.2548 68.7636 19.882 69.2507 19.6237C69.7379 19.3654 70.2841 19.2362 70.8894 19.2362C71.4947 19.2362 72.0409 19.3654 72.528 19.6237C73.0152 19.882 73.399 20.2548 73.6795 20.742C73.96 21.2218 74.1003 21.779 74.1003 22.4138C74.1003 23.0486 73.9563 23.6096 73.6685 24.0968C73.388 24.5766 73.0005 24.9456 72.5059 25.204C72.0187 25.4623 71.4725 25.5915 70.8672 25.5915ZM70.8672 23.9529C71.2289 23.9529 71.5353 23.82 71.7862 23.5543C72.0446 23.2885 72.1737 22.9084 72.1737 22.4138C72.1737 21.9193 72.0483 21.5392 71.7973 21.2734C71.5537 21.0077 71.2511 20.8748 70.8894 20.8748C70.5203 20.8748 70.214 21.0077 69.9704 21.2734C69.7268 21.5318 69.605 21.9119 69.605 22.4138C69.605 22.9084 69.7231 23.2885 69.9593 23.5543C70.2029 23.82 70.5056 23.9529 70.8672 23.9529ZM76.998 20.3545C77.2195 20.0149 77.4963 19.7492 77.8284 19.5573C78.1606 19.358 78.5296 19.2583 78.9356 19.2583V21.2624H78.4152C77.9428 21.2624 77.5885 21.3657 77.3523 21.5724C77.1161 21.7717 76.998 22.126 76.998 22.6353V25.5029H75.1047V19.3248H76.998V20.3545ZM85.6644 22.3142C85.6644 22.4913 85.6534 22.6759 85.6312 22.8678H81.3464C81.3759 23.2516 81.4977 23.5469 81.7117 23.7536C81.9332 23.9529 82.2026 24.0525 82.52 24.0525C82.9924 24.0525 83.3209 23.8532 83.5054 23.4546H85.5205C85.4172 23.8606 85.229 24.226 84.9558 24.5507C84.6901 24.8755 84.3543 25.1302 83.9483 25.3147C83.5423 25.4992 83.0884 25.5915 82.5864 25.5915C81.9812 25.5915 81.4423 25.4623 80.9699 25.204C80.4975 24.9456 80.1285 24.5766 79.8627 24.0968C79.597 23.617 79.4641 23.056 79.4641 22.4138C79.4641 21.7717 79.5933 21.2107 79.8517 20.7309C80.1174 20.2511 80.4864 19.882 80.9589 19.6237C81.4313 19.3654 81.9738 19.2362 82.5864 19.2362C83.1843 19.2362 83.7158 19.3617 84.1808 19.6126C84.6458 19.8636 85.0075 20.2216 85.2659 20.6866C85.5316 21.1516 85.6644 21.6942 85.6644 22.3142ZM83.7269 21.816C83.7269 21.4912 83.6161 21.2328 83.3947 21.0409C83.1733 20.849 82.8965 20.753 82.5643 20.753C82.2469 20.753 81.9775 20.8453 81.756 21.0298C81.542 21.2144 81.4091 21.4764 81.3574 21.816H83.7269Z" fill="white" fillOpacity="0.7"/>
<rect x="1.29297" y="0.892578" width="102.055" height="29.5169" rx="1.20338" stroke="white" stroke-opacity="0.7"/>
<defs>
<filter id="filter0_b_4669_7055" x="-6.93553" y="-8.01951" width="43.9062" height="47.3413" filterUnits="userSpaceOnUse" color-interpolation-filters="sRGB">
<feFlood flood-opacity="0" result="BackgroundImageFix"/>
<feGaussianBlur in="BackgroundImageFix" stdDeviation="6.38769"/>
<feComposite in2="SourceAlpha" operator="in" result="effect1_backgroundBlur_4669_7055"/>
<feBlend mode="normal" in="SourceGraphic" in2="effect1_backgroundBlur_4669_7055" result="shape"/>
</filter>
</defs>
</svg>
