<svg width="104" height="31" viewBox="0 0 104 31" fill="none" xmlns="http://www.w3.org/2000/svg">
<g filter="url(#filter0_b_4669_7062)">
<path fillRule="evenodd" clipRule="evenodd" d="M17.5612 11.7962L14.9814 14.8091L7.49985 5.94781C7.67184 5.85919 7.84383 5.85919 8.01582 5.94781L17.5612 11.7962ZM22.8087 16.3153L18.509 18.8851L15.6712 15.6064L18.509 12.4164L22.8087 14.9861C23.0667 15.0747 23.1527 15.252 23.1527 15.5178V15.7836C23.1527 15.9609 22.9807 16.2267 22.8087 16.3153ZM14.9814 16.4927L7.49985 25.3539C7.67184 25.4426 7.84383 25.4426 8.01582 25.3539L17.5612 19.5941L14.9814 16.4927ZM6.8125 24.3793V6.83398L14.294 15.6066L6.8125 24.3793Z" fill="white" fillOpacity="0.7"/>
</g>
<path d="M32.8136 7.42662C32.6819 7.14953 32.4911 6.93604 32.2413 6.78615C31.9914 6.63171 31.7007 6.55449 31.3691 6.55449C31.0375 6.55449 30.7377 6.63171 30.4697 6.78615C30.2063 6.93604 29.9973 7.15408 29.8429 7.44024C29.693 7.72187 29.618 8.04892 29.618 8.42139C29.618 8.79387 29.693 9.12092 29.8429 9.40254C29.9973 9.68417 30.2063 9.9022 30.4697 10.0566C30.7377 10.2065 31.0375 10.2815 31.3691 10.2815C31.8324 10.2815 32.214 10.1429 32.5138 9.86586C32.8136 9.58878 32.9885 9.21403 33.0384 8.74163H31.1443V8.23743H33.6994V8.71438C33.663 9.10502 33.5404 9.46386 33.3314 9.79091C33.1225 10.1134 32.8477 10.3701 32.507 10.5608C32.1663 10.7471 31.787 10.8402 31.3691 10.8402C30.9285 10.8402 30.5265 10.738 30.1631 10.5336C29.7997 10.3246 29.5113 10.0362 29.2978 9.66827C29.0889 9.30034 28.9844 8.88471 28.9844 8.42139C28.9844 7.95807 29.0889 7.54245 29.2978 7.17452C29.5113 6.80204 29.7997 6.5136 30.1631 6.3092C30.5265 6.10025 30.9285 5.99578 31.3691 5.99578C31.8733 5.99578 32.3185 6.12069 32.7046 6.37052C33.0952 6.62035 33.3791 6.97238 33.5563 7.42662H32.8136ZM37.9259 8.78932C37.9259 8.90743 37.9191 9.03234 37.9055 9.16407H34.9212C34.9439 9.532 35.0688 9.82044 35.2959 10.0294C35.5276 10.2338 35.8069 10.336 36.134 10.336C36.402 10.336 36.6245 10.2747 36.8017 10.152C36.9834 10.0248 37.1106 9.85678 37.1833 9.64783H37.851C37.751 10.0067 37.5512 10.2997 37.2514 10.5268C36.9516 10.7494 36.5791 10.8606 36.134 10.8606C35.7797 10.8606 35.4617 10.7811 35.1801 10.6222C34.903 10.4632 34.685 10.2383 34.526 9.94762C34.367 9.65237 34.2875 9.3117 34.2875 8.92559C34.2875 8.53949 34.3647 8.20109 34.5192 7.91038C34.6736 7.61967 34.8894 7.39709 35.1664 7.24265C35.4481 7.08367 35.7706 7.00418 36.134 7.00418C36.4883 7.00418 36.8017 7.0814 37.0742 7.23584C37.3468 7.39028 37.5557 7.60377 37.7011 7.87631C37.851 8.14431 37.9259 8.44865 37.9259 8.78932ZM37.2855 8.65987C37.2855 8.42366 37.2332 8.22153 37.1287 8.05346C37.0243 7.88085 36.8812 7.7514 36.6995 7.66509C36.5223 7.57424 36.3247 7.52882 36.1067 7.52882C35.7933 7.52882 35.5253 7.62875 35.3027 7.82862C35.0847 8.02848 34.9598 8.30556 34.928 8.65987H37.2855ZM39.5006 7.57652V9.77729C39.5006 9.95898 39.5393 10.0884 39.6165 10.1657C39.6937 10.2383 39.8277 10.2747 40.0185 10.2747H40.475V10.7993H39.9163C39.5711 10.7993 39.3121 10.7198 39.1395 10.5608C38.9669 10.4019 38.8806 10.1407 38.8806 9.77729V7.57652H38.3969V7.0655H38.8806V6.12523H39.5006V7.0655H40.475V7.57652H39.5006ZM43.363 6.4591C43.2449 6.4591 43.1449 6.41821 43.0632 6.33645C42.9814 6.25469 42.9405 6.15476 42.9405 6.03666C42.9405 5.91856 42.9814 5.81862 43.0632 5.73686C43.1449 5.6551 43.2449 5.61422 43.363 5.61422C43.4765 5.61422 43.5719 5.6551 43.6491 5.73686C43.7309 5.81862 43.7718 5.91856 43.7718 6.03666C43.7718 6.15476 43.7309 6.25469 43.6491 6.33645C43.5719 6.41821 43.4765 6.4591 43.363 6.4591ZM43.6628 7.0655V10.7993H43.0427V7.0655H43.6628ZM45.4758 7.57652V9.77729C45.4758 9.95898 45.5144 10.0884 45.5916 10.1657C45.6688 10.2383 45.8028 10.2747 45.9936 10.2747H46.4501V10.7993H45.8914C45.5462 10.7993 45.2873 10.7198 45.1147 10.5608C44.9421 10.4019 44.8558 10.1407 44.8558 9.77729V7.57652H44.372V7.0655H44.8558V6.12523H45.4758V7.0655H46.4501V7.57652H45.4758ZM50.6463 10.8606C50.2966 10.8606 49.9786 10.7811 49.6924 10.6222C49.4108 10.4632 49.1882 10.2383 49.0247 9.94762C48.8657 9.65237 48.7862 9.3117 48.7862 8.92559C48.7862 8.54404 48.868 8.2079 49.0315 7.91719C49.1996 7.62194 49.4267 7.39709 49.7129 7.24265C49.999 7.08367 50.3193 7.00418 50.6736 7.00418C51.0279 7.00418 51.3481 7.08367 51.6343 7.24265C51.9204 7.39709 52.1453 7.61967 52.3088 7.91038C52.4769 8.20109 52.5609 8.53949 52.5609 8.92559C52.5609 9.3117 52.4746 9.65237 52.302 9.94762C52.1339 10.2383 51.9045 10.4632 51.6138 10.6222C51.3231 10.7811 51.0006 10.8606 50.6463 10.8606ZM50.6463 10.3156C50.8689 10.3156 51.0778 10.2633 51.2732 10.1588C51.4685 10.0544 51.6252 9.89766 51.7433 9.68871C51.8659 9.47976 51.9273 9.22539 51.9273 8.92559C51.9273 8.6258 51.8682 8.37143 51.7501 8.16248C51.632 7.95353 51.4776 7.79909 51.2868 7.69916C51.096 7.59468 50.8893 7.54245 50.6668 7.54245C50.4396 7.54245 50.2307 7.59468 50.0399 7.69916C49.8537 7.79909 49.7038 7.95353 49.5902 8.16248C49.4767 8.37143 49.4199 8.6258 49.4199 8.92559C49.4199 9.22993 49.4744 9.48658 49.5834 9.69552C49.697 9.90447 49.8469 10.0612 50.0331 10.1657C50.2193 10.2656 50.4237 10.3156 50.6463 10.3156ZM55.1954 6.99736C55.6496 6.99736 56.0175 7.13591 56.2991 7.41299C56.5808 7.68553 56.7216 8.08072 56.7216 8.59855V10.7993H56.1084V8.68712C56.1084 8.31465 56.0153 8.03075 55.829 7.83543C55.6428 7.63557 55.3884 7.53563 55.0659 7.53563C54.7389 7.53563 54.4777 7.63784 54.2823 7.84224C54.0916 8.04665 53.9962 8.34417 53.9962 8.73482V10.7993H53.3761V7.0655H53.9962V7.59696C54.1188 7.40618 54.2846 7.25855 54.4936 7.15408C54.7071 7.0496 54.941 6.99736 55.1954 6.99736Z" fill="white" fillOpacity="0.7"/>
<path d="M34.5374 20.1884C34.3972 19.93 34.1942 19.7344 33.9285 19.6016C33.6701 19.4613 33.3638 19.3912 33.0095 19.3912C32.3968 19.3912 31.906 19.5942 31.5369 20.0002C31.1678 20.3987 30.9833 20.9339 30.9833 21.6056C30.9833 22.3216 31.1752 22.8826 31.5591 23.2885C31.9503 23.6871 32.4854 23.8864 33.1645 23.8864C33.6295 23.8864 34.0207 23.7683 34.3381 23.5321C34.6629 23.2959 34.8991 22.9564 35.0467 22.5135H32.6441V21.1184H36.7629V22.8789C36.6226 23.3513 36.3827 23.7905 36.0432 24.1964C35.711 24.6024 35.2866 24.9309 34.7699 25.1818C34.2532 25.4328 33.6701 25.5583 33.0206 25.5583C32.2529 25.5583 31.5664 25.3922 30.9612 25.0601C30.3633 24.7205 29.8946 24.2518 29.555 23.6539C29.2229 23.056 29.0568 22.3732 29.0568 21.6056C29.0568 20.8379 29.2229 20.1552 29.555 19.5573C29.8946 18.952 30.3633 18.4833 30.9612 18.1511C31.5591 17.8116 32.2418 17.6418 33.0095 17.6418C33.9395 17.6418 34.722 17.8669 35.3567 18.3172C35.9989 18.7675 36.4233 19.3912 36.63 20.1884H34.5374ZM40.6239 25.5915C40.0186 25.5915 39.4724 25.4623 38.9852 25.204C38.5055 24.9456 38.1253 24.5766 37.8448 24.0968C37.5717 23.617 37.4352 23.056 37.4352 22.4138C37.4352 21.779 37.5754 21.2218 37.8559 20.742C38.1364 20.2548 38.5202 19.882 39.0074 19.6237C39.4946 19.3654 40.0408 19.2362 40.646 19.2362C41.2513 19.2362 41.7975 19.3654 42.2847 19.6237C42.7719 19.882 43.1557 20.2548 43.4362 20.742C43.7167 21.2218 43.8569 21.779 43.8569 22.4138C43.8569 23.0486 43.713 23.6096 43.4251 24.0968C43.1446 24.5766 42.7571 24.9456 42.2626 25.204C41.7754 25.4623 41.2292 25.5915 40.6239 25.5915ZM40.6239 23.9529C40.9856 23.9529 41.2919 23.82 41.5429 23.5543C41.8012 23.2885 41.9304 22.9084 41.9304 22.4138C41.9304 21.9193 41.8049 21.5392 41.5539 21.2734C41.3104 21.0077 41.0077 20.8748 40.646 20.8748C40.277 20.8748 39.9707 21.0077 39.7271 21.2734C39.4835 21.5318 39.3617 21.9119 39.3617 22.4138C39.3617 22.9084 39.4798 23.2885 39.716 23.5543C39.9596 23.82 40.2622 23.9529 40.6239 23.9529ZM47.6736 25.5915C47.0684 25.5915 46.5222 25.4623 46.035 25.204C45.5552 24.9456 45.1751 24.5766 44.8946 24.0968C44.6215 23.617 44.4849 23.056 44.4849 22.4138C44.4849 21.779 44.6252 21.2218 44.9056 20.742C45.1861 20.2548 45.57 19.882 46.0571 19.6237C46.5443 19.3654 47.0905 19.2362 47.6958 19.2362C48.3011 19.2362 48.8473 19.3654 49.3344 19.6237C49.8216 19.882 50.2054 20.2548 50.4859 20.742C50.7664 21.2218 50.9067 21.779 50.9067 22.4138C50.9067 23.0486 50.7627 23.6096 50.4749 24.0968C50.1944 24.5766 49.8068 24.9456 49.3123 25.204C48.8251 25.4623 48.2789 25.5915 47.6736 25.5915ZM47.6736 23.9529C48.0353 23.9529 48.3417 23.82 48.5926 23.5543C48.851 23.2885 48.9801 22.9084 48.9801 22.4138C48.9801 21.9193 48.8547 21.5392 48.6037 21.2734C48.3601 21.0077 48.0575 20.8748 47.6958 20.8748C47.3267 20.8748 47.0204 21.0077 46.7768 21.2734C46.5332 21.5318 46.4114 21.9119 46.4114 22.4138C46.4114 22.9084 46.5295 23.2885 46.7657 23.5543C47.0093 23.82 47.312 23.9529 47.6736 23.9529ZM54.2584 19.2362C54.6939 19.2362 55.074 19.3248 55.3988 19.5019C55.7309 19.6791 55.9856 19.9116 56.1627 20.1994V19.3248H58.0561V25.4919C58.0561 26.0602 57.9416 26.5732 57.7128 27.0309C57.4914 27.4959 57.1482 27.865 56.6831 28.1381C56.2255 28.4112 55.6534 28.5477 54.967 28.5477C54.0517 28.5477 53.3099 28.33 52.7415 27.8945C52.1731 27.4664 51.8484 26.8832 51.7672 26.1451H53.6383C53.6974 26.3813 53.8376 26.5658 54.0591 26.6987C54.2805 26.8389 54.5536 26.9091 54.8784 26.9091C55.2696 26.9091 55.5796 26.7947 55.8084 26.5658C56.0446 26.3444 56.1627 25.9864 56.1627 25.4919V24.6172C55.9782 24.905 55.7236 25.1412 55.3988 25.3258C55.074 25.5029 54.6939 25.5915 54.2584 25.5915C53.7491 25.5915 53.2877 25.4623 52.8744 25.204C52.461 24.9383 52.1325 24.5655 51.889 24.0857C51.6528 23.5985 51.5347 23.0376 51.5347 22.4028C51.5347 21.768 51.6528 21.2107 51.889 20.7309C52.1325 20.2511 52.461 19.882 52.8744 19.6237C53.2877 19.3654 53.7491 19.2362 54.2584 19.2362ZM56.1627 22.4138C56.1627 21.9414 56.0299 21.5687 55.7642 21.2956C55.5058 21.0225 55.1884 20.8859 54.812 20.8859C54.4355 20.8859 54.1144 21.0225 53.8487 21.2956C53.5904 21.5613 53.4612 21.9304 53.4612 22.4028C53.4612 22.8752 53.5904 23.2516 53.8487 23.5321C54.1144 23.8052 54.4355 23.9418 54.812 23.9418C55.1884 23.9418 55.5058 23.8052 55.7642 23.5321C56.0299 23.259 56.1627 22.8862 56.1627 22.4138ZM61.3191 17.3097V25.5029H59.4258V17.3097H61.3191ZM68.515 22.3142C68.515 22.4913 68.504 22.6759 68.4818 22.8678H64.1969C64.2265 23.2516 64.3483 23.5469 64.5623 23.7536C64.7838 23.9529 65.0532 24.0525 65.3706 24.0525C65.843 24.0525 66.1715 23.8532 66.356 23.4546H68.3711C68.2677 23.8606 68.0795 24.226 67.8064 24.5507C67.5407 24.8755 67.2048 25.1302 66.7989 25.3147C66.3929 25.4992 65.9389 25.5915 65.437 25.5915C64.8317 25.5915 64.2929 25.4623 63.8205 25.204C63.3481 24.9456 62.979 24.5766 62.7133 24.0968C62.4476 23.617 62.3147 23.056 62.3147 22.4138C62.3147 21.7717 62.4439 21.2107 62.7022 20.7309C62.968 20.2511 63.337 19.882 63.8094 19.6237C64.2818 19.3654 64.8244 19.2362 65.437 19.2362C66.0349 19.2362 66.5664 19.3617 67.0314 19.6126C67.4964 19.8636 67.8581 20.2216 68.1164 20.6866C68.3822 21.1516 68.515 21.6942 68.515 22.3142ZM66.5774 21.816C66.5774 21.4912 66.4667 21.2328 66.2453 21.0409C66.0238 20.849 65.747 20.753 65.4149 20.753C65.0975 20.753 64.828 20.8453 64.6066 21.0298C64.3926 21.2144 64.2597 21.4764 64.208 21.816H66.5774ZM77.7837 20.2327C77.7837 20.6829 77.6803 21.0963 77.4736 21.4727C77.267 21.8418 76.9496 22.1407 76.5215 22.3696C76.0933 22.5984 75.5619 22.7128 74.9271 22.7128H73.7535V25.5029H71.8601V17.7304H74.9271C75.5471 17.7304 76.0712 17.8374 76.4993 18.0515C76.9274 18.2655 77.2485 18.5608 77.4626 18.9372C77.6766 19.3137 77.7837 19.7455 77.7837 20.2327ZM74.7832 21.207C75.1448 21.207 75.4143 21.1221 75.5914 20.9523C75.7686 20.7826 75.8571 20.5427 75.8571 20.2327C75.8571 19.9226 75.7686 19.6828 75.5914 19.513C75.4143 19.3432 75.1448 19.2583 74.7832 19.2583H73.7535V21.207H74.7832ZM80.6626 17.3097V25.5029H78.7693V17.3097H80.6626ZM81.6583 22.4028C81.6583 21.768 81.7764 21.2107 82.0126 20.7309C82.2561 20.2511 82.5846 19.882 82.998 19.6237C83.4113 19.3654 83.8727 19.2362 84.382 19.2362C84.8175 19.2362 85.1976 19.3248 85.5224 19.5019C85.8545 19.6791 86.1092 19.9116 86.2863 20.1994V19.3248H88.1797V25.5029H86.2863V24.6282C86.1018 24.9161 85.8435 25.1486 85.5113 25.3258C85.1865 25.5029 84.8064 25.5915 84.3709 25.5915C83.869 25.5915 83.4113 25.4623 82.998 25.204C82.5846 24.9383 82.2561 24.5655 82.0126 24.0857C81.7764 23.5985 81.6583 23.0376 81.6583 22.4028ZM86.2863 22.4138C86.2863 21.9414 86.1535 21.5687 85.8878 21.2956C85.6294 21.0225 85.312 20.8859 84.9356 20.8859C84.5591 20.8859 84.238 21.0225 83.9723 21.2956C83.714 21.5613 83.5848 21.9304 83.5848 22.4028C83.5848 22.8752 83.714 23.2516 83.9723 23.5321C84.238 23.8052 84.5591 23.9418 84.9356 23.9418C85.312 23.9418 85.6294 23.8052 85.8878 23.5321C86.1535 23.259 86.2863 22.8862 86.2863 22.4138ZM95.8604 19.3248L91.9852 28.437H89.948L91.3652 25.2926L88.8518 19.3248H90.9666L92.3949 23.1889L93.8121 19.3248H95.8604Z" fill="white" fillOpacity="0.7"/>
<rect x="0.5" y="0.892578" width="102.055" height="29.5169" rx="1.20338" stroke="white" stroke-opacity="0.7"/>
<defs>
<filter id="filter0_b_4669_7062" x="-5.96287" y="-6.89403" width="41.8906" height="45.0898" filterUnits="userSpaceOnUse" color-interpolation-filters="sRGB">
<feFlood flood-opacity="0" result="BackgroundImageFix"/>
<feGaussianBlur in="BackgroundImageFix" stdDeviation="6.38769"/>
<feComposite in2="SourceAlpha" operator="in" result="effect1_backgroundBlur_4669_7062"/>
<feBlend mode="normal" in="SourceGraphic" in2="effect1_backgroundBlur_4669_7062" result="shape"/>
</filter>
</defs>
</svg>
