<svg width="547" height="162" viewBox="0 0 547 162" fill="none" xmlns="http://www.w3.org/2000/svg">
<g filter="url(#filter0_d_6882_31234)">
<path fillRule="evenodd" clipRule="evenodd" d="M138.225 76.9404C138.225 108.417 112.708 133.934 81.2314 133.934C66.4058 133.934 52.9024 128.273 42.7646 118.995C41.4174 117.762 39.1205 118.678 39.1205 120.504V139.988C39.1205 140.661 39.4579 141.29 40.0252 141.652C51.9276 149.247 66.0656 153.648 81.2314 153.648C123.596 153.648 157.939 119.305 157.939 76.9404C157.939 34.5758 123.596 0.232422 81.2314 0.232422C38.8668 0.232422 4.52344 34.5758 4.52344 76.9404C4.52344 98.7257 13.605 118.39 28.1888 132.354C29.4222 133.534 31.4075 132.632 31.4075 130.925V105.154C31.4075 104.814 31.3199 104.479 31.1569 104.18C26.7452 96.0872 24.2382 86.8066 24.2382 76.9404C24.2382 45.4639 49.7549 19.9472 81.2314 19.9472C112.708 19.9472 138.225 45.4639 138.225 76.9404Z" fill="#00CC6A"/>
<path fillRule="evenodd" clipRule="evenodd" d="M138.225 76.9404C138.225 108.417 112.708 133.934 81.2314 133.934C66.4058 133.934 52.9024 128.273 42.7646 118.995C41.4174 117.762 39.1205 118.678 39.1205 120.504V139.988C39.1205 140.661 39.4579 141.29 40.0252 141.652C51.9276 149.247 66.0656 153.648 81.2314 153.648C123.596 153.648 157.939 119.305 157.939 76.9404C157.939 34.5758 123.596 0.232422 81.2314 0.232422C38.8668 0.232422 4.52344 34.5758 4.52344 76.9404C4.52344 98.7257 13.605 118.39 28.1888 132.354C29.4222 133.534 31.4075 132.632 31.4075 130.925V105.154C31.4075 104.814 31.3199 104.479 31.1569 104.18C26.7452 96.0872 24.2382 86.8066 24.2382 76.9404C24.2382 45.4639 49.7549 19.9472 81.2314 19.9472C112.708 19.9472 138.225 45.4639 138.225 76.9404Z" fill="url(#paint0_radial_6882_31234)"/>
<path fillRule="evenodd" clipRule="evenodd" d="M138.225 76.9404C138.225 108.417 112.708 133.934 81.232 133.934C66.4064 133.934 52.9029 128.273 42.7651 118.995C41.4179 117.762 39.1211 118.678 39.1211 120.504V139.988C39.1211 140.661 39.4585 141.29 40.0258 141.652C51.9282 149.247 66.0661 153.648 81.232 153.648C123.597 153.648 157.94 119.305 157.94 76.9404C157.94 34.5758 123.597 0.232422 81.232 0.232422C75.2825 0.156258 83.5632 19.8851 81.232 19.9472C112.708 19.9472 138.225 45.4639 138.225 76.9404Z" fill="url(#paint1_radial_6882_31234)"/>
<path fillRule="evenodd" clipRule="evenodd" d="M138.225 76.9404C138.225 108.417 112.708 133.934 81.232 133.934C66.4064 133.934 52.9029 128.273 42.7651 118.995C41.4179 117.762 39.1211 118.678 39.1211 120.504V139.988C39.1211 140.661 39.4585 141.29 40.0258 141.652C51.9282 149.247 66.0661 153.648 81.232 153.648C123.597 153.648 157.94 119.305 157.94 76.9404C157.94 34.5758 123.597 0.232422 81.232 0.232422C75.2825 0.156258 83.5632 19.8851 81.232 19.9472C112.708 19.9472 138.225 45.4639 138.225 76.9404Z" fill="url(#paint2_radial_6882_31234)"/>
<path fillRule="evenodd" clipRule="evenodd" d="M138.225 76.9404C138.225 108.417 112.708 133.934 81.232 133.934C66.4064 133.934 52.9029 128.273 42.7651 118.995C41.4179 117.762 39.1211 118.678 39.1211 120.504V139.988C39.1211 140.661 39.4585 141.29 40.0258 141.652C51.9282 149.247 66.0661 153.648 81.232 153.648C123.597 153.648 157.94 119.305 157.94 76.9404C157.94 34.5758 123.597 0.232422 81.232 0.232422C75.2825 0.156258 83.5632 19.8851 81.232 19.9472C112.708 19.9472 138.225 45.4639 138.225 76.9404Z" fill="url(#paint3_radial_6882_31234)"/>
<path fillRule="evenodd" clipRule="evenodd" d="M81.2318 99.3367C93.6007 99.3367 103.628 89.3097 103.628 76.9408C103.628 64.5718 93.6007 54.5448 81.2318 54.5448C68.9121 54.5448 58.9158 64.4921 58.8363 76.793H58.8358V76.9408V112.609V138.294H39.1211V76.9408V76.793C39.2007 53.6039 58.024 34.8301 81.2318 34.8301C104.489 34.8301 123.342 53.6837 123.342 76.9408C123.342 100.198 104.489 119.051 81.2318 119.051C79.0013 119.051 76.8112 118.878 74.6745 118.544C69.887 117.795 66.2005 113.085 66.6313 108.069C67.114 102.451 72.207 98.2277 77.8474 99.0827C78.9511 99.25 80.0813 99.3367 81.2318 99.3367Z" fill="#925FFF"/>
<path fillRule="evenodd" clipRule="evenodd" d="M81.2318 99.3367C93.6007 99.3367 103.628 89.3097 103.628 76.9408C103.628 64.5718 93.6007 54.5448 81.2318 54.5448C68.9121 54.5448 58.9158 64.4921 58.8363 76.793H58.8358V76.9408V112.609V138.294H39.1211V76.9408V76.793C39.2007 53.6039 58.024 34.8301 81.2318 34.8301C104.489 34.8301 123.342 53.6837 123.342 76.9408C123.342 100.198 104.489 119.051 81.2318 119.051C79.0013 119.051 76.8112 118.878 74.6745 118.544C69.887 117.795 66.2005 113.085 66.6313 108.069C67.114 102.451 72.207 98.2277 77.8474 99.0827C78.9511 99.25 80.0813 99.3367 81.2318 99.3367Z" fill="url(#paint4_radial_6882_31234)"/>
<mask id="mask0_6882_31234" style="mask-type:alpha" maskUnits="userSpaceOnUse" x="46" y="26" width="84" height="101">
<path d="M66.6202 75.1842L46.8438 39.9987L78.927 26.1294L129.802 42.3428V126.707H66.6202V75.1842Z" fill="#D9D9D9"/>
</mask>
<g mask="url(#mask0_6882_31234)">
<path fillRule="evenodd" clipRule="evenodd" d="M81.2318 99.3367C93.6007 99.3367 103.628 89.3097 103.628 76.9408C103.628 64.5718 93.6007 54.5448 81.2318 54.5448C68.9121 54.5448 58.9158 64.4921 58.8363 76.793H58.8358V76.9408V112.609V138.294H39.1211V76.9408V76.793C39.2007 53.6039 58.024 34.8301 81.2318 34.8301C104.489 34.8301 123.342 53.6837 123.342 76.9408C123.342 100.198 104.489 119.051 81.2318 119.051C79.0013 119.051 76.8112 118.878 74.6745 118.544C69.887 117.795 66.2005 113.085 66.6313 108.069C67.114 102.451 72.207 98.2277 77.8474 99.0827C78.9511 99.25 80.0813 99.3367 81.2318 99.3367Z" fill="url(#paint5_radial_6882_31234)"/>
<path fillRule="evenodd" clipRule="evenodd" d="M81.2318 99.3367C93.6007 99.3367 103.628 89.3097 103.628 76.9408C103.628 64.5718 93.6007 54.5448 81.2318 54.5448C68.9121 54.5448 58.9158 64.4921 58.8363 76.793H58.8358V76.9408V112.609V138.294H39.1211V76.9408V76.793C39.2007 53.6039 58.024 34.8301 81.2318 34.8301C104.489 34.8301 123.342 53.6837 123.342 76.9408C123.342 100.198 104.489 119.051 81.2318 119.051C79.0013 119.051 76.8112 118.878 74.6745 118.544C69.887 117.795 66.2005 113.085 66.6313 108.069C67.114 102.451 72.207 98.2277 77.8474 99.0827C78.9511 99.25 80.0813 99.3367 81.2318 99.3367Z" fill="url(#paint6_radial_6882_31234)"/>
<path fillRule="evenodd" clipRule="evenodd" d="M81.2318 99.3367C93.6007 99.3367 103.628 89.3097 103.628 76.9408C103.628 64.5718 93.6007 54.5448 81.2318 54.5448C68.9121 54.5448 58.9158 64.4921 58.8363 76.793H58.8358V76.9408V112.609V138.294H39.1211V76.9408V76.793C39.2007 53.6039 58.024 34.8301 81.2318 34.8301C104.489 34.8301 123.342 53.6837 123.342 76.9408C123.342 100.198 104.489 119.051 81.2318 119.051C79.0013 119.051 76.8112 118.878 74.6745 118.544C69.887 117.795 66.2005 113.085 66.6313 108.069C67.114 102.451 72.207 98.2277 77.8474 99.0827C78.9511 99.25 80.0813 99.3367 81.2318 99.3367Z" fill="url(#paint7_radial_6882_31234)"/>
</g>
<path d="M81.2318 54.5448C68.9121 54.5448 58.9158 64.4921 58.8363 76.793H58.8358V76.9408V112.609V138.294H39.1211V76.9408V76.793C39.2007 53.6039 58.024 34.8301 81.2318 34.8301V54.5448Z" fill="url(#paint8_linear_6882_31234)"/>
<circle cx="76.4746" cy="108.85" r="9.85738" fill="#00CC6A"/>
<path d="M191.398 109.94V43.34H217.678C223.018 43.34 227.458 44.42 230.998 46.58C234.538 48.68 237.178 51.44 238.918 54.86C240.718 58.22 241.618 61.73 241.618 65.39C241.618 69.05 240.718 72.59 238.918 76.01C237.178 79.37 234.538 82.13 230.998 84.29C227.458 86.45 223.018 87.53 217.678 87.53H203.638V109.94H191.398ZM217.588 53.96H203.638V76.91H217.588C220.228 76.91 222.418 76.37 224.158 75.29C225.898 74.15 227.188 72.71 228.028 70.97C228.928 69.17 229.378 67.34 229.378 65.48C229.378 63.56 228.928 61.73 228.028 59.99C227.188 58.25 225.898 56.81 224.158 55.67C222.418 54.53 220.228 53.96 217.588 53.96Z" fill="#00CC6A"/>
<path d="M271.37 110.84C267.29 110.84 263.75 110.15 260.75 108.77C257.81 107.33 255.35 105.44 253.37 103.1C251.45 100.7 250.01 98.03 249.05 95.09C248.09 92.15 247.61 89.15 247.61 86.09C247.61 83.03 248.06 80.06 248.96 77.18C249.92 74.24 251.33 71.57 253.19 69.17C255.11 66.77 257.54 64.88 260.48 63.5C263.42 62.06 266.9 61.34 270.92 61.34C275.24 61.34 279.05 62.3 282.35 64.22C285.65 66.14 288.23 68.96 290.09 72.68C291.95 76.34 292.88 80.9 292.88 86.36V89.42H259.67C259.85 92.66 260.96 95.48 263 97.88C265.04 100.22 267.83 101.39 271.37 101.39C273.41 101.39 275.09 101.06 276.41 100.4C277.73 99.74 278.75 98.99 279.47 98.15C280.19 97.25 280.7 96.5 281 95.9C281.3 95.24 281.45 94.91 281.45 94.91H292.52C292.52 94.91 292.37 95.45 292.07 96.53C291.77 97.55 291.2 98.87 290.36 100.49C289.58 102.05 288.41 103.64 286.85 105.26C285.29 106.82 283.25 108.14 280.73 109.22C278.21 110.3 275.09 110.84 271.37 110.84ZM259.67 81.59H281.36C281.18 77.87 280.07 75.11 278.03 73.31C275.99 71.51 273.59 70.61 270.83 70.61C267.77 70.61 265.22 71.6 263.18 73.58C261.14 75.5 259.97 78.17 259.67 81.59Z" fill="#00CC6A"/>
<path d="M303.898 109.94L303.988 41.54H315.868V109.94H303.898Z" fill="#00CC6A"/>
<path d="M348.038 61.34C351.098 61.34 353.618 61.85 355.598 62.87C357.578 63.83 359.138 64.91 360.278 66.11C361.418 67.25 362.198 68.18 362.618 68.9H363.158V62.24H375.128V109.94H363.158V103.28H362.618C362.198 104 361.418 104.96 360.278 106.16C359.138 107.36 357.578 108.44 355.598 109.4C353.618 110.36 351.098 110.84 348.038 110.84C344.498 110.84 341.408 110.15 338.768 108.77C336.128 107.33 333.908 105.44 332.108 103.1C330.368 100.7 329.048 98.03 328.148 95.09C327.308 92.15 326.888 89.15 326.888 86.09C326.888 83.03 327.308 80.03 328.148 77.09C329.048 74.15 330.368 71.51 332.108 69.17C333.908 66.77 336.128 64.88 338.768 63.5C341.408 62.06 344.498 61.34 348.038 61.34ZM351.188 71.15C348.488 71.15 346.208 71.9 344.348 73.4C342.548 74.84 341.198 76.7 340.298 78.98C339.398 81.26 338.948 83.63 338.948 86.09C338.948 88.55 339.398 90.92 340.298 93.2C341.198 95.48 342.548 97.37 344.348 98.87C346.208 100.31 348.488 101.03 351.188 101.03C353.888 101.03 356.138 100.31 357.938 98.87C359.738 97.37 361.088 95.48 361.988 93.2C362.888 90.92 363.338 88.55 363.338 86.09C363.338 83.63 362.888 81.26 361.988 78.98C361.088 76.7 359.738 74.84 357.938 73.4C356.138 71.9 353.888 71.15 351.188 71.15Z" fill="#00CC6A"/>
<path d="M407.1 110.84C403.56 110.84 400.47 110.15 397.83 108.77C395.19 107.33 392.97 105.44 391.17 103.1C389.43 100.7 388.11 98.03 387.21 95.09C386.37 92.15 385.95 89.15 385.95 86.09C385.95 83.03 386.37 80.03 387.21 77.09C388.11 74.15 389.43 71.51 391.17 69.17C392.97 66.77 395.19 64.88 397.83 63.5C400.47 62.06 403.56 61.34 407.1 61.34C410.16 61.34 412.68 61.85 414.66 62.87C416.64 63.83 418.2 64.91 419.34 66.11C420.48 67.25 421.26 68.18 421.68 68.9H422.22V41.54H434.19V109.94H422.22V103.28H421.68C421.26 104 420.48 104.96 419.34 106.16C418.2 107.36 416.64 108.44 414.66 109.4C412.68 110.36 410.16 110.84 407.1 110.84ZM410.25 101.03C412.95 101.03 415.2 100.31 417 98.87C418.8 97.37 420.15 95.48 421.05 93.2C421.95 90.92 422.4 88.55 422.4 86.09C422.4 83.63 421.95 81.26 421.05 78.98C420.15 76.7 418.8 74.84 417 73.4C415.2 71.9 412.95 71.15 410.25 71.15C407.55 71.15 405.27 71.9 403.41 73.4C401.61 74.84 400.26 76.7 399.36 78.98C398.46 81.26 398.01 83.63 398.01 86.09C398.01 88.55 398.46 90.92 399.36 93.2C400.26 95.48 401.61 97.37 403.41 98.87C405.27 100.31 407.55 101.03 410.25 101.03Z" fill="#00CC6A"/>
<path d="M469.669 110.84C464.449 110.84 460.009 109.67 456.349 107.33C452.689 104.99 449.899 101.96 447.979 98.24C446.119 94.46 445.189 90.41 445.189 86.09C445.189 81.77 446.119 77.75 447.979 74.03C449.899 70.25 452.689 67.19 456.349 64.85C460.009 62.51 464.449 61.34 469.669 61.34C474.949 61.34 479.389 62.51 482.989 64.85C486.649 67.19 489.409 70.25 491.269 74.03C493.189 77.75 494.149 81.77 494.149 86.09C494.149 90.41 493.189 94.46 491.269 98.24C489.409 101.96 486.649 104.99 482.989 107.33C479.389 109.67 474.949 110.84 469.669 110.84ZM469.669 100.85C472.369 100.85 474.619 100.16 476.419 98.78C478.279 97.4 479.689 95.6 480.649 93.38C481.609 91.1 482.089 88.67 482.089 86.09C482.089 83.45 481.609 81.02 480.649 78.8C479.689 76.58 478.279 74.78 476.419 73.4C474.619 72.02 472.369 71.33 469.669 71.33C467.029 71.33 464.779 72.02 462.919 73.4C461.059 74.78 459.649 76.58 458.689 78.8C457.729 81.02 457.249 83.45 457.249 86.09C457.249 88.67 457.729 91.1 458.689 93.38C459.649 95.6 461.059 97.4 462.919 98.78C464.779 100.16 467.029 100.85 469.669 100.85Z" fill="#00CC6A"/>
<path d="M523.88 110.84C519.98 110.84 516.77 110.33 514.25 109.31C511.73 108.23 509.72 106.91 508.22 105.35C506.78 103.73 505.7 102.14 504.98 100.58C504.26 99.02 503.78 97.73 503.54 96.71C503.36 95.63 503.27 95.09 503.27 95.09H514.61C514.61 95.09 514.7 95.42 514.88 96.08C515.12 96.74 515.54 97.52 516.14 98.42C516.8 99.26 517.79 100.01 519.11 100.67C520.43 101.33 522.17 101.66 524.33 101.66C526.91 101.66 528.77 101.12 529.91 100.04C531.05 98.9 531.62 97.64 531.62 96.26C531.62 94.94 531.109 93.89 530.09 93.11C529.13 92.27 527.69 91.64 525.77 91.22L519.2 89.87C516.56 89.33 514.1 88.55 511.82 87.53C509.54 86.45 507.68 85.01 506.24 83.21C504.8 81.35 504.08 78.98 504.08 76.1C504.08 71.84 505.7 68.33 508.94 65.57C512.18 62.75 516.59 61.34 522.17 61.34C525.71 61.34 528.62 61.82 530.9 62.78C533.24 63.74 535.1 64.94 536.48 66.38C537.92 67.82 538.97 69.26 539.63 70.7C540.35 72.14 540.8 73.37 540.98 74.39C541.22 75.35 541.34 75.83 541.34 75.83H530.36C530.36 75.83 530.27 75.56 530.09 75.02C529.91 74.42 529.52 73.76 528.92 73.04C528.38 72.32 527.54 71.69 526.4 71.15C525.32 70.55 523.85 70.25 521.99 70.25C519.47 70.25 517.669 70.79 516.59 71.87C515.57 72.95 515.06 74.09 515.06 75.29C515.06 76.61 515.63 77.63 516.77 78.35C517.91 79.07 519.38 79.61 521.18 79.97L527.39 81.32C531.83 82.22 535.46 83.78 538.28 86C541.16 88.22 542.6 91.43 542.6 95.63C542.6 98.45 541.85 101.03 540.35 103.37C538.91 105.65 536.78 107.48 533.96 108.86C531.2 110.18 527.84 110.84 523.88 110.84Z" fill="#00CC6A"/>
</g>
<defs>
<filter id="filter0_d_6882_31234" x="0.523438" y="0.232422" width="546.074" height="161.416" filterUnits="userSpaceOnUse" color-interpolation-filters="sRGB">
<feFlood flood-opacity="0" result="BackgroundImageFix"/>
<feColorMatrix in="SourceAlpha" type="matrix" values="0 0 0 0 0 0 0 0 0 0 0 0 0 0 0 0 0 0 127 0" result="hardAlpha"/>
<feOffset dy="4"/>
<feGaussianBlur stdDeviation="2"/>
<feComposite in2="hardAlpha" operator="out"/>
<feColorMatrix type="matrix" values="0 0 0 0 0 0 0 0 0 0 0 0 0 0 0 0 0 0 0.25 0"/>
<feBlend mode="normal" in2="BackgroundImageFix" result="effect1_dropShadow_6882_31234"/>
<feBlend mode="normal" in="SourceGraphic" in2="effect1_dropShadow_6882_31234" result="shape"/>
</filter>
<radialGradient id="paint0_radial_6882_31234" cx="0" cy="0" r="1" gradientUnits="userSpaceOnUse" gradientTransform="translate(118.58 8.06868) rotate(121.439) scale(154.184)">
<stop offset="0.232163" stop-color="#925FFF"/>
<stop offset="1" stop-color="#925FFF" stop-opacity="0"/>
</radialGradient>
<radialGradient id="paint1_radial_6882_31234" cx="0" cy="0" r="1" gradientUnits="userSpaceOnUse" gradientTransform="translate(82.3646 153.648) rotate(-34.72) scale(115.337 74.8751)">
<stop stop-color="#5630C3"/>
<stop offset="0.27672" stop-color="#5630C3"/>
<stop offset="1" stop-color="#8B5AF8" stop-opacity="0"/>
</radialGradient>
<radialGradient id="paint2_radial_6882_31234" cx="0" cy="0" r="1" gradientUnits="userSpaceOnUse" gradientTransform="translate(54.1026 138.413) rotate(-69.8996) scale(129.277 115.718)">
<stop stop-color="#5730C4"/>
<stop offset="1" stop-color="#5730C4" stop-opacity="0"/>
</radialGradient>
<radialGradient id="paint3_radial_6882_31234" cx="0" cy="0" r="1" gradientUnits="userSpaceOnUse" gradientTransform="translate(164.251 89.3495) rotate(-152.507) scale(57.9656 44.8937)">
<stop stop-color="#925FFF"/>
<stop offset="1" stop-color="#925FFF" stop-opacity="0"/>
</radialGradient>
<radialGradient id="paint4_radial_6882_31234" cx="0" cy="0" r="1" gradientUnits="userSpaceOnUse" gradientTransform="translate(123.342 108.049) rotate(-90) scale(59.4355 65.2978)">
<stop offset="0.203244" stop-color="#00CC6A" stop-opacity="0.51"/>
<stop offset="1" stop-color="#00CC6A" stop-opacity="0"/>
</radialGradient>
<radialGradient id="paint5_radial_6882_31234" cx="0" cy="0" r="1" gradientUnits="userSpaceOnUse" gradientTransform="translate(134.398 65.6975) rotate(-164.085) scale(77.3728 40.5518)">
<stop stop-color="#00CC6A"/>
<stop offset="1" stop-color="#00CC6A" stop-opacity="0"/>
</radialGradient>
<radialGradient id="paint6_radial_6882_31234" cx="0" cy="0" r="1" gradientUnits="userSpaceOnUse" gradientTransform="translate(84.8606 111.968) rotate(-36.0151) scale(78.0068 40.8841)">
<stop offset="0.203244" stop-color="#00CC6A"/>
<stop offset="1" stop-color="#00CC6A" stop-opacity="0"/>
</radialGradient>
<radialGradient id="paint7_radial_6882_31234" cx="0" cy="0" r="1" gradientUnits="userSpaceOnUse" gradientTransform="translate(81.2317 99.5231) rotate(90) scale(21.285 17.3264)">
<stop stop-color="#00CC6A"/>
<stop offset="0.367119" stop-color="#00CC6A"/>
<stop offset="1" stop-color="#00CC6A" stop-opacity="0"/>
</radialGradient>
<linearGradient id="paint8_linear_6882_31234" x1="45.7262" y1="34.8301" x2="45.7262" y2="138.294" gradientUnits="userSpaceOnUse">
<stop offset="0.287156" stop-color="#1A0087" stop-opacity="0"/>
<stop offset="0.91953" stop-color="#1A0087" stop-opacity="0.5"/>
</linearGradient>
</defs>
</svg>
