<svg width="198" height="146" viewBox="0 0 198 146" fill="none" xmlns="http://www.w3.org/2000/svg">
<path fillRule="evenodd" clipRule="evenodd" d="M130.617 43.4165C130.617 61.1368 116.252 75.5019 98.5318 75.5019C90.9959 75.5019 84.0669 72.9039 78.5914 68.5548C77.1614 67.419 74.8249 68.3701 74.8249 70.1963V78.4393C74.8249 79.1123 75.1616 79.7429 75.7328 80.0987C82.3495 84.2199 90.1626 86.6007 98.5318 86.6007C122.382 86.6007 141.716 67.2665 141.716 43.4165C141.716 19.5666 122.382 0.232422 98.5318 0.232422C74.6818 0.232422 55.3477 19.5666 55.3477 43.4165C55.3477 54.9986 59.9072 65.5157 67.3293 73.2709C68.51 74.5045 70.4828 73.6185 70.4828 71.9109V59.5276C70.4828 59.1869 70.3946 58.8525 70.2337 58.5522C67.817 54.0434 66.4464 48.89 66.4464 43.4165C66.4464 25.6963 80.8115 11.3312 98.5318 11.3312C116.252 11.3312 130.617 25.6963 130.617 43.4165Z" fill="#00CC6A"/>
<path fillRule="evenodd" clipRule="evenodd" d="M130.617 43.4165C130.617 61.1368 116.252 75.5019 98.5318 75.5019C90.9959 75.5019 84.0669 72.9039 78.5914 68.5548C77.1614 67.419 74.8249 68.3701 74.8249 70.1963V78.4393C74.8249 79.1123 75.1616 79.7429 75.7328 80.0987C82.3495 84.2199 90.1626 86.6007 98.5318 86.6007C122.382 86.6007 141.716 67.2665 141.716 43.4165C141.716 19.5666 122.382 0.232422 98.5318 0.232422C74.6818 0.232422 55.3477 19.5666 55.3477 43.4165C55.3477 54.9986 59.9072 65.5157 67.3293 73.2709C68.51 74.5045 70.4828 73.6185 70.4828 71.9109V59.5276C70.4828 59.1869 70.3946 58.8525 70.2337 58.5522C67.817 54.0434 66.4464 48.89 66.4464 43.4165C66.4464 25.6963 80.8115 11.3312 98.5318 11.3312C116.252 11.3312 130.617 25.6963 130.617 43.4165Z" fill="url(#paint0_radial_6882_31233)"/>
<path fillRule="evenodd" clipRule="evenodd" d="M130.621 43.4165C130.621 61.1368 116.255 75.5019 98.5352 75.5019C90.1889 75.5019 82.5868 72.315 76.8796 67.0918C76.1212 66.3977 74.8281 66.9135 74.8281 67.9416V78.9103C74.8281 79.2892 75.0181 79.6435 75.3374 79.8473C82.0381 84.1229 89.9973 86.6007 98.5352 86.6007C122.385 86.6007 141.719 67.2665 141.719 43.4165C141.719 19.5666 122.385 0.232422 98.5352 0.232422C95.1858 0.189544 99.8476 11.2962 98.5352 11.3312C116.255 11.3312 130.621 25.6963 130.621 43.4165Z" fill="url(#paint1_radial_6882_31233)"/>
<path fillRule="evenodd" clipRule="evenodd" d="M130.621 43.4165C130.621 61.1368 116.255 75.5019 98.5352 75.5019C90.1889 75.5019 82.5868 72.315 76.8796 67.0918C76.1212 66.3977 74.8281 66.9135 74.8281 67.9416V78.9103C74.8281 79.2892 75.0181 79.6435 75.3374 79.8473C82.0381 84.1229 89.9973 86.6007 98.5352 86.6007C122.385 86.6007 141.719 67.2665 141.719 43.4165C141.719 19.5666 122.385 0.232422 98.5352 0.232422C95.1858 0.189544 99.8476 11.2962 98.5352 11.3312C116.255 11.3312 130.621 25.6963 130.621 43.4165Z" fill="url(#paint2_radial_6882_31233)"/>
<path fillRule="evenodd" clipRule="evenodd" d="M130.621 43.4165C130.621 61.1368 116.255 75.5019 98.5352 75.5019C90.1889 75.5019 82.5868 72.315 76.8796 67.0918C76.1212 66.3977 74.8281 66.9135 74.8281 67.9416V78.9103C74.8281 79.2892 75.0181 79.6435 75.3374 79.8473C82.0381 84.1229 89.9973 86.6007 98.5352 86.6007C122.385 86.6007 141.719 67.2665 141.719 43.4165C141.719 19.5666 122.385 0.232422 98.5352 0.232422C95.1858 0.189544 99.8476 11.2962 98.5352 11.3312C116.255 11.3312 130.621 25.6963 130.621 43.4165Z" fill="url(#paint3_radial_6882_31233)"/>
<path fillRule="evenodd" clipRule="evenodd" d="M98.5351 56.0246C105.498 56.0246 111.143 50.3797 111.143 43.4164C111.143 36.4531 105.498 30.8082 98.5351 30.8082C91.5995 30.8082 85.9719 36.4082 85.9272 43.3333H85.9269V43.4164V63.4963V77.9563H74.8281V43.4164V43.3333C74.873 30.2785 85.4698 19.7095 98.5351 19.7095C111.628 19.7095 122.242 30.3234 122.242 43.4164C122.242 56.5094 111.628 67.1234 98.5351 67.1234C97.2794 67.1234 96.0465 67.0258 94.8435 66.8377C92.1483 66.4163 90.0729 63.7645 90.3155 60.9408C90.5872 57.7778 93.4544 55.4003 96.6298 55.8816C97.2511 55.9758 97.8874 56.0246 98.5351 56.0246Z" fill="#925FFF"/>
<path fillRule="evenodd" clipRule="evenodd" d="M98.5351 56.0246C105.498 56.0246 111.143 50.3797 111.143 43.4164C111.143 36.4531 105.498 30.8082 98.5351 30.8082C91.5995 30.8082 85.9719 36.4082 85.9272 43.3333H85.9269V43.4164V63.4963V77.9563H74.8281V43.4164V43.3333C74.873 30.2785 85.4698 19.7095 98.5351 19.7095C111.628 19.7095 122.242 30.3234 122.242 43.4164C122.242 56.5094 111.628 67.1234 98.5351 67.1234C97.2794 67.1234 96.0465 67.0258 94.8435 66.8377C92.1483 66.4163 90.0729 63.7645 90.3155 60.9408C90.5872 57.7778 93.4544 55.4003 96.6298 55.8816C97.2511 55.9758 97.8874 56.0246 98.5351 56.0246Z" fill="url(#paint4_radial_6882_31233)"/>
<mask id="mask0_6882_31233" style="mask-type:alpha" maskUnits="userSpaceOnUse" x="79" y="14" width="47" height="58">
<path d="M90.3054 42.4278L79.1719 22.6195L97.2337 14.8115L125.875 23.9391V71.4335H90.3054V42.4278Z" fill="#D9D9D9"/>
</mask>
<g mask="url(#mask0_6882_31233)">
<path fillRule="evenodd" clipRule="evenodd" d="M98.5312 56.0246C105.494 56.0246 111.139 50.3797 111.139 43.4164C111.139 36.4531 105.494 30.8082 98.5312 30.8082C91.5956 30.8082 85.968 36.4082 85.9233 43.3333H85.923V43.4164V63.4963V77.9563H74.8242V43.4164V43.3333C74.8691 30.2785 85.4659 19.7095 98.5312 19.7095C111.624 19.7095 122.238 30.3234 122.238 43.4164C122.238 56.5094 111.624 67.1234 98.5312 67.1234C97.2755 67.1234 96.0426 67.0258 94.8396 66.8377C92.1444 66.4163 90.069 63.7645 90.3116 60.9408C90.5833 57.7778 93.4505 55.4003 96.6259 55.8816C97.2472 55.9758 97.8835 56.0246 98.5312 56.0246Z" fill="url(#paint5_radial_6882_31233)"/>
<path fillRule="evenodd" clipRule="evenodd" d="M98.5312 56.0246C105.494 56.0246 111.139 50.3797 111.139 43.4164C111.139 36.4531 105.494 30.8082 98.5312 30.8082C91.5956 30.8082 85.968 36.4082 85.9233 43.3333H85.923V43.4164V63.4963V77.9563H74.8242V43.4164V43.3333C74.8691 30.2785 85.4659 19.7095 98.5312 19.7095C111.624 19.7095 122.238 30.3234 122.238 43.4164C122.238 56.5094 111.624 67.1234 98.5312 67.1234C97.2755 67.1234 96.0426 67.0258 94.8396 66.8377C92.1444 66.4163 90.069 63.7645 90.3116 60.9408C90.5833 57.7778 93.4505 55.4003 96.6259 55.8816C97.2472 55.9758 97.8835 56.0246 98.5312 56.0246Z" fill="url(#paint6_radial_6882_31233)"/>
<path fillRule="evenodd" clipRule="evenodd" d="M98.5312 56.0246C105.494 56.0246 111.139 50.3797 111.139 43.4164C111.139 36.4531 105.494 30.8082 98.5312 30.8082C91.5956 30.8082 85.968 36.4082 85.9233 43.3333H85.923V43.4164V63.4963V77.9563H74.8242V43.4164V43.3333C74.8691 30.2785 85.4659 19.7095 98.5312 19.7095C111.624 19.7095 122.238 30.3234 122.238 43.4164C122.238 56.5094 111.624 67.1234 98.5312 67.1234C97.2755 67.1234 96.0426 67.0258 94.8396 66.8377C92.1444 66.4163 90.069 63.7645 90.3116 60.9408C90.5833 57.7778 93.4505 55.4003 96.6259 55.8816C97.2472 55.9758 97.8835 56.0246 98.5312 56.0246Z" fill="url(#paint7_radial_6882_31233)"/>
</g>
<path d="M98.5351 30.8082C91.5995 30.8082 85.9719 36.4082 85.9272 43.3333H85.9269V43.4164V63.4963V77.9563H74.8281V43.4164V43.3333C74.873 30.2785 85.4698 19.7095 98.5351 19.7095V30.8082Z" fill="url(#paint8_linear_6882_31233)"/>
<circle cx="95.858" cy="61.3809" r="5.54938" fill="#00CC6A"/>
<path d="M0.285156 144.71V107.216H15.0799C18.0862 107.216 20.5858 107.824 22.5787 109.04C24.5716 110.222 26.0578 111.776 27.0374 113.701C28.0507 115.593 28.5574 117.569 28.5574 119.629C28.5574 121.69 28.0507 123.683 27.0374 125.608C26.0578 127.5 24.5716 129.053 22.5787 130.27C20.5858 131.486 18.0862 132.094 15.0799 132.094H7.17588V144.71H0.285156ZM15.0293 113.195H7.17588V126.115H15.0293C16.5155 126.115 17.7484 125.811 18.728 125.203C19.7075 124.561 20.4338 123.75 20.9067 122.771C21.4133 121.757 21.6667 120.727 21.6667 119.68C21.6667 118.599 21.4133 117.569 20.9067 116.589C20.4338 115.61 19.7075 114.799 18.728 114.157C17.7484 113.516 16.5155 113.195 15.0293 113.195Z" fill="#00CC6A"/>
<path d="M45.3068 145.216C43.0099 145.216 41.017 144.828 39.3281 144.051C37.673 143.24 36.2881 142.176 35.1734 140.859C34.0925 139.508 33.2818 138.005 32.7414 136.35C32.2009 134.694 31.9307 133.006 31.9307 131.283C31.9307 129.56 32.184 127.888 32.6907 126.267C33.2312 124.612 34.025 123.109 35.0721 121.757C36.153 120.406 37.521 119.342 39.1761 118.565C40.8312 117.755 42.7904 117.349 45.0535 117.349C47.4855 117.349 49.6304 117.89 51.4882 118.971C53.346 120.052 54.7985 121.639 55.8456 123.733C56.8927 125.794 57.4163 128.361 57.4163 131.435V133.158H38.7201C38.8214 134.982 39.4463 136.569 40.5948 137.92C41.7432 139.238 43.3139 139.896 45.3068 139.896C46.4553 139.896 47.4011 139.71 48.1442 139.339C48.8873 138.967 49.4615 138.545 49.8669 138.072C50.2722 137.566 50.5593 137.143 50.7282 136.806C50.8971 136.434 50.9815 136.248 50.9815 136.248H57.2136C57.2136 136.248 57.1291 136.552 56.9603 137.16C56.7914 137.734 56.4705 138.478 55.9976 139.39C55.5585 140.268 54.8998 141.163 54.0216 142.075C53.1433 142.953 51.9949 143.696 50.5762 144.304C49.1575 144.912 47.4011 145.216 45.3068 145.216ZM38.7201 128.749H50.9309C50.8295 126.655 50.2046 125.101 49.0562 124.088C47.9077 123.075 46.5566 122.568 45.0028 122.568C43.2801 122.568 41.8446 123.125 40.6961 124.24C39.5477 125.321 38.889 126.824 38.7201 128.749Z" fill="#00CC6A"/>
<path d="M63.619 144.71L63.6697 106.203H70.3577V144.71H63.619Z" fill="#00CC6A"/>
<path d="M88.4681 117.349C90.1907 117.349 91.6094 117.637 92.7241 118.211C93.8388 118.751 94.717 119.359 95.3588 120.035C96.0006 120.677 96.4397 121.2 96.6761 121.605H96.9801V117.856H103.719V144.71H96.9801V140.96H96.6761C96.4397 141.366 96.0006 141.906 95.3588 142.582C94.717 143.257 93.8388 143.865 92.7241 144.406C91.6094 144.946 90.1907 145.216 88.4681 145.216C86.4752 145.216 84.7356 144.828 83.2494 144.051C81.7631 143.24 80.5133 142.176 79.5 140.859C78.5204 139.508 77.7773 138.005 77.2706 136.35C76.7977 134.694 76.5613 133.006 76.5613 131.283C76.5613 129.56 76.7977 127.871 77.2706 126.216C77.7773 124.561 78.5204 123.075 79.5 121.757C80.5133 120.406 81.7631 119.342 83.2494 118.565C84.7356 117.755 86.4752 117.349 88.4681 117.349ZM90.2414 122.872C88.7214 122.872 87.4378 123.294 86.3907 124.139C85.3774 124.949 84.6174 125.997 84.1107 127.28C83.604 128.564 83.3507 129.898 83.3507 131.283C83.3507 132.668 83.604 134.002 84.1107 135.286C84.6174 136.569 85.3774 137.633 86.3907 138.478C87.4378 139.288 88.7214 139.694 90.2414 139.694C91.7614 139.694 93.0281 139.288 94.0414 138.478C95.0548 137.633 95.8148 136.569 96.3215 135.286C96.8281 134.002 97.0815 132.668 97.0815 131.283C97.0815 129.898 96.8281 128.564 96.3215 127.28C95.8148 125.997 95.0548 124.949 94.0414 124.139C93.0281 123.294 91.7614 122.872 90.2414 122.872Z" fill="#00CC6A"/>
<path d="M121.718 145.216C119.725 145.216 117.986 144.828 116.5 144.051C115.013 143.24 113.764 142.176 112.75 140.859C111.771 139.508 111.028 138.005 110.521 136.35C110.048 134.694 109.812 133.006 109.812 131.283C109.812 129.56 110.048 127.871 110.521 126.216C111.028 124.561 111.771 123.075 112.75 121.757C113.764 120.406 115.013 119.342 116.5 118.565C117.986 117.755 119.725 117.349 121.718 117.349C123.441 117.349 124.86 117.637 125.974 118.211C127.089 118.751 127.967 119.359 128.609 120.035C129.251 120.677 129.69 121.2 129.926 121.605H130.23V106.203H136.969V144.71H130.23V140.96H129.926C129.69 141.366 129.251 141.906 128.609 142.582C127.967 143.257 127.089 143.865 125.974 144.406C124.86 144.946 123.441 145.216 121.718 145.216ZM123.492 139.694C125.012 139.694 126.278 139.288 127.292 138.478C128.305 137.633 129.065 136.569 129.572 135.286C130.078 134.002 130.332 132.668 130.332 131.283C130.332 129.898 130.078 128.564 129.572 127.28C129.065 125.997 128.305 124.949 127.292 124.139C126.278 123.294 125.012 122.872 123.492 122.872C121.972 122.872 120.688 123.294 119.641 124.139C118.628 124.949 117.868 125.997 117.361 127.28C116.854 128.564 116.601 129.898 116.601 131.283C116.601 132.668 116.854 134.002 117.361 135.286C117.868 136.569 118.628 137.633 119.641 138.478C120.688 139.288 121.972 139.694 123.492 139.694Z" fill="#00CC6A"/>
<path d="M156.942 145.216C154.004 145.216 151.504 144.558 149.444 143.24C147.383 141.923 145.812 140.217 144.731 138.123C143.684 135.995 143.161 133.715 143.161 131.283C143.161 128.851 143.684 126.588 144.731 124.493C145.812 122.365 147.383 120.643 149.444 119.325C151.504 118.008 154.004 117.349 156.942 117.349C159.915 117.349 162.414 118.008 164.441 119.325C166.501 120.643 168.055 122.365 169.102 124.493C170.183 126.588 170.724 128.851 170.724 131.283C170.724 133.715 170.183 135.995 169.102 138.123C168.055 140.217 166.501 141.923 164.441 143.24C162.414 144.558 159.915 145.216 156.942 145.216ZM156.942 139.592C158.462 139.592 159.729 139.204 160.742 138.427C161.789 137.65 162.583 136.637 163.124 135.387C163.664 134.103 163.934 132.735 163.934 131.283C163.934 129.797 163.664 128.429 163.124 127.179C162.583 125.929 161.789 124.916 160.742 124.139C159.729 123.362 158.462 122.973 156.942 122.973C155.456 122.973 154.189 123.362 153.142 124.139C152.095 124.916 151.301 125.929 150.761 127.179C150.22 128.429 149.95 129.797 149.95 131.283C149.95 132.735 150.22 134.103 150.761 135.387C151.301 136.637 152.095 137.65 153.142 138.427C154.189 139.204 155.456 139.592 156.942 139.592Z" fill="#00CC6A"/>
<path d="M187.461 145.216C185.266 145.216 183.459 144.929 182.04 144.355C180.621 143.747 179.49 143.004 178.645 142.126C177.835 141.214 177.227 140.318 176.821 139.44C176.416 138.562 176.146 137.836 176.01 137.262C175.909 136.654 175.858 136.35 175.858 136.35H182.243C182.243 136.35 182.293 136.535 182.395 136.907C182.53 137.278 182.766 137.718 183.104 138.224C183.475 138.697 184.033 139.119 184.776 139.491C185.519 139.862 186.499 140.048 187.715 140.048C189.167 140.048 190.214 139.744 190.856 139.136C191.498 138.494 191.819 137.785 191.819 137.008C191.819 136.265 191.532 135.674 190.957 135.235C190.417 134.762 189.606 134.407 188.525 134.171L184.827 133.411C183.34 133.107 181.955 132.668 180.672 132.094C179.388 131.486 178.341 130.675 177.531 129.662C176.72 128.614 176.314 127.28 176.314 125.659C176.314 123.261 177.226 121.285 179.051 119.731C180.875 118.143 183.357 117.349 186.499 117.349C188.491 117.349 190.13 117.62 191.413 118.16C192.731 118.701 193.778 119.376 194.555 120.187C195.365 120.997 195.956 121.808 196.328 122.619C196.733 123.429 196.987 124.122 197.088 124.696C197.223 125.237 197.291 125.507 197.291 125.507H191.109C191.109 125.507 191.059 125.355 190.957 125.051C190.856 124.713 190.636 124.341 190.299 123.936C189.995 123.531 189.522 123.176 188.88 122.872C188.272 122.534 187.444 122.365 186.397 122.365C184.979 122.365 183.965 122.669 183.357 123.277C182.783 123.885 182.496 124.527 182.496 125.203C182.496 125.946 182.817 126.52 183.459 126.925C184.1 127.331 184.928 127.635 185.941 127.837L189.437 128.597C191.937 129.104 193.98 129.982 195.568 131.232C197.189 132.482 198 134.289 198 136.654C198 138.241 197.578 139.694 196.733 141.011C195.923 142.294 194.724 143.325 193.136 144.102C191.582 144.845 189.691 145.216 187.461 145.216Z" fill="#00CC6A"/>
<defs>
<radialGradient id="paint0_radial_6882_31233" cx="0" cy="0" r="1" gradientUnits="userSpaceOnUse" gradientTransform="translate(119.558 4.64398) rotate(121.439) scale(86.8003)">
<stop offset="0.232163" stop-color="#925FFF"/>
<stop offset="1" stop-color="#925FFF" stop-opacity="0"/>
</radialGradient>
<radialGradient id="paint1_radial_6882_31233" cx="0" cy="0" r="1" gradientUnits="userSpaceOnUse" gradientTransform="translate(99.1728 86.6007) rotate(-34.72) scale(64.9307 42.1523)">
<stop stop-color="#5630C3"/>
<stop offset="0.27672" stop-color="#5630C3"/>
<stop offset="1" stop-color="#8B5AF8" stop-opacity="0"/>
</radialGradient>
<radialGradient id="paint2_radial_6882_31233" cx="0" cy="0" r="1" gradientUnits="userSpaceOnUse" gradientTransform="translate(83.2622 78.0237) rotate(-69.8996) scale(72.7785 65.1453)">
<stop stop-color="#5730C4"/>
<stop offset="1" stop-color="#5730C4" stop-opacity="0"/>
</radialGradient>
<radialGradient id="paint3_radial_6882_31233" cx="0" cy="0" r="1" gradientUnits="userSpaceOnUse" gradientTransform="translate(145.272 50.4024) rotate(-152.507) scale(32.6327 25.2737)">
<stop stop-color="#925FFF"/>
<stop offset="1" stop-color="#925FFF" stop-opacity="0"/>
</radialGradient>
<radialGradient id="paint4_radial_6882_31233" cx="0" cy="0" r="1" gradientUnits="userSpaceOnUse" gradientTransform="translate(122.242 60.9295) rotate(-90) scale(33.4603 36.7605)">
<stop offset="0.203244" stop-color="#00CC6A" stop-opacity="0.51"/>
<stop offset="1" stop-color="#00CC6A" stop-opacity="0"/>
</radialGradient>
<radialGradient id="paint5_radial_6882_31233" cx="0" cy="0" r="1" gradientUnits="userSpaceOnUse" gradientTransform="translate(128.462 37.0869) rotate(-164.085) scale(43.5584 22.8293)">
<stop stop-color="#00CC6A"/>
<stop offset="1" stop-color="#00CC6A" stop-opacity="0"/>
</radialGradient>
<radialGradient id="paint6_radial_6882_31233" cx="0" cy="0" r="1" gradientUnits="userSpaceOnUse" gradientTransform="translate(100.574 63.1355) rotate(-36.0151) scale(43.9153 23.0164)">
<stop offset="0.203244" stop-color="#00CC6A"/>
<stop offset="1" stop-color="#00CC6A" stop-opacity="0"/>
</radialGradient>
<radialGradient id="paint7_radial_6882_31233" cx="0" cy="0" r="1" gradientUnits="userSpaceOnUse" gradientTransform="translate(98.5311 56.1295) rotate(90) scale(11.9828 9.7542)">
<stop stop-color="#00CC6A"/>
<stop offset="0.367119" stop-color="#00CC6A"/>
<stop offset="1" stop-color="#00CC6A" stop-opacity="0"/>
</radialGradient>
<linearGradient id="paint8_linear_6882_31233" x1="78.5466" y1="19.7095" x2="78.5466" y2="77.9563" gradientUnits="userSpaceOnUse">
<stop offset="0.287156" stop-color="#1A0087" stop-opacity="0"/>
<stop offset="0.91953" stop-color="#1A0087" stop-opacity="0.5"/>
</linearGradient>
</defs>
</svg>
