<svg width="175" height="175" viewBox="0 0 175 175" fill="none" xmlns="http://www.w3.org/2000/svg">
<g clip-path="url(#clip0_1_46)">
<mask id="mask0_1_46" style="mask-type:luminance" maskUnits="userSpaceOnUse" x="-1" y="0" width="176" height="175">
<path d="M174.271 0H-0.000396729V174.274H174.271V0Z" fill="white"/>
</mask>
<g mask="url(#mask0_1_46)">
<path d="M16.9962 2.96921H157.273C160.994 2.96921 164.562 4.44726 167.193 7.07821C169.824 9.70915 171.302 13.2775 171.302 16.9982V157.277C171.302 160.998 169.824 164.566 167.194 167.197C164.563 169.827 160.995 171.305 157.274 171.305H16.9942C13.2743 171.305 9.70671 169.827 7.07632 167.197C4.44594 164.567 2.9682 160.999 2.9682 157.279V16.9972C2.9682 15.155 3.33104 13.3309 4.03602 11.6289C4.74099 9.92697 5.77429 8.38053 7.07691 7.07791C8.37953 5.77529 9.92597 4.74199 11.6279 4.03702C13.3299 3.33205 15.154 2.96921 16.9962 2.96921Z" fill="#1E2D3B"/>
<path d="M96.9585 88.9543L96.9445 58.8153L104.811 56.9483V60.8993C104.811 60.8993 106.849 55.7033 111.578 54.4973C112.285 54.2698 113.036 54.2193 113.766 54.3503V62.0403C112.35 62.0588 110.951 62.3501 109.644 62.8983C106.737 64.0463 105.274 66.5513 105.274 70.3753L105.279 87.0173L96.9585 88.9543Z" fill="#3E5F6B"/>
<path d="M55.4868 98.7549C55.4868 98.7549 54.2078 96.8369 54.2078 90.0559V75.0489L50.1598 76.0119V69.8299L54.2168 68.8719V62.1329L62.5818 60.1569V66.8959L68.4928 65.4919V71.6669L62.5818 73.0699C62.5818 73.0699 62.5728 85.3649 62.5818 88.3509C62.5818 95.2989 64.4258 96.6329 64.4258 96.6329L55.4868 98.7549Z" fill="#3E5F6B"/>
<path d="M69.3671 80.8249C69.3671 75.4669 70.1301 71.5579 71.7681 68.5579C73.7171 64.9979 76.9131 62.6779 81.5691 61.6179C90.7461 59.5309 94.0581 64.9629 93.9301 72.2469C93.8811 74.8519 93.8931 76.1209 93.8931 76.1209L77.7251 79.9209V80.1819C77.7251 85.2709 78.7921 87.6859 82.0171 87.0019C84.8031 86.4139 85.5781 84.6689 85.7981 82.5109C85.8341 82.1629 85.8511 81.2779 85.8511 81.2779L93.4251 79.4629C93.4251 79.4629 93.4431 80.0829 93.4321 80.7789C93.3661 83.6709 92.5251 90.8449 81.9981 93.3339C72.0261 95.7009 69.3671 89.6109 69.3671 80.8249ZM81.9051 67.2319C79.2261 67.8399 77.8211 70.4679 77.7601 74.8219L85.8931 72.8849C85.9071 72.6879 85.9091 72.2539 85.9071 71.5739C85.8931 68.2869 84.8771 66.5519 81.9051 67.2319Z" fill="#3E5F6B"/>
<path d="M142.079 63.2C141.766 54.021 144.147 46.736 154.388 44.416C160.915 42.933 163.394 44.631 164.649 46.272C165.856 47.838 166.322 49.95 166.322 52.908L166.329 53.451L158.317 55.355C158.317 55.355 158.311 54.275 158.311 54.24C158.317 50.732 157.342 49.398 154.794 50.036C151.764 50.797 150.54 53.673 150.54 59.391C150.54 61.421 150.549 61.785 150.549 62.059C150.549 67.87 151.343 70.53 154.835 69.799C157.864 69.173 158.279 66.513 158.328 64.181C158.334 63.815 158.349 62.643 158.349 62.643L166.349 60.753C166.349 60.753 166.357 61.344 166.357 62.001C166.337 69.621 162.321 74.423 154.797 76.174C144.431 78.604 142.401 72.614 142.079 63.2Z" fill="#3E5F6B"/>
<path d="M114.383 76.051C114.383 69.069 118.473 66.861 124.629 64.314C130.165 62.024 130.285 60.887 130.308 58.897C130.339 57.222 129.562 55.789 126.806 56.492C125.887 56.6771 125.057 57.1673 124.452 57.883C123.846 58.5987 123.5 59.498 123.47 60.435C123.425 60.9494 123.407 61.4658 123.418 61.982L115.656 63.815C115.604 62.2681 115.784 60.7222 116.192 59.229C117.433 55.054 121.115 52.245 127.471 50.774C135.729 48.871 138.482 52.495 138.492 58.132V71.481C138.492 77.937 139.69 78.883 139.69 78.883L132.07 80.686C131.649 79.8055 131.308 78.8896 131.049 77.949C131.049 77.949 129.38 82.153 123.626 83.505C117.583 84.93 114.383 81.185 114.383 76.051ZM130.255 66.517C128.97 67.4175 127.614 68.2115 126.201 68.891C123.661 70.132 122.513 71.663 122.513 74.021C122.513 76.063 123.778 77.404 126.077 76.836C128.543 76.214 130.255 73.913 130.255 70.716V66.517Z" fill="#3E5F6B"/>
<path d="M11.7486 119.882C10.8789 119.881 10.0256 119.646 9.27851 119.201C8.53142 118.755 7.91818 118.117 7.50334 117.353C7.0885 116.588 6.88742 115.726 6.92125 114.857C6.95508 113.988 7.22259 113.144 7.6956 112.414L7.7496 112.344L7.8406 112.32L19.2186 109.634V118.275L19.0416 118.316C16.4606 118.937 13.3756 119.644 12.7406 119.779C12.4145 119.848 12.082 119.883 11.7486 119.882Z" fill="#3E5F6B"/>
<path d="M11.7486 130.936C10.4683 130.937 9.24023 130.429 8.33435 129.524C7.42846 128.619 6.91888 127.392 6.91761 126.111C6.91499 125.178 7.18544 124.265 7.69561 123.484L7.74961 123.403L7.84061 123.38L19.2186 120.695V129.336L19.0416 129.382C16.4606 130.001 13.3756 130.716 12.7406 130.843C12.4138 130.907 12.0815 130.938 11.7486 130.936Z" fill="#3E5F6B"/>
<path d="M11.7486 142.012C10.4679 142.011 9.23989 141.502 8.33412 140.596C7.42836 139.691 6.9189 138.463 6.91761 137.183C6.91399 136.25 7.18453 135.336 7.69561 134.556L7.74961 134.469L19.2186 131.766V140.407L19.0416 140.453C16.3156 141.109 13.2886 141.793 12.7406 141.914C12.414 141.979 12.0817 142.012 11.7486 142.012Z" fill="#3E5F6B"/>
<path d="M10.406 109.294L10.403 60.945L19.218 58.862V107.21L10.406 109.294Z" fill="#3E5F6B"/>
<path d="M32.3621 105.181C32.3621 103.738 31.7891 102.355 30.7692 101.335C29.7493 100.315 28.366 99.7422 26.9236 99.7422C25.4812 99.7422 24.0979 100.315 23.078 101.335C22.0581 102.355 21.4851 103.738 21.4851 105.181L21.4941 150.37C21.499 154.272 23.0506 158.013 25.8091 160.774C28.5675 163.534 32.3078 165.088 36.2101 165.096C40.3271 165.096 51.6051 165.076 51.6051 165.076L51.6101 146.224C51.6131 135.924 51.6151 125.44 51.6151 125.201C51.6165 124.029 51.3285 122.875 50.7767 121.841C50.225 120.807 49.4265 119.925 48.4521 119.274L34.7311 109.955C34.7311 109.955 34.7281 130.187 34.7281 131.117C34.7281 131.427 34.6048 131.725 34.3854 131.944C34.166 132.163 33.8684 132.287 33.5581 132.287C33.2478 132.287 32.9502 132.163 32.7308 131.944C32.5114 131.725 32.3881 131.427 32.3881 131.117C32.3881 130.89 32.3621 107.976 32.3621 105.181Z" fill="#3E5F6B"/>
<path d="M39.7071 71.4653C38.0398 71.8522 36.4757 72.5945 35.1216 73.6414C33.7675 74.6883 32.6553 76.0151 31.8611 77.5313V74.1333L23.9241 76.0113L23.9331 97.7113C25.3254 97.1607 26.8428 97.0058 28.3176 97.2636C29.7924 97.5214 31.1672 98.182 32.2901 99.1723V85.1613C32.2901 81.8053 33.9601 79.1243 36.3461 78.5983C38.1411 78.2043 39.6401 78.8463 39.6401 82.0433L39.6461 102.485L48.0061 100.525V78.9003C48.0061 73.6573 45.9871 69.9923 39.7071 71.4653Z" fill="#3E5F6B"/>
<path d="M161.173 40.5209C160.151 40.5218 159.151 40.2195 158.3 39.6521C157.45 39.0847 156.787 38.2778 156.395 37.3335C156.004 36.3892 155.901 35.3499 156.1 34.3471C156.299 33.3444 156.791 32.4232 157.514 31.7002C158.236 30.9771 159.157 30.4847 160.16 30.2852C161.163 30.0858 162.202 30.1882 163.147 30.5796C164.091 30.9709 164.898 31.6336 165.466 32.4839C166.034 33.3341 166.336 34.3336 166.336 35.3559C166.335 36.725 165.79 38.0377 164.822 39.006C163.854 39.9743 162.542 40.5191 161.173 40.5209ZM161.173 30.8359C160.279 30.8357 159.405 31.1006 158.662 31.597C157.919 32.0934 157.339 32.799 156.997 33.6247C156.655 34.4503 156.565 35.3589 156.74 36.2356C156.914 37.1122 157.344 37.9175 157.976 38.5496C158.608 39.1818 159.413 39.6123 160.289 39.7869C161.166 39.9615 162.074 39.8722 162.9 39.5303C163.726 39.1885 164.432 38.6094 164.929 37.8664C165.425 37.1234 165.691 36.2497 165.691 35.3559C165.69 34.1578 165.214 33.009 164.367 32.1616C163.52 31.3142 162.371 30.8374 161.173 30.8359Z" fill="#3E5F6B"/>
<path d="M159.291 32.2766H161.518C161.736 32.2533 161.956 32.2794 162.162 32.3529C162.369 32.4264 162.556 32.5455 162.709 32.7013C162.863 32.857 162.98 33.0455 163.051 33.2526C163.122 33.4598 163.145 33.6802 163.119 33.8976C163.119 34.7156 162.756 35.3446 162.068 35.4516V35.4636C162.694 35.5276 163.023 35.8726 163.055 36.7596C163.067 37.1596 163.073 37.6556 163.092 38.0416C163.092 38.1502 163.12 38.257 163.172 38.3522C163.224 38.4474 163.3 38.528 163.391 38.5866H162.253C162.145 38.4198 162.086 38.2256 162.083 38.0266C162.048 37.6496 162.057 37.2936 162.04 36.8356C162.023 36.1476 161.812 35.8466 161.121 35.8466H160.297V38.5866H159.291V32.2766ZM161.103 35.0866C161.24 35.0991 161.378 35.0812 161.507 35.034C161.636 34.9867 161.753 34.9115 161.849 34.8136C161.945 34.7157 162.019 34.5977 162.064 34.468C162.109 34.3383 162.125 34.2002 162.11 34.0636C162.11 33.3906 161.819 33.0366 161.156 33.0366H160.297V35.0866H161.103Z" fill="#3E5F6B"/>
</g>
</g>
<defs>
<clipPath id="clip0_1_46">
<rect width="174.271" height="174.274" fill="white"/>
</clipPath>
</defs>
</svg>
