<svg width="28" height="28" viewBox="0 0 28 28" fill="none" xmlns="http://www.w3.org/2000/svg">
<rect x="0.666016" y="0.666992" width="26.6667" height="26.6667" rx="10" fill="url(#paint0_linear_5600_3960)"/>
<path d="M12.2662 15.4277L14.0397 10.0304L15.8462 15.4277H12.2662ZM19.7847 18.8408L18.3177 14.8119H19.1935C19.3612 14.8105 19.5216 14.743 19.64 14.6242C19.7583 14.5053 19.8251 14.3446 19.8258 14.1769C19.8258 14.0978 19.8102 14.0195 19.7799 13.9465C19.7497 13.8734 19.7053 13.8071 19.6494 13.7511C19.5935 13.6952 19.5271 13.6509 19.4541 13.6206C19.381 13.5904 19.3027 13.5748 19.2236 13.5748H17.8551L17.6362 12.948H19.1935C19.3577 12.9481 19.5154 12.884 19.6329 12.7695C19.7505 12.6549 19.8188 12.499 19.823 12.3349C19.8234 12.2518 19.8073 12.1694 19.7756 12.0925C19.744 12.0157 19.6974 11.9458 19.6387 11.887C19.5799 11.8283 19.51 11.7817 19.4332 11.7501C19.3563 11.7184 19.2739 11.7023 19.1908 11.7027H17.1681L16.0733 8.69196C15.9098 8.26181 15.6395 7.88034 15.2878 7.58347C14.9404 7.29777 14.5001 7.1497 14.0507 7.16744C13.6001 7.15312 13.1592 7.30072 12.8081 7.58347C12.4562 7.88075 12.1851 8.26202 12.0198 8.69196L10.873 11.73H8.86132C8.70064 11.73 8.54651 11.7937 8.43264 11.907C8.31877 12.0204 8.25443 12.1742 8.2537 12.3349C8.2537 12.5019 8.32003 12.662 8.43808 12.78C8.55614 12.8981 8.71626 12.9644 8.88322 12.9644H10.4105L10.1751 13.5748H8.80658C8.64543 13.5748 8.49088 13.6388 8.37693 13.7527C8.26298 13.8667 8.19897 14.0212 8.19897 14.1824C8.19896 14.3474 8.26433 14.5057 8.38077 14.6227C8.49721 14.7396 8.65524 14.8057 8.82027 14.8064H9.69885L8.20718 18.8408C8.1155 19.0682 8.06454 19.31 8.05664 19.5551C8.07219 19.899 8.22148 20.2231 8.47267 20.4584C8.74907 20.6978 9.10328 20.8282 9.46894 20.8251C9.77608 20.8419 10.0797 20.7527 10.3288 20.5723C10.578 20.3919 10.7575 20.1314 10.8374 19.8343L11.4149 18.1127H16.7275L17.305 19.8754C17.3954 20.1625 17.5792 20.4111 17.8272 20.5817C18.0752 20.7523 18.3731 20.8351 18.6735 20.8169C18.9035 20.8215 19.1305 20.7638 19.3304 20.6499C19.5038 20.5212 19.6577 20.3682 19.7875 20.1956C19.9005 20.0013 19.9582 19.7799 19.9544 19.5551C19.9182 19.3162 19.8614 19.0809 19.7847 18.8517V18.8408Z" fill="#FEFEFE"/>
<defs>
<linearGradient id="paint0_linear_5600_3960" x1="6.21997" y1="5.57495" x2="24.3107" y2="25.1685" gradientUnits="userSpaceOnUse">
<stop stop-color="#FC8F55"/>
<stop offset="0.44" stop-color="#FE7A6A"/>
<stop offset="1" stop-color="#FE687C"/>
</linearGradient>
</defs>
</svg>
