<svg width="32" height="32" viewBox="0 0 32 32" fill="none" xmlns="http://www.w3.org/2000/svg">
<path d="M15.9993 29.3337C23.3631 29.3337 29.3327 23.3641 29.3327 16.0003C29.3327 8.63653 23.3631 2.66699 15.9993 2.66699C8.63555 2.66699 2.66602 8.63653 2.66602 16.0003C2.66602 23.3641 8.63555 29.3337 15.9993 29.3337Z" fill="#4BCF51"/>
<path d="M9.07057 12.0705C9.52999 11.9496 9.96859 11.7926 10.428 11.6717C10.8874 11.5508 11.326 11.3938 11.7855 11.2729C11.9146 11.2464 11.9298 11.1895 11.9034 11.0604C11.6936 10.3637 11.5046 9.70299 11.2947 9.00622C11.2683 8.87714 11.2836 8.82022 11.4127 8.7938C11.836 8.69372 12.2024 8.57839 12.6049 8.44223C12.734 8.41581 12.7549 8.4519 12.7604 8.5449C12.9494 9.20558 13.1593 9.90235 13.3483 10.563C13.3691 10.5991 13.3899 10.6352 13.3955 10.7282C13.7259 10.6337 14.0923 10.5184 14.4226 10.4239C14.4587 10.403 14.4531 10.31 14.4684 10.2531C14.3058 9.72153 14.164 9.22602 14.0376 8.67359L13.8958 8.17807C13.8541 8.1059 13.8694 8.04899 13.9624 8.0434C14.3857 7.94332 14.7882 7.80716 15.2477 7.68625C15.2838 7.66541 15.3046 7.7015 15.3407 7.68066C15.5033 8.21226 15.645 8.70777 15.7867 9.20329C15.8548 9.40454 15.9229 9.6058 15.9549 9.82789C15.9813 9.95697 16.0382 9.97222 16.1673 9.94581L17.6706 9.79957C18.1565 9.80775 18.6479 9.90892 19.1088 10.1239C19.7461 10.4777 20.1155 11.0342 20.3045 11.6949C20.4254 12.1543 20.4894 12.5985 20.3674 13.0538C20.2759 13.3954 20.0705 13.7064 19.8444 13.9813C19.8083 14.0021 19.793 14.059 19.7209 14.1007C19.9277 14.1256 20.1137 14.1144 20.3205 14.1394C20.941 14.2141 21.4589 14.4444 21.8949 14.8662C22.1962 15.2215 22.4101 15.6753 22.5311 16.1348C22.6784 16.7233 22.748 17.2605 22.6524 17.8449C22.5263 18.5432 22.1669 19.0874 21.6312 19.4929C20.936 20.0387 20.1726 20.3832 19.3884 20.6916C19.2593 20.718 19.208 20.7958 19.2344 20.9248C19.4234 21.5855 19.6333 22.2823 19.8222 22.943C19.8695 23.1081 19.8903 23.1442 19.6682 23.1762C19.3018 23.2916 18.8785 23.3916 18.512 23.507C18.383 23.5334 18.3621 23.4973 18.3565 23.4043C18.1467 22.7075 17.9369 22.0108 17.784 21.3292C17.7423 21.2571 17.7576 21.2002 17.6646 21.2057C17.3342 21.3002 17.0039 21.3947 16.6374 21.5101C16.7528 21.8765 16.832 22.2638 16.9474 22.6302C17.0627 22.9966 17.1419 23.3839 17.2573 23.7503C17.2628 23.8433 17.2837 23.8794 17.1546 23.9058C16.7312 24.0059 16.3287 24.142 15.9262 24.2782C15.7971 24.3046 15.7763 24.2685 15.7707 24.1755C15.5609 23.4788 15.3511 22.782 15.1982 22.1005C15.1773 22.0644 15.1926 22.0075 15.1509 21.9353C14.196 22.198 13.241 22.4606 12.25 22.7441C12.2388 22.5581 12.2124 22.429 12.2013 22.243C12.1581 21.8349 12.1149 21.4268 12.0565 21.0757C12.0301 20.9466 12.0662 20.9257 12.1744 20.8632C12.4687 20.7896 12.799 20.6951 13.0725 20.5853C13.4028 20.4908 13.536 20.2215 13.4262 19.9481C12.8328 17.8369 12.2394 15.7258 11.5891 13.5994C11.4946 13.2691 11.1267 13.0485 10.7394 13.1277C10.3522 13.207 9.98574 13.3223 9.65539 13.4168C9.58323 13.4585 9.52631 13.4432 9.52073 13.3502C9.39981 12.8908 9.25807 12.3953 9.13715 11.9358C9.05531 12.1274 9.05531 12.1274 9.07057 12.0705ZM16.0567 19.9209C16.0928 19.9 16.1497 19.9153 16.1497 19.9153C16.8104 19.7263 17.528 19.5525 18.1623 19.2345C18.6161 19.0205 19.013 18.7914 19.3266 18.4179C19.8872 17.8055 19.6551 16.7368 18.9248 16.3886C18.5777 16.2041 18.1849 16.1903 17.792 16.1765C16.9342 16.1907 16.0931 16.4839 15.2881 16.7562C15.159 16.7826 15.1798 16.8187 15.2062 16.9478C15.3424 17.3503 15.4216 17.7376 15.5578 18.1401C15.7051 18.7286 15.8885 19.2963 16.0567 19.9209ZM16.9628 14.4903C17.035 14.4486 17.1945 14.3083 17.3181 14.1889C17.9203 13.6487 17.8228 12.6466 17.1078 12.2415C16.7399 12.0209 16.2901 11.9919 15.882 12.035C15.2519 12.1102 14.6842 12.2936 14.0596 12.4618C13.9305 12.4882 13.9152 12.5451 13.9417 12.6742C14.1987 13.5361 14.435 14.362 14.656 15.2447C14.6616 15.3377 14.7185 15.353 14.8115 15.3474C14.9767 15.3002 15.1057 15.2737 15.2709 15.2265C15.8538 14.9862 16.3854 14.8236 16.9628 14.4903Z" fill="white"/>
</svg>
