<svg width="32" height="32" viewBox="0 0 32 32" fill="none" xmlns="http://www.w3.org/2000/svg">
<path fillRule="evenodd" clipRule="evenodd" d="M7.55217 4.5176L2.68783 14.7331C2.66838 14.7701 2.66168 14.8125 2.66877 14.8537C2.67586 14.8949 2.69634 14.9326 2.72705 14.961L15.858 27.5498C15.8958 27.5839 15.9448 27.6027 15.9957 27.6027C16.0466 27.6027 16.0956 27.5839 16.1334 27.5498L29.2722 14.961C29.3026 14.9324 29.3228 14.8947 29.3299 14.8536C29.337 14.8125 29.3305 14.7702 29.3114 14.7331L24.4471 4.5176C24.4341 4.48207 24.4103 4.45152 24.379 4.43032C24.3477 4.40911 24.3105 4.39833 24.2727 4.3995H7.72474C7.68745 4.40052 7.65123 4.41218 7.62034 4.43311C7.58946 4.45403 7.5652 4.48335 7.55042 4.5176H7.55217Z" fill="#50AF95"/>
<path fillRule="evenodd" clipRule="evenodd" d="M17.6887 15.7781C17.5946 15.786 17.1074 15.8173 16.0227 15.8173C15.1585 15.8173 14.5453 15.7938 14.3253 15.7781C10.9858 15.6291 8.49475 15.0473 8.49475 14.3557C8.49475 13.6641 10.9858 13.0749 14.3253 12.9258V15.1968C14.5431 15.2125 15.1663 15.2517 16.0305 15.2517C17.0677 15.2517 17.5863 15.2046 17.6809 15.1968V12.9258C21.0125 13.0749 23.5035 13.6567 23.5035 14.3478C23.5035 15.039 21.0195 15.6291 17.6887 15.7781ZM17.6887 12.6979V10.6623H22.3408V7.55859H9.67358V10.6623H14.3253V12.6979C10.5456 12.8722 7.70117 13.617 7.70117 14.5209C7.70117 15.4247 10.5456 16.1634 14.3253 16.3438V22.8585H17.6887V16.3438C21.4605 16.1695 24.2975 15.4243 24.2975 14.5287C24.2975 13.6331 21.4605 12.8705 17.6887 12.6984V12.6979Z" fill="white"/>
</svg>
