<svg width="31" height="28" viewBox="0 0 31 28" fill="none" xmlns="http://www.w3.org/2000/svg">
<g clip-path="url(#clip0_813_12310)">
<path d="M0 28.0016H30.0973V13.4805H0V28.0016ZM20.7215 16.5193H27.1298V18.3727L25.4148 20.9897C24.7228 22.0456 24.357 23.2664 24.357 24.5201V25.2174H22.5935V24.5201C22.5935 22.937 23.0554 21.3955 23.9292 20.062L25.1226 18.2409H22.485V19.911H20.7215V16.5193ZM11.8445 16.5193H18.2528V18.3727L16.5378 20.9897C15.8458 22.0456 15.48 23.2664 15.48 24.5201V25.2174H13.7165V24.5201C13.7165 22.937 14.1784 21.3955 15.0522 20.062L16.2456 18.2409H13.608V19.911H11.8445L11.8445 16.5193ZM2.8499 16.5193H9.25815V18.3727L7.54314 20.9897C6.85113 22.0456 6.48538 23.2664 6.48538 24.5201V25.2174H4.72187V24.5201C4.72187 22.937 5.18373 21.3955 6.05761 20.062L7.25098 18.2409H4.61341V19.911H2.8499V16.5193Z" fill="white"/>
<path d="M1.74018 11.0415L4.5558 10.4172L7.37143 11.0415L7.63331 8.23445L9.11155 5.81321L6.45781 4.70263L4.5558 2.58203L2.65379 4.70263L0 5.81321L1.47824 8.23445L1.74018 11.0415Z" fill="white"/>
<path d="M12.2329 8.45946L15.0485 7.83517L17.8641 8.45946L18.126 5.65242L19.6043 3.23129L16.9505 2.12066L15.0485 0L13.1465 2.12066L10.4927 3.23129L11.9709 5.65242L12.2329 8.45946Z" fill="white"/>
<path d="M22.7264 11.0415L25.5421 10.4172L28.3577 11.0415L28.6196 8.23445L30.0979 5.81321L27.4441 4.70263L25.5421 2.58203L23.6401 4.70263L20.9863 5.81321L22.4646 8.23445L22.7264 11.0415Z" fill="white"/>
</g>
<defs>
<clipPath id="clip0_813_12310">
<rect width="30.0978" height="28" fill="white"/>
</clipPath>
</defs>
</svg>
