<svg width="29" height="28" viewBox="0 0 29 28" fill="none" xmlns="http://www.w3.org/2000/svg">
<path d="M27.9954 17.3138C27.4552 17.1682 26.8851 17.176 26.349 17.3362C26.2062 17.3838 25.6686 17.6526 24.9098 18.0474C24.8932 18.0445 24.8761 18.0445 24.8594 18.0474C24.8594 18.0474 23.913 18.2042 21.463 18.0782C22.8725 17.2732 24.0536 16.1222 24.8947 14.7339C25.7358 13.3457 26.2092 11.766 26.2703 10.144C26.3313 8.52192 25.978 6.91109 25.2436 5.46356C24.5092 4.01602 23.4179 2.77954 22.073 1.87085C20.728 0.962169 19.1736 0.411265 17.5565 0.270155C15.9395 0.129045 14.3132 0.402385 12.8311 1.06437C11.3491 1.72635 10.0602 2.75513 9.08615 4.05358C8.11212 5.35203 7.48508 6.87731 7.26425 8.48539C6.86667 7.33906 6.56877 6.16055 6.37385 4.96299C6.67521 4.70322 6.91737 4.38186 7.08401 4.02057C7.25065 3.65928 7.33789 3.26646 7.33985 2.86859C7.32969 2.48173 7.24339 2.10066 7.0859 1.74716C6.9284 1.39366 6.70279 1.07466 6.42196 0.808389C6.14113 0.542119 5.81058 0.333797 5.4492 0.195329C5.08782 0.0568605 4.7027 -0.00903975 4.31585 0.00139394C3.92806 -0.0105399 3.54174 0.0542493 3.17907 0.192041C2.8164 0.329832 2.48452 0.537912 2.20249 0.804329C1.92046 1.07075 1.69384 1.39025 1.53564 1.7445C1.37745 2.09875 1.29079 2.48076 1.28065 2.86859C1.28146 3.29899 1.38412 3.72308 1.58025 4.10619C1.43825 4.48947 1.32408 4.88249 1.23865 5.28219C1.10534 5.90467 1.0322 6.53852 1.02025 7.17499C0.922246 8.81859 0.757046 16.667 5.90065 20.8558C10.9546 24.9718 14.8354 26.2094 15.7146 26.4558C15.7411 26.6719 15.7889 26.8848 15.8574 27.0914C16.1962 28.0826 17.1426 28.175 18.047 27.8138C18.9514 27.4526 24.431 24.2914 26.671 23.0734C27.6538 22.5386 28.1326 22.169 28.3734 21.8946C28.5274 21.7826 28.8494 21.427 28.9586 20.4106C29.107 19.0918 28.7962 17.5014 27.9954 17.3138ZM17.6718 21.6426C8.89665 18.3918 5.42745 13.8306 4.06105 10.577C3.37507 8.96622 3.03729 7.22865 3.06985 5.47819C3.39257 5.61588 3.73617 5.69823 4.08625 5.72179C4.29486 7.2121 4.72819 8.66217 5.37145 10.0226C6.14726 11.6536 7.17114 13.1544 8.40665 14.4718C9.04372 15.5975 9.90202 16.5827 10.9299 17.3681C11.9577 18.1534 13.1338 18.7226 14.3874 19.0414C15.8612 19.8501 17.3911 20.5519 18.9654 21.1414L17.8006 21.7574C17.7691 21.708 17.7245 21.6683 17.6718 21.6426ZM19.6318 20.7802C19.6125 20.7639 19.5908 20.7507 19.5674 20.741C18.4244 20.3223 17.303 19.8466 16.2074 19.3158C16.3782 19.3158 16.549 19.3158 16.7198 19.3158C17.1234 19.3151 17.5264 19.289 17.9266 19.2374C19.0662 19.649 20.1246 19.9598 20.7966 20.1446L19.6318 20.7802ZM23.4398 18.7278H23.4762L21.5554 19.7526C21.2278 19.6686 20.2702 19.4138 19.1026 19.0302C19.5448 18.9163 19.9781 18.7703 20.399 18.5934C21.771 18.697 22.7622 18.7278 23.4482 18.7278H23.4398ZM6.91985 9.34219C7.00105 9.54379 7.08785 9.73699 7.17185 9.93299C7.18499 10.8057 7.31783 11.6724 7.56665 12.509C6.93959 11.6677 6.39747 10.7664 5.94825 9.81819C5.33107 8.51799 4.91293 7.13236 4.70785 5.70779C5.0913 5.65989 5.46252 5.54121 5.80265 5.35779C6.04478 6.71966 6.42087 8.05428 6.92545 9.34219H6.91985ZM2.45385 5.14219C2.36356 7.0675 2.71207 8.98815 3.47305 10.759C4.45093 13.0242 5.92331 15.0419 7.78225 16.6642C10.1734 18.8118 13.3374 20.6374 17.1874 22.0906L16.3474 22.5442C14.3596 21.8497 12.4377 20.9792 10.6046 19.943C7.77385 18.3414 4.09745 15.6646 2.60225 12.0162C1.42345 9.13219 1.56065 6.82779 1.85465 5.39979C1.90505 5.17579 1.96385 4.95739 2.02825 4.74179C2.15988 4.88349 2.30422 5.01283 2.45945 5.12819L2.45385 5.14219Z" fill="white"/>
</svg>
