<svg width="18" height="18" viewBox="0 0 16 16" fill="#527491" xmlns="http://www.w3.org/2000/svg" class="styles_icon__M3-j_"><path id="Vector" d="M8.84 2a6.006 6.006 0 0 0-6.173 6H1.473a.33.33 0 0 0-.233.567l1.86 1.866a.33.33 0 0 0 .473 0l1.86-1.866A.333.333 0 0 0 5.193 8H4c0-2.6 2.12-4.7 4.733-4.667 2.48.034 4.567 2.12 4.6 4.6a4.67 4.67 0 0 1-4.666 4.734 4.597 4.597 0 0 1-2.854-.987.666.666 0 0 0-.827 1.047A5.905 5.905 0 0 0 8.667 14a6.006 6.006 0 0 0 6-6.173C14.58 4.7 11.967 2.087 8.84 2ZM8.5 5.333c-.273 0-.5.227-.5.5v2.454c0 .233.127.453.327.573l2.08 1.233c.24.14.546.06.686-.173a.505.505 0 0 0-.173-.687L9 8.093V5.827a.502.502 0 0 0-.5-.494Z" fill="inherit"></path></svg>