<svg width="16" height="16" viewBox="0 0 16 16" fill="#527491" xmlns="http://www.w3.org/2000/svg" class="styles_icon__M3-j_"><path d="M6.375 6.781a.813.813 0 0 0-.813-.812h-.406c-.897 0-1.625.727-1.625 1.625v1.218c0 .898.728 1.626 1.625 1.626h.407a.813.813 0 0 0 .812-.813V6.781Zm4.469 3.657c.897 0 1.625-.728 1.625-1.626V7.595c0-.898-.728-1.625-1.625-1.625h-.406a.813.813 0 0 0-.813.812v2.844c0 .449.364.813.813.813h.406ZM8 1.5C4.374 1.5 1.616 4.517 1.5 8v.406c0 .225.182.406.406.406h.407a.406.406 0 0 0 .406-.406V8A5.287 5.287 0 0 1 8 2.719 5.287 5.287 0 0 1 13.281 8h-.003c.002.062.003 4.208.003 4.208 0 .593-.48 1.073-1.073 1.073H9.625c0-.673-.546-1.219-1.219-1.219h-.812a1.219 1.219 0 1 0 0 2.438h4.614a2.292 2.292 0 0 0 2.292-2.292V8c-.116-3.483-2.874-6.5-6.5-6.5Z" fill="inherit"></path></svg>