<svg width="16" height="16" viewBox="0 0 16 16" fill="none" xmlns="http://www.w3.org/2000/svg" class="styles_icon__M3-j_"><path d="M8.001 7.983c-.733 0-1.333-.233-1.8-.7-.466-.467-.7-1.067-.7-1.8 0-.733.234-1.333.7-1.8.467-.467 1.067-.7 1.8-.7.734 0 1.334.233 1.8.7.467.467.7 1.067.7 1.8 0 .733-.233 1.333-.7 1.8-.466.467-1.066.7-1.8.7Zm-4.333 5.35a.964.964 0 0 1-.708-.292.964.964 0 0 1-.292-.708v-.567c0-.422.106-.783.317-1.083.21-.3.483-.528.816-.683a12.528 12.528 0 0 1 2.142-.75A8.657 8.657 0 0 1 8.001 9c.69 0 1.373.086 2.05.258.678.172 1.39.42 2.134.742.344.155.622.383.833.683.211.3.317.661.317 1.083v.567a.964.964 0 0 1-.292.708.964.964 0 0 1-.708.292H3.668Z" fill="#527491"></path></svg>