<svg width="16" height="16" viewBox="0 0 16 16" fill="#527491" xmlns="http://www.w3.org/2000/svg" class="styles_icon__M3-j_"><path d="M2.583 2.5c-.598 0-1.083.471-1.083 1.048v8.38c0 .58.485 1.048 1.083 1.048h.542v.524h2.167v-.524h5.416v.524h2.167v-.524h.542c.598 0 1.083-.469 1.083-1.047V3.548c0-.577-.485-1.048-1.083-1.048H2.583ZM8 3.548c2.243 0 4.062 1.728 4.062 3.928 0 2.148-1.819 3.929-4.062 3.929-2.244 0-4.062-1.781-4.062-3.929 0-2.2 1.818-3.928 4.062-3.928Zm0 1.047a3.05 3.05 0 0 0-1.798.578l.308.312-.014.013L8 6.952l1.504-1.454-.015-.013.31-.312a3.049 3.049 0 0 0-1.8-.578H8ZM5.635 5.713a2.801 2.801 0 0 0 .01 3.515l1.813-1.752-1.823-1.763Zm4.73 0L8.541 7.476l1.812 1.753a2.802 2.802 0 0 0 .01-3.516ZM8 8 6.188 9.752a3.014 3.014 0 0 0 3.624 0L8 8Z" fill="inherit"></path></svg>