<svg width="144" height="150" viewBox="0 0 144 150" fill="none" xmlns="http://www.w3.org/2000/svg"><path fill-rule="evenodd" clip-rule="evenodd" d="M106.591 86.79c1.118-3.25 4.512-4.924 7.582-3.742l19.456 7.495c3.07 1.183 4.653 4.775 3.536 8.025l-14.163 41.183c-1.117 3.25-4.512 4.925-7.582 3.742l-19.456-7.494c-3.07-1.183-4.653-4.776-3.535-8.025L106.59 86.79Zm1.267 17.75c-1.727.851-2.474 3.022-1.667 4.849l3.518 7.969.006.013.603 1.366a3.58 3.58 0 0 0 1.351 1.586 3.332 3.332 0 0 0 1.661.521 3.271 3.271 0 0 0 1.577-.34l1.291-.635.013-.007 7.535-3.71c1.727-.851 2.474-3.022 1.667-4.849l-.603-1.366c-.806-1.827-2.861-2.618-4.589-1.768l-4.419 2.177-2.064-4.674c-.806-1.827-2.861-2.619-4.589-1.768l-1.291.636Z" fill="#314B61"></path><path d="M100.631 83.048c.348-.134.7-.231 1.053-.294L86.943 125.62 77.64 98.568c-1.118-3.25.465-6.842 3.535-8.025l19.456-7.495ZM30.158 110.07a2.607 2.607 0 0 1-.952-3.558 2.599 2.599 0 0 1 3.552-.953l4.504 2.605 2.6-4.511a2.598 2.598 0 0 1 3.552-.954 2.607 2.607 0 0 1 .951 3.558l-2.6 4.511 4.504 2.605a2.606 2.606 0 0 1 .952 3.557 2.598 2.598 0 0 1-3.552.954l-4.504-2.605-2.6 4.511a2.597 2.597 0 0 1-3.552.953 2.606 2.606 0 0 1-.952-3.557l2.6-4.511-4.503-2.605Z" fill="#314B61"></path><path fill-rule="evenodd" clip-rule="evenodd" d="M65.84 104.306c4.089 15.284-4.966 30.993-20.224 35.088-15.258 4.095-30.941-4.974-35.03-20.258-4.088-15.283 4.967-30.992 20.225-35.088 15.258-4.095 30.941 4.975 35.03 20.258Zm-28.319 30.851.154-5.208a18.153 18.153 0 0 1-8.089-2.174l-2.465 4.586a23.344 23.344 0 0 0 10.4 2.796Zm12.993-3.488-2.733-4.433a18.185 18.185 0 0 0 5.918-5.935l4.425 2.737a23.387 23.387 0 0 1-7.61 7.631Zm.218-16.429.086-.319c.53-2.089.55-4.34-.047-6.57a12.97 12.97 0 0 0-3.193-5.666l-.327-.327c-3.174-3.069-7.83-4.442-12.403-3.215-4.548 1.221-7.884 4.712-9.117 8.93l-.155.58a12.985 12.985 0 0 0 .08 6.439 12.965 12.965 0 0 0 3.22 5.693l.27.273c3.176 3.088 7.846 4.473 12.432 3.242 4.595-1.233 7.952-4.784 9.154-9.06Zm10.878-4.213-5.2.154a18.312 18.312 0 0 0-.616-4.178 18.294 18.294 0 0 0-1.551-3.927l4.58-2.47a23.529 23.529 0 0 1 1.994 5.049c.48 1.793.739 3.593.793 5.372ZM49.308 91.083l-2.465 4.586a18.159 18.159 0 0 0-8.09-2.176l.154-5.208a23.346 23.346 0 0 1 10.401 2.798Zm-23.394.69 2.733 4.433a18.197 18.197 0 0 0-5.92 5.937l-4.425-2.737a23.396 23.396 0 0 1 7.612-7.633Zm-11.097 20.646 5.2-.155a18.31 18.31 0 0 0 .616 4.176c.373 1.396.898 2.71 1.553 3.929l-4.58 2.471a23.537 23.537 0 0 1-1.997-5.052 23.53 23.53 0 0 1-.792-5.369Z" fill="#314B61"></path><path d="m108.666 5.695-29.638 17.14a5.66 5.66 0 0 0-2.651 3.453 5.777 5.777 0 0 0 .564 4.349l17.114 29.691a5.76 5.76 0 0 0 3.477 2.664 5.644 5.644 0 0 0 4.312-.574l29.638-17.14a5.66 5.66 0 0 0 2.654-3.453 5.777 5.777 0 0 0-.564-4.35L116.46 7.786a5.794 5.794 0 0 0-1.479-1.68 5.731 5.731 0 0 0-2.001-.986 5.629 5.629 0 0 0-4.314.575Zm-4.732 48.92a5.622 5.622 0 0 1-2.097.72c-.74.099-1.493.05-2.217-.145a5.73 5.73 0 0 1-2-.987 5.784 5.784 0 0 1-1.48-1.679 5.796 5.796 0 0 1-.712-2.123 5.756 5.756 0 0 1 .147-2.229 5.687 5.687 0 0 1 .984-1.995 5.636 5.636 0 0 1 1.67-1.46 5.642 5.642 0 0 1 4.313-.572 5.76 5.76 0 0 1 3.478 2.666 5.776 5.776 0 0 1 .566 4.35 5.659 5.659 0 0 1-2.652 3.454Zm-11.41-19.794a5.627 5.627 0 0 1-2.096.72c-.74.098-1.494.05-2.217-.145a5.73 5.73 0 0 1-2-.987 5.786 5.786 0 0 1-1.48-1.68 5.777 5.777 0 0 1-.563-4.35 5.659 5.659 0 0 1 2.654-3.453c1.3-.759 2.85-.965 4.31-.573a5.76 5.76 0 0 1 3.479 2.663c.373.655.616 1.376.713 2.122a5.754 5.754 0 0 1-.145 2.23 5.687 5.687 0 0 1-.983 1.996 5.634 5.634 0 0 1-1.67 1.46l-.001-.003Zm31.169 8.367a5.628 5.628 0 0 1-2.097.72c-.74.1-1.493.05-2.217-.144a5.73 5.73 0 0 1-2.001-.987 5.793 5.793 0 0 1-1.479-1.68 5.8 5.8 0 0 1-.712-2.122 5.754 5.754 0 0 1 .147-2.23 5.651 5.651 0 0 1 2.654-3.455 5.644 5.644 0 0 1 4.313-.572 5.76 5.76 0 0 1 3.478 2.666 5.78 5.78 0 0 1 .566 4.35 5.659 5.659 0 0 1-2.652 3.454Zm-11.409-19.794a5.628 5.628 0 0 1-2.097.72 5.67 5.67 0 0 1-2.218-.145 5.734 5.734 0 0 1-2-.987 5.778 5.778 0 0 1-1.479-1.68 5.777 5.777 0 0 1-.564-4.35 5.66 5.66 0 0 1 2.654-3.452 5.645 5.645 0 0 1 4.312-.574 5.758 5.758 0 0 1 3.477 2.663 5.771 5.771 0 0 1 .566 4.35 5.661 5.661 0 0 1-2.651 3.455Z" fill="#314B61"></path><path fill-rule="evenodd" clip-rule="evenodd" d="m23.76 46.549 7.228 7.241 7.23-7.241 7.228 7.241 7.23-7.241-7.231-7.24 19.277-19.31v-7.251l-7.227.01-19.28 19.31L18.94 12.767h-7.23V20l19.278 19.309-7.229 7.241Zm33.087 0 3.882 3.903-3.336 3.32 7.33 7.334-4.73 4.752-7.33-7.335-3.335 3.338-3.882-3.904 11.4-11.408ZM27.103 61.876l-3.339-3.341-7.319 7.323-4.734-4.756 7.3-7.324-3.32-3.322 3.886-3.907 11.411 11.42-3.885 3.907Z" fill="#314B61"></path></svg>