<svg xmlns="http://www.w3.org/2000/svg" width="18" height="14.4" viewBox="0 0 18 14.4"><path d="M8.064,64.268,4.727,67.6H.9a.9.9,0,0,0-.9.9v5.4a.9.9,0,0,0,.9.9H4.727L8.064,78.14A.9.9,0,0,0,9.6,77.5V64.9A.9.9,0,0,0,8.064,64.268ZM18,71.2a6.924,6.924,0,0,0-3.216-5.859.9.9,0,0,0-1.242.28.911.911,0,0,0,.278,1.251,5.125,5.125,0,0,1,0,8.657.911.911,0,0,0-.278,1.251.9.9,0,0,0,1.242.28A6.924,6.924,0,0,0,18,71.2Zm-5.316-2.883a.9.9,0,0,0-.868,1.577,1.478,1.478,0,0,1,0,2.611.9.9,0,0,0,.868,1.577,3.279,3.279,0,0,0,0-5.765Z" transform="translate(0 -64.004)" fill="#fff"/></svg>