<svg width="375" height="42" viewBox="0 0 375 42" fill="none" xmlns="http://www.w3.org/2000/svg">
<rect width="375" height="42" fill="white"/>
<path d="M71.5252 12.4166C70.3314 11.4847 68.6376 11.0188 66.4439 11.0188H59.2805L55.8929 27.5988H60.6848L61.5555 23.2643H64.9431C66.6206 23.2643 68.0932 22.9799 69.3598 22.4121C70.6263 21.8432 71.6022 21.0387 72.2876 19.9965C72.9729 18.9543 73.3155 17.738 73.3155 16.3488C73.3155 14.6581 72.7191 13.3484 71.5252 12.4166ZM67.6172 18.8344C67.0446 19.3236 66.2259 19.5688 65.1611 19.5688H62.3059L63.2981 14.7133H65.8149C66.6694 14.7133 67.3276 14.8831 67.7874 15.2227C68.2472 15.5623 68.4771 16.0717 68.4771 16.7499C68.476 17.651 68.1897 18.3451 67.6172 18.8344Z" fill="black"/>
<path d="M85.1255 14.7612L84.811 16.3012C84.0368 15.1326 82.6976 14.5479 80.7934 14.5479C79.502 14.5479 78.3124 14.8716 77.2237 15.519C76.135 16.1664 75.2718 17.0547 74.6342 18.1839C73.9966 19.3132 73.6778 20.573 73.6778 21.9612C73.6778 23.1615 73.9359 24.2037 74.452 25.0878C74.9682 25.9719 75.6503 26.6469 76.4972 27.1128C77.3441 27.5787 78.2517 27.8112 79.22 27.8112C80.7045 27.8112 81.97 27.3378 83.0197 26.3901L82.754 27.5979H87.1099L89.7232 14.7601H85.1255V14.7612ZM83.0685 23.1934C82.4872 23.8567 81.7379 24.1878 80.8173 24.1878C80.0431 24.1878 79.4336 23.9713 78.9901 23.5362C78.5466 23.1021 78.3243 22.5056 78.3243 21.7479C78.3243 20.6738 78.6149 19.8056 79.1951 19.1423C79.7763 18.479 80.5256 18.1479 81.4462 18.1479C82.2205 18.1479 82.8288 18.3697 83.2734 18.8112C83.7169 19.2537 83.9392 19.8534 83.9392 20.6112C83.9403 21.6693 83.6497 22.53 83.0685 23.1934Z" fill="black"/>
<path d="M101.993 14.761L97.1533 22.6477L95.5083 14.761H90.9344L93.911 27.6932C93.6204 28.1039 93.3298 28.4 93.0403 28.5815C92.7497 28.763 92.3951 28.8543 91.9754 28.8543C91.2012 28.8543 90.5235 28.6091 89.9422 28.1198L87.8852 31.2942C88.2886 31.6264 88.8329 31.8939 89.5183 32.0998C90.2036 32.3046 90.8932 32.4076 91.5872 32.4076C92.5393 32.4076 93.3699 32.277 94.0802 32.017C94.7894 31.7559 95.4639 31.3218 96.1015 30.7148C96.7391 30.1066 97.4038 29.2586 98.0978 28.1687L106.495 14.7631H101.993V14.761Z" fill="black"/>
<path d="M21.7667 27.0557C20.5001 26.4401 19.5253 25.5804 18.84 24.4745C18.1546 23.3697 17.812 22.1067 17.812 20.6867C17.812 18.7922 18.2598 17.0877 19.1544 15.5732C20.049 14.0577 21.2993 12.8743 22.9042 12.0221C24.5091 11.1698 26.3351 10.7432 28.3835 10.7432C30.0925 10.7432 31.5802 11.0509 32.8468 11.6665C34.1123 12.2821 35.0882 13.1428 35.7735 14.2476C36.4588 15.3525 36.8015 16.6155 36.8015 18.0355C36.8015 19.93 36.3537 21.6344 35.459 23.1489C34.5644 24.6645 33.3142 25.8479 31.7093 26.7001C30.1044 27.5524 28.2783 27.979 26.23 27.979C24.5199 27.979 23.0321 27.6712 21.7667 27.0557ZM29.4473 23.3145C30.2541 22.7934 30.8743 22.0951 31.3102 21.2195C31.7462 20.3439 31.963 19.377 31.963 18.3189C31.963 17.1981 31.6117 16.3024 30.9101 15.6316C30.2085 14.9609 29.2293 14.6255 27.9715 14.6255C26.9066 14.6255 25.9719 14.8855 25.1651 15.4066C24.3583 15.9277 23.7381 16.6261 23.3022 17.5017C22.8662 18.3772 22.6494 19.3441 22.6494 20.4022C22.6494 21.523 23.0007 22.4188 23.7012 23.0895C24.4028 23.7603 25.382 24.0956 26.6399 24.0956C27.7058 24.0956 28.6405 23.8356 29.4473 23.3145Z" fill="#2AA9EF"/>
<path d="M48.8468 18.6974L54.5321 27.6465H49.1862L45.2911 21.6808L43.0898 23.622L42.2679 27.6465H37.5509L40.9374 11.074H45.6544L44.2751 17.8452L51.9188 11.074H57.5554L48.8468 18.6974Z" fill="#2AA9EF"/>
<rect x="112.955" y="11.5" width="1" height="19" fill="url(#paint0_linear_3643_47612)"/>
<path d="M122.158 23.042V27H120.791V16.4111H123.798C124.942 16.4111 125.829 16.6868 126.458 17.2383C127.091 17.7897 127.408 18.5781 127.408 19.6035C127.408 20.6426 127.039 21.4857 126.3 22.1328C125.562 22.7754 124.639 23.0785 123.532 23.042H122.158ZM122.158 17.6143V21.8389H123.422C124.256 21.8389 124.89 21.652 125.323 21.2783C125.756 20.9001 125.972 20.36 125.972 19.6582C125.972 18.2956 125.166 17.6143 123.552 17.6143H122.158ZM129.37 19.9658C130.122 19.4964 130.99 19.2617 131.974 19.2617C133.797 19.2617 134.709 20.2188 134.709 22.1328V27H133.382V25.8311H133.348C132.824 26.7288 132.052 27.1777 131.031 27.1777C130.297 27.1777 129.714 26.9795 129.281 26.583C128.848 26.1865 128.631 25.651 128.631 24.9766C128.631 23.5638 129.468 22.7412 131.14 22.5088L133.382 22.1943C133.382 20.9593 132.872 20.3418 131.851 20.3418C130.944 20.3418 130.117 20.6471 129.37 21.2578V19.9658ZM131.612 23.4453C130.992 23.5273 130.564 23.6823 130.327 23.9102C130.094 24.138 129.978 24.457 129.978 24.8672C129.978 25.2272 130.106 25.5212 130.361 25.749C130.616 25.9769 130.953 26.0908 131.373 26.0908C131.956 26.0908 132.437 25.8857 132.815 25.4756C133.193 25.0654 133.382 24.5505 133.382 23.9307V23.2061L131.612 23.4453ZM143.083 19.4395L139.651 28.1416C139.013 29.7549 138.113 30.5615 136.951 30.5615C136.618 30.5615 136.333 30.5251 136.096 30.4521V29.2764C136.356 29.3766 136.607 29.4268 136.848 29.4268C137.454 29.4268 137.908 29.0713 138.209 28.3604L138.79 26.9863L135.823 19.4395H137.306L139.282 25.1201L139.446 25.7422H139.48C139.507 25.6009 139.562 25.3981 139.644 25.1338L141.709 19.4395H143.083ZM161.355 16.4111L158.388 27H156.796L154.663 19.3711C154.567 19.0247 154.51 18.6602 154.492 18.2773H154.464C154.437 18.6556 154.373 19.0156 154.273 19.3574L152.12 27H150.541L147.471 16.4111H148.982L151.142 24.4092C151.238 24.7692 151.295 25.1315 151.313 25.4961H151.354C151.377 25.2227 151.452 24.8604 151.58 24.4092L153.87 16.4111H155.216L157.404 24.4707C157.477 24.735 157.536 25.0723 157.582 25.4824H157.609C157.632 25.1862 157.698 24.8398 157.807 24.4434L159.885 16.4111H161.355ZM162.565 16.7734C162.565 16.5365 162.645 16.3382 162.804 16.1787C162.968 16.0146 163.169 15.9326 163.406 15.9326C163.647 15.9326 163.85 16.0124 164.014 16.1719C164.183 16.3314 164.267 16.5319 164.267 16.7734C164.267 17.0104 164.183 17.2087 164.014 17.3682C163.85 17.5231 163.647 17.6006 163.406 17.6006C163.164 17.6006 162.964 17.5231 162.804 17.3682C162.645 17.2087 162.565 17.0104 162.565 16.7734ZM162.722 27V19.4395H164.062V27H162.722ZM170.091 26.9248C169.8 27.0843 169.406 27.1641 168.909 27.1641C167.555 27.1641 166.879 26.4144 166.879 24.915V20.5469H165.58V19.4395H166.879V17.6211L168.212 17.1973V19.4395H170.091V20.5469H168.212V24.6758C168.212 25.1725 168.296 25.528 168.464 25.7422C168.633 25.9564 168.913 26.0635 169.305 26.0635C169.606 26.0635 169.868 25.9792 170.091 25.8105V26.9248ZM178.069 27H176.736V22.6523C176.736 21.1302 176.171 20.3691 175.041 20.3691C174.462 20.3691 173.981 20.5924 173.598 21.0391C173.215 21.4811 173.024 22.0394 173.024 22.7139V27H171.684V15.8096H173.024V20.6836H173.051C173.63 19.7357 174.453 19.2617 175.519 19.2617C177.219 19.2617 178.069 20.2894 178.069 22.3447V27ZM190.319 27H184.625V16.4111H190.08V17.6279H185.992V21.0186H189.779V22.2285H185.992V25.79H190.319V27ZM192.329 19.9658C193.081 19.4964 193.949 19.2617 194.933 19.2617C196.756 19.2617 197.668 20.2188 197.668 22.1328V27H196.341V25.8311H196.307C195.783 26.7288 195.011 27.1777 193.99 27.1777C193.256 27.1777 192.673 26.9795 192.24 26.583C191.807 26.1865 191.59 25.651 191.59 24.9766C191.59 23.5638 192.427 22.7412 194.099 22.5088L196.341 22.1943C196.341 20.9593 195.831 20.3418 194.81 20.3418C193.903 20.3418 193.076 20.6471 192.329 21.2578V19.9658ZM194.571 23.4453C193.951 23.5273 193.523 23.6823 193.286 23.9102C193.053 24.138 192.937 24.457 192.937 24.8672C192.937 25.2272 193.065 25.5212 193.32 25.749C193.575 25.9769 193.912 26.0908 194.332 26.0908C194.915 26.0908 195.396 25.8857 195.774 25.4756C196.152 25.0654 196.341 24.5505 196.341 23.9307V23.2061L194.571 23.4453ZM199.465 25.3662C200.14 25.8538 200.867 26.0977 201.646 26.0977C202.69 26.0977 203.212 25.7559 203.212 25.0723C203.212 24.7806 203.098 24.5413 202.87 24.3545C202.642 24.1631 202.179 23.9375 201.482 23.6777C200.644 23.3405 200.099 23.0078 199.848 22.6797C199.598 22.347 199.472 21.946 199.472 21.4766C199.472 20.8066 199.755 20.2712 200.32 19.8701C200.89 19.4645 201.589 19.2617 202.419 19.2617C203.061 19.2617 203.658 19.3734 204.21 19.5967V20.8887C203.644 20.5241 203.004 20.3418 202.289 20.3418C201.86 20.3418 201.512 20.4352 201.243 20.6221C200.974 20.8089 200.839 21.055 200.839 21.3604C200.839 21.6611 200.935 21.8958 201.127 22.0645C201.323 22.2331 201.753 22.4495 202.419 22.7139C203.262 23.0283 203.831 23.3542 204.128 23.6914C204.424 24.0286 204.572 24.4456 204.572 24.9424C204.572 25.6351 204.287 26.182 203.717 26.583C203.152 26.9795 202.419 27.1777 201.516 27.1777C200.732 27.1777 200.049 27.0296 199.465 26.7334V25.3662ZM212.529 23.5615H207.238C207.261 24.3682 207.482 24.9925 207.901 25.4346C208.32 25.8721 208.906 26.0908 209.658 26.0908C210.505 26.0908 211.283 25.8197 211.989 25.2773V26.4736C211.324 26.943 210.442 27.1777 209.343 27.1777C208.25 27.1777 207.395 26.8314 206.78 26.1387C206.169 25.446 205.864 24.4844 205.864 23.2539C205.864 22.0964 206.199 21.1416 206.869 20.3896C207.543 19.6377 208.38 19.2617 209.378 19.2617C210.366 19.2617 211.139 19.5807 211.695 20.2188C212.251 20.8522 212.529 21.7409 212.529 22.8848V23.5615ZM211.189 22.4883C211.185 21.8047 211.023 21.276 210.704 20.9023C210.385 20.5286 209.936 20.3418 209.357 20.3418C208.824 20.3418 208.361 20.54 207.969 20.9365C207.582 21.333 207.338 21.8503 207.238 22.4883H211.189ZM217.341 25.3047L216.186 28.9482H215.229L216.07 25.3047H217.341ZM234.069 27H228.484V16.4111H229.851V25.79H234.069V27ZM235.34 16.7734C235.34 16.5365 235.42 16.3382 235.58 16.1787C235.744 16.0146 235.944 15.9326 236.181 15.9326C236.423 15.9326 236.626 16.0124 236.79 16.1719C236.958 16.3314 237.043 16.5319 237.043 16.7734C237.043 17.0104 236.958 17.2087 236.79 17.3682C236.626 17.5231 236.423 17.6006 236.181 17.6006C235.94 17.6006 235.739 17.5231 235.58 17.3682C235.42 17.2087 235.34 17.0104 235.34 16.7734ZM235.498 27V19.4395H236.838V27H235.498ZM245.663 27H243.838L240.604 23.3564H240.577V27H239.237V15.8096H240.577V22.9053H240.604L243.673 19.4395H245.396L241.978 23.0762L245.663 27ZM253.025 23.5615H247.734C247.757 24.3682 247.978 24.9925 248.397 25.4346C248.816 25.8721 249.402 26.0908 250.154 26.0908C251.002 26.0908 251.779 25.8197 252.485 25.2773V26.4736C251.82 26.943 250.938 27.1777 249.839 27.1777C248.746 27.1777 247.891 26.8314 247.276 26.1387C246.665 25.446 246.36 24.4844 246.36 23.2539C246.36 22.0964 246.695 21.1416 247.365 20.3896C248.039 19.6377 248.876 19.2617 249.874 19.2617C250.863 19.2617 251.635 19.5807 252.191 20.2188C252.747 20.8522 253.025 21.7409 253.025 22.8848V23.5615ZM251.685 22.4883C251.681 21.8047 251.519 21.276 251.2 20.9023C250.881 20.5286 250.432 20.3418 249.853 20.3418C249.32 20.3418 248.857 20.54 248.465 20.9365C248.078 21.333 247.834 21.8503 247.734 22.4883H251.685ZM258.63 25.0107C258.954 25.2933 259.387 25.5257 259.929 25.708C260.472 25.8903 260.987 25.9814 261.474 25.9814C262.96 25.9814 263.703 25.4528 263.703 24.3955C263.703 24.0993 263.623 23.8327 263.464 23.5957C263.304 23.3587 263.085 23.1491 262.807 22.9668C262.529 22.7845 262.007 22.5042 261.242 22.126C260.18 21.5973 259.48 21.1074 259.143 20.6562C258.806 20.2005 258.637 19.681 258.637 19.0977C258.637 18.2181 258.991 17.5208 259.697 17.0059C260.403 16.4909 261.294 16.2334 262.37 16.2334C263.422 16.2334 264.195 16.361 264.687 16.6162V18.1064C264.049 17.6644 263.242 17.4434 262.267 17.4434C261.62 17.4434 261.091 17.5801 260.681 17.8535C260.276 18.1224 260.073 18.4984 260.073 18.9814C260.073 19.4098 260.214 19.7585 260.497 20.0273C260.779 20.2962 261.392 20.6631 262.336 21.1279C263.375 21.6247 264.102 22.1214 264.516 22.6182C264.931 23.1149 265.138 23.6732 265.138 24.293C265.138 25.2227 264.801 25.9359 264.127 26.4326C263.452 26.9294 262.516 27.1777 261.317 27.1777C260.898 27.1777 260.408 27.1185 259.847 27C259.291 26.8861 258.886 26.7425 258.63 26.5693V25.0107ZM267.21 19.9658C267.962 19.4964 268.83 19.2617 269.814 19.2617C271.637 19.2617 272.548 20.2188 272.548 22.1328V27H271.222V25.8311H271.188C270.664 26.7288 269.892 27.1777 268.871 27.1777C268.137 27.1777 267.554 26.9795 267.121 26.583C266.688 26.1865 266.471 25.651 266.471 24.9766C266.471 23.5638 267.308 22.7412 268.98 22.5088L271.222 22.1943C271.222 20.9593 270.712 20.3418 269.691 20.3418C268.784 20.3418 267.957 20.6471 267.21 21.2578V19.9658ZM269.452 23.4453C268.832 23.5273 268.404 23.6823 268.167 23.9102C267.934 24.138 267.818 24.457 267.818 24.8672C267.818 25.2272 267.946 25.5212 268.201 25.749C268.456 25.9769 268.793 26.0908 269.213 26.0908C269.796 26.0908 270.277 25.8857 270.655 25.4756C271.033 25.0654 271.222 24.5505 271.222 23.9307V23.2061L269.452 23.4453ZM280.922 19.4395L277.491 28.1416C276.853 29.7549 275.953 30.5615 274.791 30.5615C274.458 30.5615 274.173 30.5251 273.936 30.4521V29.2764C274.196 29.3766 274.447 29.4268 274.688 29.4268C275.294 29.4268 275.748 29.0713 276.048 28.3604L276.63 26.9863L273.663 19.4395H275.146L277.122 25.1201L277.286 25.7422H277.32C277.347 25.6009 277.402 25.3981 277.484 25.1338L279.548 19.4395H280.922ZM282.016 16.7734C282.016 16.5365 282.096 16.3382 282.255 16.1787C282.42 16.0146 282.62 15.9326 282.857 15.9326C283.099 15.9326 283.301 16.0124 283.465 16.1719C283.634 16.3314 283.718 16.5319 283.718 16.7734C283.718 17.0104 283.634 17.2087 283.465 17.3682C283.301 17.5231 283.099 17.6006 282.857 17.6006C282.616 17.6006 282.415 17.5231 282.255 17.3682C282.096 17.2087 282.016 17.0104 282.016 16.7734ZM282.173 27V19.4395H283.513V27H282.173ZM292.304 27H290.971V22.7002C290.971 21.1462 290.404 20.3691 289.269 20.3691C288.681 20.3691 288.198 20.5879 287.82 21.0254C287.442 21.4629 287.253 22.0166 287.253 22.6865V27H285.913V19.4395H287.253V20.6904H287.28C287.85 19.738 288.677 19.2617 289.761 19.2617C290.591 19.2617 291.222 19.5283 291.655 20.0615C292.088 20.5902 292.304 21.3626 292.304 22.3789V27ZM301.102 26.3643C301.102 29.1624 299.744 30.5615 297.028 30.5615C296.089 30.5615 295.273 30.3861 294.581 30.0352V28.7432C295.424 29.2126 296.233 29.4473 297.007 29.4473C298.844 29.4473 299.762 28.4811 299.762 26.5488V25.749H299.735C299.161 26.7015 298.304 27.1777 297.165 27.1777C296.217 27.1777 295.458 26.8382 294.888 26.1592C294.319 25.4801 294.034 24.5801 294.034 23.459C294.034 22.1693 294.348 21.1484 294.977 20.3965C295.606 19.64 296.445 19.2617 297.493 19.2617C298.5 19.2617 299.247 19.6628 299.735 20.4648H299.762V19.4395H301.102V26.3643ZM299.762 22.502C299.767 21.9186 299.571 21.4173 299.174 20.998C298.778 20.5788 298.29 20.3691 297.712 20.3691C296.982 20.3691 296.415 20.638 296.009 21.1758C295.604 21.709 295.401 22.4427 295.401 23.377C295.401 24.179 295.597 24.8285 295.989 25.3252C296.381 25.8219 296.9 26.0703 297.547 26.0703C298.199 26.0703 298.732 25.8333 299.147 25.3594C299.562 24.8854 299.767 24.2839 299.762 23.5547V22.502ZM307.125 21.832C307.125 20.123 307.587 18.7627 308.512 17.751C309.437 16.7393 310.691 16.2334 312.272 16.2334C313.744 16.2334 314.929 16.7279 315.827 17.7168C316.725 18.7057 317.173 19.9932 317.173 21.5791C317.173 23.2972 316.713 24.6598 315.793 25.667C314.872 26.6742 313.642 27.1777 312.101 27.1777C310.597 27.1777 309.392 26.6833 308.485 25.6943C307.578 24.7054 307.125 23.418 307.125 21.832ZM308.56 21.7227C308.56 23.0033 308.886 24.0309 309.538 24.8057C310.194 25.5758 311.048 25.9609 312.101 25.9609C313.231 25.9609 314.118 25.5918 314.76 24.8535C315.408 24.1107 315.731 23.0739 315.731 21.7432C315.731 20.376 315.414 19.321 314.781 18.5781C314.152 17.8353 313.288 17.4639 312.19 17.4639C311.11 17.4639 310.235 17.8558 309.565 18.6396C308.895 19.4235 308.56 20.4512 308.56 21.7227ZM325.479 27H323.654L320.421 23.3564H320.393V27H319.053V15.8096H320.393V22.9053H320.421L323.49 19.4395H325.213L321.795 23.0762L325.479 27Z" fill="#2AA9EF"/>
<defs>
<linearGradient id="paint0_linear_3643_47612" x1="112.955" y1="11.5" x2="114.949" y2="11.605" gradientUnits="userSpaceOnUse">
<stop stop-color="#3FD8FA"/>
<stop offset="1" stop-color="#85B3F9"/>
</linearGradient>
</defs>
</svg>
