<svg width="25" height="25" viewBox="0 0 25 25" fill="none" xmlns="http://www.w3.org/2000/svg">
<path d="M21.9628 3.65096C18.9699 1.05252 14.1 1.05256 11.107 3.65096C9.06287 5.42568 8.35305 8.04172 9.23782 10.4146L0.596037 17.9173C0.465143 18.0309 0.391602 18.185 0.391602 18.3457V21.773C0.391602 22.1076 0.704046 22.3788 1.08943 22.3788H5.03701C5.22214 22.3788 5.39955 22.315 5.53049 22.2013L6.51755 21.3444C6.6683 21.2134 6.74189 21.0299 6.71724 20.846L6.59407 19.9259L8.06321 19.8057C8.39682 19.7784 8.66103 19.5491 8.69247 19.2594L8.83104 17.9838L9.8909 18.0907C10.0888 18.1108 10.2868 18.0563 10.4356 17.9414C10.5843 17.8264 10.6693 17.6618 10.6693 17.4889V16.3606H11.9453C12.1289 16.3606 12.3052 16.2978 12.4358 16.1857L14.1696 14.6978C16.9034 15.4672 19.9181 14.8511 21.9629 13.0758C24.9557 10.4774 24.9557 6.24935 21.9628 3.65096ZM20.976 12.219C19.2146 13.7482 16.5725 14.2255 14.245 13.4351C13.9882 13.348 13.6963 13.4002 13.5003 13.5685L11.6586 15.149H9.97146C9.58608 15.149 9.27364 15.4202 9.27364 15.7548V16.8085L8.28379 16.7087C8.09731 16.6899 7.91004 16.7371 7.76412 16.8396C7.61824 16.9421 7.52605 17.0913 7.50842 17.2536L7.35711 18.6464L5.75297 18.7776C5.56607 18.7929 5.3942 18.8729 5.27605 18.9996C5.15795 19.1263 5.10357 19.2889 5.12525 19.4508L5.29187 20.6948L4.74791 21.1672H1.7872V18.5968L10.5366 11.0006C10.7326 10.8304 10.7941 10.5757 10.6931 10.3515C9.7827 8.33079 10.3326 6.03706 12.0939 4.50783C14.5427 2.38185 18.5271 2.38185 20.9759 4.50783C23.4247 6.63377 23.4247 10.093 20.976 12.219Z" fill="#FBFBFB"/>
<path d="M19.989 5.36458C19.1727 4.65588 17.8445 4.65592 17.0283 5.36458C16.2121 6.07324 16.2121 7.22633 17.0283 7.93499C17.8445 8.64365 19.1727 8.64373 19.989 7.93499C20.8052 7.22633 20.8052 6.07324 19.989 5.36458ZM19.0021 7.0782C18.73 7.31441 18.2874 7.31445 18.0152 7.0782C17.7432 6.842 17.7432 6.45766 18.0152 6.22141C18.2881 5.9846 18.7293 5.9846 19.0021 6.22141C19.2749 6.45823 19.2748 6.84139 19.0021 7.0782Z" fill="#FBFBFB"/>
</svg>
