<svg width="21" height="24" viewBox="0 0 21 24" fill="none" xmlns="http://www.w3.org/2000/svg">
<path d="M3.72889 12.3678C3.80975 12.2852 3.90625 12.2195 4.01276 12.1745C4.11928 12.1295 4.23368 12.1062 4.3493 12.1059C4.46492 12.1056 4.57945 12.1283 4.68621 12.1727C4.79297 12.2171 4.88982 12.2823 4.97112 12.3645C5.05243 12.4467 5.11656 12.5442 5.15977 12.6515C5.20299 12.7587 5.22443 12.8735 5.22284 12.9891C5.22124 13.1047 5.19666 13.2188 5.15051 13.3249C5.10436 13.4309 5.03757 13.5266 4.95404 13.6066C4.21487 14.3339 3.62843 15.2016 3.22913 16.1587C2.82983 17.1157 2.62572 18.1429 2.62877 19.1799C2.62877 20.2456 5.68327 21.7937 10.47 21.7937C15.2567 21.7937 18.3112 20.2448 18.3112 19.1782C18.3141 18.1483 18.1127 17.128 17.7187 16.1765C17.3247 15.225 16.7458 14.361 16.0156 13.6347C15.933 13.5542 15.8673 13.4581 15.8221 13.3519C15.777 13.2458 15.7533 13.1318 15.7526 13.0164C15.7519 12.9011 15.7741 12.7867 15.8179 12.68C15.8617 12.5733 15.9262 12.4764 16.0078 12.3948C16.0893 12.3133 16.1863 12.2487 16.293 12.2049C16.3997 12.1611 16.514 12.1389 16.6294 12.1397C16.7447 12.1404 16.8587 12.164 16.9649 12.2092C17.071 12.2543 17.1671 12.3201 17.2477 12.4027C18.1403 13.2907 18.848 14.3469 19.3296 15.5102C19.8113 16.6735 20.0574 17.9208 20.0537 19.1799C20.0537 22.0094 15.1163 23.5362 10.47 23.5362C5.82363 23.5362 0.886282 22.0094 0.886282 19.1799C0.882408 17.9124 1.13187 16.6568 1.62003 15.487C2.10818 14.3172 2.82517 13.2567 3.72889 12.3678Z" fill="#FBFBFB"/>
<path d="M10.47 13.0812C9.26376 13.0812 8.08464 12.7235 7.08171 12.0534C6.07878 11.3833 5.29709 10.4308 4.8355 9.31638C4.3739 8.20199 4.25313 6.97574 4.48845 5.79271C4.72377 4.60967 5.30461 3.52298 6.15753 2.67006C7.01045 1.81714 8.09714 1.2363 9.28017 1.00098C10.4632 0.765657 11.6895 0.886432 12.8039 1.34803C13.9182 1.80963 14.8707 2.59131 15.5409 3.59424C16.211 4.59717 16.5687 5.77629 16.5687 6.98251C16.5668 8.59941 15.9237 10.1496 14.7804 11.2929C13.637 12.4362 12.0869 13.0794 10.47 13.0812ZM10.47 2.62628C9.6084 2.62628 8.76616 2.88177 8.04979 3.36044C7.33341 3.83911 6.77506 4.51946 6.44535 5.31545C6.11564 6.11145 6.02937 6.98734 6.19745 7.83236C6.36554 8.67739 6.78043 9.45359 7.38966 10.0628C7.99889 10.6721 8.77509 11.0869 9.62012 11.255C10.4651 11.4231 11.341 11.3368 12.137 11.0071C12.933 10.6774 13.6134 10.1191 14.092 9.40269C14.5707 8.68632 14.8262 7.84409 14.8262 6.98251C14.8248 5.82758 14.3654 4.72035 13.5488 3.90369C12.7321 3.08704 11.6249 2.62764 10.47 2.62628Z" fill="#FBFBFB"/>
</svg>
