<svg width="25" height="23" viewBox="0 0 25 23" fill="none" xmlns="http://www.w3.org/2000/svg">
<path d="M13.5293 16.1761C14.0831 16.1761 14.532 15.7864 14.532 15.3056C14.532 14.8249 14.0831 14.4351 13.5293 14.4351C12.9756 14.4351 12.5267 14.8249 12.5267 15.3056C12.5267 15.7864 12.9756 16.1761 13.5293 16.1761Z" fill="#FBFBFB"/>
<path d="M16.8882 20.7897H4.40516C3.29943 20.7897 2.39984 20.0087 2.39984 19.0487V11.9107C2.39984 10.9507 3.29943 10.1697 4.40516 10.1697H18.8434C19.0717 10.1697 19.2528 10.1872 19.3972 10.2231C19.9295 10.3555 20.4847 10.0881 20.6373 9.626C20.7898 9.16386 20.4818 8.68186 19.9495 8.54942C19.623 8.4682 19.2612 8.42873 18.8434 8.42873H17.6384V5.35876C17.6384 2.53962 14.9396 0.246094 11.6224 0.246094C8.30524 0.246094 5.60649 2.53962 5.60649 5.35876V8.42873H4.40516C2.1937 8.42873 0.394531 9.99074 0.394531 11.9107V19.0487C0.394531 20.9687 2.1937 22.5307 4.40516 22.5307H16.8882C17.442 22.5307 17.8909 22.141 17.8909 21.6602C17.8909 21.1794 17.442 20.7897 16.8882 20.7897ZM7.6118 5.35876C7.6118 3.4996 9.41096 1.98708 11.6224 1.98708C13.8339 1.98708 15.633 3.4996 15.633 5.35876V8.42873H7.6118V5.35876Z" fill="#FBFBFB"/>
<path d="M9.76936 16.1761C10.3231 16.1761 10.772 15.7864 10.772 15.3056C10.772 14.8249 10.3231 14.4351 9.76936 14.4351C9.21561 14.4351 8.76671 14.8249 8.76671 15.3056C8.76671 15.7864 9.21561 16.1761 9.76936 16.1761Z" fill="#FBFBFB"/>
<path d="M24.4637 14.6619C24.4418 12.9736 22.853 11.606 20.9033 11.606C18.94 11.606 17.3426 12.9928 17.3426 14.6974C17.3426 15.1781 17.7915 15.5679 18.3452 15.5679C18.899 15.5679 19.3479 15.1781 19.3479 14.6974C19.3479 13.9528 20.0456 13.347 20.9033 13.347C21.761 13.347 22.4587 13.9528 22.4587 14.6974C22.4587 14.7053 22.4588 14.7132 22.459 14.721C22.4487 15.254 22.0799 15.7312 21.5133 15.9412C20.5337 16.3044 19.9007 17.1433 19.9007 18.0783V18.8311C19.9007 19.3119 20.3495 19.7016 20.9033 19.7016C21.4571 19.7016 21.906 19.3119 21.906 18.8311V18.0783C21.906 17.8416 22.061 17.6313 22.3008 17.5424C23.6156 17.0551 24.4649 15.9383 24.4646 14.6972C24.4646 14.6853 24.4643 14.6736 24.4637 14.6619Z" fill="#FBFBFB"/>
<path d="M20.8988 22.5307C21.4526 22.5307 21.9015 22.141 21.9015 21.6602C21.9015 21.1795 21.4526 20.7897 20.8988 20.7897C20.3451 20.7897 19.8962 21.1795 19.8962 21.6602C19.8962 22.141 20.3451 22.5307 20.8988 22.5307Z" fill="#FBFBFB"/>
<path d="M6.0094 16.1761C6.56316 16.1761 7.01206 15.7864 7.01206 15.3056C7.01206 14.8249 6.56316 14.4351 6.0094 14.4351C5.45565 14.4351 5.00675 14.8249 5.00675 15.3056C5.00675 15.7864 5.45565 16.1761 6.0094 16.1761Z" fill="#FBFBFB"/>
</svg>
