<svg class="navbar-item_icon" xmlns="http://www.w3.org/2000/svg" width="30" height="26" viewBox="0 0 118 82" fill="none">
    <path d="M98.5 81.8306C88.8443 81.8306 81.4031 76.5524 78.4191 67.2861C77.7013 65.0528 76.7583 64.3115 74.3655 64.3537C64.433 64.5179 54.4958 64.4194 44.5633 64.4194C39.9935 64.4194 40.0029 64.4194 38.3561 68.642C35.9257 74.8774 31.4497 78.9639 25.1064 80.9579C15.812 83.8762 6.69587 80.531 2.11669 72.6019C-0.135362 68.6842 -0.365231 64.5414 0.385454 60.1311C2.50614 47.6698 4.29371 35.1474 6.48477 22.7001C8.2911 12.5142 14.8737 6.45716 24.6513 4.07373C47.2141 -1.41565 69.8426 -1.28901 92.4476 4.04086C102.352 6.38675 109.183 13.6308 110.802 23.6196C112.876 36.4188 114.954 49.2149 117.037 62.0078C118.6 71.5134 110.38 81.4318 100.574 81.8165C99.9075 81.8587 99.2037 81.8306 98.5 81.8306ZM58.6198 58.5594H74.5719C81.3703 58.5594 81.3703 58.5594 83.4535 64.959C85.9823 72.7239 91.8986 76.7447 99.9966 76.2193C106.345 75.8251 112.336 69.3692 111.463 63.7156C109.44 50.5974 107.371 37.4839 105.256 24.3751C104.046 16.9245 98.5609 11.2662 91.1432 9.52088C69.692 4.39985 47.3365 4.39985 25.8853 9.52088C18.1579 11.3413 12.8187 17.3374 11.6504 25.1164C9.88631 36.8458 8.00962 48.5752 6.10007 60.2765C4.99281 67.0609 6.80378 71.6917 11.9084 74.5583C19.4153 78.781 29.9906 74.8914 32.9933 66.8028C33.7534 64.7525 34.5369 62.7022 35.1234 60.6003C35.5926 58.9253 36.5685 58.4749 38.2012 58.489C45.023 58.5969 51.8308 58.5406 58.6339 58.5406L58.6198 58.5594ZM21.963 36.508C22.0615 37.9156 22.6292 38.6803 24.0977 38.6709C25.7399 38.6709 27.382 38.8211 29.0147 38.6709C31.1635 38.4504 31.7688 39.37 31.5999 41.3499C31.468 42.9111 31.468 44.4805 31.5999 46.0417C31.6609 46.7267 31.9846 47.6651 32.5054 47.9935C35.4049 49.8327 38.7407 47.9559 38.783 44.5544C38.783 44.24 38.783 43.9304 38.783 43.616C38.783 38.7131 38.783 38.7131 43.7281 38.7131C48.2979 38.7131 48.4199 38.5818 48.1947 33.9557C48.19 33.8775 48.19 33.7992 48.1947 33.7211C48.2322 32.2572 47.5331 31.5816 46.0552 31.6145C44.1788 31.7109 42.2981 31.6842 40.4251 31.5347C40.05 31.4216 39.7093 31.2163 39.4339 30.9377C39.1586 30.659 38.9573 30.3159 38.8487 29.9395C38.6328 28.1707 38.9378 26.3315 38.6845 24.5721C38.5531 23.676 37.8258 22.3998 37.0752 22.1324C33.3217 20.7859 31.5436 22.1324 31.5436 26.0875V27.0259C31.4873 32.3933 32.0972 31.53 26.9221 31.6145C21.8316 31.6051 21.6439 31.8209 21.977 36.522L21.963 36.508ZM81.9567 40.9558C81.9077 39.453 81.2745 38.0285 80.1918 36.9852C79.109 35.9419 77.662 35.3619 76.1584 35.3686C74.6548 35.3754 73.2131 35.9682 72.1397 37.0212C71.0663 38.0741 70.4459 39.5042 70.4103 41.0074C70.414 41.748 70.5637 42.4805 70.8509 43.1631C71.1382 43.8457 71.5573 44.4649 72.0842 44.9853C72.6111 45.5057 73.2355 45.917 73.9216 46.1957C74.6077 46.4744 75.3421 46.6149 76.0826 46.6094C76.841 46.6331 77.5965 46.5053 78.3048 46.2333C79.0131 45.9613 79.66 45.5506 80.2075 45.0254C80.7551 44.5001 81.1922 43.8709 81.4934 43.1745C81.7946 42.4781 81.9537 41.7286 81.9614 40.9699L81.9567 40.9558ZM93.6111 29.3249C93.6356 28.5636 93.5029 27.8055 93.2215 27.0977C92.94 26.39 92.5158 25.7478 91.9752 25.2112C91.4347 24.6746 90.7894 24.2551 90.0796 23.9789C89.3698 23.7026 88.6107 23.5756 87.8497 23.6056C87.1103 23.6112 86.3792 23.7623 85.6983 24.0503C85.0173 24.3384 84.3998 24.7578 83.8809 25.2845C83.362 25.8112 82.952 26.435 82.6741 27.1202C82.3963 27.8054 82.2562 28.5386 82.2617 29.278C82.2673 30.0173 82.4184 30.7483 82.7065 31.4293C82.9945 32.1103 83.4139 32.7278 83.9406 33.2467C84.4673 33.7656 85.0911 34.1757 85.7763 34.4535C86.4615 34.7313 87.1947 34.8714 87.9341 34.8659C88.6732 34.8866 89.4091 34.7589 90.0981 34.4906C90.7872 34.2222 91.4155 33.8185 91.946 33.3034C92.4764 32.7882 92.8983 32.172 93.1867 31.4911C93.4751 30.8102 93.6242 30.0784 93.6252 29.339L93.6111 29.3249Z" fill="white"></path>
</svg>
