<svg xmlns="http://www.w3.org/2000/svg" width="44" height="44" viewBox="0 0 44 44"><script xmlns="" id="eppiocemhmnlbhjplcgkofciiegomcon"/><script xmlns=""/><script xmlns=""/>
    <path d="M19.07 9.018c3.165-.03 6.33-.016 9.494-.006 1.944.006 3.653 1.518 3.921 3.441.022.159.046.319.046.478v.632l.001.358v1.22l.001.448v2.98l.001.527v7.756c0 .072-.005.141-.016.207-.018.323-.053.65-.149.952-.498 1.578-1.577 2.536-3.2 2.868-.13.026-.189.055-.193.2-.055 2.02-1.625 3.635-3.463 3.876-.03.004-.058.03-.086.045H14.56c-.437-.143-.904-.228-1.306-.438-1.42-.739-2.227-1.926-2.237-3.534-.029-4.661-.017-9.323-.007-13.984.004-1.953 1.503-3.647 3.434-3.925.199-.029.399-.047.616-.072.012-.623.135-1.224.428-1.775.762-1.432 1.952-2.238 3.581-2.254zm-4.002 6.092c-1.153.031-2.031.902-2.031 2.125 0 4.534-.003 9.068.002 13.602 0 1.237.864 2.124 2.098 2.129 3.24.012 6.48.013 9.72 0 1.196-.006 2.037-.845 2.073-2.028h-.301c-2.547 0-5.094.008-7.64-.009a3.71 3.71 0 0 1-1.115-.193c-1.713-.563-2.8-2.065-2.803-3.867-.007-3.824-.003-7.647-.003-11.47zm13.359-4.067c-3.08-.013-6.16-.015-9.24 0-1.245.007-2.086.901-2.087 2.166-.003 3.046-.001 6.091-.001 9.137v4.39c.001.716.243 1.32.829 1.764.38.288.815.406 1.28.407 3.054.004 6.109.004 9.164 0 1.155 0 2.052-.777 2.133-2.018a1.559 1.559 0 0 1-.002-.08l.001-.817v-.327l.001-1.52v-8.661l-.001-.301v-1.118c-.001-.4-.006-.8-.033-1.2-.067-.985-.888-1.818-2.044-1.822zm-5.143 11.573c.59.003 1.028.449 1.024 1.026-.003.564-.438.99-1.02 1.002H21.74c-.508 0-1.015.004-1.522 0-.6-.006-1.036-.435-1.037-1.012 0-.575.44-1.014 1.034-1.017 1.023-.004 2.046-.004 3.068 0zm4.12-4.061c.525 0 .948.38 1.01.885a1.01 1.01 0 0 1-.755 1.11c-.12.03-.25.032-.376.032-1.167.002-2.333.001-3.5.001-1.192 0-2.383.003-3.575-.002-.533-.001-.96-.373-1.021-.87a1.015 1.015 0 0 1 1.015-1.157c2.4-.001 4.801-.003 7.202 0zm-.016-4.062c.592.001 1.034.447 1.032 1.02-.003.573-.446 1.006-1.046 1.008-1.2.004-2.4 0-3.6 0-1.2 0-2.4.003-3.6-.002a1.007 1.007 0 0 1-.977-.804c-.1-.454.139-.935.576-1.125.135-.059.292-.094.439-.094 2.392-.006 4.784-.006 7.176-.003z" fill="#FFF" fill-rule="evenodd"/>
<script xmlns=""/></svg>