<svg xmlns="http://www.w3.org/2000/svg" width="100" height="92" viewBox="0 0 100 92">
    <g fill="none" fill-rule="evenodd">
        <g>
            <g>
                <g>
                    <g>
                        <g transform="translate(-793 -851) translate(489 851) translate(240) translate(64) translate(5 4.6)">
                            <path fill="#4DA2FF" fill-rule="nonzero" d="M75.523 19.637v43.088c0 3.726-3.294 6.757-7.344 6.757H21.344c-4.05 0-7.344-3.031-7.344-6.757V19.637c0-3.726 3.294-6.757 7.344-6.757H68.18c4.05 0 7.344 3.03 7.344 6.757z"/>
                            <path fill="#001737" fill-rule="nonzero" d="M90 62.262V73.85c0 4.935-4.364 8.95-9.728 8.95H67.676c-3.486 0-3.491-4.852 0-4.852h12.596c2.456 0 4.455-1.838 4.455-4.098V62.262c0-3.207 5.273-3.212 5.273 0zm-84.727 0V73.85c0 2.26 1.999 4.098 4.455 4.098h12.596c3.486 0 3.491 4.852 0 4.852H9.728C4.364 82.8 0 78.785 0 73.85V62.262c0-3.207 5.273-3.212 5.273 0zm70.489-7.173v7.693c0 3.726-3.295 6.757-7.345 6.757h-8.363c-3.486 0-3.49-4.852 0-4.852h8.363c1.142 0 2.071-.854 2.071-1.905V55.09c0-3.208 5.274-3.212 5.274 0zm-56.25 0v7.693c0 1.05.929 1.906 2.07 1.906h8.364c3.486 0 3.49 4.851 0 4.851h-8.363c-4.05 0-7.345-3.031-7.345-6.757V55.09c0-3.208 5.274-3.212 5.274 0zm67.675-16.115c3.424 0 3.489 4.674.19 4.847l-.19.005H2.814c-3.489 0-3.49-4.852 0-4.852h84.374zm-18.77-26.036c4.05 0 7.345 3.03 7.345 6.756v7.694c0 3.207-5.274 3.212-5.274 0v-7.694c0-1.05-.929-1.905-2.07-1.905h-8.364c-3.486 0-3.49-4.852 0-4.852h8.363zm-38.471 0c3.486 0 3.49 4.851 0 4.851h-8.363c-1.142 0-2.071.855-2.071 1.905v7.694c0 3.207-5.274 3.212-5.274 0v-7.694c0-3.725 3.295-6.756 7.345-6.756h8.363zM80.272 0C85.636 0 90 4.015 90 8.95v11.588c0 3.207-5.273 3.212-5.273 0V8.95c0-2.26-1.999-4.098-4.455-4.098H67.676c-3.486 0-3.491-4.852 0-4.852h12.596zM22.324 0c3.486 0 3.491 4.852 0 4.852H9.728c-2.456 0-4.455 1.838-4.455 4.098v11.588c0 3.207-5.273 3.212-5.273 0V8.95C0 4.015 4.364 0 9.728 0h12.596z"/>
                            <ellipse cx="74" cy="67.16" fill="#7ED321" rx="15" ry="13.8"/>
                            <path fill="#FFF" fill-rule="nonzero" d="M75.412 73.6l2.998-12.964h-4.14l-4.043 2.174-.752 3.28 3.945-2.112h.078L71.271 73.6h4.141z"/>
                        </g>
                    </g>
                </g>
            </g>
        </g>
    </g>
</svg>
