<svg xmlns="http://www.w3.org/2000/svg" width="100" height="92" viewBox="0 0 100 92">
    <g fill="none" fill-rule="evenodd">
        <g>
            <g>
                <g>
                    <g>
                        <g transform="translate(-1033 -851) translate(489 851) translate(480) translate(64) translate(5 4.6)">
                            <path fill="#4DA2FF" fill-rule="nonzero" d="M16.7 46.575v20.862h19.863c3.486 0 3.49 4.851 0 4.851h-22.5c-1.457 0-2.637-1.086-2.637-2.425V46.575c0-3.207 5.273-3.212 5.273 0zm59.237-5.013c1.456 0 2.637 1.086 2.637 2.425v25.875c0 1.34-1.181 2.426-2.636 2.426H47.811c-1.455 0-2.636-1.086-2.636-2.425V43.986c0-1.339 1.181-2.425 2.636-2.425h28.126zM27.95 46.575v12.938c0 3.207-5.273 3.211-5.273 0V46.575c0-3.207 5.273-3.212 5.273 0zm11.25 0v12.938c0 3.207-5.273 3.211-5.273 0V46.575c0-3.207 5.273-3.212 5.273 0zm.176-36.063c1.455 0 2.637 1.086 2.637 2.425v23.288c0 1.339-1.182 2.426-2.637 2.426H14.062c-1.455 0-2.636-1.087-2.636-2.426V12.937c0-1.339 1.181-2.425 2.636-2.425h25.313zm35.156 2.587c1.456 0 2.637 1.087 2.637 2.426v18.113c0 1.339-1.181 2.425-2.637 2.425H54.844c-1.456 0-2.637-1.086-2.637-2.425V15.525c0-1.339 1.181-2.426 2.637-2.426H74.53z"/>
                            <path fill="#001737" fill-rule="nonzero" d="M5.273 62.262V73.85c0 2.26 1.999 4.098 4.455 4.098h12.596c3.486 0 3.491 4.852 0 4.852H9.728C4.364 82.8 0 78.785 0 73.85V62.262c0-3.207 5.273-3.212 5.273 0zm84.727 0V73.85c0 4.935-4.364 8.95-9.728 8.95H67.676c-3.486 0-3.491-4.852 0-4.852h12.596c2.456 0 4.455-1.838 4.455-4.098V62.262c0-3.207 5.273-3.212 5.273 0zM80.272 0C85.636 0 90 4.015 90 8.95v11.588c0 3.207-5.273 3.212-5.273 0V8.95c0-2.26-1.999-4.098-4.455-4.098H67.676c-3.486 0-3.491-4.852 0-4.852h12.596zM22.324 0c3.486 0 3.491 4.852 0 4.852H9.728c-2.456 0-4.455 1.838-4.455 4.098v11.588c0 3.207-5.273 3.212-5.273 0V8.95C0 4.015 4.364 0 9.728 0h12.596zm42.364 54.5c3.488 0 3.489 4.85 0 4.85h-5.626c-3.488 0-3.489-4.85 0-4.85h5.626zM29.355 23.287v2.587c0 3.21-5.273 3.21-5.273 0v-2.587c0-3.21 5.273-3.21 5.273 0z"/>
                            <ellipse cx="74" cy="68.08" fill="#7ED321" rx="15" ry="13.8"/>
                            <path fill="#FFF" fill-rule="nonzero" d="M78.889 74.52l.664-2.875h-5.528l.01-.072 2.822-1.869c3.125-2.066 3.975-3.054 3.975-4.725 0-2.166-2.217-3.648-5.234-3.648-3.32 0-5.88 1.878-6.055 4.438h3.73c.215-1.015.987-1.572 2.032-1.572.869 0 1.494.467 1.494 1.159 0 .818-.576 1.357-2.617 2.731l-5.674 3.819-.625 2.614h11.006z"/>
                        </g>
                    </g>
                </g>
            </g>
        </g>
    </g>
</svg>
