<svg xmlns="http://www.w3.org/2000/svg" width="100" height="92" viewBox="0 0 100 92">
    <g fill="none" fill-rule="evenodd">
        <g fill-rule="nonzero">
            <g>
                <g>
                    <g>
                        <path fill="#C01F1F" d="M41.792 4.415c3.462-5.79 12.901-5.79 16.362 0l40.59 66.29c3.461 5.79-.944 12.738-8.495 13.027H9.383c-7.237 0-11.642-7.237-8.18-13.026zm8.181 4.342L9.383 75.048h81.18l-40.59-66.29z" transform="translate(-544 -851) translate(489 851) translate(55) translate(0 3.68)"/>
                        <path fill="#000" d="M49.973 60.863c2.086 0 3.776 1.556 3.776 3.474 0 1.919-1.69 3.474-3.776 3.474-2.085 0-3.776-1.555-3.776-3.474 0-1.918 1.69-3.474 3.776-3.474zm0-28.658l.235.004c3.976.119 6.99 3.253 6.373 6.944l-2.517 15.342c-.315 1.737-2.203 3.184-4.09 3.184l-.226-.005c-2.084-.095-3.561-1.502-3.865-3.179l-2.517-15.342c-.315-3.764 2.517-6.948 6.607-6.948z" transform="translate(-544 -851) translate(489 851) translate(55) translate(0 3.68)"/>
                    </g>
                </g>
            </g>
        </g>
    </g>
</svg>
