<svg xmlns="http://www.w3.org/2000/svg" width="100" height="92" viewBox="0 0 100 92">
    <g fill="none" fill-rule="evenodd">
        <g>
            <g>
                <g>
                    <g>
                        <g transform="translate(-1264 -851) translate(489 851) translate(711) translate(64) translate(5 4.6)">
                            <path fill="#4DA2FF" fill-rule="nonzero" d="M45 0c24.853 0 45 18.535 45 41.4S69.853 82.8 45 82.8 0 64.265 0 41.4 20.147 0 45 0zm0 7.36C24.565 7.36 8 22.6 8 41.4c0 18.8 16.565 34.04 37 34.04S82 60.2 82 41.4C82 22.6 65.435 7.36 45 7.36zm21.645 17.683c1.762 1.41 1.762 4.23.252 5.639L40.721 57.47c-1.762 1.88-4.782 1.88-6.544 0L23.103 45.956c-1.51-1.645-1.51-4.23.252-5.875 1.761-1.41 4.53-1.41 6.292.235l7.802 8.225 22.904-23.264c1.762-1.644 4.53-1.88 6.292-.234z"/>
                            <ellipse cx="74" cy="67.16" fill="#7ED321" rx="15" ry="13.8"/>
                            <path fill="#FFF" fill-rule="nonzero" d="M73.28 73.825c3.417 0 5.907-1.707 5.907-4.07 0-1.33-.908-2.318-2.431-2.66l.01-.072c1.972-.233 3.359-1.455 3.359-2.991 0-2.12-2.188-3.621-5.283-3.621-3.174 0-5.479 1.554-6.035 4.052h3.72c.264-.737.987-1.186 1.973-1.186 1.045 0 1.719.467 1.719 1.168 0 .746-.781 1.177-2.11 1.177h-1.64l-.586 2.524h1.523c1.114 0 1.797.513 1.797 1.33 0 .845-.81 1.456-1.953 1.456-1.317 0-1.964-.757-1.873-1.546l.018-.107h-3.79c-.048.242-.078.44-.078.628 0 2.372 2.237 3.918 5.752 3.918z"/>
                        </g>
                    </g>
                </g>
            </g>
        </g>
    </g>
</svg>
