<svg xmlns="http://www.w3.org/2000/svg" width="40" height="40" viewBox="0 0 40 40"><script xmlns="" id="eppiocemhmnlbhjplcgkofciiegomcon"/><script xmlns=""/><script xmlns=""/>
    <g fill="none" fill-rule="evenodd">
        <g fill="#FFF">
            <g>
                <g>
                    <g>
                        <path d="M20 5c8.27 0 15 6.73 15 15s-6.73 15-15 15S5 28.27 5 20 11.73 5 20 5zm0 2C12.834 7 7 12.834 7 20s5.834 13 13 13 13-5.834 13-13S27.166 7 20 7zm-.015 19.097c1.065 0 1.928.874 1.928 1.952 0 1.077-.863 1.951-1.928 1.951-1.064 0-1.927-.874-1.927-1.951 0-1.078.863-1.952 1.927-1.952zm0-16.097l.19.005c1.932.1 3.401 1.74 3.208 3.706l-.024.191-1.285 8.618c-.152.925-1.025 1.703-1.936 1.782l-.152.007-.175-.007c-.972-.074-1.675-.768-1.88-1.62l-.034-.162-1.285-8.618C16.452 11.79 17.897 10 19.986 10z" transform="translate(-505 -694) translate(490 95) translate(0 579) translate(15 20)"/>
                    </g>
                </g>
            </g>
        </g>
    </g>
<script xmlns=""/></svg>