<svg fill="none" viewBox="0 0 32 32" xmlns="http://www.w3.org/2000/svg"><path d="M16 32c8.837 0 16-7.163 16-16S24.837 0 16 0 0 7.163 0 16s7.163 16 16 16z" fill="#1E2D3B"></path><path d="M17.706 17.477v-.003c-.111.008-.682.041-1.953.041-1.016 0-1.729-.028-1.98-.041v.003c-3.908-.173-6.823-.852-6.823-1.667 0-.813 2.918-1.495 6.822-1.667V16.8c.255.018.988.062 2 .062 1.213 0 1.82-.052 1.934-.062v-2.655c3.9.175 6.806.854 6.806 1.667 0 .813-2.91 1.492-6.806 1.667v-.002zm0-3.607v-2.377h5.44V7.87H8.334v3.624h5.44v2.377c-4.421.203-7.744 1.078-7.744 2.128 0 1.049 3.326 1.924 7.745 2.13v7.619h3.933v-7.62c4.414-.203 7.733-1.078 7.733-2.127 0-1.047-3.319-1.924-7.733-2.127" fill="#3E5F6B"></path></svg>