<svg fill="none" xmlns="http://www.w3.org/2000/svg" viewBox="0 0 32 32"><path fill-rule="evenodd" clip-rule="evenodd" d="M16.55 13.52c-.02 1.53 1.28 2.38 2.26 2.9 1.01.51 1.35.85 1.34 1.31 0 .72-.8 1.03-1.54 1.05a5.09 5.09 0 0 1-2.61-.65l-.05-.03-.47 2.34c.6.3 1.72.55 2.88.56 2.71 0 4.49-1.43 4.5-3.64 0-1.68-1.3-2.41-2.35-3-.7-.39-1.28-.71-1.27-1.22 0-.38.35-.78 1.1-.89a4.6 4.6 0 0 1 2.54.48l.46-2.26a6.56 6.56 0 0 0-2.42-.47c-2.56 0-4.36 1.45-4.37 3.52Zm11.15-3.33c-.5 0-.9.31-1.1.78l-3.87 9.86h2.7l.55-1.58h3.32l.3 1.58H32L29.91 10.2h-2.2Zm1.17 6.87-.79-4-1.36 4h2.15ZM13.26 10.2l-2.14 10.64h2.59l2.13-10.64h-2.58Zm-6.52 7.25 2.7-7.25h2.71L7.96 20.83H5.23l-2.06-8.49c-.13-.52-.24-.71-.62-.93-.62-.36-1.65-.7-2.55-.9l.06-.32h4.4c.56 0 1.07.4 1.2 1.09l1.08 6.16Z" fill="#3E5F6B"></path></svg>