<svg fill="none" xmlns="http://www.w3.org/2000/svg" viewBox="0 0 32 32"><path d="m22.87 15.88-2.13 1.93 1.93 2.14L24.8 18l-1.93-2.13ZM18.63 17.62l-2.84 2.56 2.56 2.86 2.84-2.57-2.56-2.85ZM26.72 15.2l-1.42 1.28 1.28 1.43L28 16.62l-1.28-1.42ZM19.09 7.05l-2.14 1.93 1.92 2.14 2.14-1.93-1.92-2.14ZM24.9 10.94l-1.42 1.28 1.28 1.43 1.42-1.29-1.28-1.42ZM16.61 12.67l-2.84 2.57 2.56 2.85 2.84-2.57-2.56-2.85ZM14.58 7.8l-2.85 2.58 2.56 2.85 2.85-2.57-2.56-2.85ZM21.05 11.37l-2.13 1.93 1.93 2.14 2.12-1.93-1.92-2.14ZM23.08 6.7 21.66 8l1.28 1.42 1.42-1.28-1.28-1.43ZM24.75 20.2l-2.13 1.93 1.92 2.14 2.13-1.93-1.92-2.14Z" fill="#3E5F6B"></path><path d="m21.01 22.63-2.77 2.57-4.7-5.24 1.3-1.15-3.28-3.7 1.31-1.15-3.33-3.7 5.2-4.7 1.66 1.82 2.79-2.5 1.65 1.72 1.1-.99-.75-.4A11.86 11.86 0 0 0 15.95 4a12 12 0 0 0 0 24 11.82 11.82 0 0 0 7.47-2.61l-2.4-2.76Z" fill="#3E5F6B"></path></svg>