<svg xmlns="http://www.w3.org/2000/svg" width="170" height="169" fill="none"><circle cx="85" cy="65.969" r="42.5" fill="#B21BEF" fillOpacity=".3"/><g filter="url(#a)"><circle cx="85.002" cy="84.321" r="14.006" fill="#B21BEF"/></g><g filter="url(#b)"><ellipse cx="83.552" cy="88.668" fill="#fff" fillOpacity=".8" rx="6.278" ry="4.347"/></g><path fill="#B21BEF" fillRule="evenodd" d="M95.977 53.444c0 6.062-4.914 10.976-10.975 10.976-6.062 0-10.976-4.914-10.976-10.976 0-6.061 4.914-10.975 10.976-10.975 6.061 0 10.975 4.914 10.975 10.975Zm-30.93 32.927c0-9.088 8.956-16.463 19.954-16.463 10.997 0 19.953 7.375 19.953 16.463 0 .615-.483 1.098-1.097 1.098H66.144a1.087 1.087 0 0 1-1.097-1.098Z" clipRule="evenodd"/><mask id="c" width="40" height="46" x="65" y="42" maskUnits="userSpaceOnUse" style="mask-type:alpha"><path fill="#B21BEF" fillRule="evenodd" d="M95.977 53.444c0 6.062-4.914 10.976-10.975 10.976-6.062 0-10.976-4.914-10.976-10.976 0-6.061 4.914-10.975 10.976-10.975 6.061 0 10.975 4.914 10.975 10.975Zm-30.93 32.927c0-9.088 8.956-16.463 19.954-16.463 10.997 0 19.953 7.375 19.953 16.463 0 .615-.483 1.098-1.097 1.098H66.144a1.087 1.087 0 0 1-1.097-1.098Z" clipRule="evenodd"/></mask><g mask="url(#c)"><g filter="url(#d)"><ellipse cx="84.756" cy="86.503" fill="#fff" rx=".966" ry="18.111" transform="rotate(90 84.756 86.503)"/></g><g filter="url(#e)"><circle cx="78.721" cy="47.997" r="14.158" fill="#fff" fillOpacity=".7"/></g><g filter="url(#f)"><ellipse cx="98.166" cy="84.665" fill="#fff" fillOpacity=".6" rx="6.125" ry="10.049" transform="rotate(-90 98.166 84.665)"/></g><mask id="g" width="22" height="23" x="74" y="42" maskUnits="userSpaceOnUse" style="mask-type:alpha"><path fill="#2CE254" d="M95.985 53.453c0 6.067-4.918 10.985-10.985 10.985-6.066 0-10.984-4.918-10.984-10.985 0-6.066 4.918-10.984 10.984-10.984 6.067 0 10.985 4.918 10.985 10.984Z"/></mask><g mask="url(#g)"><g filter="url(#h)"><path fill="url(#i)" fillRule="evenodd" d="M84.999 45.787a7.437 7.437 0 1 0 0 14.875 7.437 7.437 0 0 0 0-14.875Zm-10.87 7.438c0-6.004 4.867-10.87 10.87-10.87 6.003 0 10.87 4.866 10.87 10.87 0 6.003-4.867 10.87-10.87 10.87-6.003 0-10.87-4.867-10.87-10.87Z" clipRule="evenodd"/></g><g filter="url(#j)"><path fill="url(#k)" fillRule="evenodd" d="M92.072 59.381a8.01 8.01 0 1 0-11.328-11.327 8.01 8.01 0 0 0 11.328 11.327Zm1.294-12.621c3.843 3.843 3.843 10.073 0 13.916s-10.073 3.843-13.916 0-3.843-10.074 0-13.916c3.843-3.843 10.073-3.843 13.916 0Z" clipRule="evenodd"/></g><g filter="url(#l)"><path fill="url(#m)" fillRule="evenodd" d="M72.452 49.862c1.857-6.93 8.98-11.041 15.909-9.185 6.929 1.857 11.041 8.98 9.184 15.909-1.856 6.93-8.979 11.042-15.908 9.185-6.93-1.857-11.042-8.98-9.185-15.909Zm14.724-4.764a8.413 8.413 0 1 0-4.355 16.252 8.413 8.413 0 0 0 4.355-16.252Z" clipRule="evenodd"/></g><g filter="url(#n)"><path fill="url(#o)" d="M78.137 48.903c0-1.92 1.845-2.63 2.618-2.754 1.236-.198 1.645 1.19-.3 1.34-2.318.223-2.318 3.423-2.318 1.414Z"/></g></g><path fill="url(#p)" fillRule="evenodd" d="M95.977 53.444c0 6.062-4.914 10.976-10.975 10.976-6.062 0-10.976-4.914-10.976-10.976 0-6.061 4.914-10.975 10.976-10.975 6.061 0 10.975 4.914 10.975 10.975Zm-30.93 32.927c0-9.088 8.956-16.463 19.954-16.463 10.997 0 19.953 7.375 19.953 16.463 0 .615-.483 1.098-1.097 1.098H66.144a1.087 1.087 0 0 1-1.097-1.098Z" clipRule="evenodd"/><path fill="url(#q)" fillRule="evenodd" d="M95.977 53.444c0 6.062-4.914 10.976-10.975 10.976-6.062 0-10.976-4.914-10.976-10.976 0-6.061 4.914-10.975 10.976-10.975 6.061 0 10.975 4.914 10.975 10.975Zm-30.93 32.927c0-9.088 8.956-16.463 19.954-16.463 10.997 0 19.953 7.375 19.953 16.463 0 .615-.483 1.098-1.097 1.098H66.144a1.087 1.087 0 0 1-1.097-1.098Z" clipRule="evenodd"/></g><defs><filter id="a" width="168.012" height="168.012" x=".996" y=".315" color-interpolation-filters="sRGB" filterUnits="userSpaceOnUse"><feFlood flood-opacity="0" result="BackgroundImageFix"/><feBlend in="SourceGraphic" in2="BackgroundImageFix" result="shape"/><feGaussianBlur result="effect1_foregroundBlur_5928_24293" stdDeviation="35"/></filter><filter id="b" width="36.559" height="32.693" x="65.273" y="72.321" color-interpolation-filters="sRGB" filterUnits="userSpaceOnUse"><feFlood flood-opacity="0" result="BackgroundImageFix"/><feBlend in="SourceGraphic" in2="BackgroundImageFix" result="shape"/><feGaussianBlur result="effect1_foregroundBlur_5928_24293" stdDeviation="6"/></filter><filter id="d" width="44.223" height="9.932" x="62.645" y="81.537" color-interpolation-filters="sRGB" filterUnits="userSpaceOnUse"><feFlood flood-opacity="0" result="BackgroundImageFix"/><feBlend in="SourceGraphic" in2="BackgroundImageFix" result="shape"/><feGaussianBlur result="effect1_foregroundBlur_5928_24293" stdDeviation="2"/></filter><filter id="e" width="78.316" height="78.316" x="39.563" y="8.839" color-interpolation-filters="sRGB" filterUnits="userSpaceOnUse"><feFlood flood-opacity="0" result="BackgroundImageFix"/><feBlend in="SourceGraphic" in2="BackgroundImageFix" result="shape"/><feGaussianBlur result="effect1_foregroundBlur_5928_24293" stdDeviation="12.5"/></filter><filter id="f" width="50.098" height="42.25" x="73.117" y="63.54" color-interpolation-filters="sRGB" filterUnits="userSpaceOnUse"><feFlood flood-opacity="0" result="BackgroundImageFix"/><feBlend in="SourceGraphic" in2="BackgroundImageFix" result="shape"/><feGaussianBlur result="effect1_foregroundBlur_5928_24293" stdDeviation="7.5"/></filter><filter id="h" width="45.738" height="45.74" x="62.129" y="30.355" color-interpolation-filters="sRGB" filterUnits="userSpaceOnUse"><feFlood flood-opacity="0" result="BackgroundImageFix"/><feBlend in="SourceGraphic" in2="BackgroundImageFix" result="shape"/><feGaussianBlur result="effect1_foregroundBlur_5928_24293" stdDeviation="6"/></filter><filter id="j" width="27.684" height="27.68" x="72.566" y="39.878" color-interpolation-filters="sRGB" filterUnits="userSpaceOnUse"><feFlood flood-opacity="0" result="BackgroundImageFix"/><feBlend in="SourceGraphic" in2="BackgroundImageFix" result="shape"/><feGaussianBlur result="effect1_foregroundBlur_5928_24293" stdDeviation="2"/></filter><filter id="l" width="45.984" height="45.985" x="62.008" y="30.231" color-interpolation-filters="sRGB" filterUnits="userSpaceOnUse"><feFlood flood-opacity="0" result="BackgroundImageFix"/><feBlend in="SourceGraphic" in2="BackgroundImageFix" result="shape"/><feGaussianBlur result="effect1_foregroundBlur_5928_24293" stdDeviation="5"/></filter><filter id="n" width="5.66" height="5.433" x="77.137" y="45.13" color-interpolation-filters="sRGB" filterUnits="userSpaceOnUse"><feFlood flood-opacity="0" result="BackgroundImageFix"/><feBlend in="SourceGraphic" in2="BackgroundImageFix" result="shape"/><feGaussianBlur result="effect1_foregroundBlur_5928_24293" stdDeviation=".5"/></filter><linearGradient id="i" x1="75.845" x2="84.295" y1="48.061" y2="58.623" gradientUnits="userSpaceOnUse"><stop stop-color="#fff" stop-opacity=".7"/><stop offset="1" stop-color="#fff" stop-opacity="0"/></linearGradient><linearGradient id="k" x1="96.31" x2="78.641" y1="56.632" y2="50.967" gradientUnits="userSpaceOnUse"><stop stop-color="#fff" stop-opacity=".5"/><stop offset=".332" stop-color="#fff" stop-opacity="0"/></linearGradient><linearGradient id="m" x1="83.597" x2="84.136" y1="63.578" y2="53.656" gradientUnits="userSpaceOnUse"><stop stop-color="#fff" stop-opacity=".8"/><stop offset=".332" stop-color="#fff" stop-opacity="0"/></linearGradient><linearGradient id="o" x1="81.152" x2="78.364" y1="46.237" y2="49.359" gradientUnits="userSpaceOnUse"><stop stop-color="#fff"/><stop offset="1" stop-color="#fff" stop-opacity="0"/></linearGradient><linearGradient id="q" x1="77.417" x2="104.955" y1="64.969" y2="87.469" gradientUnits="userSpaceOnUse"><stop stop-color="#fff" stop-opacity="0"/><stop offset=".767" stop-color="#fff" stop-opacity=".38"/><stop offset="1" stop-color="#fff" stop-opacity=".85"/></linearGradient><radialGradient id="p" cx="0" cy="0" r="1" gradientTransform="rotate(-114.425 75.01 9.732) scale(41.0146 42.002)" gradientUnits="userSpaceOnUse"><stop offset=".814" stop-color="#fff" stop-opacity="0"/><stop offset="1" stop-color="#fff" stop-opacity=".3"/></radialGradient></defs></svg>