<svg width="39" height="34" viewBox="0 0 39 34" fill="none" xmlns="http://www.w3.org/2000/svg">
<path d="M5.4868 0.0672646C4.81408 0.272366 4.16596 0.813828 3.86241 1.42913C3.78037 1.60961 3.43581 2.55307 3.11585 3.52935L2.52516 5.30961L2.19701 5.35884C1.44224 5.48189 0.630045 6.1136 0.260866 6.87657L0.0311541 7.33599L0.00654214 9.54287C-0.00986582 11.1344 0.00654214 11.8154 0.080378 11.9877C0.154214 12.1599 0.334701 12.3076 0.720289 12.5045C2.74667 13.5218 3.2225 16.5245 1.67195 18.4196C1.50787 18.6165 1.1633 18.879 0.810532 19.0595C0.490577 19.2318 0.178826 19.4533 0.10499 19.5599C-0.00166184 19.724 -0.00986582 20.1834 0.00654214 22.8907L0.0311541 26.0411L0.260866 26.5005C0.531597 27.0666 1.07306 27.5834 1.69656 27.8706L2.16419 28.0921L9.54777 28.1331L16.9314 28.1741L24.2739 30.7173L31.6165 33.2524H32.3138C33.126 33.2606 33.5608 33.1047 34.1105 32.5961C34.5781 32.1777 34.7012 31.9069 35.3903 29.8641L35.9728 28.1085L36.4158 27.9936C37.269 27.7803 37.9746 27.1978 38.3355 26.4185C38.4996 26.0575 38.5078 25.9098 38.5324 22.8907C38.5489 20.1834 38.5406 19.724 38.434 19.5599C38.3602 19.4533 38.0484 19.2318 37.7285 19.0595C36.022 18.1653 35.4395 15.7451 36.4568 13.7761C36.703 13.3085 37.2526 12.7834 37.8187 12.5045C38.2043 12.3076 38.3848 12.1599 38.4586 11.9877C38.5324 11.8154 38.5489 11.1344 38.5324 9.54287C38.5078 7.47546 38.4996 7.31138 38.3273 6.95041C38.0648 6.36793 37.4823 5.79365 36.8834 5.52291L36.3748 5.285L29.0322 5.24398L21.6897 5.20296L15.9879 3.20939C6.57793 -0.0886116 6.83226 -0.00657272 6.22516 0.00163269C5.92982 0.00163269 5.60166 0.0344505 5.4868 0.0672646ZM11.2378 3.49653L16.1438 5.20296L10.3518 5.22757C7.16042 5.23577 4.54334 5.23577 4.53514 5.21937C4.51873 5.20296 4.72383 4.53023 4.99456 3.71804C5.38835 2.52846 5.52782 2.20851 5.73292 2.01981C5.87239 1.89675 6.06108 1.79831 6.15953 1.79831C6.25798 1.79831 8.54689 2.56128 11.2378 3.49653ZM7.86596 7.62313C7.86596 8.44353 8.12028 8.77169 8.7684 8.77169C9.41651 8.77169 9.67083 8.44353 9.67083 7.62313V7.1309H22.8792H36.0877L36.3994 7.40983L36.703 7.68877L36.7276 9.36238L36.7522 11.0278L36.383 11.2575C35.7759 11.6349 35.0622 12.4717 34.7012 13.2265C33.4788 15.7697 34.2336 18.9446 36.4158 20.3885L36.744 20.61V23.022C36.744 25.6391 36.7276 25.7211 36.2845 26.0739L36.063 26.2462H22.871H9.67083V25.6883C9.67083 24.9992 9.48214 24.6546 9.06374 24.5315C8.70276 24.4331 8.27616 24.5398 8.06285 24.7777C7.948 24.9089 7.89877 25.1058 7.87416 25.5981L7.84955 26.2462H5.15864C1.51607 26.2462 1.79501 26.5169 1.79501 23.022V20.61L2.12317 20.3885C2.69745 20.0112 3.12406 19.5763 3.51785 18.9774C4.88791 16.8772 4.6664 13.7843 3.0174 12.0205C2.74667 11.7251 2.35288 11.3806 2.15599 11.2575L1.78681 11.0278L1.81142 9.36238L1.83603 7.68877L2.13958 7.40983L2.45133 7.1309H5.15864H7.86596V7.62313ZM33.9546 28.2233C33.9546 28.2726 33.7495 28.9289 33.5034 29.6836C33.044 31.0947 32.8881 31.3491 32.4779 31.4557C32.3302 31.4885 30.8781 31.0291 27.4325 29.8559C24.7744 28.9453 22.5757 28.1823 22.5593 28.1659C22.5429 28.1495 25.0943 28.1331 28.2364 28.1331C32.3138 28.1331 33.9546 28.1577 33.9546 28.2233Z" fill="url(#paint0_linear_25_141)"/>
<path d="M17.6944 9.7808C16.8083 10.1172 16.2259 10.6914 15.8977 11.5447C15.668 12.16 15.709 13.1362 15.9797 13.7105C16.5868 14.9739 17.9569 15.6302 19.2777 15.3021C20.6642 14.9493 21.5749 13.6941 21.46 12.3076C21.4026 11.6021 21.1729 11.0852 20.6888 10.5684C20.0981 9.93667 19.6387 9.73158 18.7363 9.69876C18.2522 9.68235 17.8913 9.70696 17.6944 9.7808ZM19.0808 11.6185C19.2859 11.7169 19.4172 11.8564 19.5321 12.1107C19.6715 12.4389 19.6797 12.5127 19.5813 12.8163C19.4418 13.2593 19.0562 13.53 18.5558 13.53C18.244 13.53 18.1374 13.4808 17.9159 13.2593C17.4154 12.7588 17.4811 11.9959 18.0554 11.6431C18.3835 11.4462 18.7035 11.438 19.0808 11.6185Z" fill="url(#paint1_linear_25_141)"/>
<path d="M8.30084 10.1665C8.16137 10.2485 7.99729 10.3962 7.95627 10.4864C7.89884 10.5767 7.86603 11.1837 7.86603 11.9303V13.2183L8.10394 13.448C8.37467 13.7188 8.67002 13.8172 8.98177 13.7434C9.10483 13.7106 9.30172 13.5793 9.43299 13.448L9.6709 13.2183V11.9139C9.6709 10.4946 9.63809 10.3633 9.17867 10.1254C8.85871 9.96135 8.61259 9.96956 8.30084 10.1665Z" fill="url(#paint2_linear_25_141)"/>
<path d="M22.1245 16.0567L17.7108 20.4622V20.856C17.7108 21.1842 17.7518 21.299 17.9487 21.4959C18.1538 21.701 18.2522 21.7338 18.6296 21.7338H19.0644L23.4207 17.3611C28.1134 12.6602 28.015 12.7751 27.7688 12.1844C27.613 11.807 27.3422 11.6429 26.8992 11.6429H26.53L22.1245 16.0567Z" fill="url(#paint3_linear_25_141)"/>
<path d="M8.30084 14.9247C8.16137 15.0067 7.99729 15.1544 7.95627 15.2447C7.89884 15.3349 7.86603 15.9338 7.86603 16.6722C7.86603 18.1161 7.93166 18.2801 8.52235 18.4606C8.78487 18.5427 8.88332 18.5345 9.14585 18.4032C9.62168 18.1735 9.6709 18.0012 9.6709 16.6065C9.6709 15.2529 9.62988 15.1216 9.17867 14.8837C8.85871 14.7196 8.61259 14.7278 8.30084 14.9247Z" fill="url(#paint4_linear_25_141)"/>
<path d="M26.0707 18.1077C24.8319 18.5179 24.0689 19.5845 24.0771 20.8725C24.0853 21.6765 24.3396 22.3082 24.8811 22.8414C25.5374 23.4978 25.9558 23.6618 26.9403 23.6618C27.9166 23.6618 28.3432 23.4978 28.9749 22.866C29.8445 21.9964 30.0496 20.6346 29.4835 19.5188C29.2292 19.0102 28.4826 18.3457 27.9904 18.1734C27.3751 17.9519 26.6121 17.9355 26.0707 18.1077ZM27.531 20.0111C27.9576 20.2818 28.0888 20.9217 27.8017 21.3811C27.4899 21.898 26.8829 22.0374 26.3988 21.7093C25.2339 20.9217 26.3414 19.2727 27.531 20.0111Z" fill="url(#paint5_linear_25_141)"/>
<path d="M8.39109 19.5928C8.29265 19.6338 8.13677 19.7733 8.03832 19.8963C7.86604 20.1178 7.85784 20.1917 7.88245 21.4551C7.90706 22.94 7.94808 23.0548 8.48954 23.2025C8.83411 23.301 9.26072 23.1861 9.47402 22.9564C9.61349 22.8005 9.6299 22.62 9.65451 21.4469L9.67912 20.1096L9.44941 19.8471C9.20329 19.5682 8.71925 19.4533 8.39109 19.5928Z" fill="url(#paint6_linear_25_141)"/>
<defs>
<linearGradient id="paint0_linear_25_141" x1="19.2695" y1="33.2527" x2="19.2695" y2="0" gradientUnits="userSpaceOnUse">
<stop stop-color="#3B6A7A"/>
<stop offset="1" stop-color="#75B0C3"/>
</linearGradient>
<linearGradient id="paint1_linear_25_141" x1="18.609" y1="15.386" x2="18.609" y2="9.6939" gradientUnits="userSpaceOnUse">
<stop stop-color="#3B6A7A"/>
<stop offset="1" stop-color="#75B0C3"/>
</linearGradient>
<linearGradient id="paint2_linear_25_141" x1="8.76847" y1="13.7671" x2="8.76847" y2="10.0099" gradientUnits="userSpaceOnUse">
<stop stop-color="#3B6A7A"/>
<stop offset="1" stop-color="#75B0C3"/>
</linearGradient>
<linearGradient id="paint3_linear_25_141" x1="22.7862" y1="21.7338" x2="22.7862" y2="11.6429" gradientUnits="userSpaceOnUse">
<stop stop-color="#3B6A7A"/>
<stop offset="1" stop-color="#75B0C3"/>
</linearGradient>
<linearGradient id="paint4_linear_25_141" x1="8.76847" y1="18.5138" x2="8.76847" y2="14.7682" gradientUnits="userSpaceOnUse">
<stop stop-color="#3B6A7A"/>
<stop offset="1" stop-color="#75B0C3"/>
</linearGradient>
<linearGradient id="paint5_linear_25_141" x1="26.9388" y1="23.6618" x2="26.9388" y2="17.9913" gradientUnits="userSpaceOnUse">
<stop stop-color="#3B6A7A"/>
<stop offset="1" stop-color="#75B0C3"/>
</linearGradient>
<linearGradient id="paint6_linear_25_141" x1="8.77566" y1="23.2379" x2="8.77566" y2="19.5334" gradientUnits="userSpaceOnUse">
<stop stop-color="#3B6A7A"/>
<stop offset="1" stop-color="#75B0C3"/>
</linearGradient>
</defs>
</svg>
