<svg width="20" height="26" viewBox="0 0 20 26" fill="none" xmlns="http://www.w3.org/2000/svg"><path d="M11.7363 0.799998C8.89232 0.799998 4.03232 1.304 1.44032 1.628L2.30432 7.748C4.21232 7.64 7.81232 7.388 9.86432 7.388C10.7283 7.388 11.4123 7.676 11.4123 8.828C11.4123 9.44 11.2323 9.656 10.3323 10.124L5.50832 12.752C3.42032 13.904 0.324316 15.308 0.324316 19.34V26H19.2603V19.88H8.24432L8.28032 19.736C8.53232 18.98 9.14432 18.62 9.68432 18.332L14.2563 15.812C18.2523 13.652 19.2603 12.248 19.2603 8.828C19.2603 2.528 15.7323 0.799998 11.7363 0.799998Z" fill="url(#paint0_linear_1_3)"></path><defs><linearGradient id="paint0_linear_1_3" x1="6.40788" y1="23" x2="24.4594" y2="9.92824" gradientUnits="userSpaceOnUse"><stop stop-color="#8121C1"></stop><stop offset="1" stop-color="#C831E7"></stop></linearGradient></defs></svg>