<svg width="20" height="27" viewBox="0 0 20 27" fill="none" xmlns="http://www.w3.org/2000/svg"><path d="M10.62 0.799998C6.264 0.799998 3.456 1.232 1.188 1.736L2.016 7.568C3.744 7.46 5.436 7.388 8.712 7.388C10.08 7.388 10.548 7.82 10.548 8.9C10.548 9.872 10.08 10.376 8.748 10.376H4.248V16.496H9.396C11.196 16.496 11.736 17.036 11.736 18.368C11.736 19.556 11.124 20.204 9.36 20.204C6.012 20.204 3.852 20.096 1.728 19.952L0.9 25.676C3.672 26.288 6.48 26.612 10.836 26.612C17.136 26.612 19.476 24.128 19.476 19.808C19.476 16.064 18.144 13.904 14.544 13.148C17.244 12.248 18.324 10.232 18.324 7.316C18.324 2.816 16.344 0.799998 10.62 0.799998Z" fill="url(#paint0_linear_1_4)"></path><defs><linearGradient id="paint0_linear_1_4" x1="6.89655" y1="23" x2="24.6564" y2="10.7518" gradientUnits="userSpaceOnUse"><stop stop-color="#8121C1"></stop><stop offset="1" stop-color="#C831E7"></stop></linearGradient></defs></svg>