<svg xmlns="http://www.w3.org/2000/svg" width="48" height="57.12" viewBox="0 0 48 57.12">
  <path id="apple-brands" d="M44.132,62.185c-.026-4.68,2.091-8.213,6.376-10.814-2.4-3.43-6.019-5.318-10.8-5.688-4.527-.357-9.475,2.64-11.286,2.64-1.913,0-6.3-2.512-9.743-2.512C11.562,45.926,4,51.486,4,62.8A31.784,31.784,0,0,0,5.836,73.152c1.632,4.68,7.524,16.157,13.671,15.966,3.214-.077,5.484-2.283,9.666-2.283,4.055,0,6.159,2.283,9.743,2.283C45.114,89.029,50.444,78.6,52,73.9c-8.315-3.915-7.868-11.477-7.868-11.719ZM36.914,41.245A12.011,12.011,0,0,0,39.974,32a13.522,13.522,0,0,0-8.659,4.451,12.2,12.2,0,0,0-3.265,9.169C31.379,45.875,34.414,44.166,36.914,41.245Z" transform="translate(-4 -32)" fill="#fff"/>
</svg>
