<svg xmlns="http://www.w3.org/2000/svg" width="48.629" height="57" viewBox="0 0 48.629 57">
  <path id="联合_10" data-name="联合 10" d="M-5288.5-2165.081a3.335,3.335,0,0,1-1.677-3.068q0-3.563,0-7.126v-.652h-4.67v.6c0,2.431.027,4.862-.01,7.292a3.451,3.451,0,0,1-5.271,2.946,3.06,3.06,0,0,1-1.618-2.634c-.048-2.5-.027-5.01-.035-7.515,0-.219,0-.438,0-.708-.248-.011-.443-.025-.641-.03-.324-.006-.648-.006-.972-.005-.7,0-1.395,0-2.086-.062a3,3,0,0,1-2.748-2.926c-.011-.185-.016-.371-.016-.556q0-11.134,0-22.269v-.633h31.436c.01.161.025.287.025.413q0,11.357,0,22.714a3.122,3.122,0,0,1-3.311,3.32c-.65.012-1.3,0-1.949,0h-1.194v.632c0,2.413.028,4.826-.008,7.237a3.468,3.468,0,0,1-3.425,3.538A3.57,3.57,0,0,1-5288.5-2165.081Zm-27.156-17.194a2.965,2.965,0,0,1-1.129-2.271c-.023-2.559-.008-5.118-.008-7.677h-.024c0-2.411-.021-4.823.006-7.234a3.436,3.436,0,0,1,4.671-3.333,3.4,3.4,0,0,1,2.257,3.364c.008,3.115,0,6.231,0,9.347,0,1.743.019,3.487-.008,5.23a3.243,3.243,0,0,1-2.025,3.124,3.721,3.721,0,0,1-1.5.334A3.425,3.425,0,0,1-5315.659-2182.275Zm42.784.654a3.409,3.409,0,0,1-2.267-3.358c-.009-2.5,0-5.008,0-7.512,0-2.355-.015-4.711,0-7.066a3.389,3.389,0,0,1,2.428-3.3,3.5,3.5,0,0,1,3.861,1.272,3.649,3.649,0,0,1,.645,2.254c-.008,2.374,0,4.748,0,7.122,0,2.411.021,4.822-.007,7.233a3.425,3.425,0,0,1-3.411,3.562A3.882,3.882,0,0,1-5272.875-2181.621Zm-35.478-22.3c-.139-6.023,2.935-9.969,7.98-12.74q-1.184-1.826-2.355-3.636c-.111-.172-.29-.347-.3-.524a.873.873,0,0,1,.23-.649c.125-.1.441-.022.638.06.131.054.21.248.3.387.768,1.181,1.541,2.358,2.292,3.55.179.284.332.365.665.234a16.6,16.6,0,0,1,7.911-1.081,30.118,30.118,0,0,1,4.647,1.026c.523.143.736.067,1-.366.717-1.169,1.472-2.314,2.241-3.45a1.039,1.039,0,0,1,.632-.449c.47-.045.651.5.339.989-.758,1.187-1.529,2.367-2.293,3.55-.07.108-.136.218-.227.364,5.025,2.756,8.116,6.708,7.969,12.738Zm23.163-8.418a1.545,1.545,0,0,0-1.521,1.475,1.51,1.51,0,0,0,1.492,1.544,1.475,1.475,0,0,0,1.533-1.489,1.5,1.5,0,0,0-1.5-1.53Zm-14.669,0a1.51,1.51,0,0,0-1.489,1.495,1.482,1.482,0,0,0,1.5,1.523,1.507,1.507,0,0,0,1.529-1.509,1.543,1.543,0,0,0-1.52-1.509Z" transform="translate(5316.828 2221.566)" fill="#fff"/>
</svg>
