<svg width="29" height="31" viewBox="0 0 29 31" fill="none" xmlns="http://www.w3.org/2000/svg">
<path fill-rule="evenodd" clip-rule="evenodd" d="M14.5456 2.88639C14.2872 2.81114 14.0127 2.81114 13.7542 2.88639C13.6799 2.90805 13.5491 2.96225 13.2711 3.17275C12.9788 3.39414 12.6208 3.71098 12.063 4.2068L4.64899 10.797C3.74008 11.6049 3.48241 11.8486 3.30327 12.118C3.13096 12.3772 3.00259 12.663 2.92334 12.964C2.84094 13.277 2.83005 13.6313 2.83005 14.8475V21.9238C2.83005 23.1562 2.8312 23.994 2.88494 24.6412C2.93728 25.2716 3.03211 25.5934 3.14867 25.8177C3.41717 26.3345 3.8386 26.7561 4.35548 27.0245C4.57985 27.1411 4.9016 27.2359 5.53189 27.2882C6.1791 27.342 7.01694 27.3431 8.24941 27.3431H8.48996V23.0982C8.48996 19.9724 11.024 17.4383 14.1499 17.4383C17.2758 17.4383 19.8098 19.9724 19.8098 23.0982V27.3431H20.0504C21.2828 27.3431 22.1206 27.342 22.7678 27.2882C23.3981 27.2359 23.7198 27.1411 23.9443 27.0245C24.4611 26.7561 24.8825 26.3345 25.1511 25.8177C25.2677 25.5934 25.3625 25.2716 25.4148 24.6412C25.4685 23.994 25.4697 23.1562 25.4697 21.9238V14.8475C25.4697 13.6313 25.4588 13.277 25.3764 12.964C25.2971 12.663 25.1688 12.3772 24.9964 12.118C24.8173 11.8486 24.5596 11.6049 23.6508 10.797L16.2367 4.2068C15.679 3.71098 15.321 3.39414 15.0286 3.17275C14.7506 2.96225 14.6198 2.90805 14.5456 2.88639ZM12.9629 0.169309C13.7382 -0.0564363 14.5615 -0.0564363 15.3368 0.169309C15.8746 0.325961 16.3206 0.601429 16.7368 0.916516C17.1287 1.21326 17.5702 1.60562 18.0785 2.05744L25.5309 8.68185C25.5711 8.71751 25.6105 8.75268 25.6497 8.78741C26.3879 9.44285 26.9454 9.93801 27.3532 10.5513C27.6978 11.0697 27.9546 11.6414 28.1131 12.2435C28.3005 12.9557 28.3003 13.7014 28.2997 14.6884C28.2997 14.7408 28.2997 14.7937 28.2997 14.8475V21.9832C28.2997 23.1414 28.2997 24.0973 28.235 24.8756C28.168 25.6839 28.0238 26.4267 27.6624 27.1223C27.1254 28.156 26.2825 28.9988 25.2489 29.5358C24.5531 29.8972 23.8105 30.0414 23.002 30.1084C22.2238 30.1731 21.268 30.1731 20.1097 30.1731H19.5339C19.5229 30.1731 19.5118 30.1731 19.5005 30.1731C19.3292 30.1731 19.1246 30.1732 18.9443 30.1582C18.7353 30.141 18.4362 30.0964 18.1239 29.9341C17.7362 29.7328 17.4201 29.4166 17.2187 29.0291C17.0566 28.7167 17.012 28.4175 16.9946 28.2085C16.9796 28.0284 16.9797 27.8237 16.9797 27.6523L16.9799 23.0982C16.9799 21.5352 15.7128 20.2683 14.1499 20.2683C12.5869 20.2683 11.3199 21.5352 11.3199 23.0982L11.3199 27.6523C11.32 27.8237 11.3201 28.0284 11.3051 28.2085C11.2877 28.4175 11.2432 28.7167 11.0809 29.0291C10.8796 29.4166 10.5635 29.7328 10.1759 29.9341C9.86354 30.0964 9.5644 30.141 9.35543 30.1582C9.1752 30.1732 8.97054 30.1731 8.79916 30.1731C8.78792 30.1731 8.77681 30.1731 8.76588 30.1731H8.19002C7.03181 30.1731 6.07592 30.1731 5.29767 30.1084C4.48922 30.0414 3.74659 29.8972 3.05093 29.5358C2.01719 28.9988 1.17431 28.156 0.637331 27.1223C0.275975 26.4267 0.131831 25.6839 0.0646901 24.8756C6.81731e-05 24.0973 8.24832e-05 23.1414 9.66329e-05 21.9832V14.8475C9.66329e-05 14.7937 6.82758e-05 14.7408 5.4126e-05 14.6884C-0.000469415 13.7014 -0.000851572 12.9557 0.186661 12.2435C0.345181 11.6414 0.601928 11.0697 0.94656 10.5513C1.35424 9.93801 1.91187 9.44285 2.65002 8.78742C2.68913 8.75268 2.72874 8.71751 2.76887 8.68185L10.2213 2.05745C10.7296 1.60562 11.1709 1.21326 11.5629 0.916516C11.9791 0.601429 12.4251 0.325961 12.9629 0.169309Z" fill="white"/>
</svg>
