<svg width="39" height="40" viewBox="0 0 39 40" fill="none" xmlns="http://www.w3.org/2000/svg">
    <path d="M38.308.846H.57V39.45h37.738V.846z" fill="#464646"/>
    <path d="M33.127 8.879s-3.45-.188-7.052-1.2a39.248 39.248 0 0 1-6.634-2.59s-3.034 1.576-6.635 2.59c-3.601 1.012-7.052 1.2-7.052 1.2s-.863 10.766 3.939 17.78c5.14 7.511 9.748 8.554 9.748 8.554s4.607-1.043 9.748-8.553c4.801-7.015 3.938-17.781 3.938-17.781z" fill="#0E0E0E"/>
    <path d="M24.906 18.338V16.48c0-2.631-2.422-4.764-5.411-4.764-2.989 0-5.411 2.133-5.411 4.764v1.857h-1.426v6.32c0 3.04 2.195 3.92 3.752 3.92H22.468c1.557 0 3.752-.88 3.752-3.92v-6.32h-1.315zM21.1 26.253H17.797l.645-3.049c-.392-.257-.645-.66-.645-1.115 0-.777.74-1.407 1.651-1.407.912 0 1.65.63 1.65 1.407 0 .454-.252.858-.644 1.115l.645 3.05zm2.232-7.915h-7.747v-1.96c0-1.829 1.734-3.31 3.873-3.31 2.14 0 3.874 1.481 3.874 3.31v1.96z" fill="#464646"/>
</svg>
