<svg width="40" height="40" viewBox="0 0 40 40" fill="none" xmlns="http://www.w3.org/2000/svg">
    <path d="M19.91.38h-.09C8.929.38.099 9.212.099 20.105v.09c0 10.893 8.83 19.723 19.723 19.723h.09c10.893 0 19.723-8.83 19.723-19.723v-.09c0-10.893-8.83-19.723-19.723-19.723z" fill="#464646"/>
    <path d="m7.587 19.474.165-.078c.939-.435 1.89-.843 2.84-1.25.052 0 .138-.06.186-.079l.22-.094.423-.181.846-.362 1.692-.724 3.384-1.448 3.384-1.447 3.383-1.448 3.384-1.447c.251-.108.523-.269.791-.316.226-.04.446-.118.674-.16.43-.082.905-.116 1.318.063.143.062.274.15.384.259.523.518.45 1.368.34 2.097l-2.317 15.235c-.105.697-.25 1.462-.799 1.902-.465.373-1.128.414-1.702.256-.575-.159-1.082-.493-1.58-.821l-6.188-4.097c-.49-.324-1.036-.748-1.03-1.337.002-.355.214-.67.43-.952 1.792-2.338 4.378-3.945 6.302-6.175.272-.314.485-.882.113-1.063-.222-.108-.477.038-.68.178l-7.627 5.3c-.83.576-1.7 1.169-2.7 1.31-.895.128-1.795-.122-2.66-.377-.727-.213-1.451-.432-2.173-.657-.383-.12-.78-.248-1.076-.518-.296-.27-.467-.725-.288-1.085.112-.226.33-.368.558-.485l.003.002z" fill="#0E0E0E"/>
</svg>
