<svg width="40" height="40" viewBox="0 0 40 40" fill="none" xmlns="http://www.w3.org/2000/svg">
    <path d="M39.747 20.149C39.747 9.22 30.887.36 19.959.36S.172 9.221.172 20.15s8.86 19.787 19.787 19.787c10.929 0 19.788-8.859 19.788-19.787z" fill="#464646"/>
    <path d="M28.36 28.916c-.59.064-1.194.075-1.772.074l-13.535-.011c-1.42 0-2.966-.046-4.063-.948-1.236-1.02-1.493-2.787-1.593-4.386-.139-2.191-.15-4.39-.036-6.582.062-1.204.172-2.438.69-3.528.374-.783.995-1.486 1.79-1.856.925-.43 1.893-.353 2.888-.354l7.15-.007 7.435-.008c1.17 0 2.428.024 3.383.701 1.233.873 1.568 2.535 1.723 4.038.285 2.769.289 5.566.01 8.335-.115 1.141-.307 2.348-1.059 3.214-.745.86-1.85 1.19-3.01 1.317l-.002.002z" fill="#0E0E0E"/>
    <path d="m23.996 20.153-6.724-3.883v7.765l6.724-3.882z" fill="#464646"/>
</svg>
