<svg width="33" height="33" viewBox="0 0 33 33" fill="none" xmlns="http://www.w3.org/2000/svg">
    <path
        d="M15.902 32.717C7.365 32.717.42 25.77.42 17.235c0-8.537 6.945-15.483 15.482-15.483a15.5 15.5 0 0 1 4.343.618.9.9 0 1 1-.504 1.727 13.704 13.704 0 0 0-3.84-.545C8.358 3.552 2.22 9.69 2.22 17.235c0 7.544 6.138 13.682 13.683 13.682s13.683-6.138 13.683-13.682c0-1.144-.142-2.28-.42-3.377a.9.9 0 1 1 1.744-.443c.315 1.242.475 2.527.475 3.82 0 8.536-6.945 15.482-15.482 15.482z"
        fill="#fff" />
    <path d="M27.673 10.861a.9.9 0 0 1-.9-.9V1.565a.9.9 0 0 1 1.8 0v8.398a.9.9 0 0 1-.9.9z" fill="#fff" />
    <path
        d="M31.87 6.663h-8.396a.9.9 0 0 1 0-1.8h8.397a.9.9 0 0 1 0 1.8zM9.75 22.72v-8.044c-1.496 1.15-2.504 1.723-3.022 1.723a.893.893 0 0 1-.659-.296.954.954 0 0 1-.287-.685c0-.3.094-.521.283-.663.188-.14.521-.324.999-.548.713-.336 1.283-.689 1.71-1.06A7.253 7.253 0 0 0 9.91 11.9c.33-.46.545-.742.645-.848.1-.106.289-.16.566-.16.312 0 .562.122.751.363.188.242.283.575.283.999v10.12c0 1.185-.404 1.777-1.211 1.777-.36 0-.648-.12-.866-.362-.218-.242-.327-.598-.327-1.07zM15.163 14.262c0-.59.16-1.145.481-1.667.321-.521.793-.938 1.415-1.25.621-.313 1.348-.469 2.179-.469.7 0 1.317.092 1.847.274.53.183.972.435 1.326.756.353.321.615.684.786 1.087.171.404.257.833.257 1.286a2.76 2.76 0 0 1-.447 1.547c-.297.454-.74.825-1.33 1.114.5.194.916.45 1.246.764.33.316.58.681.747 1.096.168.416.252.877.252 1.384 0 .742-.18 1.415-.539 2.02-.36.604-.887 1.076-1.582 1.418-.695.342-1.515.513-2.458.513-.978 0-1.815-.171-2.51-.513-.695-.341-1.22-.812-1.573-1.41a3.877 3.877 0 0 1-.53-2.01c0-1.586.748-2.673 2.245-3.262-1.209-.566-1.812-1.459-1.812-2.678zm6.337 5.851c0-.46-.094-.86-.282-1.202a1.932 1.932 0 0 0-.796-.787 2.4 2.4 0 0 0-1.15-.274c-.6 0-1.104.2-1.51.601-.407.401-.61.96-.61 1.68 0 .46.095.865.287 1.215.191.35.452.622.782.813.33.192.698.288 1.105.288a2.15 2.15 0 0 0 1.113-.292c.33-.195.59-.469.779-.822.188-.354.282-.76.282-1.22zm-2.21-7.548c-.553 0-1 .172-1.339.517-.339.344-.508.788-.508 1.33 0 .5.174.918.522 1.25.347.333.795.5 1.343.5.277 0 .529-.044.756-.133.227-.088.421-.21.583-.367a1.61 1.61 0 0 0 .376-.556c.088-.215.133-.453.133-.712 0-.348-.079-.66-.235-.937a1.695 1.695 0 0 0-.658-.654 1.95 1.95 0 0 0-.973-.238z"
        fill="#fff" />
</svg>