<svg width="39" height="44" viewBox="0 0 39 44" fill="none" xmlns="http://www.w3.org/2000/svg">
    <path d="M6.296 40.367c-.082 1.87-1.331 3.085-3.002 3.085-.876 0-1.63-.34-2.224-1.009C.573 41.89.309 41.17.309 40.36c0-.819.314-1.572.918-2.167.57-.571 1.273-.852 2.133-.852 1.2 0 2.126.587 2.58 1.604H4.89c-.388-.496-.934-.752-1.596-.752-.554 0-1.067.215-1.455.612-.414.421-.645 1-.645 1.563 0 .62.215 1.183.595 1.58.405.421.96.661 1.505.661.885 0 1.58-.471 2.027-1.414H2.658v-.827h3.638zM7.21 43.337H6.31l2.299-5.88h.827l2.3 5.88H10.8l-.646-1.711H7.873l-.662 1.711zm1.812-4.772-.844 2.233h1.67l-.826-2.233zM12.055 43.337v-5.88h1.265l1.704 4.549 1.703-4.549h1.25v5.88h-.803l.058-5.103-1.91 5.103h-.604l-1.902-5.103.057 5.103h-.818zM21.722 43.452a2.905 2.905 0 0 1-2.183-.935c-.555-.587-.836-1.315-.836-2.183 0-.81.306-1.555.893-2.126a2.964 2.964 0 0 1 2.143-.868c1.372 0 2.547.902 2.927 2.349h-1.555c-.314-.58-.785-.885-1.364-.885-.877 0-1.563.678-1.563 1.538 0 .935.728 1.654 1.538 1.654.554 0 1.042-.297 1.356-.843h1.564c-.39 1.43-1.506 2.299-2.92 2.299zM26.095 43.337h-1.572l2.258-5.88h1.175l2.257 5.88h-1.588l-.29-.852h-1.942l-.298.852zm1.273-3.953-.587 1.886h1.167l-.58-1.886zM30.326 43.337v-5.88h1.952c.62 0 1.092.041 1.489.322.521.364.794.918.794 1.646 0 .952-.497 1.663-1.332 1.894l1.44 2.018h-1.78l-1.124-1.894v1.894h-1.439zm1.72-3.167c.712 0 1.059-.183 1.059-.712 0-.488-.306-.686-.943-.686h-.397v1.398h.281zM35.32 43.337v-5.88h3.193v1.299h-1.754v.95h1.754v1.307h-1.754v1.026h1.754v1.298H35.32zM37.468 21.243a1.457 1.457 0 0 0-.518-.175c-.044-.008-.088-.01-.132-.014-.024 0-.047-.007-.07-.007h-.067c-.06-.001-.119-.004-.177 0h-11.5a1.473 1.473 0 1 0 0 2.947h4.468a.269.269 0 0 1 .267.268.26.26 0 0 1-.107.205c-2.45 1.308-5.6 2.101-9.048 2.101-.838 0-1.659-.049-2.457-.139v3.345c.696.051 1.402.08 2.118.08 4.798 0 9.162-1.173 12.434-3.09v.006a.289.289 0 0 1 .411.34l-.682 1.851a1.878 1.878 0 1 0 3.526 1.3l2.466-6.694a1.872 1.872 0 0 0-.932-2.324zM20.584 8.604c3.475 0 6.655.8 9.113 2.127 0 0 1.56 1.123 2.303.045.852-1.238-.85-2.008-.85-2.008-3.05-1.434-6.821-2.282-10.905-2.282-.716 0-1.422.03-2.118.08v2.177a22.08 22.08 0 0 1 2.457-.139z" fill="#464646"/>
    <path d="M2.928.898A2.599 2.599 0 0 0 .33 3.497v28.35a2.598 2.598 0 0 0 2.598 2.597h15.2v-4.67C8.981 29.105 1.878 24.166 1.878 18.17c0-5.997 7.103-10.935 16.248-11.604V.898H2.928z" fill="#464646"/>
    <path d="M6.482 17.587c0 4.426 5.03 8.102 11.646 8.843V8.744c-6.617.741-11.646 4.417-11.646 8.843z" fill="#464646"/>
</svg>
