<svg width="40" height="40" viewBox="0 0 40 40" fill="none" xmlns="http://www.w3.org/2000/svg">
    <path d="M12.914 8.914a1.212 1.212 0 0 0-1.714 0L.873 19.24a1.212 1.212 0 1 0 1.714 1.714l10.327-10.327a1.212 1.212 0 0 0 0-1.714zM25.469 18.558a1.212 1.212 0 0 0-1.714 0L11.97 30.343a1.212 1.212 0 0 0 1.714 1.714L25.47 20.272a1.212 1.212 0 0 0 0-1.714zM28.366 8.25a1.212 1.212 0 0 0-1.714 0L14.289 20.613a1.212 1.212 0 0 0 1.714 1.714L28.366 9.964a1.212 1.212 0 0 0 0-1.714zM35.775 15.664a1.212 1.212 0 0 0-1.714 0l-7.52 7.52a1.212 1.212 0 0 0 1.714 1.714l7.52-7.52a1.212 1.212 0 0 0 0-1.714zM24.669 4.554a1.212 1.212 0 0 0-1.714 0l-7.2 7.2a1.212 1.212 0 1 0 1.714 1.714l7.2-7.2a1.212 1.212 0 0 0 0-1.714zM39.452 19.337a1.212 1.212 0 0 0-1.714 0l-2.85 2.85a1.212 1.212 0 0 0 1.714 1.714l2.85-2.85a1.212 1.212 0 0 0 0-1.714zM33.19 26.887h.002v-2.29a1.212 1.212 0 0 0-2.424 0v1.71L19.351 37.722a1.212 1.212 0 0 0 1.714 1.714L32.84 27.663c.216-.216.333-.494.351-.776zM24.89 27.503v-1.951a1.212 1.212 0 0 0-2.424 0v1.71l-6.81 6.81a1.212 1.212 0 1 0 1.714 1.713l7.189-7.188a1.21 1.21 0 0 0 .331-1.094zM14.102 16.07v-1.952a1.212 1.212 0 0 0-2.424 0v1.71l-7.11 7.11a1.212 1.212 0 1 0 1.714 1.714l7.489-7.489a1.21 1.21 0 0 0 .331-1.093zM16.988 8.264v-1.71l3.982-3.981A1.212 1.212 0 0 0 19.256.859l-4.36 4.36a1.21 1.21 0 0 0-.332 1.094v1.951a1.212 1.212 0 0 0 2.424 0zM29.502 17.948v-1.71l2.568-2.567a1.212 1.212 0 0 0-1.715-1.714l-2.945 2.945a1.21 1.21 0 0 0-.332 1.094v1.952a1.212 1.212 0 0 0 2.424 0zM12.678 24.888v-1.951a1.212 1.212 0 0 0-2.424 0v1.709l-1.989 1.99a1.212 1.212 0 1 0 1.714 1.713l2.368-2.367a1.21 1.21 0 0 0 .332-1.094z" fill="#464646"/>
</svg>
