<svg width="63" height="44" viewBox="0 0 63 44" fill="none" xmlns="http://www.w3.org/2000/svg">
    <path d="M6.84 22.306h4.306v6.175H9.734v-1.923c-.388.635-.564.864-.917 1.164a4.298 4.298 0 0 1-2.858 1.076c-2.894 0-5.152-2.823-5.152-6.457 0-3.67 2.24-6.529 5.117-6.529 1.182 0 2.575.336 3.704 2.153v-1.923h1.306v3.952H9.575c-.176-.688-.387-1.129-.705-1.517-.706-.865-1.658-1.359-2.647-1.359-1.535 0-3.74 1.306-3.74 5.152 0 2.982 1.606 5.205 3.758 5.205 1.57 0 3.052-1.288 3.405-2.947.053-.246.07-.493.088-1.005H6.841v-1.217zM21.748 28.483h-2.682v-1.677c-.758 1.183-1.782 1.854-3.176 1.854-1.764 0-3.052-1.218-3.052-2.859 0-1.8 1.588-2.7 5.328-3.052.124-.018.512-.053.883-.089v-.97c0-1.076-.83-1.747-2.135-1.747-1.377 0-1.994.459-2.276 1.676h-1.43c.212-.952.494-1.447 1.059-1.94.636-.53 1.518-.812 2.54-.812 1.942 0 3.6.9 3.6 3.281v5.224h1.341v1.11zm-2.7-4.853-.864.106c-2.894.353-3.864.883-3.864 2.082 0 .988.865 1.8 1.958 1.8 1.677 0 2.77-1.588 2.77-2.452V23.63zM25.676 20.773c.424-.653 1.27-1.959 3-1.959 1.253 0 1.976.654 2.205 1.977.371-.635.547-.865.9-1.165.618-.547 1.288-.812 2.03-.812 1.446 0 2.293.936 2.293 2.576v5.982h1.306v1.111h-2.665v-6.598c0-1.324-.44-1.924-1.358-1.924-1.641 0-2.506 1.977-2.506 2.612v4.8h1.359v1.11h-2.717v-6.81c0-1.182-.441-1.712-1.359-1.712-1.464 0-2.505 1.818-2.505 2.683v4.728h1.34v1.111h-4.075v-1.11H24.3v-7.27h-1.376v-1.13h2.752v1.8zM38.817 15.496h2.646v5.488c.353-.67 1.447-2.1 3.105-2.1 2.135 0 3.759 2.17 3.759 4.958 0 2.593-1.73 4.763-3.794 4.763-1.676 0-2.487-1.11-3.07-1.905v1.782h-2.7v-1.111h1.342V16.608h-1.288v-1.112zm2.646 8.981c0 1.57 1.27 2.964 2.718 2.964 1.623 0 2.663-1.464 2.663-3.74 0-2.188-1.04-3.688-2.61-3.688-1.377 0-2.77 1.535-2.77 2.876v1.588zM49.402 15.496h2.7v11.875h1.27v1.111h-3.987v-1.111h1.358V16.608h-1.34v-1.112zM62.544 25.87c-.194.653-.406 1.041-.759 1.446-.759.883-1.8 1.36-2.982 1.36-2.576 0-4.375-2.012-4.375-4.905 0-2.788 1.8-4.923 4.146-4.923 2.364 0 4.181 1.835 4.181 5.152h-6.863c.123 1.393.441 2.17 1.094 2.805.494.477 1.076.706 1.782.706 1.094 0 1.764-.494 2.24-1.641h1.536zm-1.359-2.912c-.106-1.181-.37-1.834-.917-2.363-.424-.389-.953-.583-1.57-.583-1.147 0-2.1.776-2.524 2.03-.07.228-.159.581-.194.916h5.205zM5.218 30.744h2.981l3.423 10.41h.935v2.03H9.7l-.811-2.7H4.512l-.812 2.7H.807v-2.03h.953l3.458-10.41zm1.5 2.329-1.66 5.505H8.34l-1.623-5.505zM12.486 33.746h3.776v1.835h-.953l1.306 5.558 1.553-7.393h2.434l1.57 7.304 1.253-5.469h-.917v-1.835H26.3v1.835h-.811l-2.03 7.605h-2.505l-1.57-6.564-1.482 6.564h-2.54L13.28 35.58h-.794v-1.835zM35.23 41.35h.812v1.835h-2.93v-1.112c-.97.97-1.693 1.305-2.857 1.305-1.888 0-3.335-1.27-3.335-2.946 0-2.77 3.123-3.07 6.14-3.352-.018-1.447-.37-1.818-1.747-1.818-.97 0-1.64.548-1.694 1.43l-2.293-.071c.123-1.888 1.64-3.105 3.881-3.105 2.612 0 4.023 1.182 4.023 3.334v4.5zm-2.205-2.63c-2.223.212-3.67.407-3.67 1.712 0 .776.617 1.288 1.553 1.288 1.2 0 2.117-.9 2.117-2.082v-.917zM40.912 35.21c.618-1.2 1.306-1.694 2.364-1.694.318 0 .6.035 1.06.123v2.206a5.312 5.312 0 0 0-1.148-.124c-1.235 0-2.276.882-2.276 1.959v3.67h1.13v1.835h-4.358v-1.836h.917V35.58h-.9v-1.835h3.211v1.465zM53.828 40.08c-.423 2.046-2.135 3.316-4.428 3.316-2.647 0-4.587-2.064-4.587-4.958 0-2.858 1.958-4.975 4.604-4.975 1.5 0 2.823.706 3.635 1.923.864 1.323.9 2.576.935 3.529h-6.81c.229 2.452 1.835 2.575 2.276 2.575.935 0 1.552-.44 1.923-1.41h2.452zm-2.417-2.789c-.158-1.2-.882-1.852-1.994-1.852-1.023 0-1.817.688-2.117 1.852h4.111zM.842.902h4.746c2.118 0 2.911.07 3.511.336a3.24 3.24 0 0 1 1.906 2.999c0 1.253-.406 1.87-1.606 2.523 1.412.583 2.065 1.465 2.065 3.105 0 2.083-1.606 3.476-4.006 3.476H.807v-2.029h.97v-8.38H.842V.901zm3.476 2.03v3.016H6.77c1.059 0 1.782-.652 1.782-1.588 0-.829-.811-1.429-1.958-1.429H4.318zm0 4.975v3.405h2.611c1.112 0 1.976-.723 1.976-1.676 0-1.041-.882-1.73-2.223-1.73H4.318zM21.88 10.235c-.424 2.047-2.136 3.317-4.43 3.317-2.646 0-4.587-2.064-4.587-4.958 0-2.858 1.959-4.975 4.606-4.975 1.5 0 2.822.706 3.634 1.924.864 1.323.9 2.575.935 3.528h-6.81c.23 2.452 1.835 2.576 2.275 2.576.936 0 1.553-.441 1.924-1.412h2.452zm-2.418-2.788c-.159-1.2-.882-1.852-1.993-1.852-1.024 0-1.818.688-2.118 1.852h4.11z" fill="#464646"/>
</svg>
