<svg width="65" height="32" viewBox="0 0 65 32" fill="none" xmlns="http://www.w3.org/2000/svg">
    <path d="M64.969.715v9.3l-3.311 1.545L56.47 5.6 64.969.715zM64.97 16.858v8.609l-10.926 6.07-9.16-10.816-9.381 4.856-5.077-5.518V11.56l4.856 5.74 9.822-5.077 8.72 10.484 11.146-5.849z" fill="#464646"/>
    <path d="m24.344 23.185-8.978-10.302-9.564 4.856L.756 12.02l.231-.204 4.888 5.54 9.566-4.857 8.976 10.3 10.791-5.639.143.274-11.007 5.751z" fill="#464646"/>
    <path d="m24.344 24.385-8.978-10.303-9.564 4.856-5.046-5.719.231-.203 4.888 5.539 9.566-4.857 8.976 10.3 10.791-5.638.143.273-11.007 5.752z" fill="#464646"/>
    <path d="m24.344 25.586-8.978-10.303-9.564 4.856-5.046-5.718.231-.204 4.888 5.54L15.44 14.9l8.976 10.3 10.791-5.64.143.274-11.007 5.752z" fill="#464646"/>
    <path d="m24.344 26.785-8.978-10.302-9.564 4.855L.756 15.62l.231-.204 4.888 5.54 9.566-4.857 8.976 10.3 10.791-5.639.143.273-11.007 5.752z" fill="#464646"/>
    <path d="m24.344 27.986-8.978-10.302-9.564 4.856L.756 16.82l.231-.204 4.888 5.54L15.44 17.3l8.976 10.3 10.791-5.639.143.274-11.007 5.751z" fill="#464646"/>
    <path d="m24.344 29.183-8.978-10.302-9.564 4.856-5.046-5.718.231-.204 4.888 5.539 9.566-4.857 8.976 10.3 10.791-5.639.143.274-11.007 5.751z" fill="#464646"/>
    <path d="m24.344 30.385-8.978-10.303-9.564 4.856L.756 19.22l.231-.204 4.888 5.539 9.566-4.856 8.976 10.3 10.791-5.64.143.274-11.007 5.752z" fill="#464646"/>
    <path d="m24.344 31.582-8.978-10.303-9.564 4.856-5.046-5.718.231-.204 4.888 5.54 9.566-4.857 8.976 10.3 10.791-5.639.143.274-11.007 5.75zM35.207.896l-9.375 5.057.146.271 9.375-5.056-.146-.272zM35.21 2.001l-8.743 4.716.146.271 8.742-4.716-.146-.27zM35.209 3.053l-8.14 4.39.146.272 8.14-4.391-.146-.271zM35.206 4.159l-7.509 4.05.146.271 7.51-4.05-.147-.271zM35.21 5.364 28.393 9.04l.146.271 6.817-3.677-.146-.271zM35.203 6.398l-6.178 3.42.15.27 6.178-3.42-.15-.27zM35.207 7.711l-5.479 2.955.147.271 5.478-2.955-.146-.27zM35.206 8.75l-4.856 2.674.148.27 4.856-2.674-.148-.27z" fill="#464646"/>
</svg>
