<svg width="42" height="42" viewBox="0 0 42 42" fill="none" xmlns="http://www.w3.org/2000/svg">
    <path d="M12.912 25.654a.76.76 0 0 1-.515-.184c-.142-.123-.213-.297-.213-.522 0-.204.073-.372.219-.504a.735.735 0 0 1 .508-.198c.187 0 .352.06.496.18.144.119.216.293.216.522 0 .221-.07.394-.21.52a.73.73 0 0 1-.502.186zm.711 1.488v4.161c0 .288-.068.506-.205.654a.681.681 0 0 1-.522.221.65.65 0 0 1-.515-.226c-.132-.151-.197-.368-.197-.649v-4.12c0-.284.066-.498.197-.643a.665.665 0 0 1 .515-.216.69.69 0 0 1 .522.216c.137.145.205.345.205.602zM20.233 25.61h-1.709v5.618c0 .323-.072.563-.216.72a.726.726 0 0 1-.56.234.735.735 0 0 1-.566-.237c-.146-.158-.22-.397-.22-.717V25.61h-1.708c-.267 0-.466-.06-.596-.177a.6.6 0 0 1-.195-.467c0-.2.068-.358.203-.474.135-.117.331-.175.588-.175h4.979c.27 0 .472.06.604.18s.198.276.198.47a.592.592 0 0 1-.2.466c-.134.118-.335.177-.602.177zM25.198 29.608h-2.816c.003.326.07.615.197.864.129.25.3.438.512.565.213.126.447.19.704.19a1.535 1.535 0 0 0 .886-.25c.134-.087.257-.18.37-.278.112-.098.258-.232.437-.4a.473.473 0 0 1 .317-.096c.147 0 .267.04.358.122.092.08.137.195.137.343 0 .13-.05.282-.152.456a1.812 1.812 0 0 1-.462.5c-.206.16-.464.294-.775.4a3.34 3.34 0 0 1-1.074.157c-.924 0-1.643-.263-2.157-.79-.513-.528-.77-1.244-.77-2.147 0-.426.064-.82.19-1.184.127-.364.311-.676.554-.937.242-.26.541-.46.896-.598a3.22 3.22 0 0 1 1.182-.209c.562 0 1.045.12 1.448.356.402.238.704.545.904.92.2.377.3.76.3 1.15 0 .363-.103.597-.31.705-.208.107-.5.16-.876.16zm-2.816-.818h2.61c-.035-.492-.168-.86-.398-1.105-.23-.244-.533-.366-.91-.366-.358 0-.653.123-.883.371-.23.248-.37.615-.42 1.1zM32.765 30.399c0 .179-.053.37-.16.575-.108.203-.271.398-.491.582-.22.185-.497.334-.83.446-.335.112-.711.169-1.13.169-.89 0-1.584-.26-2.083-.778-.5-.519-.749-1.214-.749-2.086 0-.59.114-1.113.343-1.566.229-.454.56-.805.992-1.053.432-.248.949-.372 1.55-.372.373 0 .715.055 1.026.164.311.109.575.25.791.422.216.172.382.356.496.551.114.195.171.377.171.546a.575.575 0 0 1-.192.438.66.66 0 0 1-.467.179.47.47 0 0 1-.298-.092 1.462 1.462 0 0 1-.266-.298 2.184 2.184 0 0 0-.551-.602c-.192-.133-.436-.2-.73-.2-.426 0-.77.166-1.03.498-.26.333-.39.787-.39 1.364 0 .27.034.52.1.746.067.227.164.42.29.58.127.16.28.282.46.364.179.083.376.124.59.124.288 0 .536-.067.741-.2.206-.134.388-.338.546-.612.088-.162.183-.288.285-.38a.541.541 0 0 1 .374-.137c.176 0 .322.067.438.2a.642.642 0 0 1 .174.428zM35.159 25.061v2.136c.182-.21.36-.378.535-.5.174-.124.366-.216.577-.278.212-.061.438-.092.68-.092.367 0 .69.077.974.232.283.155.505.38.667.675.102.172.17.365.206.578.035.212.053.458.053.735v2.759c0 .288-.066.506-.198.654a.67.67 0 0 1-.525.221c-.475 0-.712-.291-.712-.875v-2.432c0-.46-.069-.814-.206-1.062-.137-.248-.397-.372-.78-.372a1.17 1.17 0 0 0-.694.219c-.206.146-.36.345-.461.598-.078.215-.116.596-.116 1.145v1.904c0 .285-.065.502-.193.651-.128.15-.307.224-.535.224-.475 0-.712-.291-.712-.875V25.06c0-.292.062-.51.187-.657.125-.145.3-.218.525-.218.228 0 .407.073.535.221.128.148.193.366.193.654zM13.368 33.771v4.573h2.58c.206 0 .364.05.474.15.11.1.165.226.165.377 0 .154-.054.28-.163.375-.108.096-.267.144-.476.144h-3.072c-.277 0-.477-.062-.598-.184-.122-.123-.182-.322-.182-.596V33.77c0-.257.058-.45.173-.578a.585.585 0 0 1 .457-.193c.191 0 .346.064.465.19.118.128.177.321.177.581zM20.298 38.836a3.63 3.63 0 0 1-.82.495c-.265.11-.562.165-.89.165-.3 0-.564-.06-.79-.178a1.302 1.302 0 0 1-.526-.482 1.252 1.252 0 0 1-.184-.66c0-.32.101-.593.304-.819.203-.225.482-.377.836-.454.074-.017.258-.056.553-.115.294-.06.546-.115.756-.165.21-.05.438-.111.684-.183-.015-.308-.077-.535-.187-.679-.11-.144-.338-.216-.683-.216-.297 0-.521.041-.671.124a1.09 1.09 0 0 0-.386.373 3.956 3.956 0 0 1-.227.328c-.044.053-.14.079-.285.079a.499.499 0 0 1-.34-.126.412.412 0 0 1-.144-.324.99.99 0 0 1 .219-.6c.145-.194.372-.354.68-.48.31-.126.694-.188 1.154-.188.514 0 .918.06 1.213.182.294.121.502.313.623.576.121.263.182.611.182 1.046a91.618 91.618 0 0 1-.008 1.337c0 .22.036.45.109.688.073.238.11.392.11.46 0 .12-.057.23-.17.328a.567.567 0 0 1-.384.148c-.12 0-.238-.056-.355-.17a2.513 2.513 0 0 1-.373-.49zm-.077-1.693c-.172.063-.421.13-.748.2s-.554.121-.68.154a.924.924 0 0 0-.36.193.494.494 0 0 0-.17.4c0 .177.066.328.2.452.135.125.31.187.528.187.231 0 .445-.05.64-.152.196-.102.34-.232.431-.392.106-.178.159-.469.159-.875v-.167zM23.522 33.669v1.787c.22-.229.444-.404.673-.525.228-.122.51-.182.848-.182.389 0 .73.092 1.022.276.293.184.52.451.682.801.161.35.242.765.242 1.245 0 .355-.045.68-.135.975-.09.296-.22.552-.392.77a1.772 1.772 0 0 1-1.432.68c-.18 0-.35-.02-.508-.063a1.487 1.487 0 0 1-.405-.17 1.83 1.83 0 0 1-.285-.216 4.848 4.848 0 0 1-.31-.334v.115c0 .22-.053.387-.159.5a.528.528 0 0 1-.403.169.5.5 0 0 1-.396-.17c-.099-.112-.148-.279-.148-.499V33.72c0-.237.048-.416.144-.538a.481.481 0 0 1 .4-.182c.18 0 .319.058.416.173.097.116.146.281.146.496zm.055 3.475c0 .466.107.824.32 1.074.213.25.492.375.838.375.294 0 .547-.128.76-.384.213-.256.32-.622.32-1.1 0-.308-.045-.573-.133-.796a1.157 1.157 0 0 0-.377-.517.928.928 0 0 0-.57-.182c-.223 0-.422.06-.596.182a1.21 1.21 0 0 0-.412.528c-.1.23-.15.503-.15.82zM31.697 37.97c0 .322-.079.599-.236.828-.157.23-.39.405-.696.523-.308.119-.681.178-1.121.178-.42 0-.78-.064-1.08-.193-.3-.128-.521-.289-.664-.482a.971.971 0 0 1-.214-.58.47.47 0 0 1 .484-.467c.123 0 .217.03.283.09.065.06.128.144.188.252.12.209.264.364.43.467.168.103.396.155.684.155.235 0 .427-.052.577-.157.15-.104.225-.223.225-.358 0-.205-.078-.355-.234-.45-.155-.094-.412-.184-.769-.27a6.38 6.38 0 0 1-.983-.315 1.619 1.619 0 0 1-.607-.435.997.997 0 0 1-.227-.664c0-.234.07-.456.21-.664a1.44 1.44 0 0 1 .62-.5c.272-.124.601-.186.987-.186.303 0 .575.032.816.095.242.062.443.147.605.252.161.106.284.223.368.352a.688.688 0 0 1 .127.377.436.436 0 0 1-.135.33c-.09.086-.218.128-.384.128a.47.47 0 0 1-.306-.103 2.014 2.014 0 0 1-.29-.308 1.058 1.058 0 0 0-.312-.274c-.12-.069-.283-.103-.489-.103a.956.956 0 0 0-.527.135c-.14.09-.21.202-.21.336 0 .123.051.224.154.302.103.08.242.144.416.195.174.052.414.115.72.189.363.089.66.194.89.317.23.123.403.268.522.435a.964.964 0 0 1 .178.572zM8.846 34.957l.195-.325-.379.014-.132-.354-.189.255c-4.208-3.584-6.79-8.782-7.088-14.287l-.284.015c.298 5.506 2.848 10.709 7.012 14.337l.062.232-.317.208.347.152-.034.377.335-.177.273.262.07-.371.376-.05-.247-.288zM4.605 23.431l-.263-.139.05-.293-.273.119-.198-.221-.02.074a11.186 11.186 0 0 1-.386-2.918H3.23c0 1.068.149 2.123.439 3.14l-.122.008.176.24-.171.242.296.011.083.285.194-.225.275.113-.055-.291.26-.145zM10.432 28.681l.143-.283-.316.035-.133-.29-.17.27-.101-.026a16.209 16.209 0 0 1-2.842-9.201H6.73c0 3.42 1.03 6.695 2.976 9.487l-.205.157.3.106-.006.318.27-.169.245.203.036-.316.311-.065-.224-.226z" fill="#464646"/>
    <path d="M27.247 17.215a9.218 9.218 0 0 0-2.186-1.776l.079.42-.67-.276-.474.55-.202-.697-.724-.028.418-.592-.43-.584.724-.042.188-.7.484.54.665-.29-.12.716.64.34-.28.155c.615.36 1.5.974 2.313 1.885 1.156 1.296 1.345 3.312 1.353 3.397l3.584.027c-.018-.235-.262-3.126-1.697-5.125-1.066-1.485-2.076-2.342-2.77-2.813l.207.641-.963-.26-.552.832-.396-.916-.995.088.469-.882-.689-.723.981-.183.136-.989.755.653.858-.51-.04.997.934.352-.488.359c.747.49 1.853 1.402 3.016 3.022 1.586 2.21 1.795 5.307 1.804 5.438l2.61.019c-.024-.327-.485-5.861-4.036-9.1-3.163-2.884-6.133-3.145-7.4-3.256a13.302 13.302 0 0 1-.368-.035 12.537 12.537 0 0 0-1.352-.084l.477 1.125-1.215-.216-.589 1.085-.588-1.085-1.215.216.481-1.136-.927-.815 1.189-.333.06-1.232 1 .722 1.001-.722.06 1.232 1.188.333-.313.275c.255.014.525.036.81.07l.35.033c1.325.116 4.43.388 7.735 3.403 3.815 3.479 4.207 9.257 4.222 9.5l1.305.02c-.019-.275-.372-4.913-2.93-8.234C31.84 8.27 28.424 7 27.334 6.673l.001.387-.438-.282-.405.327-.053-.518-.508-.114.372-.364-.228-.468.517.064.223-.47.273.444.507-.118-.178.49.104.08c1.197.354 4.67 1.66 7.664 5.547 2.734 3.55 3.037 8.36 3.049 8.564l3.404.018C41.12 9.477 32.214.895 21.303.895 10.393.895 1.487 9.477.97 20.26h27.486c-.024-.22-.24-1.961-1.208-3.045z" fill="#464646"/>
</svg>
