<svg width="43" height="44" viewBox="0 0 43 44" fill="none" xmlns="http://www.w3.org/2000/svg">
    <path d="M21.796 35.698c7.598 0 13.758-6.16 13.758-13.757 0-7.598-6.16-13.757-13.758-13.757-7.598 0-13.757 6.159-13.757 13.757s6.16 13.757 13.757 13.757z" fill="#464646"/>
    <path d="M10.857 21.294s.166-.134.038-.134h-.88c-.07 0-.146.096-.204.109-.057.012-.255.095-.287.134-.032.038-.153.05-.153.287v1.339c0 .102.115.07.115.191 0 .122.006.536.013.58.006.045.095.07.089.135-.006.063-.02.236.02.3.037.063 0 .133.12.14.121.006.364.044.364.044s.01.045.065.083c.056.039.152.121.222.115.07-.006.236.02.3-.121.063-.14.019-.249.082-.3.064-.05.217-.14.23-.21.013-.07.102-.14.115-.287.013-.147.025-.224.07-.256.045-.031.064-.102.064-.19 0-.09.013-.269.044-.326.032-.058.185-.14.21-.217.027-.076.033-.121.078-.16.044-.038.108-.089.102-.267-.007-.179-.09-.14-.096-.204-.006-.064-.006-.192-.013-.306-.006-.115 0-.16.038-.23.039-.07.078-.058.071-.185-.007-.128.051-.236 0-.249-.051-.013-.268 0-.268 0s-.039.16-.045.223c-.006.064-.032.185-.07.224-.038.038-.064.019-.083.108-.02.09-.064.115-.077.153a1.13 1.13 0 0 0-.038.159c-.013.07-.013.16-.057.198-.045.039-.07.039-.109.077-.038.038-.032.032-.083.057-.05.026-.044.032-.082.045-.039.013.057.044-.039.013-.096-.032-.057.05-.096-.032-.038-.083-.099-.09-.094-.14.005-.052-.03-.02 0-.103.03-.082.037-.153.05-.204.013-.05.025-.057.013-.14-.013-.083-.051-.083.025-.166.077-.083.236-.287.236-.287zM10.603 20.353c.09.083.064.16.306.16h.657c.095 0 .197-.07.21-.16.013-.09-.051-.108-.108-.153a.694.694 0 0 0-.28-.108c-.065 0-.67.019-.69 0a.89.89 0 0 0-.164-.096.682.682 0 0 0-.18-.025c-.025 0-.063.05-.063.134 0 .082.032.178.076.203.045.026.236.045.236.045zM18.98 21.265c.14-.013.218-.064.186-.173-.032-.108-.153-.16-.185-.287-.032-.127.096-.319.096-.319h.93s.064.428.16.523c.096.096.408.185.453.224.044.038.166 0 .076-.077a.719.719 0 0 1-.191-.44v-.478c0-.058.108-.23.191-.262s.121-.05.224-.095c.102-.045.127-.02.127-.109 0-.09.115-.261.128-.446.012-.185.012-.402.07-.472.057-.07.134-.077.249-.083.114-.007.29-.007.314-.051.024-.045.12-.064.209-.07.089-.007.344.025.401 0 .058-.026.096-.122.204-.128.109-.006.256.077.275 0a.284.284 0 0 0-.032-.236c-.051-.077-.096-.191-.121-.223-.026-.032-.051-.128-.122-.128-.07 0-.267-.102-.223-.185.045-.083.14-.14.14-.14s.115.032.09-.07c-.026-.102.013-.268-.013-.3-.025-.032-.09-.051-.172-.127-.083-.077-.147-.192-.185-.25-.038-.057-.249-.471-.293-.535-.045-.064-.236-.191-.332-.057-.096.133-.804.912-.906.994-.102.083-.172.083-.185.173-.012.089-.095.191-.197.274-.102.083-.32.28-.307.121.013-.16.026-.249 0-.408-.025-.16 0-.185-.108-.306s-.121-.115-.147-.217c-.025-.102.058-.287.09-.332.032-.044.268-.076.28-.216a.463.463 0 0 0-.044-.275c-.032-.07 0-.178.063-.248.064-.07.377-.103.536-.32.16-.216.115-.414.16-.497.044-.083 0-.198.073-.287.073-.09.105-.185.118-.223.013-.038.083-.057.05-.134-.031-.077-.088-.077-.088-.153 0-.077.006-.293.025-.293.02 0 .153-.115.166-.18.013-.063-.108-.165-.032-.248.077-.083.153-.153.217-.076.064.076.37.331.383.357.012.025-.048.53.027.593.075.064.285.115.279.35-.007.237-.153.326-.217.415-.064.09-.121.364-.02.415.103.05.224.095.313.178.09.083.166.198.249.236.083.039.198.013.236-.146.038-.16.045-.255.076-.357.032-.103.013-.154.096-.204.083-.052.243-.103.236-.25-.006-.146-.076-.56-.172-.714-.096-.153-.128-.178-.16-.255-.031-.076-.044-.108-.07-.14-.025-.032-.095-.038-.146-.083-.051-.045-.204-.045-.23-.083-.025-.038-.05-.038-.108-.102-.058-.064-.096-.14-.134-.166-.039-.025-.064-.034-.058-.077a.405.405 0 0 1 .192-.248.742.742 0 0 1 .389-.096c.095.013.216.064.261.032.045-.032.255-.172.3-.185.045-.013.102-.076.16-.057.057.019.325-.004.35-.004.026 0 .045.15-.057.22-.102.07-.3.198-.351.339-.051.14-.09.319-.032.433.057.115.262.192.37.21.109.02.242-.114.268-.044.025.07.134.255.07.325s-.07.434.077.626c.146.19.382.605.478.765.096.16.663.593.695.676.032.083.287.261.364.242.076-.019.089-.031.083-.076a.816.816 0 0 0-.109-.287c-.064-.09-.057-.191-.044-.28.012-.09.025-.167.031-.237.007-.07-.016-.146.123-.268.139-.12.139-.242.228-.312.09-.07.058-.179.032-.268-.025-.09-.05-.083-.09-.134-.037-.051-.05-.045-.07-.096-.019-.05-.114-.23-.07-.325.045-.096.02-.172.02-.172s.207-.07.237-.096c.03-.025.027-.287 0-.37-.027-.083-.129-.166-.154-.248-.026-.083.063-.185-.02-.192-.082-.006-.133-.013-.095-.064.038-.05.223-.14.319-.255.095-.115.146-.191.12-.274-.025-.083-.273-.344-.35-.402a1.061 1.061 0 0 1-.236-.242c-.045-.077-.045-.166-.191-.236-.147-.07-.21-.134-.287-.096-.077.038-.172.153-.243.16-.07.006-.204.038-.21-.013-.007-.051-.077-.064-.166-.045-.09.02-.14.102-.166.179a2.194 2.194 0 0 1-.325.478c-.083.07-.376.026-.434.032-.057.006-.3 0-.319-.006-.019-.007-.312-.21-.402-.236-.089-.026-.267-.14-.49.025-.224.166-.396.306-.55.3-.152-.006-.241-.006-.273.077a.515.515 0 0 1-.109.165c-.019.02-.166.096-.217.09-.05-.007-.172-.039-.172-.039s-.064-.05-.09-.044c-.025.006-.044.07-.037.095.006.026-.21.255-.256.472-.044.217.051.453.096.53.045.076.045.178.026.191-.02.013-.032-.006-.07.051-.039.057-.013.083-.058.115-.044.032-.05.025-.102.057-.051.032-.006.007-.102.058-.096.05.02.019-.179.095-.197.077-.178.134-.331.128-.153-.006-.306-.115-.396-.166-.089-.05-.178-.083-.197-.076-.02.006-.217.025-.306.044-.09.02-.268 0-.3-.038-.032-.038-.09-.102-.109-.166-.019-.064-.089-.363-.261-.402-.172-.038-.306-.05-.32-.114-.012-.064-.025-.205-.101-.281-.077-.077-.16-.172-.153-.255.006-.083-.172-.453-.351-.53-.179-.076-.644-.07-.772-.07-.127 0-.759.294-.963.549-.204.255-.261.28-.331.306-.07.025-.236.013-.204.14.031.128-.134.185.044.32.179.133.453.146.46.21.006.063.152-.039.165.204.013.242-.146.242.032.382.179.14.306.179.39.351.082.172.203.268.197.383-.007.115.115.268.146.344a.669.669 0 0 1 .058.357c-.026.134-.166.256-.179.44-.012.185-.032.326.013.351.045.026.128.096.249.192.121.095.121.19.05.28-.07.09-.14.242-.184.351-.045.108 0 .434 0 .574 0 .14.102.848.21.989.109.14.3.503.345.593.044.089.127-.121.146-.249.02-.128.154-.293.217-.236.064.057.102.242.09.415-.013.172.108.759.433.982.326.223.6.357.702.395.102.038.28.096.35.09z" fill="#000"/>
    <path d="M19.678 14s-.102-.217 0-.293c.102-.077.147-.217.204-.325.058-.109.122-.236.134-.3.013-.064.02-.083-.089-.051-.108.032-.186.019-.271.025-.086.007-.163.039-.233-.012-.07-.052-.127 0-.146-.14-.02-.141-.039-.23-.058-.281-.019-.051-.096-.039-.038-.16.057-.121-.026-.204.095-.255.122-.051.46-.121.39-.204-.07-.083.057-.026-.236-.166-.294-.14-.21-.131-.313-.158-.102-.027-.191.005-.21.037a.6.6 0 0 1-.173.121c-.07.038-.102.083-.185.096-.082.013-.108-.026-.184.076-.077.102-.185.236-.262.377-.077.14-.096.255-.077.255h.664s-.07.242-.14.319c-.07.076-.313.242-.288.338.026.095-.006.14-.006.14h.453s.019.025.044.108c.026.083.013.14.096.255.083.115.274.064.306.07.032.007.204-.018.204-.018s.109.095.198.146c.09.051.121 0 .121 0zM20.38 12.792c0-.032.076-.212.05-.34-.025-.128-.154-.154-.237-.173-.083-.02-.212-.084-.276-.09-.064-.006-.102-.013-.064.064.039.077.11.225.167.289.058.064.083.147.173.186.09.038.186.064.186.064zM15.652 11.958s.115-.217.23-.325c.114-.109.165-.249.26-.313.096-.063.224-.19.237-.235.012-.045.102-.173 0-.153-.102.019-.179-.02-.287.057-.108.076-.325.153-.44.23-.114.076-.408.229-.465.267-.057.038-.134.083-.051.115a.651.651 0 0 1 .236.19c.07.084.28.167.28.167zM13.562 13.144a.489.489 0 0 0 .038-.198c-.006-.05-.044-.133-.108-.101a.753.753 0 0 0-.178.159c-.013.019-.064.095-.102.114-.039.02-.09.038-.096.083-.006.045 0 .064-.032.083-.032.02 0 .013-.09.057-.088.045-.05.032-.114.077-.064.044-.057.044-.115.089-.057.045-.006.02-.114.127-.108.109-.217.166-.236.21-.02.045-.02-.012-.064.135-.044.146-.044.153-.146.26-.102.11-.191.243-.096.198.096-.044.147-.133.261-.21.115-.076.185-.121.243-.166.057-.044-.013.064.12-.076.134-.14.052-.051.134-.14.083-.09 0-.032.153-.153s.064-.045.185-.14c.121-.096.09-.096.14-.128.051-.032.058.007.083-.05.026-.058-.057.044.026-.058.083-.102-.032-.172.038-.172h.07zM26.395 16.763c.025-.032.108-.121.147-.16.038-.038.083-.013.057-.083-.025-.07.039-.204.07-.179.033.026.18.051.237.083.058.032.109.096.052.154-.058.057-.25.224-.314.275-.064.05-.179.05-.204.05-.026 0-.18.02-.154-.044.026-.064.109-.096.109-.096zM26.983 18.922c.038-.096.064-.14.057-.217a1.313 1.313 0 0 1 .001-.217c.006-.057-.039-.076-.09-.057-.05.02-.096.114-.127.242-.032.128-.032.325-.051.37-.02.044-.064.102-.07.172-.007.07-.064.114-.026.16.038.044.135.063.176.044.04-.02.104.032.13-.083.026-.115 0-.414 0-.414zM27.4 18.33c-.018-.013-.057-.09-.044-.14a.84.84 0 0 1 .115-.23c.057-.082.127-.26.216-.242.09.02.077.007.083.115.007.108-.032.578 0 .592.032.013.045.026.102.064.058.038.032.147.121.204.09.058.109.16.109.16 0 .07-.013.197-.051.267s-.051.128-.077.083c-.025-.045.013-.076-.044-.09-.058-.012-.077-.025-.115 0a.605.605 0 0 1-.172.07c-.058.014-.121.071-.172.084-.051.012-.096-.026-.045-.102a.815.815 0 0 0 .109-.3c.006-.076.025-.204-.007-.235-.032-.032-.121-.032-.102-.102.02-.07.007-.179.007-.179l-.032-.019z" fill="#000"/>
    <path d="M28.477 18.874c-.006-.37.14-.567.192-.644.05-.076.076-.16.216-.198a.667.667 0 0 0 .262-.114c.083-.058.21-.198.261-.243.051-.044.102-.178.115-.197.013-.02.172-.09.179-.262.006-.172.006-.306.07-.414.064-.109.102-.313.198-.434.095-.121.146-.338.248-.447.102-.108.147-.153.16-.19.013-.04-.038-.326 0-.466s.076-.14.102-.256c.025-.114-.128-.42-.153-.452-.026-.032.019-.026-.115.108a.952.952 0 0 0-.23.313c-.063.127-.127.172-.12.242.006.07-.116.376-.128.472-.013.095-.032.09-.102.185-.07.095-.02.095-.09.191-.07.096-.076.134-.108.172-.032.039.02.026-.051.1l-.128.134-.063.079s-.026.118-.039.154c-.012.037.051.088-.006.146-.057.057-.032-.007-.096.134-.063.14.013.312-.038.389-.051.076-.09.178-.09.05 0-.127-.018-.14-.05-.19-.032-.052-.102-.052-.122-.077-.019-.026-.025-.038-.076-.038s-.16.082-.16.082-.153.21-.184.21c-.032 0-.013-.082 0-.248.012-.166.12-.395.127-.427.007-.032-.038-.16.026-.236.063-.077.133-.134.165-.262.032-.127.102-.178.147-.274.045-.096.115-.064.083-.16-.032-.095-.038-.49.02-.567.057-.077.044-.147.127-.217s.006-.076.127-.083c.122-.006.266-.076.245-.185-.021-.108-.123-.153-.072-.242.05-.09.127-.166.159-.268.032-.102-.02-.357.07-.466.09-.108.083-.35.121-.414.039-.064-.057-.294 0-.408.058-.115-.044-.421.07-.37.115.05.453.434.587.542.134.108.383.408.51.517.128.108.402.274.326.401-.077.128-.179.166-.249.236-.07.07-.09.064-.102.166-.013.102.051.255.025.332-.025.076-.019.166-.044.178-.026.013-.058.173-.026.173s.109.063.21-.032c.103-.096.084-.013.148-.147.063-.134.05-.096.095-.242.045-.147.134-.37.172-.377.039-.006.204.115.21.21.007.097-.031.071.122.199.153.127.28.42.344.522.064.103.37.562.523.76.154.197.358.484.338.599-.019.115-.048.319.002.364.05.044.24.35.285.465.045.115.224.472.25.549.025.076.114.516.19.65a.762.762 0 0 1 .115.326c0 .07-.05.025 0 .12.051.096.02.32.07.396.051.077.02.128.032.204a.648.648 0 0 0 .096.262c.051.064.07.095.064.204-.007.108-.032.319.032.395a.35.35 0 0 1 .07.262c-.006.095-.032.325-.07.261-.039-.064-.083-.178-.192-.261-.108-.083-.114-.083-.197-.109-.083-.025-.358.026-.358.026s.026.29.013.355c-.013.066-.032.111.058.175.089.063.102.076.114.171.013.096.013.096.051.147.039.051.166.121.326.121s.328.128.256.428c-.071.3.094.982-.193 2.385-.286 1.403-.867 2.89-1.288 3.616-.42.727-.561.995-.682.976-.121-.02-.236-.083-.23-.28.007-.198.007-.358.051-.479.045-.121.032-.21.083-.364.051-.153-.02-.363.038-.465.058-.102.14-.402.147-.593.006-.192-.02-.6-.013-.715.007-.114-.044-.19.051-.267.096-.077.274-.275.313-.44.038-.166-.07-.23-.115-.281-.045-.051-.268 0-.338.064-.07.063-.274.261-.402.338-.127.076-.249.325-.752.21-.504-.115-.587-.05-.798-.153-.21-.102-.306-.14-.395-.223-.09-.083-.006-.064-.217-.14-.21-.077-.255-.032-.51-.211-.255-.178-.708-.414-.772-.465a4.153 4.153 0 0 1-.293-.307c-.026-.032-.02-.05-.109-.14-.089-.09-.095-.057-.134-.16-.038-.101.122-.19-.032-.44-.153-.248-.184-.37-.14-.427.045-.057.09-.09.026-.191-.064-.102-.128-.007-.058-.172.07-.166.051-.3.096-.377.044-.076-.026-.006.064-.153.089-.146.07-.115.102-.204.032-.09-.01-.076.085-.217.093-.14.138-.166.189-.236.051-.07.517-.35.772-.395.255-.045.44-.134.478-.16a.368.368 0 0 1 .23-.032c.076.02.287-.025.542-.006.255.02.414.064.561-.032.147-.095.306-.032.498-.268.19-.236.082-.42.204-.42.12 0 .223.057.408.12.185.064.115.154.44.14.325-.012.51.026.491-.101-.02-.128.038-.147-.02-.172-.056-.026-.133.006-.133-.102 0-.109-.007-.358.025-.402.032-.045.09-.006.083-.14-.006-.134-.038-.202.02-.223l.057-.02s-.051-.025-.077-.108c-.025-.083.007-.262-.095-.236-.102.025-.147.025-.198.076-.051.051-.02.02-.115.09-.096.07-.134.082-.23.165-.095.083-.006.21-.197.25-.192.037-.306.12-.262 0 .045-.122.013-.218.07-.269.058-.05.109-.127.198-.217.09-.089.115-.102.115-.184 0-.083-.051-.109-.07-.103-.02.007-.109-.044-.083-.044.026 0 .191 0 .217-.102.025-.102-.051-.039.025-.102.077-.064.147-.185.21-.25.065-.063 0-.05.084-.114.083-.064.006-.102.134-.153.127-.051.236-.025.23-.153-.007-.128.044-.363.031-.42-.013-.058-.102.005-.121-.071-.02-.077-.134-.121-.16-.102-.025.019.007.064-.095.057-.102-.006-.128-.019-.255-.006-.128.013-.351 0-.37.038-.02.038-.077.02-.07.115.006.096-.102.108-.02.255.083.147.102.153.109.35.006.199.032.326.013.434-.02.109.108.166-.09.23-.197.064-.204.064-.274.093-.07.028-.057.08-.095.111-.039.032-.007.064-.109.134s-.115.011-.153.098c-.038.087-.172.145-.236.094a.86.86 0 0 1-.134-.128c-.045-.051-.006 0-.064-.128-.057-.127-.025-.14-.083-.146-.057-.007-.102-.064-.12.032-.02.095-.103.293-.014.376.09.083.147.006.128.134-.02.127.038.217-.076.21-.115-.006-.103.039-.205-.006s.007.076-.102-.045c-.108-.12-.057-.178-.16-.16-.101.02-.146.077-.197.11-.05.031-.07.031-.07.14 0 .108-.083.267-.128.248-.044-.019-.134-.16-.165-.108-.032.05-.25.242-.268.35-.02.11-.128.256-.16.307-.032.05.051.044-.057.121s-.083.11-.223.173c-.14.063-.198 0-.236 0-.039 0-.096-.103-.14-.154-.045-.05-.077-.108-.058-.16.02-.05.045-.07.057-.152.013-.083.039-.192.051-.275.013-.083.013-.102.064-.185.051-.083.236-.306.242-.376.007-.07.032-.108-.006-.14-.038-.032-.032-.53-.032-.53zM23.762 26.94c.159 0 .287-.102.28-.21-.006-.109-.057-.128.007-.236.063-.109.134-.154.165-.192.032-.038.064-.038.122-.146.057-.109-.026-.058.07-.16.095-.102.146-.23.217-.261.07-.032.23-.185.248-.243.02-.057.077-.236 0-.312a.811.811 0 0 0-.3-.16c-.057-.013-.114-.019-.286-.14-.173-.121-.179-.121-.3-.223-.121-.102-.007-.128-.179-.166-.172-.038-.204-.038-.242-.077-.038-.038-.096-.178-.14-.248-.045-.07-.109-.134-.205-.147-.095-.013-.255-.077-.312-.14a.445.445 0 0 1-.128-.236c-.019-.109-.025-.109-.114-.179-.09-.07-.16-.096-.236-.16-.077-.063-.147-.063-.236-.095a2.595 2.595 0 0 1-.236-.096 4.186 4.186 0 0 1-.568-.402c-.07-.076-.121-.248-.274-.204-.153.045-.185.172-.326.153-.14-.019-.427-.076-.401-.025.025.05.185.134.172.255-.013.121-.204.325-.255.383-.051.057-.102.191-.192.28-.089.09-.006.058-.165.166-.16.108-.077.013-.204.198-.128.185-.198.21-.23.242s-.032.09-.07.192c-.039.102-.032.14-.07.23-.039.088-.045.229-.051.33-.007.103.108.409.184.505.077.095.09.216.173.274a.722.722 0 0 0 .134.083c.019.006.223.032.261.153.038.121.121.255.128.338.006.083.032.064.089.121.057.057.083.083.147.115.063.032.076-.006.146.076.07.083.115.14.128.25.013.108-.038.133-.077.197-.038.064-.082.733-.063.905.019.173-.07.268-.14.39-.07.12-.16.12-.198.184-.039.064-.026.084-.039.154-.013.07.09.446.026.574-.064.127-.051.07-.096.216-.045.147-.025.185-.045.287-.019.102-.057.18-.057.25s.051.101.057.395c.007.293-.063.427-.089.51-.025.083-.044.204-.057.268-.013.064-.102.217.044.172.147-.045.204-.166.338-.223.134-.058.211.019.32-.09.108-.108.057-.082.184-.153.128-.07.064-.006.14-.165.077-.16.11-.153.096-.262-.012-.108-.057-.076-.025-.185.032-.108-.013-.198.05-.338.065-.14.096-.198.122-.249.026-.05-.006-.089.179-.236.185-.146.23-.127.261-.261.032-.134-.076-.632.032-.734.108-.102.102-.165.217-.274.115-.108.121-.166.223-.166.102 0 .198-.057.325-.083.128-.025.185-.082.262-.153.076-.07.076-.114.127-.185.051-.07-.006.007.077-.114.083-.122.032-.102.096-.166.063-.064.032-.064.159-.153.128-.09.242-.198.364-.185.12.012.236-.013.236-.013z" fill="#000"/>
    <path d="M1.784 18.428c-.411-.042-.79.054-.864.528-.104.664.611.866 1.51 1.008.898.141 1.64.169 1.745-.495.105-.664-.682-.838-1.2-.92l-.12.768-.392-.062.19-1.203 2.02.318-.058.36-.528-.084-.001.01a.874.874 0 0 1 .472.934c-.16 1.013-1.162 1.039-2.207.874-.98-.154-1.992-.498-1.823-1.57.176-1.116 1.133-.993 1.335-.967l-.079.501zM1.377 15.702l.21-.616 4.065.264-.163.48-1.113-.081-.404 1.19.928.623-.163.48-3.36-2.34zm2.25 1.015.341-1.002-1.961-.137-.004.01 1.625 1.129zM2.389 13.02l.407-.707 3.096.877.005-.01L3.59 10.94l.408-.707L7.405 12.2l-.242.42-2.978-1.72-.006.01 2.543 2.473-.242.42-3.414-.965-.005.01 2.978 1.719-.243.42L2.39 13.02zM4.863 9.146l.303-.378 3.074 2.456-.303.379-3.074-2.457zM5.998 7.765l.452-.436 3.218 1.457.008-.008-2.283-2.36.348-.338 2.735 2.829-.48.463-3.12-1.412-.008.007 2.214 2.29-.349.337-2.735-2.829zM11.033 5.029c-.249-.33-.576-.542-.975-.275-.558.374-.22 1.036.286 1.792.507.755.991 1.319 1.55.944.558-.374.151-1.07-.14-1.505l-.646.433-.22-.33 1.01-.678 1.14 1.698-.303.203-.297-.444-.01.006a.873.873 0 0 1-.364.98c-.851.572-1.551-.146-2.14-1.025-.553-.824-.988-1.8-.087-2.404.939-.63 1.499.156 1.617.323l-.421.282zM13.736 2.436l.457-.163 1.174 3.303 1.505-.535.144.405-1.963.697-1.317-3.707zM17.539 1.318l.64-.119 1.76 3.675-.5.093-.473-1.01-1.235.229-.09 1.115-.498.093.396-4.076zm.216 2.46 1.04-.194-.84-1.777-.01.002-.19 1.969zM20.277.923l1.207-.02c.512-.01 1.012.225 1.026.99.006.359-.203.72-.56.831v.011c.488.108.709.473.717.958.014.799-.432 1.132-1.253 1.146l-1.07.018-.067-3.934zm.514 1.689.557-.01c.204-.003.666-.06.655-.667-.007-.407-.215-.64-.689-.633l-.545.01.022 1.3zm.032 1.84.661-.011c.512-.009.683-.359.676-.74-.009-.54-.36-.743-.784-.735l-.578.01.025 1.476zM26.077 3.307c-.156.98-.5 1.99-1.572 1.82-1.072-.17-1.087-1.237-.932-2.217.155-.98.5-1.99 1.572-1.82 1.072.169 1.087 1.237.932 2.217zm-2.003-.318c-.143.898-.171 1.642.493 1.747.664.105.867-.61 1.009-1.509.142-.898.17-1.64-.493-1.746-.664-.105-.867.61-1.01 1.508zM27.738 1.719l1.202.417c.583.203.833.675.63 1.263-.142.406-.43.784-.899.738l-.003.01c.31.149.4.478.31.802l-.189.646c-.122.419-.09.546-.004.652l-.552-.192c-.051-.105.008-.393.061-.58l.17-.588c.14-.523-.13-.651-.364-.733l-.62-.215-.575 1.656-.458-.16 1.29-3.716zm-.128 1.845.453.158c.27.094.765.265 1.015-.453.126-.364-.039-.678-.466-.827l-.546-.19-.456 1.312zM31.814 3.398l.57.314-.968 3.957-.444-.244.273-1.082-1.1-.605-.777.806-.444-.244 2.89-2.902zm-1.392 2.04.928.51.476-1.908-.01-.005-1.394 1.403zM32.45 8.487l-.388-.291 2.107-2.8-.788-.594.258-.343 1.969 1.48-.259.344-.792-.596-2.107 2.8zM36.746 9.854c-.719.683-1.608 1.276-2.355.488-.747-.787-.109-1.644.61-2.326.72-.683 1.609-1.276 2.356-.488.747.787.109 1.643-.61 2.326zm-1.395-1.47c-.66.625-1.135 1.197-.672 1.685.463.488 1.059.043 1.718-.583.66-.625 1.135-1.198.672-1.685-.463-.488-1.059-.044-1.718.582zM39.029 9.6l.701 1.062c.34.514.253 1.041-.266 1.385-.359.237-.818.362-1.162.041l-.01.006c.157.306.029.622-.24.826l-.542.398c-.351.259-.404.38-.4.515l-.322-.487c.024-.114.246-.308.401-.423l.492-.365c.43-.33.293-.597.156-.803l-.362-.548-1.462.967-.267-.405 3.282-2.17zm-1.223 1.389.265.4c.158.239.447.675 1.08.256.323-.213.382-.562.133-.94l-.32-.482-1.158.766zM40.848 12.592l.216.434-3.524 1.75-.216-.435 3.524-1.75zM41.597 14.172l.688 1.913-.404.146-.525-1.457-1.161.417.494 1.374-.404.146-.494-1.374-1.328.477.547 1.52-.405.145-.71-1.975 3.702-1.332zM41.926 19.14c.406-.076.66-.274.575-.73-.075-.4-.336-.598-.748-.521-1.088.204-.096 1.908-1.51 2.172-.894.168-1.271-.44-1.374-.987-.169-.905.247-1.257 1.07-1.412l.09.477c-.434.081-.894.196-.764.894.071.38.397.621.809.544 1.094-.205.118-1.911 1.537-2.177.358-.067 1.096-.048 1.28.932.137.737-.168 1.142-.876 1.285l-.089-.477zM5.968 28.002l.158.459-3.724 1.282-.158-.459 3.724-1.282zM6.646 29.828l.306.55-2.239 2.737.006.01 2.872-1.6.237.424-3.442 1.917-.324-.583 2.17-2.656-.005-.01-2.786 1.552-.236-.424 3.441-1.917zM6.499 36.587l-.321-.364 2.632-2.32-.653-.742.322-.284 1.631 1.85-.323.284-.656-.745-2.632 2.32zM10.975 35.49l1.622 1.23-.26.343-1.235-.937-.746.985 1.165.883-.26.343-1.165-.883-.853 1.126 1.288.976-.26.343-1.675-1.27 2.38-3.139zM13.7 37.397l1.154.541c.559.263.759.76.493 1.323-.182.39-.51.736-.971.641l-.005.01c.293.18.349.517.226.831l-.257.623c-.165.404-.147.535-.073.649l-.529-.249c-.04-.11.05-.391.122-.57l.23-.569c.195-.506-.06-.662-.285-.768l-.594-.279-.746 1.588-.44-.206 1.675-3.566zm-.32 1.824.434.204c.26.122.734.345 1.058-.344.164-.35.032-.68-.377-.872l-.524-.247-.591 1.259zM17.03 38.795l.614.133.574 3.49.011.002.698-3.213.475.103-.837 3.85-.652-.142-.557-3.385-.011-.002-.677 3.116-.475-.103.837-3.85zM21.549 39.44l.65-.01 1.124 3.92-.508.009-.299-1.077-1.257.02-.275 1.087-.507.008 1.072-3.957zm-.197 2.464 1.059-.017-.533-1.895h-.011l-.515 1.912zM25.983 42.94l-.477.093-.677-3.443-.969.19-.083-.421 2.42-.476.083.422-.974.192.677 3.442zM27.338 38.476l.455-.17 1.377 3.691-.455.17-1.377-3.69zM32.288 38.184c.506.855.885 1.855-.05 2.408-.936.553-1.63-.262-2.134-1.117-.506-.855-.885-1.855.05-2.408.936-.553 1.63.262 2.134 1.117zm-1.747 1.033c.463.784.915 1.375 1.494 1.033.58-.343.28-1.024-.183-1.808-.464-.784-.916-1.375-1.495-1.033-.58.343-.28 1.024.184 1.808zM32.346 35.678l.455-.435 3.212 1.48.008-.007-2.27-2.379.351-.335 2.72 2.85-.484.46-3.115-1.434-.008.007 2.201 2.308-.351.335-2.72-2.85zM35.418 32.281l.362-.54 3.863 1.309-.282.422-1.055-.368-.7 1.046.736.844-.282.422-2.642-3.135zm1.913 1.566.59-.88-1.862-.642-.006.01 1.278 1.511zM36.82 29.9l.183-.45 3.251 1.32.602-1.483.398.162-.784 1.932-3.65-1.48z" fill="#464646"/>
</svg>
