<svg width="44" height="44" viewBox="0 0 44 44" fill="none" xmlns="http://www.w3.org/2000/svg">
    <path d="M21.449 43.393C10.13 43.393.924 34.186.924 22.87c0-11.318 9.207-20.525 20.525-20.525 1.958 0 3.895.275 5.757.819a1.192 1.192 0 1 1-.668 2.29 18.167 18.167 0 0 0-5.09-.724C11.447 4.73 3.31 12.866 3.31 22.87c0 10.002 8.137 18.139 18.14 18.139 10.002 0 18.139-8.138 18.139-18.14 0-1.515-.187-3.021-.556-4.476a1.193 1.193 0 0 1 2.312-.587c.417 1.646.63 3.35.63 5.064 0 11.317-9.208 20.524-20.525 20.524z" fill="#464646"/>
    <path d="M37.054 14.42a1.193 1.193 0 0 1-1.193-1.193V2.095a1.193 1.193 0 0 1 2.386 0v11.132c0 .659-.534 1.193-1.193 1.193z" fill="#464646"/>
    <path d="M42.62 8.852H31.488a1.193 1.193 0 0 1 0-2.385H42.62a1.193 1.193 0 0 1 0 2.385zM13.295 30.142V19.477c-1.985 1.524-3.32 2.285-4.008 2.285-.328 0-.62-.13-.873-.393a1.265 1.265 0 0 1-.38-.907c0-.399.124-.692.374-.88.25-.187.692-.429 1.324-.726.946-.445 1.701-.914 2.268-1.406a9.616 9.616 0 0 0 1.506-1.652c.437-.61.722-.985.855-1.125s.383-.211.75-.211c.414 0 .746.16.996.48.25.32.375.762.375 1.324v13.418c0 1.57-.535 2.355-1.605 2.355-.477 0-.86-.16-1.149-.48-.289-.321-.433-.793-.433-1.418zM20.469 18.928c0-.781.212-1.518.638-2.21.426-.69 1.051-1.243 1.875-1.657.824-.414 1.787-.621 2.889-.621.93 0 1.746.12 2.449.363.703.242 1.289.576 1.758 1.002.468.426.816.906 1.043 1.441a4.33 4.33 0 0 1 .34 1.705c0 .766-.198 1.45-.592 2.05-.395.602-.983 1.095-1.764 1.477.664.258 1.215.596 1.652 1.014.438.418.768.902.99 1.453.223.55.334 1.162.334 1.834 0 .984-.238 1.876-.714 2.677-.477.801-1.176 1.428-2.098 1.881-.922.453-2.008.68-3.258.68-1.296 0-2.406-.227-3.328-.68-.921-.453-1.617-1.076-2.085-1.87-.47-.792-.703-1.68-.703-2.665 0-2.101.992-3.543 2.976-4.324-1.602-.75-2.402-1.933-2.402-3.55zm8.401 7.757c0-.61-.124-1.14-.374-1.594-.25-.453-.602-.8-1.055-1.043a3.182 3.182 0 0 0-1.523-.363c-.797 0-1.465.266-2.004.797-.54.531-.809 1.273-.809 2.226 0 .61.127 1.147.381 1.611.254.465.6.825 1.037 1.079.438.254.926.38 1.465.38a2.85 2.85 0 0 0 1.476-.386 2.72 2.72 0 0 0 1.032-1.09c.25-.469.375-1.008.375-1.617zm-2.929-10.007c-.734 0-1.326.228-1.775.685-.45.457-.674 1.045-.674 1.764 0 .664.23 1.217.691 1.658.461.441 1.055.662 1.782.662.367 0 .7-.058 1.001-.176.301-.117.559-.28.774-.486.215-.207.38-.453.498-.738.117-.285.176-.6.176-.944 0-.46-.104-.875-.31-1.242a2.247 2.247 0 0 0-.874-.867 2.586 2.586 0 0 0-1.289-.316z" fill="#464646"/>
</svg>
