<svg width="41" height="40" viewBox="0 0 41 40" fill="none" xmlns="http://www.w3.org/2000/svg">
    <path d="M20.454.504c-1.085 0-2.149.091-3.186.26 0 .046.005.087.005.136v17.502c0 1.404-.535 2.098-1.65 2.098-1.09 0-1.648-.694-1.648-2.098V14.76a8.353 8.353 0 0 0-1.634 7.532c1.2 4.486 5.825 7.158 10.31 5.96 4.483-1.203 7.156-5.826 5.959-10.31a8.37 8.37 0 0 0-7.217-6.199 1.565 1.565 0 0 1-1.385-1.729 1.565 1.565 0 0 1 1.728-1.384c4.77.525 8.656 3.862 9.898 8.5 1.644 6.156-2.024 12.501-8.174 14.146-6.153 1.645-12.497-2.022-14.143-8.175a11.478 11.478 0 0 1 4.306-12.29c.11-.08.23-.14.352-.188V1.835c0-.082.007-.156.012-.234C6.317 4.275.811 11.567.811 20.15c0 10.849 8.795 19.644 19.643 19.644 10.852 0 19.643-8.795 19.643-19.644C40.097 9.3 31.306.504 20.454.504z" fill="#464646"/>
</svg>
