<svg width="33" height="33" viewBox="0 0 33 33" fill="none" xmlns="http://www.w3.org/2000/svg">
    <path
        d="M16.224.665c-.885 0-1.753.075-2.6.213 0 .037.005.07.005.11v14.278c0 1.145-.437 1.711-1.346 1.711-.89 0-1.345-.566-1.345-1.71v-2.972a6.815 6.815 0 0 0-1.333 6.145 6.88 6.88 0 0 0 8.41 4.862c3.658-.981 5.84-4.753 4.862-8.41a6.828 6.828 0 0 0-5.887-5.058 1.276 1.276 0 0 1-1.13-1.41 1.276 1.276 0 0 1 1.41-1.13 9.37 9.37 0 0 1 8.074 6.935c1.342 5.021-1.65 10.198-6.668 11.54-5.02 1.342-10.195-1.65-11.538-6.67A9.364 9.364 0 0 1 10.65 9.075c.09-.066.188-.115.287-.154V1.751c0-.067.006-.128.01-.19C4.691 3.74.198 9.69.198 16.69c0 8.85 7.176 16.026 16.026 16.026 8.853 0 16.025-7.175 16.025-16.025C32.249 7.84 25.077.665 16.224.665z"
        fill="#AAAAAA" />
</svg>