<svg width="48" height="33" viewBox="0 0 48 33" fill="none" xmlns="http://www.w3.org/2000/svg">
    <path d="M5.23 16.901h3.248v4.658H7.413v-1.45c-.293.479-.426.651-.692.878a3.242 3.242 0 0 1-2.156.812c-2.183 0-3.886-2.13-3.886-4.871 0-2.768 1.69-4.925 3.86-4.925.891 0 1.942.254 2.794 1.624v-1.45h.985v2.98H7.293c-.133-.518-.293-.85-.532-1.144-.533-.652-1.251-1.024-1.996-1.024-1.158 0-2.822.985-2.822 3.885 0 2.25 1.211 3.927 2.835 3.927 1.184 0 2.302-.972 2.568-2.223.04-.186.053-.372.067-.758H5.23V16.9zM16.476 21.56h-2.024v-1.264c-.572.892-1.344 1.398-2.395 1.398-1.33 0-2.302-.919-2.302-2.156 0-1.358 1.197-2.037 4.019-2.303.093-.013.386-.04.665-.067v-.732c0-.811-.625-1.317-1.61-1.317-1.038 0-1.504.346-1.717 1.264h-1.078c.16-.718.373-1.091.799-1.464.479-.399 1.144-.612 1.916-.612 1.464 0 2.715.679 2.715 2.475v3.94h1.011v.838zm-2.037-3.66-.652.08c-2.183.266-2.914.665-2.914 1.57 0 .746.652 1.358 1.477 1.358 1.264 0 2.09-1.198 2.09-1.85V17.9zM19.438 15.744c.32-.492.958-1.477 2.263-1.477.944 0 1.49.493 1.663 1.49.28-.478.413-.651.679-.877.466-.413.971-.613 1.53-.613 1.092 0 1.73.706 1.73 1.943v4.512h.985v.838h-2.01v-4.977c0-.998-.332-1.45-1.024-1.45-1.238 0-1.89 1.49-1.89 1.97v3.62h1.025v.837h-2.05v-5.137c0-.891-.332-1.29-1.024-1.29-1.105 0-1.89 1.37-1.89 2.022v3.567h1.011v.838h-3.074v-.838H18.4v-5.484h-1.038v-.851h2.076v1.357zM29.35 11.764h1.996v4.14c.266-.506 1.091-1.584 2.342-1.584 1.61 0 2.835 1.637 2.835 3.74 0 1.956-1.304 3.593-2.861 3.593-1.264 0-1.877-.839-2.316-1.437v1.344H29.31v-.838h1.012v-8.119h-.972v-.839zm1.996 6.775c0 1.184.958 2.236 2.05 2.236 1.224 0 2.01-1.105 2.01-2.822 0-1.65-.786-2.781-1.97-2.781-1.038 0-2.09 1.157-2.09 2.169v1.198zM37.335 11.764h2.037v8.957h.958v.839h-3.008v-.838h1.025v-8.119h-1.012v-.839zM47.248 19.59c-.147.492-.307.785-.573 1.09a2.896 2.896 0 0 1-2.25 1.026c-1.942 0-3.3-1.517-3.3-3.7 0-2.103 1.358-3.713 3.128-3.713 1.783 0 3.154 1.384 3.154 3.886H42.23c.093 1.052.333 1.637.825 2.116.373.36.812.533 1.344.533.826 0 1.331-.373 1.69-1.238h1.159zm-1.025-2.196c-.08-.892-.28-1.384-.692-1.783-.32-.293-.719-.44-1.185-.44-.865 0-1.584.586-1.903 1.531-.053.173-.12.44-.146.692h3.926zM4.006 23.265h2.249l2.582 7.852h.705v1.531H7.386l-.612-2.036h-3.3l-.613 2.036H.68v-1.53h.719l2.608-7.853zm1.131 1.757-1.25 4.152H6.36l-1.224-4.152zM9.488 25.529h2.849v1.384h-.72l.985 4.192 1.172-5.576h1.836l1.185 5.51.945-4.126h-.692v-1.384h2.861v1.384h-.612l-1.53 5.736h-1.89l-1.185-4.951-1.118 4.951h-1.916l-1.57-5.736h-.6v-1.384zM26.644 31.264h.612v1.384h-2.209v-.838c-.732.732-1.277.985-2.156.985-1.424 0-2.515-.959-2.515-2.223 0-2.09 2.355-2.316 4.631-2.528-.013-1.092-.28-1.371-1.318-1.371-.731 0-1.237.412-1.277 1.078l-1.73-.054c.093-1.424 1.238-2.342 2.928-2.342 1.97 0 3.034.892 3.034 2.515v3.394zm-1.663-1.983c-1.677.16-2.769.306-2.769 1.291 0 .585.466.972 1.172.972.904 0 1.597-.68 1.597-1.57v-.693zM30.93 26.633c.466-.905.985-1.278 1.783-1.278.24 0 .453.027.799.093v1.664a4.005 4.005 0 0 0-.865-.093c-.932 0-1.717.665-1.717 1.477v2.768h.852v1.384h-3.287v-1.384h.692v-4.352h-.68v-1.384h2.423v1.105zM40.672 30.307c-.32 1.543-1.61 2.502-3.34 2.502-1.997 0-3.46-1.557-3.46-3.74 0-2.156 1.477-3.753 3.473-3.753 1.131 0 2.13.533 2.742 1.45.652.999.678 1.943.705 2.662h-5.137c.173 1.85 1.384 1.943 1.716 1.943.706 0 1.172-.332 1.451-1.064h1.85zm-1.823-2.103c-.12-.905-.666-1.397-1.504-1.397-.772 0-1.37.519-1.597 1.397h3.1zM.705.757h3.58c1.598 0 2.196.053 2.649.253A2.444 2.444 0 0 1 8.37 3.272c0 .945-.306 1.41-1.211 1.903 1.065.44 1.557 1.105 1.557 2.342 0 1.571-1.211 2.622-3.02 2.622H.678V8.61h.732V2.287H.705V.757zm2.622 1.53v2.276h1.85c.799 0 1.344-.492 1.344-1.198 0-.625-.612-1.078-1.477-1.078H3.327zm0 3.753v2.569h1.97c.838 0 1.49-.546 1.49-1.265 0-.785-.665-1.304-1.677-1.304H3.327zM16.573 7.797c-.32 1.543-1.61 2.502-3.34 2.502-1.997 0-3.46-1.557-3.46-3.74 0-2.156 1.477-3.753 3.473-3.753 1.131 0 2.13.533 2.742 1.451.652.998.678 1.942.705 2.661h-5.137c.173 1.85 1.384 1.943 1.717 1.943.705 0 1.17-.332 1.45-1.064h1.85zM14.75 5.694c-.12-.905-.665-1.397-1.504-1.397-.772 0-1.37.519-1.597 1.397h3.1z" fill="#fff"/>
</svg>
