<svg width="33" height="33" viewBox="0 0 33 33" fill="none" xmlns="http://www.w3.org/2000/svg">
    <path d="M10.312 7.618a.989.989 0 0 0-1.399 0L.488 16.043a.989.989 0 0 0 1.399 1.399l8.425-8.426a.989.989 0 0 0 0-1.398zM20.555 15.485a.989.989 0 0 0-1.398 0l-9.614 9.614a.989.989 0 0 0 1.398 1.398l9.614-9.614a.989.989 0 0 0 0-1.398zM22.916 7.075a.989.989 0 0 0-1.398 0L11.432 17.161a.989.989 0 0 0 1.398 1.398L22.916 8.474a.989.989 0 0 0 0-1.399zM28.961 13.124a.989.989 0 0 0-1.398 0l-6.136 6.135a.989.989 0 1 0 1.399 1.399l6.135-6.136a.989.989 0 0 0 0-1.398zM19.9 4.06a.989.989 0 0 0-1.398 0l-5.873 5.874a.989.989 0 0 0 1.398 1.398L19.9 5.46a.989.989 0 0 0 0-1.398zM31.961 16.122a.989.989 0 0 0-1.398 0l-2.325 2.324a.989.989 0 0 0 1.398 1.399l2.325-2.325a.989.989 0 0 0 0-1.398zM26.854 22.28h.002v-.031a.99.99 0 0 0 0-.069v-1.768a.989.989 0 1 0-1.978 0v1.395l-9.314 9.313a.989.989 0 1 0 1.398 1.399l9.606-9.605a.984.984 0 0 0 .286-.634zM20.082 22.782V21.19a.989.989 0 1 0-1.978 0v1.394L12.55 28.14a.989.989 0 0 0 1.398 1.398l5.864-5.864a.987.987 0 0 0 .271-.892zM11.28 13.456v-1.592a.989.989 0 0 0-1.977 0v1.394l-5.8 5.8A.989.989 0 0 0 4.9 20.457l6.11-6.11a.988.988 0 0 0 .27-.891zM13.636 7.087V5.693l3.248-3.248a.989.989 0 0 0-1.398-1.399l-3.557 3.557a.988.988 0 0 0-.27.892v1.592a.989.989 0 1 0 1.977 0zM23.844 14.988v-1.395l2.094-2.094A.989.989 0 1 0 24.54 10.1l-2.403 2.404a.988.988 0 0 0-.27.892v1.592a.989.989 0 1 0 1.977 0zM10.12 20.648v-1.592a.989.989 0 1 0-1.978 0v1.395l-1.623 1.622a.989.989 0 0 0 1.398 1.399L9.85 21.54a.988.988 0 0 0 .27-.892z" fill="#fff"/>
</svg>
