<svg width="29" height="33" viewBox="0 0 29 33" fill="none" xmlns="http://www.w3.org/2000/svg">
    <path d="M4.535 30.523c-.062 1.41-1.004 2.326-2.264 2.326a2.169 2.169 0 0 1-1.678-.76C.22 31.67.02 31.128.02 30.517c0-.618.237-1.186.693-1.635.43-.43.96-.642 1.609-.642.904 0 1.603.443 1.946 1.21h-.792c-.293-.374-.705-.568-1.204-.568-.418 0-.805.162-1.098.462a1.71 1.71 0 0 0-.486 1.179c0 .467.162.892.449 1.191.305.318.723.499 1.135.499.667 0 1.191-.356 1.528-1.067H1.791v-.623h2.744zM5.225 32.763h-.68l1.734-4.435h.624l1.734 4.435h-.705l-.486-1.291H5.724l-.499 1.29zm1.366-3.6-.636 1.685h1.26l-.624-1.684zM8.878 32.763v-4.435h.954l1.285 3.43 1.285-3.43h.942v4.435h-.605l.044-3.849-1.441 3.849h-.456l-1.434-3.849.044 3.849h-.618zM16.168 32.85c-.655 0-1.21-.244-1.646-.706-.418-.442-.63-.991-.63-1.646 0-.611.23-1.173.673-1.603.437-.43.986-.655 1.616-.655 1.035 0 1.92.68 2.208 1.771h-1.173c-.237-.436-.593-.667-1.029-.667-.661 0-1.179.511-1.179 1.16 0 .705.55 1.247 1.16 1.247.418 0 .786-.224 1.023-.636h1.18c-.294 1.08-1.136 1.734-2.203 1.734zM19.466 32.763H18.28l1.703-4.435h.885l1.703 4.435h-1.198l-.218-.643h-1.465l-.225.643zm.96-2.982-.442 1.422h.88l-.438-1.422zM22.657 32.763v-4.435h1.472c.468 0 .823.031 1.123.243.393.274.599.692.599 1.241 0 .718-.375 1.254-1.005 1.428l1.086 1.523H24.59l-.849-1.429v1.429h-1.085zm1.297-2.39c.537 0 .799-.137.799-.536 0-.368-.23-.517-.711-.517h-.3v1.054h.212zM26.423 32.763v-4.435h2.408v.98h-1.322v.716h1.322v.986h-1.322v.773h1.322v.98h-2.408zM28.045 16.1a1.098 1.098 0 0 0-.39-.133c-.034-.006-.067-.007-.1-.01-.018 0-.035-.005-.054-.005h-.05c-.044-.001-.09-.004-.133 0h-8.672a1.111 1.111 0 1 0 0 2.222h3.369c.111 0 .201.091.201.202a.197.197 0 0 1-.08.155c-1.848.986-4.224 1.584-6.824 1.584a16.61 16.61 0 0 1-1.853-.104v2.522c.524.039 1.057.06 1.597.06 3.618 0 6.91-.884 9.377-2.33v.004a.218.218 0 0 1 .31.257l-.514 1.396a1.416 1.416 0 1 0 2.659.98l1.86-5.048a1.412 1.412 0 0 0-.703-1.753zM15.312 6.568c2.62 0 5.019.603 6.872 1.604 0 0 1.177.847 1.737.034.643-.933-.64-1.514-.64-1.514-2.3-1.082-5.145-1.721-8.225-1.721-.54 0-1.073.022-1.597.06v1.642c.602-.068 1.22-.105 1.853-.105zM1.996.757a1.96 1.96 0 0 0-1.96 1.96v21.38a1.96 1.96 0 0 0 1.96 1.959h11.463v-3.523c-6.897-.504-12.254-4.228-12.254-8.75 0-4.523 5.357-8.248 12.254-8.752V.757H1.996z" fill="#fff"/>
    <path d="M4.676 13.343c0 3.338 3.792 6.11 8.782 6.67V6.673c-4.99.559-8.782 3.331-8.782 6.67z" fill="#fff"/>
</svg>
