<svg width="68" height="33" viewBox="0 0 68 33" fill="none" xmlns="http://www.w3.org/2000/svg">
    <path d="M67.517.756v9.658l-3.438 1.604-5.386-6.189L67.518.756zM67.518 17.52v8.94l-11.346 6.303-9.513-11.231-9.741 5.043-5.272-5.731v-8.825l5.042 5.96 10.2-5.272 9.055 10.888 11.575-6.075z" fill="#fff"/>
    <path d="m25.33 24.091-9.322-10.698-9.933 5.043-5.24-5.939.24-.212 5.076 5.753 9.934-5.044 9.321 10.697 11.207-5.856.148.284-11.43 5.972z" fill="#fff"/>
    <path d="m25.33 25.336-9.322-10.699-9.933 5.043-5.24-5.938.24-.212 5.076 5.752 9.934-5.043 9.321 10.696 11.207-5.855.148.283-11.43 5.973z" fill="#fff"/>
    <path d="m25.33 26.583-9.322-10.698-9.933 5.042-5.24-5.938.24-.212 5.076 5.753 9.934-5.044 9.321 10.697 11.207-5.856.148.283-11.43 5.973z" fill="#fff"/>
    <path d="M25.33 27.828 16.009 17.13l-9.933 5.042-5.24-5.938.24-.212 5.076 5.753 9.934-5.044 9.321 10.696 11.207-5.855.148.284-11.43 5.972z" fill="#fff"/>
    <path d="m25.33 29.076-9.322-10.698-9.933 5.043-5.24-5.939.24-.212 5.076 5.753 9.934-5.043 9.321 10.696 11.207-5.856.148.284-11.43 5.973z" fill="#fff"/>
    <path d="M25.33 30.32 16.009 19.62l-9.933 5.043-5.24-5.938.24-.212 5.076 5.753 9.934-5.044 9.321 10.696 11.207-5.855.148.284-11.43 5.972z" fill="#fff"/>
    <path d="m25.33 31.566-9.322-10.7-9.933 5.044-5.24-5.939.24-.212 5.076 5.753 9.934-5.043 9.321 10.696 11.207-5.856.148.284-11.43 5.973z" fill="#fff"/>
    <path d="m25.33 32.809-9.322-10.7-9.933 5.044-5.24-5.939.24-.212 5.076 5.753 9.934-5.043 9.321 10.696 11.207-5.856.148.284-11.43 5.973zM36.61.945l-9.735 5.251.152.282 9.735-5.251-.151-.282zM36.612 2.093l-9.078 4.896.152.282 9.078-4.897-.152-.281zM36.613 3.184l-8.453 4.56.151.281 8.453-4.56-.151-.28zM36.61 4.332l-7.797 4.206.152.282 7.798-4.206-.152-.282zM36.614 5.585l-7.08 3.819.152.282 7.08-3.819-.152-.282zM36.608 6.658l-6.416 3.552.155.28 6.416-3.552-.155-.28zM36.611 8.02l-5.688 3.07.152.28 5.688-3.068-.152-.281zM36.61 9.1l-5.042 2.777.154.28 5.043-2.776-.154-.28z" fill="#fff"/>
</svg>
