<svg width="34" height="33" viewBox="0 0 34 33" fill="none" xmlns="http://www.w3.org/2000/svg">
    <path d="M10.389 20.343a.6.6 0 0 1-.407-.146.516.516 0 0 1-.169-.413c0-.16.058-.293.173-.398a.582.582 0 0 1 .403-.156c.147 0 .278.047.392.142.114.094.17.232.17.412a.52.52 0 0 1-.166.411.577.577 0 0 1-.396.148zm.563 1.176v3.29c0 .228-.055.4-.163.517a.539.539 0 0 1-.413.175.514.514 0 0 1-.406-.179c-.105-.12-.157-.29-.157-.513v-3.257c0-.225.052-.394.157-.508a.525.525 0 0 1 .406-.171c.167 0 .305.057.413.17.108.115.163.273.163.476zM16.177 20.308h-1.351v4.441c0 .256-.057.446-.171.57a.574.574 0 0 1-.442.185.582.582 0 0 1-.449-.188c-.115-.125-.173-.314-.173-.567v-4.44h-1.35c-.212 0-.369-.047-.472-.14a.474.474 0 0 1-.154-.37c0-.158.053-.283.16-.375.107-.092.262-.137.465-.137h3.937c.214 0 .373.047.477.141a.477.477 0 0 1 .157.371.468.468 0 0 1-.159.37c-.106.093-.264.14-.475.14zM20.102 23.468h-2.227c.003.259.055.487.157.684.101.198.236.346.404.447.168.1.354.15.557.15a1.215 1.215 0 0 0 .7-.198c.106-.069.203-.142.292-.22.09-.077.205-.183.346-.316a.374.374 0 0 1 .25-.075c.117 0 .212.032.284.096a.343.343 0 0 1 .109.27.74.74 0 0 1-.121.361 1.43 1.43 0 0 1-.365.396 2.075 2.075 0 0 1-.613.315 2.64 2.64 0 0 1-.849.125c-.73 0-1.3-.208-1.705-.625-.406-.417-.609-.983-.609-1.697 0-.337.05-.649.15-.936.1-.288.246-.535.438-.74a1.9 1.9 0 0 1 .709-.474c.28-.11.592-.165.934-.165.445 0 .826.094 1.144.282.319.188.557.43.716.728.158.297.237.6.237.909 0 .286-.082.471-.246.556-.164.085-.395.127-.692.127zm-2.227-.646h2.064c-.027-.389-.132-.68-.314-.873-.182-.194-.422-.29-.72-.29a.911.911 0 0 0-.698.294c-.182.196-.293.486-.332.87zM26.085 24.094a.982.982 0 0 1-.127.454 1.562 1.562 0 0 1-.388.461 2.003 2.003 0 0 1-.657.353 2.788 2.788 0 0 1-.892.133c-.704 0-1.253-.205-1.647-.615-.395-.41-.592-.96-.592-1.65 0-.466.09-.88.27-1.238.181-.358.443-.636.785-.832.341-.196.75-.294 1.226-.294.294 0 .565.044.81.13.246.086.455.197.626.333.171.137.302.282.392.436.09.154.136.298.136.432 0 .136-.051.251-.153.346a.522.522 0 0 1-.369.142.372.372 0 0 1-.235-.073 1.156 1.156 0 0 1-.21-.236 1.725 1.725 0 0 0-.437-.475.986.986 0 0 0-.577-.159.983.983 0 0 0-.813.394c-.206.263-.309.622-.309 1.078 0 .214.027.41.08.59.052.18.129.332.229.459.1.126.22.222.362.288.142.065.298.098.468.098.227 0 .423-.053.585-.159.163-.105.307-.267.432-.484.07-.127.145-.227.225-.3a.428.428 0 0 1 .296-.108.44.44 0 0 1 .346.158.508.508 0 0 1 .138.338zM27.977 19.874v1.689a2.43 2.43 0 0 1 .423-.396c.138-.097.29-.17.457-.219.166-.049.346-.073.538-.073.289 0 .545.061.769.183.224.123.4.3.527.534.081.137.135.289.163.457.028.168.042.362.042.582v2.18c0 .228-.052.4-.157.517a.53.53 0 0 1-.414.176c-.376 0-.563-.231-.563-.693V22.89c0-.364-.055-.644-.163-.84-.108-.196-.314-.294-.617-.294a.925.925 0 0 0-.549.173 1.04 1.04 0 0 0-.364.473c-.062.17-.092.471-.092.905v1.505c0 .226-.05.397-.152.515a.528.528 0 0 1-.424.178c-.375 0-.563-.231-.563-.693v-4.937c0-.23.05-.404.148-.519a.516.516 0 0 1 .415-.173c.181 0 .322.058.424.175.101.117.152.29.152.517zM10.75 26.762v3.615h2.039c.163 0 .287.04.374.119.087.079.13.178.13.298 0 .122-.042.22-.128.296-.086.076-.211.114-.376.114h-2.43c-.219 0-.376-.049-.472-.146-.096-.097-.144-.254-.144-.47v-3.826c0-.204.046-.356.137-.458a.462.462 0 0 1 .361-.152.48.48 0 0 1 .368.15c.093.101.14.254.14.46zM16.227 30.766c-.223.174-.44.305-.649.391-.208.087-.443.13-.703.13-.237 0-.445-.046-.625-.14a1.029 1.029 0 0 1-.415-.38.99.99 0 0 1-.146-.523c0-.253.08-.468.241-.647.16-.178.38-.298.66-.359.06-.014.205-.044.438-.091.232-.048.432-.091.598-.131.166-.04.346-.087.54-.144-.011-.244-.06-.423-.147-.537-.087-.114-.267-.171-.54-.171-.235 0-.412.033-.53.098a.862.862 0 0 0-.306.295 3.16 3.16 0 0 1-.18.26c-.034.04-.11.062-.225.062a.394.394 0 0 1-.269-.1.325.325 0 0 1-.113-.256c0-.163.057-.32.172-.474.116-.154.295-.28.54-.38.243-.1.547-.149.91-.149.407 0 .727.048.96.144a.892.892 0 0 1 .492.456c.096.208.144.483.144.827a77.48 77.48 0 0 1-.006 1.057c0 .174.028.355.086.543.058.19.086.31.086.365 0 .095-.044.181-.133.259a.449.449 0 0 1-.304.117c-.095 0-.188-.045-.28-.134a1.985 1.985 0 0 1-.296-.388zm-.06-1.338c-.136.05-.333.102-.592.157-.259.056-.438.096-.537.122a.73.73 0 0 0-.285.153.391.391 0 0 0-.135.317c0 .14.053.259.16.357a.59.59 0 0 0 .416.147c.183 0 .352-.04.506-.12a.804.804 0 0 0 .341-.31c.084-.14.125-.37.125-.691v-.132zM18.776 26.68v1.413c.173-.18.35-.319.531-.415.181-.096.405-.144.671-.144.307 0 .577.073.808.219.232.145.412.357.54.633.127.277.19.605.19.985 0 .28-.035.537-.106.77a1.827 1.827 0 0 1-.31.609 1.4 1.4 0 0 1-1.132.538c-.142 0-.276-.017-.401-.05a1.178 1.178 0 0 1-.32-.134 1.455 1.455 0 0 1-.226-.171 3.856 3.856 0 0 1-.245-.265v.092c0 .174-.042.305-.126.395a.417.417 0 0 1-.318.133.395.395 0 0 1-.314-.133c-.078-.09-.117-.221-.117-.395V26.72c0-.187.038-.33.114-.425a.38.38 0 0 1 .317-.144c.142 0 .252.046.328.137.077.092.116.222.116.391zm.044 2.748c0 .369.084.651.252.849.168.198.389.296.662.296.233 0 .433-.1.602-.303.168-.202.252-.492.252-.869 0-.244-.035-.454-.105-.63a.916.916 0 0 0-.298-.408.733.733 0 0 0-.45-.144.804.804 0 0 0-.472.144.957.957 0 0 0-.325.416c-.079.182-.118.398-.118.65zM25.24 30.08c0 .256-.063.474-.187.656-.124.182-.308.32-.55.413-.244.094-.539.141-.887.141a2.16 2.16 0 0 1-.854-.152c-.237-.102-.412-.23-.525-.382a.768.768 0 0 1-.17-.459c0-.101.037-.188.11-.26a.372.372 0 0 1 .274-.11c.097 0 .171.025.223.072a.78.78 0 0 1 .15.2c.094.165.208.288.34.37.132.08.312.121.54.121a.78.78 0 0 0 .456-.123c.119-.083.178-.177.178-.283 0-.163-.062-.281-.185-.356-.123-.075-.325-.146-.608-.213a5.053 5.053 0 0 1-.777-.25c-.2-.087-.36-.201-.48-.343a.788.788 0 0 1-.18-.526c0-.185.056-.36.167-.525.11-.165.274-.296.49-.395.215-.098.475-.147.78-.147.24 0 .455.025.646.075.19.05.35.116.477.2a.988.988 0 0 1 .292.277c.066.102.1.201.1.299a.344.344 0 0 1-.107.26c-.071.068-.172.102-.303.102a.371.371 0 0 1-.242-.081 1.597 1.597 0 0 1-.23-.244.837.837 0 0 0-.247-.217.779.779 0 0 0-.386-.081.756.756 0 0 0-.417.106c-.11.072-.166.16-.166.266 0 .098.041.177.122.24.082.061.191.113.329.153.138.041.328.09.57.15.286.07.52.153.702.25.182.097.32.212.414.344.093.132.14.283.14.452zM7.174 27.699l.154-.257-.299.011-.105-.28-.149.202a16.033 16.033 0 0 1-5.604-11.296l-.225.012A16.26 16.26 0 0 0 6.49 27.426l.05.184-.25.164.273.12-.027.298.265-.14.216.208.056-.294.296-.04-.195-.227zM3.822 18.586l-.208-.11.04-.231-.216.093-.157-.174-.016.058a8.843 8.843 0 0 1-.304-2.307h-.226c0 .845.118 1.679.347 2.483l-.096.006.139.19-.136.191.235.009.066.226.153-.178.217.089-.043-.23.205-.115zM8.428 22.737l.113-.224-.25.027-.105-.228-.134.213-.08-.02a12.815 12.815 0 0 1-2.246-7.275H5.5c0 2.704.815 5.293 2.354 7.5l-.162.125.237.083-.005.252.213-.134.194.16.029-.25.245-.05-.177-.179z" fill="#fff"/>
    <path d="M21.723 13.672a7.287 7.287 0 0 0-1.73-1.404l.063.332-.53-.218-.374.434-.16-.55-.572-.023.33-.468-.34-.461.573-.034.149-.553.382.427.526-.229-.095.565.506.269-.222.123a7.7 7.7 0 0 1 1.83 1.49c.914 1.025 1.063 2.619 1.069 2.686l2.834.021c-.014-.185-.207-2.471-1.342-4.052-.843-1.174-1.642-1.851-2.19-2.223l.164.506-.762-.206-.436.658-.314-.724-.786.07.37-.698-.544-.57.776-.146.107-.782.597.517.678-.404-.031.788.739.279-.386.283c.59.387 1.465 1.109 2.384 2.39 1.254 1.747 1.42 4.195 1.426 4.299l2.064.015c-.02-.259-.384-4.634-3.191-7.194-2.501-2.28-4.849-2.487-5.851-2.574-.112-.01-.209-.019-.29-.028a9.914 9.914 0 0 0-1.07-.067l.377.89-.96-.171-.465.858-.466-.858-.96.17.38-.898-.732-.644.94-.263.046-.974.792.57.79-.57.048.974.94.263-.248.218c.201.011.415.028.64.054.078.01.17.018.277.027 1.048.092 3.502.307 6.115 2.69 3.017 2.75 3.326 7.32 3.338 7.512l1.032.015c-.014-.217-.294-3.884-2.317-6.51-2.288-2.97-4.987-3.974-5.85-4.232v.306l-.345-.223-.32.258-.042-.409-.402-.09.294-.288-.18-.37.408.05.177-.37.215.35.401-.093-.14.387.082.064c.947.28 3.692 1.313 6.059 4.385 2.162 2.806 2.401 6.61 2.41 6.771l2.692.014C32.69 7.554 25.65.77 17.023.77 8.397.769 1.356 7.554.946 16.079h21.731c-.018-.174-.19-1.55-.954-2.407z" fill="#fff"/>
</svg>
