<svg width="18" height="16" viewBox="0 0 18 16" fill="none" xmlns="http://www.w3.org/2000/svg">
    <path
        d="M4.56467 9.3754L0.622757 8.09104C0.622757 8.09104 0.151655 7.89991 0.30335 7.46649C0.334577 7.37712 0.39757 7.30107 0.586011 7.17037C1.45943 6.56157 16.7524 1.06489 16.7524 1.06489C16.7524 1.06489 17.1842 0.919385 17.4388 1.01616C17.5018 1.03567 17.5585 1.07155 17.6031 1.12015C17.6477 1.16875 17.6785 1.22832 17.6925 1.29277C17.7201 1.40659 17.7316 1.5237 17.7267 1.64071C17.7255 1.74193 17.7133 1.83575 17.704 1.98286C17.6108 3.48568 14.8235 14.7017 14.8235 14.7017C14.8235 14.7017 14.6568 15.358 14.0593 15.3805C13.9124 15.3852 13.7661 15.3603 13.6291 15.3073C13.4921 15.2543 13.3672 15.1743 13.2618 15.072C12.0892 14.0634 8.03669 11.3399 7.1412 10.7409C7.121 10.7272 7.10399 10.7092 7.09131 10.6883C7.07863 10.6674 7.07058 10.6441 7.0677 10.6198C7.05519 10.5567 7.12383 10.4785 7.12383 10.4785C7.12383 10.4785 14.1804 4.20606 14.3682 3.5476C14.3827 3.49658 14.3278 3.47141 14.254 3.49376C13.7854 3.66618 5.66059 8.79702 4.76388 9.36329C4.69933 9.38281 4.63111 9.38696 4.56467 9.3754Z"
        fill="#FBFBFB"></path>
</svg>